
<svg version="1.1"
		id="Layer_1" xmlns:cc="http://web.resource.org/cc/" xmlns:dc="http://purl.org/dc/elements/1.1/" xmlns:inkscape="http://www.inkscape.org/namespaces/inkscape" xmlns:ns1="http://sozi.baierouge.fr" xmlns:rdf="http://www.w3.org/1999/02/22-rdf-syntax-ns#" xmlns:sodipodi="http://sodipodi.sourceforge.net/DTD/sodipodi-0.dtd" xmlns:svg="http://www.w3.org/2000/svg"
		xmlns="http://www.w3.org/2000/svg" xmlns:xlink="http://www.w3.org/1999/xlink" x="0px" y="0px" viewBox="0 0 523 470"
		style="enable-background:new 0 0 523 470;" xml:space="preserve">
	<style type="text/css">
		.st0{clip-path:url(#SVGID_00000040572270073043416190000001885392198156747675_);}
		.st1{fill-opacity:0;stroke:#000000;stroke-miterlimit:10;}
		.st2{fill:none;stroke:#000000;stroke-width:8;stroke-linejoin:round;stroke-miterlimit:10;}
		.st3{fill-opacity:0;}
		.st4{fill:none;stroke:#1D1D1B;stroke-width:8;stroke-linejoin:round;stroke-miterlimit:10;}
		.st5{fill:#1D1D1B;}
		.st6{fill:none;stroke:#1D1D1B;stroke-linejoin:round;stroke-miterlimit:10;}
		.st7{fill:none;stroke:#1D1D1B;stroke-width:3;stroke-linejoin:round;stroke-miterlimit:10;}
	</style>
	<g>
		<defs>
			<rect id="SVGID_1_" width="523" height="470"/>
		</defs>
		<clipPath id="SVGID_00000159443083873306005140000004105314538475586189_">
			<use xlink:href="#SVGID_1_"  style="overflow:visible;"/>
		</clipPath>
		<g style="clip-path:url(#SVGID_00000159443083873306005140000004105314538475586189_);">
			<path class="st1" d="M0,0h523.7v470.2H0V0z"/>
			<path class="st1" d="M18.7,234.4L18.7,234.4c0-34.2,109.5-61.9,244.5-61.9l0,0c135,0,244.5,27.6,244.5,61.8l0,0
				c0,34.2-109.5,61.9-244.5,61.9l0,0C128.2,296.2,18.7,268.5,18.7,234.4z"/>
			<path class="st2" d="M18.7,234.4L18.7,234.4c0-34.2,109.5-61.9,244.5-61.9l0,0c135,0,244.5,27.6,244.5,61.8l0,0
				c0,34.2-109.5,61.9-244.5,61.9l0,0C128.2,296.2,18.7,268.5,18.7,234.4z"/>
			<path class="st1" d="M121.3,21.8L121.3,21.8C147.4,2,232,81.1,310.2,198.5l0,0c78.2,117.4,120.5,228.6,94.4,248.4l0,0
				c-26.1,19.8-110.7-59.3-188.9-176.8l0,0C137.5,152.8,95.2,41.5,121.3,21.8z"/>
			<path class="st2" d="M121.3,21.8L121.3,21.8C147.4,2,232,81.1,310.2,198.5l0,0c78.2,117.4,120.5,228.6,94.4,248.4l0,0
				c-26.1,19.8-110.7-59.3-188.9-176.8l0,0C137.5,152.8,95.2,41.5,121.3,21.8z"/>
			<path class="st3" d="M120.3,446.1L120.3,446.1c-26-19.9,16.8-130.9,95.6-247.9l0,0C294.6,81.2,379.6,2.6,405.6,22.5l0,0
				c26,19.9-16.8,130.9-95.6,247.9l0,0C231.3,387.4,146.3,466.1,120.3,446.1L120.3,446.1z"/>
			<path class="st4" d="M120.3,446.1L120.3,446.1c-26-19.9,16.8-130.9,95.6-247.9l0,0C294.6,81.2,379.6,2.6,405.6,22.5l0,0
				c26,19.9-16.8,130.9-95.6,247.9l0,0C231.3,387.4,146.3,466.1,120.3,446.1L120.3,446.1z"/>
			<path class="st5" d="M227.5,222.1L227.5,222.1c0-12.4,9.4-22.5,21.1-22.5l0,0c5.6,0,10.9,2.4,14.9,6.6c3.9,4.2,6.2,9.9,6.2,15.9
				l0,0c0,12.4-9.4,22.5-21.1,22.5l0,0C236.9,244.6,227.5,234.5,227.5,222.1z"/>
			<path class="st6" d="M227.5,222.1L227.5,222.1c0-12.4,9.4-22.5,21.1-22.5l0,0c5.6,0,10.9,2.4,14.9,6.6c3.9,4.2,6.2,9.9,6.2,15.9
				l0,0c0,12.4-9.4,22.5-21.1,22.5l0,0C236.9,244.6,227.5,234.5,227.5,222.1z"/>
			<path class="st5" d="M241.9,245.1L241.9,245.1c0-12.4,9.4-22.5,21.1-22.5l0,0c5.6,0,10.9,2.4,14.9,6.6c3.9,4.2,6.2,9.9,6.2,15.9
				l0,0c0,12.4-9.4,22.5-21.1,22.5l0,0C251.3,267.6,241.9,257.5,241.9,245.1z"/>
			<path class="st6" d="M241.9,245.1L241.9,245.1c0-12.4,9.4-22.5,21.1-22.5l0,0c5.6,0,10.9,2.4,14.9,6.6c3.9,4.2,6.2,9.9,6.2,15.9
				l0,0c0,12.4-9.4,22.5-21.1,22.5l0,0C251.3,267.6,241.9,257.5,241.9,245.1z"/>
			<path class="st5" d="M257,222.1L257,222.1c0-12.4,9.4-22.5,21.1-22.5l0,0c5.6,0,10.9,2.4,14.9,6.6c3.9,4.2,6.2,9.9,6.2,15.9l0,0
				c0,12.4-9.4,22.5-21.1,22.5l0,0C266.4,244.6,257,234.5,257,222.1z"/>
			<path class="st6" d="M257,222.1L257,222.1c0-12.4,9.4-22.5,21.1-22.5l0,0c5.6,0,10.9,2.4,14.9,6.6c3.9,4.2,6.2,9.9,6.2,15.9l0,0
				c0,12.4-9.4,22.5-21.1,22.5l0,0C266.4,244.6,257,234.5,257,222.1z"/>
			<path class="st5" d="M314.5,62.3L314.5,62.3c0-9.3,6.9-16.9,15.5-16.9l0,0c4.1,0,8.1,1.8,11,4.9c2.9,3.2,4.5,7.4,4.5,11.9l0,0
				c0,9.3-6.9,16.9-15.5,16.9l0,0C321.4,79.1,314.5,71.6,314.5,62.3z"/>
			<path class="st7" d="M314.5,62.3L314.5,62.3c0-9.3,6.9-16.9,15.5-16.9l0,0c4.1,0,8.1,1.8,11,4.9c2.9,3.2,4.5,7.4,4.5,11.9l0,0
				c0,9.3-6.9,16.9-15.5,16.9l0,0C321.4,79.1,314.5,71.6,314.5,62.3z"/>
			<path class="st5" d="M83.2,281.9L83.2,281.9c0-9.3,6.9-16.9,15.5-16.9l0,0c4.1,0,8.1,1.8,11,4.9c2.9,3.2,4.5,7.4,4.5,11.9l0,0
				c0,9.3-6.9,16.9-15.5,16.9l0,0C90.1,298.8,83.2,291.2,83.2,281.9z"/>
			<path class="st7" d="M83.2,281.9L83.2,281.9c0-9.3,6.9-16.9,15.5-16.9l0,0c4.1,0,8.1,1.8,11,4.9c2.9,3.2,4.5,7.4,4.5,11.9l0,0
				c0,9.3-6.9,16.9-15.5,16.9l0,0C90.1,298.8,83.2,291.2,83.2,281.9z"/>
			<path class="st5" d="M381.4,361.6L381.4,361.6c0-9.3,6.9-16.9,15.5-16.9l0,0c4.1,0,8.1,1.8,11,4.9c2.9,3.2,4.5,7.4,4.5,11.9l0,0
				c0,9.3-6.9,16.9-15.5,16.9l0,0C388.3,378.5,381.4,371,381.4,361.6z"/>
			<path class="st7" d="M381.4,361.6L381.4,361.6c0-9.3,6.9-16.9,15.5-16.9l0,0c4.1,0,8.1,1.8,11,4.9c2.9,3.2,4.5,7.4,4.5,11.9l0,0
				c0,9.3-6.9,16.9-15.5,16.9l0,0C388.3,378.5,381.4,371,381.4,361.6z"/>
		</g>
	</g>
</svg>
