<?xml version="1.0"?>
<svg xmlns:rdf="http://www.w3.org/1999/02/22-rdf-syntax-ns#" xmlns="http://www.w3.org/2000/svg" xmlns:cc="http://web.resource.org/cc/" xmlns:dc="http://purl.org/dc/elements/1.1/" id="svg2" viewBox="0 0 162 162" version="1.0">
 <g id="layer1">
  <g id="g6586">
   <path id="path3241" d="m158.5 81c0 42.78-34.72 77.5-77.5 77.5s-77.5-34.72-77.5-77.5 34.72-77.5 77.5-77.5 77.5 34.72 77.5 77.5z" fill="#3465a4"/>
   <path id="path3239" d="m157.08 81c0 42-34.08 76.08-76.08 76.08-41.997 0-76.082-34.08-76.082-76.08-0.0003-41.997 34.085-76.082 76.082-76.082 42-0.0003 76.08 34.085 76.08 76.082z" fill="#babdb6"/>
   <path id="rect2160" d="m17 66v56.09c6.242 9.7 14.614 17.9 24.469 23.91h79.061c8.34-5.09 15.64-11.73 21.47-19.53v-60.47h-125z" fill="#204a87"/>
   <path id="path3134" fill="#204a87" d="m152 81h-145l25-50h95l25 50z"/>
   <path id="path6168" fill="#3465a4" d="m79.5 95c-6.188 0-12.964 2-16.5 5v4h33v-4c-3.536-3-10.312-5-16.5-5z"/>
   <path id="rect3136" fill="#d3d7cf" d="m67 103c5-5 20-5 25 0v40h-25v-40z"/>
   <path id="path3139" fill="#3465a4" d="m72 107c4-3 11-3 15 0v15h-15v-15z"/>
   <path id="path3141" fill="#3465a4" d="m89.5 128.5c0 1.38-1.12 2.5-2.5 2.5s-2.5-1.12-2.5-2.5 1.12-2.5 2.5-2.5 2.5 1.12 2.5 2.5z"/>
   <path id="path3147" fill="#d3d7cf" d="m112 96h20v25h-20v-25z"/>
   <path id="path3153" fill="#d3d7cf" d="m47 96h-20v25h20v-25z"/>
   <path id="rect3209" fill="#204a87" d="m107 23h15v9h-15v-9z"/>
   <path id="rect3212" fill="#204a87" d="m107 19h15l3 5h-21l3-5z"/>
   <path id="path6158" fill="#3465a4" d="m47 44c-5.25 0-11 2-14 5v4h28v-4c-3-3-8.75-5-14-5z"/>
   <path id="path2200" fill="#d3d7cf" d="m57 52c-5-5-15-5-20 0v25h20v-25z"/>
   <path id="path6166" fill="#3465a4" d="m112 44c-5.25 0-11 2-14 5v4h28v-4c-3-3-8.75-5-14-5z"/>
   <path id="path2202" fill="#d3d7cf" d="m122 52c-5-5-15-5-20 0v25h20v-25z"/>
   <path id="path2204" fill="#3465a4" d="m51 121h-28v4h28v-4z"/>
   <path id="path2206" fill="#3465a4" d="m51 92h-28v4h28v-4z"/>
   <path id="path2208" fill="#3465a4" d="m136 92h-28v4h28v-4z"/>
   <path id="path2210" fill="#3465a4" d="m136 121h-28v4h28v-4z"/>
   <path id="path2212" fill="#3465a4" d="m97 143h-35v3h35v-3z"/>
   <path id="path3187" fill="#3465a4" d="m61 77h-28v4h28v-4z"/>
   <path id="path3189" fill="#3465a4" d="m126 77h-28v4h28v-4z"/>
   <g id="g6154" transform="translate(-9.5 -7)">
    <path id="path6152" transform="matrix(.96 0 0 .96 81.8 25.68)" fill="#3465a4" d="m20 29.5c0 6.9-5.6 12.5-12.5 12.5s-12.5-5.6-12.5-12.5 5.6-12.5 12.5-12.5 12.5 5.6 12.5 12.5z"/>
    <path id="path5165" transform="matrix(.72914 0 0 .72914 83.531 32.49)" fill="#d3d7cf" d="m20 29.5c0 6.9-5.6 12.5-12.5 12.5s-12.5-5.6-12.5-12.5 5.6-12.5 12.5-12.5 12.5 5.6 12.5 12.5z"/>
   </g>
   <path id="rect6170" d="m76 37v6h-6v1h6v6h-6v1h6v6h1v-6h5v6h1v-6h6v-1h-6v-6h6v-1h-6v-6h-1v6h-5v-6h-1zm1 7h5v6h-5v-6z" fill="#3465a4"/>
   <path id="rect6179" fill="#3465a4" d="m111 48v9h-9v1h9v9h-9v1h9v10h2v-10h9v-1h-9v-9h9v-1h-9v-9h-2z"/>
   <path id="path6190" fill="#3465a4" d="m46 48v9h-9v1h9v9h-9v1h9v10h2v-10h9v-1h-9v-9h9v-1h-9v-9h-2z"/>
   <path id="path6192" d="m36 95v8h-9v1h9v9h-9v1h9v10h2v-10h9v-1h-9v-9h9v-1h-9v-8h-2z" fill="#3465a4"/>
   <path id="path6194" d="m121 95v8h-9v1h9v9h-9v1h9v10h2v-10h9v-1h-9v-9h9v-1h-9v-8h-2z" fill="#3465a4"/>
   <path id="path6410" fill="#729fcf" d="m87.5 127.57c0 0.66-0.531 1.19-1.185 1.19-0.653 0-1.184-0.53-1.184-1.19 0-0.65 0.531-1.18 1.184-1.18 0.654 0 1.185 0.53 1.185 1.18z"/>
   <path id="rect6478" d="m25 96h2v25h-2v-25z" fill="#3465a4"/>
   <path id="rect6480" d="m47 96h2v25h-2v-25z" fill="#3465a4"/>
   <path id="rect6482" d="m35 53h2v24h-2v-24z" fill="#3465a4"/>
   <path id="rect6484" d="m57 53h2v24h-2v-24z" fill="#3465a4"/>
   <path id="rect6486" d="m100 53h2v24h-2v-24z" fill="#3465a4"/>
   <path id="rect6488" d="m122 53h2v24h-2v-24z" fill="#3465a4"/>
   <path id="rect6490" d="m110 96h2v25h-2v-25z" fill="#3465a4"/>
   <path id="rect6492" d="m132 96h2v25h-2v-25z" fill="#3465a4"/>
  </g>
 </g>
 <metadata>
  <rdf:RDF>
   <cc:Work>
    <dc:format>image/svg+xml</dc:format>
    <dc:type rdf:resource="http://purl.org/dc/dcmitype/StillImage"/>
    <cc:license rdf:resource="http://creativecommons.org/licenses/publicdomain/"/>
    <dc:publisher>
     <cc:Agent rdf:about="http://openclipart.org/">
      <dc:title>Openclipart</dc:title>
     </cc:Agent>
    </dc:publisher>
   </cc:Work>
   <cc:License rdf:about="http://creativecommons.org/licenses/publicdomain/">
    <cc:permits rdf:resource="http://creativecommons.org/ns#Reproduction"/>
    <cc:permits rdf:resource="http://creativecommons.org/ns#Distribution"/>
    <cc:permits rdf:resource="http://creativecommons.org/ns#DerivativeWorks"/>
   </cc:License>
  </rdf:RDF>
 </metadata>
</svg>
