<?xml version="1.0" encoding="utf-8"?>
<!-- Generator: Adobe Illustrator 26.0.0, SVG Export Plug-In . SVG Version: 6.00 Build 0)  -->
<svg version="1.1"
	 id="svg5525" xmlns:cc="http://creativecommons.org/ns#" xmlns:dc="http://purl.org/dc/elements/1.1/" xmlns:inkscape="http://www.inkscape.org/namespaces/inkscape" xmlns:ns1="http://sozi.baierouge.fr" xmlns:rdf="http://www.w3.org/1999/02/22-rdf-syntax-ns#" xmlns:sodipodi="http://sodipodi.sourceforge.net/DTD/sodipodi-0.dtd" xmlns:svg="http://www.w3.org/2000/svg"
	 xmlns="http://www.w3.org/2000/svg" xmlns:xlink="http://www.w3.org/1999/xlink" x="0px" y="0px" viewBox="0 0 703.4 756.1"
	 style="enable-background:new 0 0 703.4 756.1;" xml:space="preserve">
<style type="text/css">
	.st0{fill-rule:evenodd;clip-rule:evenodd;fill:#1D1D1B;}
</style>
<g id="layer1" transform="translate(-262.31 -240.47)">
	<g id="g5570" transform="translate(406.17 212.83)">
		<g id="g5492">
			<path id="path5289" class="st0" d="M195.2,412.2c0.1,0.1-0.2,0.8-1,2.2s-2.1,3.3-4,5.7c-3.7,4.9-9.5,12-18,20
				c-4.3,4-9.2,8.3-14.9,12.6c-5.7,4.3-12.2,8.7-19.5,12.9c-7.3,4.2-15.3,8.2-24.2,11.7c-8.9,3.5-18.5,6.6-28.9,8.8c0,0,0,0,0,0
				c-9.6,2.1-19.8,3.5-30.5,4c-10.7,0.5-21.8,0.1-33.2-1.4s-23.1-4-34.7-7.8c-11.6-3.8-23.3-8.8-34.5-15.2
				c-18.6-10.6-36.1-25-51-42.6s-27-38.5-34.8-61.7c-7.9-23.5-11.2-49.2-9.2-75.1c1.6-21,6.6-41.3,14.6-60.1
				c8-18.7,19-35.7,32.1-50.2c13.1-14.4,28.2-26.3,44.6-35c17.9-9.5,37-15,55.8-16.8c10.1-1,20.2-0.9,29.9,0.1
				c9.7,1.1,19,3.1,27.8,6.1c8.8,3,17,6.8,24.6,11.2c7.6,4.4,14.4,9.4,20.6,14.8c12.3,10.7,21.8,22.9,28.6,34.9
				c3.7,6.7,6.7,13.3,9,19.8c2.3,6.4,3.9,12.6,5.1,18.5c2.3,11.7,2.7,22,2.4,30.2c-0.3,8.3-1.4,14.6-2.3,18.7
				c-0.9,4.2-1.7,6.3-2,6.2c-0.3-0.1,0-2.3,0.3-6.5c0.4-4.2,0.9-10.5,0.7-18.5s-1.1-18-3.8-29.2c-1.3-5.6-3.2-11.5-5.6-17.6
				c-2.4-6.1-5.4-12.4-9.2-18.6c-3.4-5.7-7.4-11.3-12.1-16.8c-4.7-5.5-10-10.8-15.9-15.8c-6-5-12.6-9.6-19.8-13.6
				c-7.2-4-15-7.5-23.3-10.1c-8.3-2.6-17.1-4.4-26.2-5.3c-9.1-0.9-18.6-0.8-28.1,0.2c-17.6,1.9-35.6,7.3-52.3,16.3
				c-15.3,8.3-29.5,19.5-41.8,33.3c-12.3,13.7-22.6,29.9-30.2,47.6c-7.5,17.7-12.2,37-13.7,56.9c-1.9,24.5,1.2,48.9,8.6,71.2
				c7.3,21.9,18.8,41.8,32.8,58.7s30.5,30.7,48.1,40.9c10.6,6.2,21.6,11.1,32.7,14.9c11.1,3.8,22.2,6.4,33.1,8
				c10.9,1.6,21.6,2.2,31.9,1.9c10.3-0.3,20.1-1.4,29.4-3.2c0,0,0,0,0,0c10-1.9,19.4-4.7,28.1-7.8c8.7-3.2,16.6-6.8,23.8-10.7
				c14.4-7.7,25.8-16.1,34.5-23.5c8.8-7.5,14.9-14,19.1-18.4c2.1-2.2,3.6-4,4.7-5.1C194.5,412.6,195.1,412.1,195.2,412.2
				L195.2,412.2z"/>
			<path id="path5289-6" class="st0" d="M200.9,406.8c-0.1,0.1-0.7-0.5-1.7-1.8c-0.9-1.3-2.3-3.2-3.9-5.8
				c-3.2-5.2-7.6-13.2-11.9-24.2c-2.2-5.5-4.3-11.6-6.2-18.6c-1.9-6.9-3.6-14.5-4.8-22.8c-1.2-8.3-1.9-17.3-1.9-26.8
				c0-9.5,0.7-19.6,2.5-30.1c0,0,0,0,0,0c1.6-9.7,4.1-19.7,7.6-29.8s8-20.3,13.6-30.4c5.6-10,12.3-19.9,20.1-29.3
				c7.8-9.4,16.8-18.3,26.9-26.4c16.8-13.4,36.6-24.3,58.4-31.6c21.9-7.3,45.8-10.9,70.2-9.5c24.8,1.4,49.9,7.8,73.1,19.2
				c18.9,9.2,36,21.4,50.4,35.8c14.4,14.3,26.2,30.9,34.8,48.4c8.6,17.5,14,36,16,54.4c2.2,20.1,0.2,39.9-5,58
				c-2.8,9.8-6.6,19.1-11.2,27.7c-4.6,8.6-9.9,16.5-15.9,23.6c-6,7.1-12.6,13.3-19.5,18.7c-6.9,5.4-14.1,9.9-21.3,13.7
				c-7.3,3.7-14.6,6.7-21.8,8.9c-7.2,2.2-14.3,3.8-21.2,4.7c-7.6,1-14.9,1.3-21.7,1c-6.8-0.2-13.2-1-19.1-2.1
				c-11.7-2.2-21.4-5.6-29-8.9c-7.6-3.4-13-6.7-16.6-9.1s-5.2-3.9-5.1-4.1c0.2-0.2,2.1,0.8,5.9,2.7s9.4,4.7,16.9,7.5
				c7.6,2.8,17.1,5.7,28.5,7.3c5.7,0.8,11.9,1.3,18.4,1.4c6.6,0,13.5-0.5,20.7-1.6c6.5-1.1,13.3-2.7,20.1-5c6.8-2.3,13.7-5.3,20.5-9
				c6.8-3.7,13.5-8.1,19.9-13.3c6.4-5.2,12.5-11.2,18-17.9c5.5-6.7,10.4-14.2,14.6-22.4c4.2-8.1,7.6-16.9,10.2-26.2
				c4.7-17.1,6.4-35.7,4.2-54.6c-2-17.3-7.2-34.7-15.4-51.1c-8.2-16.5-19.4-32.1-33.1-45.6c-13.7-13.5-29.9-25.1-47.8-33.8
				c-22.1-10.8-45.8-17-69.3-18.3c-23.1-1.3-45.8,2-66.7,8.7c-20.8,6.8-39.8,17-55.8,29.6c-9.7,7.6-18.3,16-25.9,24.9
				c-7.6,8.9-14.1,18.3-19.6,27.8c-5.5,9.5-10,19.3-13.5,28.9c-3.5,9.6-6.1,19.2-7.9,28.5v0c-1.9,10-2.8,19.7-3.1,29
				c-0.2,9.2,0.2,17.9,1.1,26c0.9,8.1,2.3,15.6,3.9,22.4c1.6,6.8,3.4,12.9,5.2,18.4c3.7,10.9,7.5,19,10.1,24.5
				c1.3,2.7,2.3,4.8,3,6.3C200.7,406,201,406.7,200.9,406.8L200.9,406.8z"/>
			<path id="path5289-5" class="st0" d="M201.3,402.6c0,0.2-0.8,0.2-2.4,0.2c-1.6,0-3.9-0.2-7-0.5c-6.1-0.7-15.1-2.1-26.4-5.4
				c-5.6-1.6-11.8-3.8-18.4-6.5s-13.7-6.1-20.9-10.3c-7.3-4.2-14.8-9.1-22.3-14.9c-7.5-5.9-15-12.6-22.2-20.5c0,0,0,0,0,0
				c-6.7-7.2-13-15.4-18.9-24.3c-5.8-9-11.1-18.8-15.6-29.4s-8.2-21.9-10.8-33.9c-2.6-12-4.2-24.5-4.3-37.5
				c-0.3-21.4,3.3-43.8,11-65.5c7.7-21.7,19.6-42.8,35.6-61.3c16.3-18.7,36.8-34.5,60.1-45.9c18.9-9.2,39-15.2,59.2-17.8
				c20.2-2.6,40.4-1.7,59.5,2.3s37,11.1,52.8,20.8c17.2,10.6,31.6,24.4,42.7,39.6c6,8.2,11,16.9,15,25.8c4,8.9,6.9,18,8.8,27
				c1.9,9.1,2.8,18.1,2.8,26.9c0,8.7-0.8,17.2-2.3,25.2c-1.5,8-3.7,15.6-6.4,22.7c-2.7,7.1-5.8,13.6-9.3,19.6
				c-3.9,6.6-8.1,12.5-12.5,17.7c-4.4,5.2-8.9,9.8-13.4,13.8c-4.5,4-8.9,7.3-13,10.2c-4.2,2.9-8.2,5.2-11.8,7.2
				c-7.3,3.9-13.3,6.2-17.3,7.5c-4.1,1.3-6.3,1.7-6.4,1.5c-0.1-0.3,1.9-1.2,5.8-3s9.5-4.5,16.3-8.7c6.9-4.2,15-10,23.3-18
				c4.2-4,8.3-8.6,12.4-13.7c4-5.2,7.9-10.9,11.4-17.3c3.2-5.8,6-12.1,8.4-18.9c2.4-6.8,4.3-14.1,5.5-21.7
				c1.3-7.6,1.9-15.7,1.7-23.9c-0.2-8.3-1.1-16.7-3.1-25.2c-1.9-8.5-4.8-17-8.7-25.3c-3.9-8.3-8.7-16.4-14.4-24.1
				c-10.6-14.2-24.3-27-40.5-36.8c-14.9-9-31.8-15.6-49.9-19.2s-37.2-4.4-56.3-1.9c-19.1,2.5-38.1,8.2-56.1,17
				C121,66.6,101.5,81.6,86,99.3c-15.2,17.4-26.6,37.4-34,58c-7.5,20.6-11,41.9-11,62.2c0,12.3,1.4,24.3,3.7,35.7s5.7,22.4,9.9,32.6
				c4.2,10.2,9.1,19.7,14.5,28.4c5.4,8.7,11.4,16.6,17.7,23.7c0,0,0,0,0,0c6.7,7.7,13.8,14.4,21,20.2c7.1,5.9,14.3,10.8,21.2,15.1
				c6.9,4.3,13.7,7.8,20,10.7c6.3,2.9,12.3,5.3,17.7,7.2c10.9,3.8,19.6,5.8,25.5,7.1c3,0.7,5.2,1.1,6.8,1.5
				C200.6,402.1,201.3,402.4,201.3,402.6L201.3,402.6z"/>
			<path id="path5289-8" class="st0" d="M202.1,398c-0.2-0.1,0-0.9,0.6-2.3c0.6-1.5,1.5-3.6,2.8-6.4c2.7-5.5,7.1-13.5,13.9-23.1
				c3.4-4.8,7.5-9.9,12.3-15.2c4.8-5.3,10.3-10.8,16.7-16.3c6.3-5.5,13.5-10.9,21.5-16.1c8-5.1,16.9-9.9,26.7-14.1c0,0,0,0,0,0
				c9.1-3.9,18.8-7.1,29.2-9.6s21.4-4.2,32.9-4.9c11.5-0.7,23.4-0.4,35.6,1.1c12.1,1.5,24.5,4.3,36.8,8.4
				c20.3,6.9,40.2,17.7,58.1,32.2c17.9,14.5,33.8,32.7,45.9,54c12.2,21.6,20.3,46.3,23.2,72c2.4,20.9,1.3,41.8-3,61.7
				c-4.3,19.9-11.9,38.7-22,55.3s-22.8,31.2-37.2,42.8c-15.8,12.7-33.5,21.7-51.6,27c-9.8,2.9-19.6,4.7-29.4,5.5
				c-9.7,0.8-19.3,0.5-28.4-0.7c-9.2-1.2-18-3.4-26.3-6.3s-15.9-6.5-23-10.6c-7.1-4.1-13.5-8.7-19.3-13.6
				c-5.8-4.9-10.9-10.1-15.4-15.3c-4.9-5.8-9.1-11.8-12.5-17.7c-3.5-5.9-6.3-11.7-8.5-17.2c-2.3-5.5-4-10.8-5.3-15.7
				c-1.3-4.9-2.2-9.4-2.8-13.5c-1.2-8.2-1.4-14.6-1.3-18.8c0.1-4.3,0.5-6.5,0.8-6.5c0.3,0,0.5,2.2,0.9,6.4s1.1,10.4,2.8,18.3
				c1.7,7.9,4.4,17.5,9.2,28c2.4,5.2,5.3,10.7,8.8,16.3c3.5,5.5,7.6,11.1,12.5,16.6c4.4,4.9,9.4,9.7,15,14.2
				c5.6,4.5,11.8,8.7,18.6,12.5c6.8,3.7,14.1,7,22,9.6s16.2,4.5,24.8,5.5c8.6,1,17.6,1.1,26.7,0.3c9.1-0.9,18.4-2.7,27.5-5.5
				c16.9-5.2,33.6-13.9,48.2-25.9c13.5-11,25.3-24.8,34.8-40.6c9.5-15.8,16.6-33.6,20.6-52.4c4-18.8,5-38.7,2.7-58.5
				c-2.8-24.4-10.4-47.8-21.9-68.3c-11.3-20.2-26.3-37.5-43.3-51.5c-16.9-13.9-35.8-24.4-55-31.1c-11.6-4.1-23.4-6.8-34.9-8.4
				s-23-2.1-34-1.6s-21.6,2-31.6,4.2s-19.5,5.2-28.3,8.7h0c-9.5,3.8-18.2,8.2-26.1,13c-7.9,4.8-15,9.8-21.3,15
				c-6.3,5.1-11.9,10.3-16.8,15.3c-4.9,5-9.1,9.8-12.7,14.3c-7.2,9-12,16.5-15.2,21.7c-1.6,2.6-2.8,4.6-3.7,5.9
				C202.7,397.4,202.3,398.1,202.1,398L202.1,398z"/>
			<path id="path5289-6-2" class="st0" d="M197.5,404.3c0.1-0.1,0.8,0.4,2,1.4s2.8,2.7,4.9,5c4.1,4.5,10,11.6,16.3,21.5
				c3.2,5,6.4,10.6,9.6,17c3.2,6.4,6.3,13.6,9,21.5c2.7,7.9,5.2,16.6,7,26c1.8,9.4,3,19.4,3.2,30l0,0c0.2,9.8-0.3,20.1-1.8,30.7
				s-4,21.5-7.6,32.4c-3.6,10.9-8.3,21.9-14.2,32.6c-5.9,10.7-13,21.2-21.4,31c-13.9,16.3-31.3,30.8-51.4,42.1
				c-20.1,11.3-42.9,19.3-67.1,22.6c-24.6,3.3-50.5,1.7-75.5-5.1C-10,707.7-29,699-45.9,687.6c-16.9-11.3-31.5-25.4-43.3-40.9
				c-11.7-15.6-20.5-32.7-26-50.4c-6-19.3-7.7-39.2-6-57.9c0.9-10.2,2.9-20,5.7-29.3c2.9-9.3,6.6-18.1,11.2-26.2
				c4.6-8.1,9.8-15.5,15.6-22.1c5.7-6.6,11.9-12.4,18.4-17.5c6.4-5,13.1-9.3,19.7-12.9c6.7-3.6,13.4-6.4,19.9-8.6
				c7.3-2.4,14.3-4.1,21.1-5.1c6.7-1,13.2-1.5,19.1-1.6c11.9-0.1,22.1,1.4,30.1,3.3c8.1,1.9,14,4.1,18,5.8c3.9,1.7,5.9,2.8,5.8,3.1
				c-0.1,0.3-2.2-0.4-6.3-1.6S47,423,39,421.6c-8-1.3-17.9-2.3-29.4-1.8c-5.8,0.3-11.9,0.9-18.4,2.2c-6.4,1.2-13.2,3-20,5.5
				C-41.1,432.1-54,439-66,448.9c-6,4.9-11.8,10.5-17.1,16.9c-5.3,6.3-10.2,13.3-14.3,21c-4.1,7.6-7.6,15.9-10.1,24.7
				c-2.6,8.8-4.3,18.1-5.1,27.6c-1.4,17.6,0.5,36.3,6.2,54.4c5.2,16.6,13.7,32.7,24.8,47.3s25.1,27.8,41.1,38.5
				c16,10.7,34.1,19,53.3,24.2c23.7,6.4,48.2,8,71.5,4.9c22.9-3,44.6-10.6,63.8-21.2s35.9-24.2,49.3-39.6c8.1-9.3,15-19.2,20.8-29.3
				c5.8-10.2,10.4-20.6,14-31c3.6-10.4,6.2-20.8,7.8-30.9c1.7-10.1,2.4-20,2.4-29.5l0,0c0-10.2-0.9-19.9-2.4-29
				c-1.5-9.1-3.6-17.6-6-25.3c-4.8-15.6-11-28.3-16.6-38.3c-5.7-10-10.9-17.3-14.5-22.2c-1.8-2.4-3.2-4.3-4.1-5.6
				C197.8,405.2,197.4,404.5,197.5,404.3L197.5,404.3z"/>
		</g>
		<path id="path5289-5-4" class="st0" d="M197.9,408.6c0-0.2,0.8-0.4,2.3-0.7s3.9-0.6,6.9-0.8c6.1-0.5,15.2-0.8,26.9,0.4
			c5.8,0.6,12.3,1.5,19.3,2.9c7,1.4,14.6,3.4,22.5,6.1c7.9,2.7,16.3,6.1,24.8,10.5c8.5,4.3,17.1,9.6,25.7,15.9c0,0,0,0,0,0
			c7.9,5.9,15.7,12.6,23.1,20.3c7.4,7.7,14.5,16.4,20.9,25.9c6.4,9.5,12.2,20,17,31.2c4.8,11.2,8.7,23.3,11.3,36
			c4.3,21,5.1,43.6,1.6,66.4s-11.1,45.7-23.4,66.9c-12.5,21.5-29.6,40.9-50.3,56.4c-16.8,12.6-35.4,22.3-54.8,28.7
			c-19.3,6.3-39.4,9.3-58.9,9c-19.5-0.3-38.4-3.9-55.7-10.4c-18.9-7.2-35.7-18-49.4-30.8c-7.5-7-14-14.6-19.6-22.5
			c-5.6-8-10.2-16.3-13.8-24.9c-3.6-8.6-6.2-17.3-7.8-25.9c-1.7-8.6-2.4-17.1-2.5-25.2c0-8.2,0.7-16,1.9-23.5
			c1.3-7.5,3.2-14.5,5.5-21c2.5-7.2,5.6-13.8,8.9-19.8c3.3-6,6.9-11.3,10.5-16c7.3-9.5,14.7-16.6,21.1-21.8
			c6.4-5.2,11.9-8.6,15.6-10.6c3.8-2.1,5.8-2.9,6-2.6c0.1,0.2-1.7,1.5-5.1,4c-3.4,2.5-8.5,6.2-14.4,11.7
			c-5.9,5.5-12.8,12.7-19.5,22.1c-3.3,4.7-6.6,10-9.6,15.8c-3,5.8-5.7,12.2-8,19.2c-2,6.3-3.6,13-4.7,20.2
			c-1.1,7.1-1.5,14.6-1.3,22.4c0.2,7.7,1.1,15.7,2.8,23.8c1.7,8.1,4.3,16.2,7.8,24.2c3.5,8,7.9,15.7,13.3,23.2
			c5.4,7.4,11.6,14.5,18.7,21c13.1,11.9,28.9,21.9,46.7,28.5c16.3,6.1,34.2,9.3,52.6,9.5c18.4,0.2,37.4-2.7,55.6-8.7
			c18.3-6,35.9-15.3,51.9-27.2c19.6-14.8,36-33.1,47.8-53.4c11.7-19.9,19.1-41.7,22.5-63.4c3.4-21.7,2.9-43.2-1-63.2
			c-2.4-12.1-5.9-23.6-10.4-34.4c-4.5-10.8-9.9-20.9-15.9-30.1c-6-9.2-12.6-17.7-19.6-25.2c-7-7.5-14.3-14.2-21.8-20h0
			c-8.1-6.3-16.3-11.5-24.4-15.9c-8.1-4.4-16.1-8-23.7-10.8c-7.6-2.9-14.9-5.1-21.7-6.7c-6.8-1.7-13.1-2.8-18.8-3.7
			c-11.4-1.7-20.3-2-26.4-2.2c-3-0.1-5.4-0.1-6.9-0.2C198.7,408.9,197.9,408.8,197.9,408.6L197.9,408.6z"/>
	</g>
</g>
</svg>
