<?xml version="1.0"?>
<svg xmlns:rdf="http://www.w3.org/1999/02/22-rdf-syntax-ns#" xmlns="http://www.w3.org/2000/svg" xmlns:cc="http://creativecommons.org/ns#" xmlns:xlink="http://www.w3.org/1999/xlink" xmlns:dc="http://purl.org/dc/elements/1.1/" xmlns:svg="http://www.w3.org/2000/svg" id="svg2" viewBox="0 0 234.84373 245.56269" version="1.1">
  <title id="title4458">Coffee cup icon</title>
  <g id="g4449" transform="translate(4.6328e-7 -19.844)">
    <path id="path121" d="m39.391 106.38c1.3181 29.368 9.6495 106.42 28.875 125.09h98.312c19.226-18.677 27.557-95.725 28.875-125.09h-78.031z" fill-rule="evenodd"/>
    <path id="path123" d="m-0.0000072581 239.41c5.9712 13.71 26.254 23.53 38.187 26h158.44c11.934-2.4624 32.248-12.285 38.219-26h-117.42z" fill-rule="evenodd"/>
    <path id="path3102" style="block-progression:tb;color:#000000;text-transform:none;text-indent:0" d="m187.06 106.38c-26.51 0-48.216 21.706-48.216 48.216s21.706 48.216 48.216 48.216 48.216-21.706 48.216-48.216-21.706-48.216-48.216-48.216zm0 20.001c15.701 0 28.215 12.514 28.215 28.215s-12.514 28.215-28.215 28.215-28.215-12.514-28.215-28.215 12.514-28.215 28.215-28.215z"/>
    <g id="g4444" transform="matrix(1.9755 0 0 1.9755 -641.33 -2.8213)" stroke="#000" stroke-linecap="round" stroke-width="4" fill="none">
      <path id="path7593" d="m368.38 13.473c15.257 15.917-14.094 16.96 0 33.24"/>
      <path id="path7595" d="m385.4 13.473c15.257 15.917-14.094 16.96 0 33.24"/>
      <path id="path7597" d="m402.42 13.473c15.257 15.917-14.094 16.96 0 33.24"/>
    </g>
  </g>
  <metadata>
    <rdf:RDF>
      <cc:Work>
        <dc:format>image/svg+xml</dc:format>
        <dc:type rdf:resource="http://purl.org/dc/dcmitype/StillImage"/>
        <cc:license rdf:resource="http://creativecommons.org/licenses/publicdomain/"/>
        <dc:publisher>
          <cc:Agent rdf:about="http://openclipart.org/">
            <dc:title>Openclipart</dc:title>
          </cc:Agent>
        </dc:publisher>
        <dc:title>Coffee cup icon</dc:title>
        <dc:date>2011-01-09T02:04:47</dc:date>
        <dc:description>Coffee cup based on http://www.openclipart.org/detail/50557&#xD;\nCoffee smoke based on http://www.openclipart.org/detail/22305</dc:description>
        <dc:source>http://openclipart.org/detail/104185/coffee-cup-icon-by-crazyterabyte</dc:source>
        <dc:creator>
          <cc:Agent>
            <dc:title>CrazyTerabyte</dc:title>
          </cc:Agent>
        </dc:creator>
        <dc:subject>
          <rdf:Bag>
            <rdf:li>clip art</rdf:li>
            <rdf:li>clipart</rdf:li>
            <rdf:li>coffe</rdf:li>
            <rdf:li>cup</rdf:li>
            <rdf:li>drink</rdf:li>
            <rdf:li>tea</rdf:li>
          </rdf:Bag>
        </dc:subject>
      </cc:Work>
      <cc:License rdf:about="http://creativecommons.org/licenses/publicdomain/">
        <cc:permits rdf:resource="http://creativecommons.org/ns#Reproduction"/>
        <cc:permits rdf:resource="http://creativecommons.org/ns#Distribution"/>
        <cc:permits rdf:resource="http://creativecommons.org/ns#DerivativeWorks"/>
      </cc:License>
    </rdf:RDF>
  </metadata>
</svg>
