<?xml version="1.0" encoding="utf-8"?>
<!-- Generator: Adobe Illustrator 26.0.0, SVG Export Plug-In . SVG Version: 6.00 Build 0)  -->
<svg version="1.1"
	 id="Layer_1" xmlns:cc="http://creativecommons.org/ns#" xmlns:dc="http://purl.org/dc/elements/1.1/" xmlns:inkscape="http://www.inkscape.org/namespaces/inkscape" xmlns:ns1="http://sozi.baierouge.fr" xmlns:rdf="http://www.w3.org/1999/02/22-rdf-syntax-ns#" xmlns:sodipodi="http://sodipodi.sourceforge.net/DTD/sodipodi-0.dtd"
	 xmlns="http://www.w3.org/2000/svg" xmlns:xlink="http://www.w3.org/1999/xlink" x="0px" y="0px" viewBox="0 0 652.1 667.4"
	 style="enable-background:new 0 0 652.1 667.4;" xml:space="preserve">
<style type="text/css">
	.st0{fill:#231F20;}
</style>
<g transform="translate(88.03 -249.84)">
	<path class="st0" d="M27,249.8l32.5,91.2l-0.6,6.2l47.5,33.1l-8.1,21.2l122.5,71.9l-11.2,6.9L-41.8,371.1l41.9,74.4l38.1,15
		l-11.2,25l134.4,39.4l-6.2,13.1L-88,500.5l56.2,61.2l112.5,25l115.6,86.9l23.1,10.6l25.6,82.5c13.1,9.4,60,5,60,5l49.4,55
		l-13.1,18.8l24.4,31.9l6.2-27.5l30-23.8l30.6,21.2l-11.9-40l-50,1.2l-67.5-112.5l68.8-21.9l36.2,8.1l-4.4,21.9l30.6-20.6l1.2-20
		l-21.2-16.9l-3.8-16.9L326.3,593l80-70.6L27,249.8L27,249.8z M267.6,311.7c-29.4,0-57.7,5-84.1,14.1l78.4,75.1
		c4-0.2,8.1-0.4,12.2-0.4c107.5,0,194.7,87.2,194.7,194.7c0,72.2-39.3,135.2-97.6,168.8l18.5,32c80.6-43.5,135.4-128.8,135.4-226.8
		C525.1,427,409.8,311.7,267.6,311.7L267.6,311.7z M10.7,587.3C20,721.1,131.4,826.7,267.6,826.7c17.8,0,35.2-1.8,52.1-5.2
		l-29.5-32.2c-5.3,0.4-10.6,0.6-16,0.6c-104.9,0-190.4-82.9-194.5-186.8L10.7,587.3L10.7,587.3z"/>
</g>
</svg>
