<?xml version="1.0" encoding="utf-8"?>
<!-- Generator: Adobe Illustrator 26.0.0, SVG Export Plug-In . SVG Version: 6.00 Build 0)  -->
<svg version="1.1" id="Layer_1" xmlns="http://www.w3.org/2000/svg" xmlns:xlink="http://www.w3.org/1999/xlink" x="0px" y="0px"
	 viewBox="0 0 143.6 160.6" style="enable-background:new 0 0 143.6 160.6;" xml:space="preserve">
<style type="text/css">
	.st0{fill:#000066;}
</style>
<path class="st0" d="M71.8-0.1C32.2-0.1,0,32,0,71.7c0,34.5,24.4,63.4,56.9,70.2c2.9-3.5,5.2-8.1,6.6-14.5
	c-20-3.9-35.1-21.5-35.1-42.6c0-24,19.4-43.4,43.4-43.4s43.4,19.4,43.4,43.4c0,17.8-10.7,33-26,39.7l8.3,14.1
	c27-10.3,46.1-36.4,46.1-67C143.6,32.1,111.4-0.1,71.8-0.1z"/>
<path class="st0" d="M70.7,104.8c2.3,41.2-14.5,46-28.5,55.8c15.7-5.1,51-17.2,51-17.2L70.7,104.8z"/>
</svg>
