<?xml version="1.0" encoding="utf-8"?>
<!-- Generator: Adobe Illustrator 26.0.0, SVG Export Plug-In . SVG Version: 6.00 Build 0)  -->
<svg version="1.1" id="Layer_1" xmlns="http://www.w3.org/2000/svg" xmlns:xlink="http://www.w3.org/1999/xlink" x="0px" y="0px"
	 viewBox="0 0 159.3 150.3" style="enable-background:new 0 0 159.3 150.3;" xml:space="preserve">
<style type="text/css">
	.st0{fill:#1D1D1B;}
</style>
<path class="st0" d="M141.3,41.6L141.3,41.6c-4.1-6.1-11.5-9.9-19.4-9.9c-12.7,0-23,10.3-23,23s10.3,23,23,23c1.6,0,3.2-0.2,4.7-0.5
	c-1,26.1-22.6,47.1-49,47.1c-27,0-49-22-49-49c0-12.4,4.6-23.7,12.2-32.3c4.2,5.9,11,9.8,18.8,9.8c12.7,0,23-10.3,23-23
	s-10.3-23-23-23c-3.1,0-6.2,0.6-8.9,1.8l0,0C24.3,19.1,5.6,44.9,5.6,75.2c0,39.8,32.2,72,72,72s72-32.2,72-72
	C149.6,63.1,146.6,51.6,141.3,41.6z"/>
<path class="st0" d="M153.6,3.2h-76l-1.1,1.6c7.9,5.4,13.1,14.5,13.1,24.8c0,16.5-13.5,30-30,30c-3.6,0-7.1-0.7-10.3-1.8L31.9,75.2
	H100c-5.1-5.4-8.2-12.6-8.2-20.6c0-16.5,13.5-30,30-30c3.3,0,6.4,0.5,9.4,1.5L153.6,3.2z"/>
</svg>
