<?xml version="1.0" encoding="utf-8"?>
<!-- Generator: Adobe Illustrator 26.0.0, SVG Export Plug-In . SVG Version: 6.00 Build 0)  -->
<svg version="1.1"
	 id="svg1367" inkscape:output_extension="org.inkscape.output.svg.inkscape" sodipodi:docbase="D:\Customers\ALCAN" sodipodi:docname="FRAGILE.svg" sodipodi:version="0.32" xmlns:cc="http://creativecommons.org/ns#" xmlns:dc="http://purl.org/dc/elements/1.1/" xmlns:inkscape="http://www.inkscape.org/namespaces/inkscape" xmlns:ns1="http://sozi.baierouge.fr" xmlns:rdf="http://www.w3.org/1999/02/22-rdf-syntax-ns#" xmlns:sodipodi="http://sodipodi.sourceforge.net/DTD/sodipodi-0.dtd" xmlns:svg="http://www.w3.org/2000/svg"
	 xmlns="http://www.w3.org/2000/svg" xmlns:xlink="http://www.w3.org/1999/xlink" x="0px" y="0px" viewBox="0 0 637.8 496.1"
	 style="enable-background:new 0 0 637.8 496.1;" xml:space="preserve">
<style type="text/css">
	.st0{fill:#1D1D1B;}
</style>
<sodipodi:namedview  bordercolor="#666666" borderopacity="1.0" guidetolerance="12" id="namedview1371" inkscape:current-layer="layer1" inkscape:cx="625.69217" inkscape:cy="114.41967" inkscape:document-units="mm" inkscape:guide-bbox="true" inkscape:pageopacity="0.0" inkscape:pageshadow="2" inkscape:snap-global="true" inkscape:snap-guide="false" inkscape:window-height="994" inkscape:window-width="1680" inkscape:window-x="-4" inkscape:window-y="-4" inkscape:zoom="0.69166667" pagecolor="#ffffff" showgrid="false" showguides="true" units="mm">
	</sodipodi:namedview>
<g id="layer1" inkscape:groupmode="layer" inkscape:label="Layer 1">
	<g id="g3180">
		<g id="g3307" transform="matrix(.65018 0 0 .65018 18.849 11.197)">
			<path id="path3297" class="st0" d="M193.5,557v128.4h26.2V557H193.5z M226.8,557l0.2,21.7h13.1c10.6,0,17,0.2,19.1,0.4
				c4.2,0.7,7.5,2.4,9.9,5c2.3,2.7,3.5,6.1,3.5,10.5c0,3.8-0.9,5-2.6,7.6c-1.8,2.6-4.2,4.4-7.4,5.4c-3.1,1-11,1.6-23.5,1.6h-12v21.6
				h14.2l29.6,54.5H302l-31.4-56.2c8.7-2,15.4-5.6,20.2-10.9c5.7-6.3,8.8-15.7,8.8-25.3c0-7.6-1.9-14.3-5.7-20.2
				c-3.8-5.9-8.8-10-15.1-12.3c-6.3-2.3-16.3-3.5-30.2-3.5L226.8,557L226.8,557z"/>
			<path id="path2405" sodipodi:nodetypes="ccccccccccccccc" class="st0" d="M123.7,557h54.4v21.7h-54.4V557z M123.7,609.1h46v21.7
				h-46V609.1z M116.5,685.4H90.8V557h25.7V685.4z"/>
			<path id="path2399" sodipodi:nodetypes="cccccccccccc" class="st0" d="M358.8,656.3l8.6-24h22.1L374.7,587l-33.6,98.4h-29.3
				L361.4,557h27.2l51,128.4h-30l-11.1-29.2H358.8z"/>
			<path id="path3218" class="st0" d="M501.7,557v22.5c16.4,1.9,18.8,12.2,18.5,14h27.7C539.1,571.3,526.3,557.8,501.7,557
				L501.7,557z M501.7,664v21.4c20.2-1.4,44.2-8.6,47.8-30.1v-38.5h-51.8v22.9h25.4C523.9,651.9,519.7,662.6,501.7,664z
				 M494.5,685.5V664c-20.4-2-30-24.8-29.5-44.1c0.5-19.2,10.9-39,29.5-40.5v-22.1c-39.5,2.7-53.8,26.5-55.1,63.7
				C439.8,659.2,457.7,684,494.5,685.5z"/>
			<path id="path2393" class="st0" d="M576.3,685.4V557H602v128.4H576.3z"/>
			<path id="path3301" class="st0" d="M652.9,557v128.4h-25.7V557H652.9z M660.2,685.4v-21.8h56.7v21.8H660.2z"/>
			<path id="path3261" class="st0" d="M768.2,557v21.7h61.6V557H768.2z M768.2,607.2v21.6H825v-21.6H768.2L768.2,607.2z
				 M768.2,663.8v21.6h64v-21.6H768.2z M761,685.4V557h-25.7v128.4H761z"/>
		</g>
		<path id="path1379" sodipodi:nodetypes="cccccscccccccccccccccsccccssc" class="st0" d="M242.3,341.8c4.6-5.6,33.1-17.3,47.8-19.7
			l14.8-2.4V203.6l-9.1-2.8c-12.4-3.8-30.3-16.2-39.1-27.1c-14.4-17.9-14.9-20.8-15.8-80.5l-0.8-53.9h41.8l9.3,12.9l-27.5,1.2
			l26.2,36l-25.8,1.5l38,45.8l-16.6-33.2l29.8-2l-25.5-36l25.8-1.6l-17.3-24.5h99.3l-0.8,54c-0.9,59.7-1.5,62.6-15.8,80.5
			c-8.8,10.9-26.6,23.3-39.1,27.1l-9.2,2.8l1.1,115.8l14.6,2.7c15,2.8,42.6,14.4,46.9,19.7c2,2.5-10.5,3-76.6,3
			S240.3,344.3,242.3,341.8L242.3,341.8z"/>
	</g>
</g>
</svg>
