<?xml version="1.0" encoding="utf-8"?>
<!-- Generator: Adobe Illustrator 26.0.0, SVG Export Plug-In . SVG Version: 6.00 Build 0)  -->
<svg version="1.1" id="Layer_1" xmlns="http://www.w3.org/2000/svg" xmlns:xlink="http://www.w3.org/1999/xlink" x="0px" y="0px"
	 viewBox="0 0 80 90" style="enable-background:new 0 0 80 90;" xml:space="preserve">
<style type="text/css">
	.st0{fill:#1D1D1B;}
</style>
<path class="st0" d="M24,48.2c0-3.3,1-6.4,2.7-9v-3.4l9.6-9.6c0,0,2.4-10.6,2.3-10.6v-14l-25.8,26v3.2c-3.2,5-5,11-5,17.4
	c0,3.5,0.6,6.9,1.6,10.1L24.1,49C24,48.7,24,48.5,24,48.2z"/>
<path class="st0" d="M68.2,30.8v-3.2l-25.8-26v13.9c-0.2,0,2.3,10.6,2.3,10.6l9.6,9.6v3.4c1.7,2.6,2.7,5.7,2.7,9c0,0.3,0,0.5,0,0.8
	l14.7,9.3c1-3.2,1.6-6.6,1.6-10.1C73.2,41.8,71.4,35.8,68.2,30.8z"/>
<path class="st0" d="M50.8,61L40.5,21.8L30.2,61c-2.7-2.1-4.6-5.1-5.6-8.5l-14,8.9c3.1,6.9,8.5,12.6,15.3,16l-2.9,11h35l-2.9-10.9
	c6.8-3.4,12.2-9.1,15.3-16l-14-8.9C55.5,55.9,53.5,58.9,50.8,61z"/>
</svg>
