<?xml version="1.0" encoding="utf-8"?>
<!-- Generator: Adobe Illustrator 26.0.0, SVG Export Plug-In . SVG Version: 6.00 Build 0)  -->
<svg version="1.1"
	 id="svg2160" xmlns:cc="http://web.resource.org/cc/" xmlns:dc="http://purl.org/dc/elements/1.1/" xmlns:rdf="http://www.w3.org/1999/02/22-rdf-syntax-ns#" xmlns:svg="http://www.w3.org/2000/svg"
	 xmlns="http://www.w3.org/2000/svg" xmlns:xlink="http://www.w3.org/1999/xlink" x="0px" y="0px" viewBox="0 0 658 600"
	 style="enable-background:new 0 0 658 600;" xml:space="preserve">
<style type="text/css">
	.st0{fill:none;}
	.st1{fill:#1D1D1B;}
	.st2{clip-path:url(#SVGID_00000011745709133954972510000006524378032999171743_);}
</style>
<rect id="rect2164" class="st0" width="658" height="600"/>
<g id="g2166" transform="scale(1,-1) translate(0,-600)">
	<path id="path2168" class="st1" d="M123.6,43.7c67.7-39.1,151.1-39.1,218.8,0c104.7,60.4,140.5,194.2,80.1,298.9
		c-60.4,104.7-194.2,140.5-298.9,80.1C55.9,383.6,14.2,311.3,14.2,233.2c7.3,55.4,39.9,104.2,88.3,132.2
		c86,49.6,195.9,20.2,245.5-65.8c49.6-86,20.2-195.9-65.8-245.5C233.8,26.1,175.2,22.3,123.6,43.7L123.6,43.7z"/>
	<path id="path2170" class="st1" d="M218.3,586.8c-67.7-39.1-109.4-111.3-109.4-189.5c0-120.9,98-218.8,218.8-218.8
		c120.9,0,218.8,98,218.8,218.8c0,78.2-41.7,150.4-109.4,189.5c44.3-34,70.3-86.7,70.3-142.6c0-99.2-80.5-179.7-179.7-179.7
		c-99.2,0-179.7,80.5-179.7,179.7C148,500.1,174,552.8,218.3,586.8L218.3,586.8z"/>
	<path id="path2172" class="st1" d="M641.3,233.2c0,78.2-41.7,150.4-109.4,189.5c-104.7,60.4-238.5,24.6-298.9-80.1
		c-60.4-104.6-24.6-238.5,80.1-298.9c67.7-39.1,151.1-39.1,218.8,0c-51.6-21.4-110.2-17.5-158.6,10.4
		c-86,49.6-115.4,159.5-65.8,245.5S467,415,553,365.3C601.4,337.4,634,288.5,641.3,233.2L641.3,233.2z"/>
	<g>
		<defs>
			<path id="SVGID_1_" d="M310.4,473.6l-83.2-110.4l104-75.2l104,76.8L310.4,473.6z M315.2,140.8l-96-67.2l112-64l113.6,44.8
				L315.2,140.8z"/>
		</defs>
		<clipPath id="SVGID_00000079457527977150734400000005033090805820151210_">
			<use xlink:href="#SVGID_1_"  style="overflow:visible;"/>
		</clipPath>
		<g id="use2181" style="clip-path:url(#SVGID_00000079457527977150734400000005033090805820151210_);">
			<path id="path2168_00000073702272701838051490000018236174252991636383_" class="st1" d="M123.6,43.7
				c67.7-39.1,151.1-39.1,218.8,0c104.7,60.4,140.5,194.2,80.1,298.9c-60.4,104.7-194.2,140.5-298.9,80.1
				C55.9,383.6,14.2,311.3,14.2,233.2c7.3,55.4,39.9,104.2,88.3,132.2c86,49.6,195.9,20.2,245.5-65.8c49.6-86,20.2-195.9-65.8-245.5
				C233.8,26.1,175.2,22.3,123.6,43.7L123.6,43.7z"/>
		</g>
	</g>
</g>
</svg>
