<?xml version="1.0" encoding="utf-8"?>
<!-- Generator: Adobe Illustrator 26.0.0, SVG Export Plug-In . SVG Version: 6.00 Build 0)  -->
<svg version="1.1"
	 id="svg28396" sodipodi:docname="logo-elements-44-publicdomainvectors.org.svg" xmlns:cc="http://creativecommons.org/ns#" xmlns:dc="http://purl.org/dc/elements/1.1/" xmlns:inkscape="http://www.inkscape.org/namespaces/inkscape" xmlns:rdf="http://www.w3.org/1999/02/22-rdf-syntax-ns#" xmlns:sodipodi="http://sodipodi.sourceforge.net/DTD/sodipodi-0.dtd" xmlns:svg="http://www.w3.org/2000/svg"
	 xmlns="http://www.w3.org/2000/svg" xmlns:xlink="http://www.w3.org/1999/xlink" x="0px" y="0px" viewBox="0 0 800 800"
	 style="enable-background:new 0 0 800 800;" xml:space="preserve">
<style type="text/css">
	.st0{clip-path:url(#SVGID_00000134230789788601027800000009611401155500790430_);}
	.st1{fill:#1D1D1B;}
</style>
<sodipodi:namedview  bordercolor="#666666" borderopacity="1" gridtolerance="10" guidetolerance="10" id="namedview28398" inkscape:current-layer="g28404" inkscape:cx="400" inkscape:cy="400" inkscape:pageopacity="0" inkscape:pageshadow="2" inkscape:window-height="480" inkscape:window-maximized="0" inkscape:window-width="797" inkscape:window-x="0" inkscape:window-y="0" inkscape:zoom="0.295" objecttolerance="10" pagecolor="#ffffff" showgrid="false">
	</sodipodi:namedview>
<g id="g28404" transform="matrix(1.3333333,0,0,-1.3333333,0,800)" inkscape:groupmode="layer" inkscape:label="logo-elements-44-publicdomainvectors.org">
	<g id="g28406">
		<g>
			<defs>
				<rect id="SVGID_1_" x="-100" y="-100" width="800" height="800"/>
			</defs>
			<clipPath id="SVGID_00000157285083235649826680000003177405616775510416_">
				<use xlink:href="#SVGID_1_"  style="overflow:visible;"/>
			</clipPath>
			<g id="g28408" style="clip-path:url(#SVGID_00000157285083235649826680000003177405616775510416_);">
				<g id="g28414">
					<g id="g28416">
						<g id="g28422">
							<g id="g28424">
								<path id="path28438" inkscape:connector-curvature="0" class="st1" d="M393,221.3c-21.1,1-41.7,2-61.9,3
									c-3.3,0.1-6.5,0.2-9.8,0.4c-0.8-1-1.6-1.9-2.5-2.8c-4.5-5.6-8.8-11.2-12.9-16.7c-1.3,1.6-2.6,3.2-3.8,4.8
									c-4,5.6-8.3,11.3-12.7,17.1c-0.9,0.9-1.7,1.9-2.5,2.8c-3.3-0.1-6.5-0.1-9.8-0.2c-20.2-0.6-40.9-1.2-62-1.9
									c-13.3-0.4-26.7-0.7-40.2-1c7.2,11.4,14.3,22.7,21.5,33.9c11.4,17.7,22.6,35.1,33.5,52.2c1.7,2.8,3.5,5.5,5.2,8.3
									c-0.4,1.2-0.8,2.3-1.2,3.6c-2.6,6.7-5.3,13.2-8,19.5c2,0.3,4,0.7,6,0.9c6.9,0.7,13.9,1.6,21.2,2.5c1.2,0.3,2.5,0.5,3.7,0.7
									c1.6,2.9,3.2,5.7,4.7,8.6c9.6,17.8,19.4,36,29.4,54.6c6.3,11.7,12.7,23.5,19.2,35.3c6.3-11.9,12.5-23.8,18.6-35.6
									c9.6-18.8,19.1-37.2,28.4-55.1c1.5-2.9,3.1-5.8,4.6-8.7c1.2-0.2,2.5-0.5,3.7-0.8c7.1-1.1,14.1-2,20.9-2.8
									c-0.7-1.9-1.4-3.8-2.2-5.7c-2.8-6.3-5.6-12.8-8.4-19.6c-0.4-1.2-0.8-2.4-1.2-3.6c1.7-2.8,3.4-5.6,5.1-8.4
									c10.6-17.3,21.5-34.8,32.6-52.7c7-11.3,14-22.8,20.9-34.3C419.7,220.2,406.3,220.7,393,221.3 M484.7,324.7
									c-3.8,5-7.6,9.7-11.4,14.2c-5.1,5.6-10.3,11.4-15.5,17.5c-7.5,8.1-15,15.5-22.5,22.2c-1.2,4.7-2.4,9.4-3.8,14.2
									c-2.5,7.7-4.8,15.1-7,22.3c-1.9,5.6-4,11.3-6.3,17.1c-10.9,29.3-25,60-41.8,91.4l-1.9,0.6c0.2-0.5,0.5-1.1,0.7-1.7
									c6.3-16.5,11.2-32.4,14.8-47.4c2.6-11.4,4.9-22.7,6.9-34.1c0.9-11.1,1.4-22.2,1.7-33.3c0-0.5-0.1-1-0.1-1.6
									c-2,1.4-4,2.9-6.1,4.6c-13.3,8.1-26.6,14.6-39.7,19.4c-13.5,25.9-27.5,51.8-42,77.7c-15-25.7-29.4-51.3-43.4-77
									c-13.2-4.6-26.6-10.8-40-18.7c-4.9-3.9-9.7-7-14.1-9.5c-0.3,3.8-0.5,7.6-0.6,11.5c0.5,11.1,1.2,22.2,2.3,33.3
									c2.2,11.3,4.7,22.6,7.5,34c3.8,14.9,9,30.7,15.6,47.1c0.3,0.6,0.5,1.1,0.8,1.7l-1.9-0.6c-17.4-31.2-32-61.6-43.4-90.7
									c-2.4-5.8-4.6-11.4-6.6-17c-2.3-7.2-4.7-14.6-7.4-22.2c-3.2-10.5-5.9-20.7-8-30.6c-3.5-3.3-6.9-6.8-10.4-10.4
									c-5.4-6-10.6-11.7-15.8-17.2c-3.9-4.4-7.7-9.1-11.6-14c-19.9-24.1-39.4-51.6-58.3-81.9l0.4-1.9c0.4,0.5,0.7,0.9,1.1,1.5
									c11.2,13.7,22.4,25.9,33.6,36.5c8.6,7.9,17.3,15.6,26.1,23c9.2,6.3,18.5,12.3,28,18.1c0.5,0.2,0.9,0.5,1.4,0.7
									c-0.2-2.4-0.5-4.9-1-7.6c-0.4-15.6,0.7-30.3,3.1-44.1c-15.7-24.6-31.1-49.7-46.3-75.2c29.7-0.2,59.2,0.2,88.3,0.9
									c10.6-9.2,22.7-17.7,36.2-25.3c5.9-2.3,10.9-4.8,15.3-7.5c-3.1-2.1-6.4-4.2-9.7-6.2c-9.9-5.1-19.8-10-30-14.6
									c-10.9-3.8-22-7.2-33.2-10.5c-14.9-4.2-31.1-7.5-48.6-10c-0.6,0-1.2-0.1-1.8-0.2l1.5-1.3c35.7,0.5,69.4,3.1,100.2,7.8
									c6.2,0.8,12.2,1.7,18,2.8c7.4,1.6,15,3.2,22.9,4.7c10.7,2.4,20.9,5.2,30.5,8.3c4.6-1.3,9.3-2.6,14.2-3.8
									c7.9-1.7,15.5-3.3,22.8-5.1c5.8-1.1,11.7-2.2,17.9-3.1c30.8-5.2,64.4-8.4,100.1-9.5l1.5,1.3c-0.6,0.1-1.2,0.2-1.8,0.2
									c-17.5,2.8-33.7,6.4-48.4,10.9c-11.1,3.5-22.1,7.2-33,11.1c-10.1,4.8-19.9,9.9-29.7,15.2c-0.4,0.3-0.9,0.6-1.3,0.9
									c2.2,1,4.6,2,7,2.9c13.7,7.4,25.9,15.7,36.7,24.7c29.1-1.3,58.6-2.1,88.3-2.5c-14.7,25.8-29.7,51.2-45,76
									c2.6,13.8,3.9,28.5,3.8,44c-0.9,6.2-1.3,11.9-1.1,17c3.4-1.7,6.8-3.4,10.2-5.2c9.3-6,18.6-12.2,27.7-18.6
									c8.7-7.6,17.3-15.4,25.7-23.5c11.1-10.8,22.1-23.2,33-37.1c0.4-0.5,0.7-1,1.1-1.5l0.4,1.9
									C523.2,272.4,504.2,300.3,484.7,324.7"/>
							</g>
						</g>
					</g>
				</g>
			</g>
		</g>
	</g>
</g>
</svg>
