<?xml version="1.0" encoding="utf-8"?>
<!-- Generator: Adobe Illustrator 26.0.0, SVG Export Plug-In . SVG Version: 6.00 Build 0)  -->
<svg version="1.1" id="Layer_1" xmlns="http://www.w3.org/2000/svg" xmlns:xlink="http://www.w3.org/1999/xlink" x="0px" y="0px"
	 viewBox="0 0 156 127" style="enable-background:new 0 0 156 127;" xml:space="preserve">
<style type="text/css">
	.st0{fill:#1D1D1B;}
</style>
<path class="st0" d="M153.1,6.3c-3.2,0.4-36.1,5.9-39.7,6c0,0.2-5.3,9.5-8.6,22.5c-3.3,12.9-4.6,29.4-5.6,33.3v0.1l0,0
	c-1.9,8.8-8.9,15.4-17.3,15.4c-9.8,0-17.8-9-17.8-20s8-20,17.8-20c7.1,0,13.2,4.7,16.1,11.6c0,0,2-16.8,3.2-21.4
	c1.6-6.2,8.3-21.6,8.3-21.6C101.4,7.5,92,4.8,82,4.8c-1.1,0-2.3,0-3.4,0.1c0,0,0,0-0.1,0c-2,0.1-3.7,0.2-5.9,0.7
	c-6.3,1.1-12.3,3.3-17.7,6.3l0,0c-16.6,6.8-46.5,4.4-51.8,1.4C6.3,20.8,19,51.1,19,51.1h7.5c-0.8,4-1.3,8.1-1.3,12.4
	c0,32.5,25.3,58.8,56.6,58.8c28,0,51.3-21.2,55.8-49l0,0c0,0,0-0.1,0-0.2c0.5-3.2,0.8-6.4,0.8-9.7c0-12.6,4.3-39,14.6-54.5
	C153.1,7,153.1,6.3,153.1,6.3z"/>
</svg>
