<?xml version="1.0" encoding="utf-8"?>
<!-- Generator: Adobe Illustrator 26.0.0, SVG Export Plug-In . SVG Version: 6.00 Build 0)  -->
<svg version="1.1" id="Layer_1" xmlns="http://www.w3.org/2000/svg" xmlns:xlink="http://www.w3.org/1999/xlink" x="0px" y="0px"
	 viewBox="0 0 119 86" style="enable-background:new 0 0 119 86;" xml:space="preserve">
<style type="text/css">
	.st0{fill:#1D1D1B;}
</style>
<circle class="st0" cx="60" cy="46.6" r="4.5"/>
<path class="st0" d="M63.7,3L60,13.7L56.3,3c-4.5,2.4-7.8,9.1-7.8,17c0,9.9,5.1,18,11.5,18s11.5-8.1,11.5-18
	C71.5,12.1,68.2,5.4,63.7,3z"/>
<path class="st0" d="M102.3,35.1l-11.4,0.2l8.9-7.1C96,24.7,88.6,24,81.1,26.7c-9.3,3.4-15.2,11-13,17s11.5,8.1,20.8,4.7
	C96.4,45.6,101.6,40.2,102.3,35.1z"/>
<path class="st0" d="M20.2,28.2l8.9,7.1l-11.4-0.2c0.7,5.1,5.9,10.5,13.3,13.2c9.3,3.4,18.7,1.3,20.8-4.7s-3.6-13.6-13-17
	C31.5,24,24.1,24.8,20.2,28.2z"/>
<path class="st0" d="M24.2,61.3c9.3-3.5,18.6-6.2,35.8-6.2c12,0,29.6,13.2,56,9.7c-15.8,6-20.3,7.8-27.9,7.8
	C64.5,72.6,60.7,61.3,24.2,61.3z"/>
<path class="st0" d="M3.2,71.8c9.3-3.5,18.6-6.2,35.8-6.2c12,0,29.6,13.2,56,9.7c-15.8,6-20.3,7.8-27.9,7.8
	C43.5,83.1,39.7,71.8,3.2,71.8z"/>
</svg>
