<?xml version="1.0" encoding="utf-8"?>
<!-- Generator: Adobe Illustrator 26.0.0, SVG Export Plug-In . SVG Version: 6.00 Build 0)  -->
<svg version="1.1" id="Layer_2_00000132785408907990938490000000842682916980063105_"
	 xmlns="http://www.w3.org/2000/svg" xmlns:xlink="http://www.w3.org/1999/xlink" x="0px" y="0px" viewBox="0 0 45 45"
	 style="enable-background:new 0 0 45 45;" xml:space="preserve">
<style type="text/css">
	.st0{fill:#1D1D1B;}
</style>
<g>
	<path class="st0" d="M43.9,22.5c0-11.8-9.6-21.4-21.4-21.4S1.1,10.7,1.1,22.5c0,0.1,0,0.2,0,0.4c13-1.2,16.7-6,21.4-11.1
		c5,5.4,8.4,9.9,21.4,11.1C43.9,22.7,43.9,22.6,43.9,22.5z"/>
	<path class="st0" d="M43.6,25.9c-8.1-0.8-19.2-5.5-21.1-14C20.6,20.4,9.6,25,1.4,25.9c0.5,2.9,1.5,5.5,3,7.9
		c10.3-1.7,13.5-5.6,18.1-10.7c4.6,5,7.8,9,18.1,10.7C42.1,31.5,43.1,28.8,43.6,25.9z"/>
	<path class="st0" d="M6.3,36.4c3.9,4.5,9.7,7.4,16.2,7.4s12.2-2.9,16.2-7.4c-7.1-1.9-14.6-5.9-16.2-12.7
		C21,30.6,13.5,34.5,6.3,36.4z"/>
</g>
</svg>
