<?xml version="1.0" encoding="UTF-8" standalone="no"?>
<svg
   xmlns:dc="http://purl.org/dc/elements/1.1/"
   xmlns:cc="http://creativecommons.org/ns#"
   xmlns:rdf="http://www.w3.org/1999/02/22-rdf-syntax-ns#"
   xmlns:svg="http://www.w3.org/2000/svg"
   xmlns="http://www.w3.org/2000/svg"
   xmlns:sodipodi="http://sodipodi.sourceforge.net/DTD/sodipodi-0.dtd"
   xmlns:inkscape="http://www.inkscape.org/namespaces/inkscape"
   viewBox="0 0 395.80121 763.79071"
   id="svg2"
   version="1.1"
   inkscape:version="0.92pre1_64bit r15016"
   sodipodi:docname="ship-1414820.svg"
   width="395.80121"
   height="763.79071">
  <metadata
     id="metadata60">
    <rdf:RDF>
      <cc:Work
         rdf:about="">
        <dc:format>image/svg+xml</dc:format>
        <dc:type
           rdf:resource="http://purl.org/dc/dcmitype/StillImage" />
        <dc:title></dc:title>
      </cc:Work>
    </rdf:RDF>
  </metadata>
  <defs
     id="defs58" />
  <sodipodi:namedview
     pagecolor="#ffffff"
     bordercolor="#666666"
     borderopacity="1"
     objecttolerance="10"
     gridtolerance="10"
     guidetolerance="10"
     inkscape:pageopacity="0"
     inkscape:pageshadow="2"
     inkscape:window-width="1366"
     inkscape:window-height="745"
     id="namedview56"
     showgrid="false"
     inkscape:zoom="0.56280242"
     inkscape:cx="287.1808"
     inkscape:cy="290.82196"
     inkscape:window-x="-8"
     inkscape:window-y="-8"
     inkscape:window-maximized="1"
     inkscape:current-layer="svg2"
     fit-margin-top="10"
     fit-margin-left="10"
     fit-margin-right="10"
     fit-margin-bottom="10" />
  <rect
     style="fill:#cccccc;fill-opacity:1;stroke:none;stroke-opacity:1"
     id="rect4469"
     width="16.601074"
     height="24.506348"
     x="233.81126"
     y="637.70166"
     ry="0.118413" />
  <rect
     style="fill:#000000;fill-opacity:1;stroke:none;stroke-opacity:1"
     id="rect4404-9"
     width="8.6958008"
     height="24.111084"
     x="230.44006"
     y="642.25867"
     ry="0.1184129" />
  <rect
     style="fill:#000000;fill-opacity:1;stroke:none;stroke-opacity:1"
     id="rect4404-6-7"
     width="8.6958008"
     height="24.111084"
     x="657.67395"
     y="-254.55115"
     ry="0.1184129"
     transform="rotate(90)" />
  <rect
     style="fill:#000000;fill-opacity:1;stroke:none;stroke-opacity:1"
     id="rect4404-0-0"
     width="8.6958008"
     height="24.111084"
     x="245.8783"
     y="642.23572"
     ry="0.1184129" />
  <rect
     style="fill:#cccccc;fill-opacity:1;stroke:none;stroke-opacity:1"
     id="rect4467"
     width="14.229492"
     height="19.763184"
     x="149.22484"
     y="640.86377"
     ry="0.118413" />
  <path
     sodipodi:nodetypes="ccccc"
     style="fill:#cccccc;fill-rule:evenodd"
     inkscape:connector-curvature="0"
     id="path26"
     d="m 110.35702,587.10833 15.96814,51.25772 57.57161,0.74228 15.79088,-52.10886 z" />
  <path
     style="fill:#ececec;fill-rule:evenodd;stroke:#000000;stroke-width:9.04468536"
     inkscape:connector-curvature="0"
     id="path6"
     d="M 197.01281,14.547042 C 171.86263,39.090152 -21.450402,244.794 124.97986,638.71762 h 145.8782 0.53604 C 417.82368,244.79586 224.51196,39.122542 199.36115,14.578342 Z" />
  <path
     style="fill:#000000;fill-opacity:0;fill-rule:evenodd;stroke:#000000;stroke-width:0.87965423"
     inkscape:connector-curvature="0"
     id="path10"
     d="m 104.27986,176.55266 33.58997,-79.851628 46.86974,-68.73304 13.27976,-13.14014 49.99438,67.72226 39.05811,81.873188 3.12465,17.18326 -186.69777,-1.01077" />
  <path
     style="fill:#ff0000;fill-rule:evenodd;stroke:#000000;stroke-width:10"
     inkscape:connector-curvature="0"
     id="path12"
     d="m 78.219828,480.55983 c 0,0 -107.07617,-1.3336 -42.4264,270.72095 0,0 6.06092,-227.15998 62.62946,-199.15436" />
  <path
     style="fill:#ff0000;fill-rule:evenodd;stroke:#000000;stroke-width:10"
     inkscape:connector-curvature="0"
     id="path14"
     d="m 317.58137,481.6778 c 0,0 107.07617,-1.3336 42.4264,270.72095 0,0 -6.06092,-227.15998 -62.62946,-199.15436" />
  <path
     sodipodi:nodetypes="cccccccc"
     style="fill:#d20000;fill-rule:evenodd"
     inkscape:connector-curvature="0"
     id="path18"
     d="m 341.91811,510.94898 -18.06196,46.24054 -11.62771,-7.27178 -11.85283,3.57254 17.15886,-69.36083 33.86743,14.93126 c 0,0 50.12067,38.70778 8.57817,227.36922 24.38364,-195.13512 -18.96506,-215.48095 -18.06196,-215.48095 z" />
  <path
     style="fill:#d20000;fill-rule:evenodd"
     inkscape:connector-curvature="0"
     id="path20"
     d="m 32.762968,748.25031 c 0,0 -10.06091,-220.36876 58.58885,-221.2234 7.57556,-0.0943 7.07106,24.24366 7.07106,24.24366 l -27.27412,6.06091 -21.2132,66.67007 z" />
  <path
     sodipodi:nodetypes="cccc"
     style="fill:#cccccc;fill-rule:evenodd"
     inkscape:connector-curvature="0"
     id="path40"
     d="m 267.5657,634.04828 c 0,0 115.50517,-214.55102 24.58236,-450.74912 31.69386,362.15773 -163.96868,450.88886 -163.96868,450.88886 z" />
  <path
     sodipodi:nodetypes="cccc"
     style="fill:#cccccc;fill-opacity:1;fill-rule:evenodd"
     inkscape:connector-curvature="0"
     id="path46"
     d="m 288.58189,174.50819 c 0,0 -29.84894,-101.305788 -90.91373,-154.046768 55.88981,127.559618 2.31447,153.767278 2.31447,153.767278 z" />
  <path
     style="fill:none;stroke:#ff0000;stroke-width:8.84412003;stroke-opacity:1"
     inkscape:connector-curvature="0"
     id="path30-6-4"
     d="M 105.67069,169.90313 H 291.35022" />
  <path
     style="fill:none;stroke:#ff0000;stroke-width:9.2354393;stroke-opacity:1"
     inkscape:connector-curvature="0"
     id="path36-4-5"
     d="M 102.87365,574.60989 H 294.14727" />
  <path
     inkscape:connector-curvature="0"
     id="path4264"
     d="M 79.465208,456.74718 V 452.4455 H 199.57914 319.69309 v 4.30168 4.30168 H 199.57914 79.465208 Z"
     style="fill:#ff0000;fill-opacity:1;stroke:#ff0000;stroke-width:0.88296014;stroke-opacity:1" />
  <path
     style="fill:none;stroke:#000000;stroke-width:9.02531719"
     inkscape:connector-curvature="0"
     id="path28"
     d="M 196.45888,14.537392 C 171.41707,39.081262 -21.062992,244.79148 124.73632,638.72727 h 145.24962 0.53373 C 416.31829,244.79333 223.83954,39.113652 198.79711,14.568692 Z" />
  <path
     style="fill:none;stroke:#000000;stroke-width:9.06111526"
     inkscape:connector-curvature="0"
     id="path30"
     d="M 100.46349,178.52428 H 295.36631" />
  <path
     style="fill:none;stroke:#000000;stroke-width:9.00310135"
     inkscape:connector-curvature="0"
     id="path36"
     d="M 107.88952,583.7352 H 289.66036" />
  <path
     sodipodi:nodetypes="ccc"
     style="fill:none;stroke:#000000;stroke-width:10"
     inkscape:connector-curvature="0"
     id="path48"
     d="m 315.58137,481.63426 c 0,0 109.31212,-1.05411 44.66235,271.00044 0,0 -6.06092,-227.15998 -62.62946,-199.15436" />
  <path
     style="fill:none;stroke:#000000;stroke-width:10"
     inkscape:connector-curvature="0"
     id="path50"
     d="m 78.219828,480.55983 c 0,0 -107.07617,-1.3336 -42.4264,270.72095 0,0 6.06092,-227.15998 62.62946,-199.15436" />
  <path
     style="fill:none;stroke:#000000;stroke-width:8.84412003"
     inkscape:connector-curvature="0"
     id="path30-6"
     d="M 102.73601,161.79782 H 288.41554" />
  <path
     style="fill:none;stroke:#000000;stroke-width:9.2354393"
     inkscape:connector-curvature="0"
     id="path36-4"
     d="M 102.59416,566.78408 H 293.86778" />
  <path
     style="fill:none;stroke:#000000;stroke-width:10.35129166"
     inkscape:connector-curvature="0"
     id="path36-4-4"
     d="M 76.141748,447.69823 H 316.42806" />
  <path
     style="fill:none;stroke:#000000;stroke-width:10.16226196"
     inkscape:connector-curvature="0"
     id="path36-4-9"
     d="M 81.675428,466.71826 H 313.26594" />
  <path
     style="fill:#b3b3b3;stroke:#000000;stroke-width:3;stroke-linecap:round"
     inkscape:connector-curvature="0"
     id="path32"
     d="m 221.42283,223.04813 a 23.864854,23.864854 0 0 1 -47.7297,0 23.864854,23.864854 0 1 1 47.7297,0 z" />
  <ellipse
     ry="15.142656"
     rx="15.561897"
     cy="221.86884"
     cx="197.90724"
     id="path4293"
     style="fill:#ffffff;fill-opacity:1;stroke:#ffffff;stroke-width:0.64999694;stroke-opacity:1" />
  <path
     style="fill:none;stroke:#000000;stroke-width:3.12916327;stroke-linecap:round"
     inkscape:connector-curvature="0"
     id="path44"
     d="m 213.98317,222.78415 a 16.304898,16.095341 0 1 1 -32.60979,0 16.304898,16.095341 0 1 1 32.60979,0 z" />
  <path
     style="fill:#b3b3b3;stroke:#000000;stroke-width:3;stroke-linecap:round"
     inkscape:connector-curvature="0"
     id="path32-5"
     d="m 221.68345,276.73554 a 23.864854,23.864854 0 0 1 -47.7297,0 23.864854,23.864854 0 1 1 47.7297,0 z" />
  <ellipse
     ry="15.142656"
     rx="15.561897"
     cy="275.55624"
     cx="198.16786"
     id="path4293-4"
     style="fill:#ffffff;fill-opacity:1;stroke:#ffffff;stroke-width:0.64999694;stroke-opacity:1" />
  <path
     style="fill:none;stroke:#000000;stroke-width:3.12916327;stroke-linecap:round"
     inkscape:connector-curvature="0"
     id="path44-6"
     d="m 214.24379,276.47156 a 16.304898,16.095341 0 1 1 -32.60979,0 16.304898,16.095341 0 1 1 32.60979,0 z" />
  <path
     style="fill:#b3b3b3;stroke:#000000;stroke-width:3;stroke-linecap:round"
     inkscape:connector-curvature="0"
     id="path32-4"
     d="m 221.68345,330.4914 a 23.864854,23.864854 0 0 1 -47.7297,0 23.864854,23.864854 0 1 1 47.7297,0 z" />
  <ellipse
     ry="15.142656"
     rx="15.561897"
     cy="329.3121"
     cx="198.16786"
     id="path4293-8"
     style="fill:#ffffff;fill-opacity:1;stroke:#ffffff;stroke-width:0.64999694;stroke-opacity:1" />
  <path
     style="fill:none;stroke:#000000;stroke-width:3.12916327;stroke-linecap:round"
     inkscape:connector-curvature="0"
     id="path44-5"
     d="m 214.24379,330.22742 a 16.304898,16.095341 0 1 1 -32.60979,0 16.304898,16.095341 0 1 1 32.60979,0 z" />
  <path
     style="fill:#b3b3b3;stroke:#000000;stroke-width:3;stroke-linecap:round"
     inkscape:connector-curvature="0"
     id="path32-4-5"
     d="m 221.68345,384.24726 a 23.864854,23.864854 0 0 1 -47.7297,0 23.864854,23.864854 0 1 1 47.7297,0 z" />
  <ellipse
     ry="15.142656"
     rx="15.561897"
     cy="383.06796"
     cx="198.16786"
     id="path4293-8-7"
     style="fill:#ffffff;fill-opacity:1;stroke:#ffffff;stroke-width:0.64999694;stroke-opacity:1" />
  <path
     style="fill:none;stroke:#000000;stroke-width:3.12916327;stroke-linecap:round"
     inkscape:connector-curvature="0"
     id="path44-5-5"
     d="m 214.24379,383.98328 a 16.304898,16.095341 0 1 1 -32.60979,0 16.304898,16.095341 0 1 1 32.60979,0 z" />
  <rect
     style="fill:#000000;fill-opacity:1;stroke:none;stroke-opacity:1"
     id="rect4404"
     width="8.6958008"
     height="24.111084"
     x="143.88878"
     y="643.03772"
     ry="0.1184129" />
  <rect
     style="fill:#000000;fill-opacity:1;stroke:none;stroke-opacity:1"
     id="rect4404-6"
     width="8.6958008"
     height="24.111084"
     x="658.453"
     y="-167.99986"
     ry="0.1184129"
     transform="rotate(90)" />
  <rect
     style="fill:#000000;fill-opacity:1;stroke:none;stroke-opacity:1"
     id="rect4404-0"
     width="8.6958008"
     height="24.111084"
     x="159.32701"
     y="643.01477"
     ry="0.1184129" />
</svg>
