<?xml version="1.0" encoding="utf-8"?>
<!-- Generator: Adobe Illustrator 26.0.0, SVG Export Plug-In . SVG Version: 6.00 Build 0)  -->
<svg version="1.1"
	 id="svg75" sodipodi:docname="rocket-312767.svg" xmlns:cc="http://creativecommons.org/ns#" xmlns:dc="http://purl.org/dc/elements/1.1/" xmlns:inkscape="http://www.inkscape.org/namespaces/inkscape" xmlns:rdf="http://www.w3.org/1999/02/22-rdf-syntax-ns#" xmlns:sodipodi="http://sodipodi.sourceforge.net/DTD/sodipodi-0.dtd" xmlns:svg="http://www.w3.org/2000/svg"
	 xmlns="http://www.w3.org/2000/svg" xmlns:xlink="http://www.w3.org/1999/xlink" x="0px" y="0px" viewBox="0 0 513.7 492"
	 style="enable-background:new 0 0 513.7 492;" xml:space="preserve">
<style type="text/css">
	.st0{fill-rule:evenodd;clip-rule:evenodd;fill:#E73900;}
	.st1{fill-rule:evenodd;clip-rule:evenodd;fill:#FFFF9E;}
	.st2{fill-rule:evenodd;clip-rule:evenodd;fill:#ECECEC;stroke:#000000;stroke-width:6.3963;stroke-miterlimit:8.5284;}
	.st3{fill:#CCCCCC;}
	.st4{fill-rule:evenodd;clip-rule:evenodd;fill:#FF0000;stroke:#000000;stroke-width:6.3963;stroke-miterlimit:8.5284;}
	.st5{fill-rule:evenodd;clip-rule:evenodd;fill:#B3B3B3;stroke:#000000;stroke-width:6.3963;stroke-miterlimit:8.5284;}
	.st6{fill-rule:evenodd;clip-rule:evenodd;fill:#D20000;}
	.st7{fill:none;stroke:#000000;stroke-width:6.3963;stroke-miterlimit:8.5284;}
	.st8{fill:#B3B3B3;stroke:#000000;stroke-width:6.3963;stroke-linecap:round;stroke-miterlimit:8.5284;}
	.st9{fill:#80E5FF;stroke:#000000;stroke-width:6.3963;stroke-linecap:round;stroke-miterlimit:8.5284;}
	.st10{fill:#FF0000;stroke:#000000;stroke-width:6.3963;stroke-linecap:round;stroke-miterlimit:8.5284;}
	.st11{fill:none;stroke:#000000;stroke-width:6.3963;stroke-linecap:round;stroke-miterlimit:8.5284;}
	.st12{fill:none;stroke:#000000;stroke-width:3;}
	.st13{fill:none;}
</style>
<sodipodi:namedview  bordercolor="#666666" borderopacity="1" fit-margin-bottom="10" fit-margin-left="10" fit-margin-right="10" fit-margin-top="10" gridtolerance="10" guidetolerance="10" id="namedview77" inkscape:current-layer="svg75" inkscape:cx="380.89306" inkscape:cy="291.55133" inkscape:pageopacity="0" inkscape:pageshadow="2" inkscape:window-height="745" inkscape:window-maximized="1" inkscape:window-width="1366" inkscape:window-x="-8" inkscape:window-y="-8" inkscape:zoom="1.91875" objecttolerance="10" pagecolor="#ffffff" showgrid="false">
	</sodipodi:namedview>
<g id="svg_29" transform="matrix(-0.26597355,-0.26597355,0.63371805,-0.63371805,38.735973,548.75353)">
	<path id="svg_27" inkscape:connector-curvature="0" class="st0" d="M59,347.2C-9,242.9,73.1,233.5,52.1,90.6
		c51.4,67.4,65.7,150.1,87.3,174.6c14.9,19.2,22.2,42.4,20.2,66.2c-0.2,18.9,23.6,41.7,17.1,59.3C142.1,363,82.5,381,59,347.2z"/>
	<path id="svg_26" inkscape:connector-curvature="0" class="st0" d="M161.8,377.7c0.4-20-23.8-28.7-33.5-44.3
		c-16.1-11.9-21.2-30.5-21.6-48.8c-1.3-29.2,24.7-203.5,62.7-250.4C154.8,106.2,191,202,213.3,233.6c15.1,24.6,20.8,53,15.3,80.8
		c-2.7,22.2-21.1,35.6-31.1,55.6C187.6,382.1,174,383.2,161.8,377.7z"/>
	<path id="svg_25" inkscape:connector-curvature="0" class="st0" d="M175.6,387.5c5.8-17.4-5.7-44.9-9.3-61
		c-9.8-14.5-8.8-32-4.1-48.1c6.9-25.9,8.1-148,120-205.3c-86.8,85.2-29.2,154.4-19.8,187.7c5.5,25.3,2.7,51.7-9.7,74.5
		C235.6,366.8,190,384.1,175.6,387.5z"/>
	<path id="svg_16" inkscape:connector-curvature="0" class="st1" d="M0,0"/>
</g>
<g id="svg_1" transform="matrix(1.4938907,1.5212294,-1.5212294,1.4938907,-120.80487,-819.40453)">
	<path id="path3217" inkscape:connector-curvature="0" class="st2" d="M481.7,67.2c-8,6.9-69.7,65.1-23,176.6h46.5h0.2
		c46.7-111.4-15-169.6-23-176.5L481.7,67.2L481.7,67.2z"/>
	<path id="path3219" inkscape:connector-curvature="0" class="st3" d="M483.6,139.4c-9.7,0-17.6,8.6-17.6,19.2
		c0,10.6,7.9,19.2,17.6,19.2c9.7,0,17.6-8.6,17.6-19.2C501.2,148,493.3,139.4,483.6,139.4z M483.6,141.7c8.6,0,15.5,7.6,15.5,16.9
		s-7,16.9-15.5,16.9c-8.6,0-15.5-7.6-15.5-16.9C468.1,149.2,475,141.7,483.6,141.7z"/>
	<path id="path2419" inkscape:connector-curvature="0" class="st4" d="M450.6,113l11.3-22.6l15.8-19.5l4.5-3.7L499,86.4l13.2,23.2
		l1.1,4.9l-62.9-0.3"/>
	<path id="path2408" inkscape:connector-curvature="0" class="st4" d="M444.2,199.1c0,0-27.9-0.4-11.1,76.7c0,0,1.6-64.4,16.3-56.4"
		/>
	<path id="path2410" inkscape:connector-curvature="0" class="st4" d="M519.9,199.1c0,0,27.9-0.4,11.1,76.7c0,0-1.6-64.4-16.3-56.4"
		/>
	<path id="path2423" inkscape:connector-curvature="0" class="st5" d="M451.9,228l6.8,15.7l46.9-0.3l5.5-15.5L451.9,228z"/>
	<path id="path3209" inkscape:connector-curvature="0" class="st6" d="M526.4,206.9l-5.3,14.3l-3.2-2.9l-3.7,1.7l5-21.5l9,4.9
		c0,0,15.5,11.7,3.4,70.1C538.8,213.2,526.1,206.9,526.4,206.9z"/>
	<path id="path3213" inkscape:connector-curvature="0" class="st6" d="M432.4,275c0,0-2.6-62.4,15.3-62.7c2,0,1.8,6.9,1.8,6.9
		l-7.1,1.7l-5.5,18.9L432.4,275z"/>
	<path id="path2394" inkscape:connector-curvature="0" class="st7" d="M450.6,113.6l61.9,0"/>
	<path id="path2400" inkscape:connector-curvature="0" class="st8" d="M498.6,156.9c0,10-7.4,18-16.6,18c-9.2,0-16.6-8.1-16.6-18
		c0,0,0,0,0,0c0-10,7.4-18,16.6-18C491.2,138.8,498.6,146.9,498.6,156.9C498.6,156.8,498.6,156.8,498.6,156.9z"/>
	<path id="path2402" inkscape:connector-curvature="0" class="st9" d="M492.8,156.9c0,6.5-4.8,11.7-10.8,11.7s-10.8-5.3-10.8-11.7
		s4.8-11.7,10.8-11.7S492.8,150.4,492.8,156.9z"/>
	<path id="path2417" inkscape:connector-curvature="0" class="st7" d="M453.7,228l58.4,0"/>
	<path id="rect2414" inkscape:connector-curvature="0" class="st10" d="M479.7,198.6h4.7l0,77.3h-4.7L479.7,198.6z"/>
	<path id="path2431" inkscape:connector-curvature="0" class="st11" d="M492.8,156.9c0,6.5-4.8,11.7-10.8,11.7s-10.8-5.3-10.8-11.7
		s4.8-11.7,10.8-11.7S492.8,150.4,492.8,156.9z"/>
	<path id="path3211" inkscape:connector-curvature="0" class="st7" d="M519.9,199.1c0,0,27.9-0.4,11.1,76.7c0,0-1.6-64.4-16.3-56.4"
		/>
	<path id="path3215" inkscape:connector-curvature="0" class="st7" d="M444.2,199.1c0,0-27.9-0.4-11.1,76.7c0,0,1.6-64.4,16.3-56.4"
		/>
	<path id="path2382" inkscape:connector-curvature="0" class="st7" d="M481.7,67.2c-8,6.9-69.7,65.1-23,176.6h46.5h0.2
		c46.7-111.4-15-169.6-23-176.5L481.7,67.2L481.7,67.2z"/>
</g>
<path id="svg_1756" inkscape:connector-curvature="0" class="st12" d="M0,0"/>
<path id="svg_1755" inkscape:connector-curvature="0" class="st12" d="M0,0"/>
<path id="svg_1754" inkscape:connector-curvature="0" class="st12" d="M0,0"/>
<path id="svg_1753" inkscape:connector-curvature="0" class="st13" d="M0,0"/>
<path id="svg_1752" inkscape:connector-curvature="0" class="st12" d="M0,0"/>
<path id="svg_1751" inkscape:connector-curvature="0" class="st12" d="M0,0"/>
<path id="svg_1750" inkscape:connector-curvature="0" class="st12" d="M0,0"/>
<path id="svg_1749" inkscape:connector-curvature="0" class="st12" d="M0,0"/>
<path id="svg_1748" inkscape:connector-curvature="0" class="st12" d="M0,0"/>
<path id="svg_1747" inkscape:connector-curvature="0" class="st12" d="M0,0"/>
<path id="svg_1746" inkscape:connector-curvature="0" class="st12" d="M0,0"/>
<path id="svg_1745" inkscape:connector-curvature="0" class="st13" d="M0,0"/>
<path id="svg_13" inkscape:connector-curvature="0" class="st12" d="M0,0"/>
<path id="svg_12" inkscape:connector-curvature="0" class="st12" d="M0,0"/>
<path id="svg_11" inkscape:connector-curvature="0" class="st12" d="M0,0"/>
<path id="svg_10" inkscape:connector-curvature="0" class="st12" d="M0,0"/>
<path id="svg_9" inkscape:connector-curvature="0" class="st12" d="M0,0"/>
<path id="svg_8" inkscape:connector-curvature="0" class="st12" d="M0,0"/>
<path id="svg_7" inkscape:connector-curvature="0" class="st12" d="M0,0"/>
<path id="svg_6" inkscape:connector-curvature="0" class="st12" d="M0,0"/>
<path id="svg_5" inkscape:connector-curvature="0" class="st12" d="M0,0"/>
<path id="svg_4" inkscape:connector-curvature="0" class="st12" d="M0,0"/>
<g id="svg_1758" transform="matrix(2.1320995,0,0,2.1320995,-686.53718,-194.38429)">
</g>
<g id="svg_15" transform="matrix(2.1320995,0,0,2.1320995,-686.53718,-194.38429)">
	<path id="svg_3" inkscape:connector-curvature="0" class="st7" d="M0,0"/>
	<path id="svg_2" inkscape:connector-curvature="0" class="st7" d="M0,0"/>
</g>
</svg>
