<?xml version="1.0" encoding="UTF-8" standalone="no"?>
<!-- Created with Inkscape (http://www.inkscape.org/) -->

<svg
   xmlns:dc="http://purl.org/dc/elements/1.1/"
   xmlns:cc="http://creativecommons.org/ns#"
   xmlns:rdf="http://www.w3.org/1999/02/22-rdf-syntax-ns#"
   xmlns:svg="http://www.w3.org/2000/svg"
   xmlns="http://www.w3.org/2000/svg"
   xmlns:sodipodi="http://sodipodi.sourceforge.net/DTD/sodipodi-0.dtd"
   xmlns:inkscape="http://www.inkscape.org/namespaces/inkscape"
   version="1.1"
   id="svg77581"
   xml:space="preserve"
   width="800"
   height="800"
   viewBox="0 0 800 800"
   sodipodi:docname="tree-polygonal-publicdomainvectors.org.svg"
   inkscape:version="0.92.4 (5da689c313, 2019-01-14)"><metadata
     id="metadata77587"><rdf:RDF><cc:Work
         rdf:about=""><dc:format>image/svg+xml</dc:format><dc:type
           rdf:resource="http://purl.org/dc/dcmitype/StillImage" /><dc:title></dc:title></cc:Work></rdf:RDF></metadata><defs
     id="defs77585"><clipPath
       clipPathUnits="userSpaceOnUse"
       id="clipPath77597"><path
         d="M 0,600 H 600 V 0 H 0 Z"
         id="path77595"
         inkscape:connector-curvature="0" /></clipPath></defs><sodipodi:namedview
     pagecolor="#ffffff"
     bordercolor="#666666"
     borderopacity="1"
     objecttolerance="10"
     gridtolerance="10"
     guidetolerance="10"
     inkscape:pageopacity="0"
     inkscape:pageshadow="2"
     inkscape:window-width="797"
     inkscape:window-height="480"
     id="namedview77583"
     showgrid="false"
     inkscape:zoom="0.295"
     inkscape:cx="400"
     inkscape:cy="400"
     inkscape:window-x="0"
     inkscape:window-y="0"
     inkscape:window-maximized="0"
     inkscape:current-layer="g77589" /><g
     id="g77589"
     inkscape:groupmode="layer"
     inkscape:label="tree-polygonal-publicdomainvectors.org"
     transform="matrix(1.3333333,0,0,-1.3333333,0,800)"><g
       id="g77591"><g
         id="g77593"
         clip-path="url(#clipPath77597)"><path
           d="m 479.182,449.552 c 0,-2.376 -0.506,-2.636 -2.18,-0.791 -0.76,-0.843 -1.17,-1.295 -1.17,-1.295 0,0 2.375,-1.611 6.002,-4.07 0.627,0.597 1.379,0.883 2.285,0.883 3.346,0 4.141,2.343 1.436,3.983 -2.391,1.513 -1.912,3.982 0.953,3.982 1.277,0 2.072,0.668 1.433,1.545 -0.476,0.892 0.161,1.177 1.592,0.637 1.436,-0.51 2.389,-0.207 2.389,0.699 0,0.908 -1.432,2.134 -3.184,2.691 -0.896,0.285 -1.703,0.804 -2.283,1.405 -3.191,-3.533 -5.812,-6.432 -7.652,-8.469 0.24,-0.344 0.379,-0.758 0.379,-1.2"
           style="fill:#197184;fill-opacity:1;fill-rule:nonzero;stroke:none"
           id="path77599"
           inkscape:connector-curvature="0" /><path
           d="m 485.555,476.434 c 1.91,0.653 -2.231,6.147 -4.94,6.705 -1.273,0.237 -3.183,0.86 -4.617,1.352 -0.85,0.329 -2.478,0.821 -4.176,1.272 l 3.606,-34.444 c 0.17,0.261 0.67,0.367 1.525,0.367 0.791,0 1.455,-0.374 1.85,-0.934 1.84,2.037 4.461,4.936 7.652,8.469 -0.555,0.576 -0.9,1.228 -0.9,1.828 0,1.227 -1.274,2.946 -2.867,3.84 -3.821,1.973 -5.256,8.997 -2.547,11.29 1.589,1.305 1.91,0.94 1.113,-1.594 -0.477,-2.371 0,-3.232 1.91,-3.232 1.752,0 2.391,0.844 1.91,2.293 -0.476,1.243 -0.318,2.501 0.481,2.788"
           style="fill:#17627a;fill-opacity:1;fill-rule:nonzero;stroke:none"
           id="path77601"
           inkscape:connector-curvature="0" /><path
           d="m 475.5,450.65 0.332,-3.184 c 0,0 0.41,0.452 1.17,1.295 -0.211,0.232 -0.438,0.492 -0.686,0.791 -0.398,0.447 -0.668,0.807 -0.816,1.098"
           style="fill:#17627a;fill-opacity:1;fill-rule:nonzero;stroke:none"
           id="path77603"
           inkscape:connector-curvature="0" /><path
           d="m 475.998,236.41 c 0,0.377 -0.172,0.826 -0.469,1.307 l -2.509,-3.188 c 1.369,-1.021 2.978,-0.236 2.978,1.881"
           style="fill:#0098c4;fill-opacity:1;fill-rule:nonzero;stroke:none"
           id="path77605"
           inkscape:connector-curvature="0" /><path
           d="m 476.469,443.769 c 0.728,-0.379 1.396,-0.813 1.918,-1.287 0.955,-0.894 0.955,-1.322 0,-1.194 -0.541,0.078 -1.045,0.157 -1.533,0.236 l 1.052,-6.112 c 0.873,0.755 1.649,2.145 2.073,4.09 0.449,1.847 1.048,3.128 1.855,3.894 -3.627,2.459 -6.002,4.07 -6.002,4.07 z"
           style="fill:#2191ab;fill-opacity:1;fill-rule:nonzero;stroke:none"
           id="path77607"
           inkscape:connector-curvature="0" /><path
           d="m 483.961,416.061 c 1.75,-0.461 3.184,-0.064 3.184,0.893 0,0.97 -1.59,2.213 -3.821,2.739 -1.131,0.29 -2.179,0.927 -3.021,1.781 l 0.951,-5.531 c 0.549,0.317 1.502,0.432 2.707,0.118"
           style="fill:#2191ab;fill-opacity:1;fill-rule:nonzero;stroke:none"
           id="path77609"
           inkscape:connector-curvature="0" /><path
           d="m 484.916,399.692 c 1.275,0 2.229,0.716 2.229,1.59 0,0.878 -0.477,1.593 -1.114,1.593 -0.636,0 -1.433,2.276 -1.592,5.129 -0.158,2.833 -1.115,5.413 -1.912,5.717 -0.388,0.124 -0.707,0.266 -0.963,0.416 l 2.497,-14.517 c 0.269,0.042 0.55,0.072 0.855,0.072"
           style="fill:#2191ab;fill-opacity:1;fill-rule:nonzero;stroke:none"
           id="path77611"
           inkscape:connector-curvature="0" /><path
           d="m 464.213,381.615 c 2.707,1.019 2.707,1.179 -0.158,2.293 -1.709,0.662 -3.086,1.054 -4.166,1.185 l 3.982,-3.598 c 0.115,0.039 0.234,0.075 0.342,0.12"
           style="fill:#2799ad;fill-opacity:1;fill-rule:nonzero;stroke:none"
           id="path77613"
           inkscape:connector-curvature="0" /><path
           d="m 468.834,396.409 c 0.477,0 0.953,-0.477 1.59,-1.495 0.637,-0.877 0.32,-1.594 -0.637,-1.594 -0.953,0 -1.752,0.717 -1.752,1.594 0,1.018 0.319,1.495 0.799,1.495 m 4.457,15.368 c 0.318,0.271 0.795,0.43 1.273,0.447 0.637,0.03 1.274,-0.113 1.752,-0.35 1.274,-0.51 0.955,-0.862 -0.955,-0.941 -1.591,-0.062 -2.548,0.319 -2.07,0.844 m 5.732,-10.351 c -0.318,-1.097 -1.752,-0.556 -3.343,1.402 -1.592,1.879 -2.071,2.963 -1.434,3.136 0.479,0.13 1.592,-0.3 3.186,-1.353 1.273,-0.764 1.91,-2.182 1.591,-3.185 m 2.547,-9.698 c 1.118,-1.832 1.118,-1.832 -3.183,0 -2.549,1.115 -2.707,1.355 -0.479,1.434 1.434,0.063 3.186,-0.557 3.662,-1.434 m -23.25,40.608 c -1.115,-1.067 -3.025,0.812 -3.025,2.932 0,0.382 0.16,0.637 0.318,0.7 0.319,0.112 0.955,-0.176 1.592,-0.892 1.115,-1.034 1.594,-2.293 1.115,-2.74 m 11.307,12.136 c 0,0.446 0.48,0.668 1.117,0.749 1.389,0.161 3.783,-0.445 5.725,-1.452 l -0.637,3.697 -70.9,-12.726 49.097,-44.354 c 0.141,0.256 0.295,0.484 0.471,0.642 2.389,2.292 7.166,0.923 6.209,-1.786 -0.479,-1.274 -0.158,-2.292 0.797,-2.292 0.957,0 1.75,0.892 1.91,1.99 0,1.101 0.797,0.75 1.594,-0.796 1.91,-3.201 5.414,-3.82 4.14,-0.748 -1.115,3.265 6.688,2.087 9.237,-1.403 2.228,-2.943 2.39,-2.912 2.39,-0.045 0,2.469 0.477,2.643 2.387,1.002 2.07,-1.639 2.391,-1.511 2.391,0.843 0,1.577 -1.116,4.127 -2.551,5.669 -2.481,2.804 -1.877,5.692 1.057,6.158 l -2.497,14.517 c -1.048,0.616 -1.033,1.388 -0.31,1.806 l -0.951,5.531 c -0.819,0.83 -1.444,1.865 -1.758,2.996 -0.477,2.117 -1.592,3.886 -2.387,3.886 -0.957,0 -1.115,1.099 -0.638,2.485 0.796,2.117 -0.159,2.468 -6.051,2.038 -5.256,-0.382 -7.006,0.048 -7.006,1.845 0,1.291 0.953,2.169 2.068,1.945 1.276,-0.238 3.504,0.365 5.256,1.29 2.389,1.305 3.346,1.115 4.141,-0.798 0.886,-2.519 2.562,-2.971 3.978,-1.749 l -1.052,6.112 c -4.971,0.809 -7.227,1.7 -7.227,2.948"
           style="fill:#2799ad;fill-opacity:1;fill-rule:nonzero;stroke:none"
           id="path77615"
           inkscape:connector-curvature="0" /><path
           d="m 479.342,379.783 c 0.799,0.527 1.435,-0.174 1.435,-1.592 0,-1.416 0.793,-2.135 1.59,-1.592 0.957,0.542 1.594,2.42 1.594,4.172 0,2.517 -0.637,2.963 -3.184,2.151 -2.232,-0.671 -4.461,-0.034 -6.371,1.735 -1.433,1.243 -2.23,1.863 -2.709,1.894 -0.316,0.033 -0.476,-0.54 -0.476,-1.687 0,-2.947 5.732,-6.529 8.121,-5.081"
           style="fill:#2799ad;fill-opacity:1;fill-rule:nonzero;stroke:none"
           id="path77617"
           inkscape:connector-curvature="0" /><path
           d="m 401.66,342.023 69.143,11.197 c -0.016,0.325 -0.033,0.665 -0.059,1.035 -0.16,3.186 -1.117,6.26 -1.91,6.866 -0.799,0.603 -2.551,2.372 -3.664,3.931 -2.072,2.47 -1.914,2.726 0.316,1.831 1.752,-0.65 2.549,-0.19 2.549,1.356 0,1.305 -1.431,2.802 -3.342,3.28 -1.754,0.479 -2.869,1.608 -2.23,2.531 0.635,1.067 -0.957,1.785 -4.301,1.896 -2.867,0.112 -3.98,0.54 -2.389,0.956 1.432,0.397 2.707,1.784 2.707,3.074 0,1.305 0.637,1.941 1.434,1.449 0.734,-0.458 2.555,-0.404 3.957,0.07 l -3.982,3.598 c -2.039,0.249 -3,-0.448 -3,-2.122 0,-1.322 -0.479,-2.344 -1.116,-2.247 -0.636,0.112 -1.591,0.079 -2.07,-0.097 -3.183,-1.288 -7.963,-0.794 -7.963,0.844 0,1.101 -0.478,2.325 -1.115,2.691 -0.637,0.369 -0.158,0.337 1.115,-0.045 8.6,-2.565 8.6,-2.629 7.803,1.432 -0.389,1.754 -0.137,3.705 0.486,4.837 l -49.097,44.354 z"
           style="fill:#28acc1;fill-opacity:1;fill-rule:nonzero;stroke:none"
           id="path77619"
           inkscape:connector-curvature="0" /><path
           d="m 468.834,248.4 c -0.48,0.879 -0.162,1.594 0.793,1.594 0.797,0 1.594,-0.715 1.594,-1.594 0,-2.037 -1.114,-2.037 -2.387,0 m -24.529,-25.336 c -0.953,-1.498 -1.43,-1.128 -2.069,1.291 -0.478,2.006 0,3.311 0.797,3.391 0.477,0.049 1.115,-0.365 1.752,-1.336 0.477,-0.703 0.32,-2.213 -0.48,-3.346 m 27.076,32.551 c -0.797,-0.51 -1.912,-0.238 -2.391,0.59 -0.105,0.188 -0.176,0.389 -0.219,0.592 l -71.476,-17.672 21.197,-18.262 c 4.963,6.518 7.373,6.895 8.617,2.057 1.116,-3.916 4.299,-4.219 4.457,-0.397 0,2.342 0.479,2.151 3.188,-1.003 1.59,-2.055 2.705,-4.379 2.226,-5.176 -1.273,-2.102 1.436,-1.719 3.666,0.511 1.59,1.479 1.911,1.305 1.911,-0.798 0,-1.494 0.795,-2.692 1.591,-2.692 0.957,0 1.592,1.436 1.592,3.188 0,1.75 0.795,3.183 1.91,3.183 1.116,0 1.116,0.733 -0.318,2.389 -1.592,1.91 -1.434,2.389 0.16,2.389 1.754,0 1.754,0.4 0.158,1.896 -2.705,2.819 -2.226,3.916 1.752,3.772 2.073,-0.078 3.346,0.75 3.188,1.896 -0.32,1.178 1.273,1.992 3.662,1.992 5.414,0 4.777,5.448 -0.637,5.715 -1.912,0.113 -4.459,1.053 -5.576,2.086 -1.432,1.484 -1.273,1.674 1.117,0.799 1.75,-0.672 3.502,-0.32 4.139,0.908 0.957,1.512 1.752,1.178 3.025,-1.308 1.116,-1.942 4.143,-3.758 7.487,-4.377 3.027,-0.575 5.892,-1.659 6.369,-2.438 0.256,-0.398 0.545,-0.703 0.844,-0.926 l 2.509,3.188 c -0.709,1.137 -2.148,2.441 -3.83,3.359 -3.025,1.608 -3.504,2.404 -1.752,2.453 1.434,0.032 3.186,-0.683 3.823,-1.591 0.476,-0.926 1.75,-1.418 2.707,-1.1 2.39,0.812 2.867,6.418 0.636,8.01 -1.433,0.988 -1.273,1.593 0,2.134 1.17,0.51 0.147,4.149 -1.504,7.506 l -3.429,-0.847 c 0.195,-0.752 -0.131,-1.596 -0.799,-2.026"
           style="fill:#07abd2;fill-opacity:1;fill-rule:nonzero;stroke:none"
           id="path77621"
           inkscape:connector-curvature="0" /><path
           d="m 469.627,231.475 c 0,1.224 -0.955,2.64 -2.389,3.134 -0.476,0.178 -0.795,0.241 -1.115,0.161 -1.43,-0.35 -1.75,-2.77 -0.156,-4.444 1.75,-1.783 3.66,-1.193 3.66,1.149"
           style="fill:#07abd2;fill-opacity:1;fill-rule:nonzero;stroke:none"
           id="path77623"
           inkscape:connector-curvature="0" /><path
           d="m 482.688,252.527 c 0.953,0.524 0.316,2.325 -1.276,4.077 -1.271,1.339 -2.23,1.816 -2.867,1.703 -1.113,-0.207 -1.113,-2.069 0.797,-4.379 0.955,-1.272 2.549,-1.91 3.346,-1.401"
           style="fill:#07abd2;fill-opacity:1;fill-rule:nonzero;stroke:none"
           id="path77625"
           inkscape:connector-curvature="0" /><path
           d="m 458.809,294.361 4.798,-4.002 c -1.961,3.395 -4.015,5.063 -4.798,4.002"
           style="fill:#1eb0d1;fill-opacity:1;fill-rule:nonzero;stroke:none"
           id="path77627"
           inkscape:connector-curvature="0" /><path
           d="m 474.406,285.127 c -3.662,2.309 -5.256,1.703 -3.025,-1.102 0.152,-0.177 0.287,-0.339 0.412,-0.494 l 5.168,-4.308 c -0.039,2.234 -0.998,4.92 -2.555,5.904"
           style="fill:#1eb0d1;fill-opacity:1;fill-rule:nonzero;stroke:none"
           id="path77629"
           inkscape:connector-curvature="0" /><path
           d="m 448.926,334.349 c 0.797,0 1.752,-0.525 2.387,-1.545 0.636,-0.874 -0.157,-1.592 -1.432,-1.592 -1.434,0 -2.549,0.718 -2.549,1.592 0,1.02 0.797,1.545 1.594,1.545 m 3.98,7.263 c 0.16,-0.033 0.16,-0.175 0.317,-0.446 0.48,-1.099 0.48,-2.882 0,-3.98 -0.475,-1.101 -0.793,-0.21 -0.793,1.99 0,1.638 0.158,2.547 0.476,2.436 m 4.459,1.686 c 0.319,0.273 0.797,0.431 1.276,0.449 0.636,0.031 1.273,-0.114 1.75,-0.351 1.275,-0.511 0.955,-0.861 -0.955,-0.94 -1.592,-0.066 -2.547,0.32 -2.071,0.842 m -42.972,-11.895 c -1.065,1.635 -0.118,2.947 2.363,2.837 1.594,-0.066 1.91,-0.448 0.799,-0.942 -1.116,-0.446 -1.594,-1.433 -1.116,-2.246 0.557,-0.983 0.514,-1.475 0.069,-1.413 l 3.744,-3.121 c 2.42,2.165 3.195,1.605 3.195,-1.579 0,-0.395 0.045,-0.796 0.121,-1.188 l 2.69,-2.243 c 0.238,0.577 0.373,1.45 0.373,2.537 0,2.389 0.797,3.758 1.594,3.187 0.953,-0.544 2.068,0.079 2.546,1.384 1.274,3.091 -2.867,11.468 -5.414,10.958 -0.957,-0.223 -1.912,0.717 -1.912,2.086 0,2.069 0.797,1.927 4.78,-0.894 2.707,-1.877 4.777,-4.106 4.777,-4.983 0,-0.862 0.795,-1.13 1.75,-0.541 0.955,0.588 1.275,2.914 0.797,5.269 -0.797,3.156 -0.637,3.632 0.637,1.849 0.955,-1.322 1.593,-3.82 1.752,-5.573 0,-2.644 0.316,-2.5 1.91,1.036 1.752,3.63 2.23,3.93 3.982,1.99 1.752,-1.864 1.59,-2.23 -0.32,-2.23 -1.432,0 -2.547,-0.717 -2.547,-1.595 0,-0.874 0.795,-1.59 1.752,-1.59 0.953,0 1.115,-1.736 0.478,-4.236 -0.798,-2.963 -0.478,-3.87 0.795,-3.089 1.117,0.682 1.752,0.014 1.91,-1.738 0,-2.692 0.161,-2.692 2.391,0.207 2.231,3.06 2.231,3.06 2.389,0 0,-3.075 0,-3.075 2.388,0 1.274,1.69 2.229,4.396 2.229,6.02 0,1.61 1.115,3.329 2.389,3.824 1.433,0.508 2.388,1.893 2.388,3.088 0,1.274 0.957,1.782 2.391,1.242 2.865,-1.067 3.023,0.764 0.793,6.722 -1.432,3.79 -1.274,4.062 0.799,2.292 1.273,-1.114 2.388,-3.328 2.388,-4.983 0,-1.643 0.795,-2.981 1.592,-2.981 2.072,0 2.072,4.301 0,5.575 -2.389,1.529 -1.752,3.983 0.799,2.978 1.605,-0.628 2.137,0.267 1.969,3.901 L 401.66,342.023 Z"
           style="fill:#1eb0d1;fill-opacity:1;fill-rule:nonzero;stroke:none"
           id="path77631"
           inkscape:connector-curvature="0" /><path
           d="m 467.396,293.789 c -1.589,1.24 -2.865,1.783 -3.501,1.639 -0.639,-0.143 -0.639,-0.94 0.16,-2.34 0.638,-0.94 2.228,-1.672 3.662,-1.639 2.39,0.045 2.39,0.299 -0.321,2.34"
           style="fill:#1eb0d1;fill-opacity:1;fill-rule:nonzero;stroke:none"
           id="path77633"
           inkscape:connector-curvature="0" /><path
           d="m 458.48,332.804 c -0.796,0 -1.591,-1.13 -1.591,-2.484 0,-1.367 0.795,-2.038 1.591,-1.497 2.071,1.276 2.071,3.981 0,3.981"
           style="fill:#1eb0d1;fill-opacity:1;fill-rule:nonzero;stroke:none"
           id="path77635"
           inkscape:connector-curvature="0" /><path
           d="m 415.004,330.654 c -0.25,0.255 -0.451,0.506 -0.611,0.749 l -12.733,10.62 -4.365,-102.898 71.476,17.672 c -0.15,0.709 0.079,1.451 0.698,1.861 0.318,0.127 0.478,0.207 0.797,0.238 0.634,0.114 1.431,-0.222 1.752,-0.843 0.076,-0.133 0.125,-0.272 0.162,-0.412 l 3.429,0.847 c -1.494,3.041 -3.504,5.848 -4.865,5.887 -1.117,0.031 -0.797,0.891 0.955,2.133 1.434,1.164 2.707,3.599 2.707,5.431 0,1.815 0.637,3.678 1.434,4.125 0.803,0.5 1.146,1.739 1.121,3.159 l -5.168,4.308 c 1.451,-1.771 1.123,-1.98 -1.367,-1.496 -1.752,0.334 -4.459,3.297 -5.893,6.578 -0.303,0.625 -0.613,1.203 -0.926,1.746 l -4.798,4.002 c -0.209,-0.285 -0.329,-0.767 -0.329,-1.465 0,-2.787 -3.185,0.112 -4.777,4.315 -0.797,2.168 -2.228,3.456 -3.183,2.898 -1.118,-0.715 -1.118,-1.75 0.158,-3.295 3.664,-4.38 -0.639,-2.164 -8.6,4.492 -4.935,4.235 -8.281,6.003 -8.601,4.777 -0.317,-1.083 -2.069,-1.944 -3.663,-1.944 -1.751,0 -3.183,-0.716 -3.183,-1.592 0,-3.074 -5.574,-1.544 -10.192,2.786 -2.66,2.407 -5.543,4.461 -6.433,4.572 -0.893,0.127 -2.533,0.303 -3.631,0.398 -4.127,0.383 -1.752,2.724 3.137,3.089 2.801,0.207 5.334,0.67 5.812,1.051 0.317,0.366 1.91,-0.906 3.504,-2.835 3.026,-3.63 4.141,-2.116 1.59,2.038 -0.953,1.482 -0.795,3.043 0.162,4.383 2.547,3.007 0.158,4.6 -3.504,2.339 -4.158,-2.595 -3.935,-1.37 0.637,3.584 1.004,1.092 1.836,1.937 2.539,2.566 l -3.744,3.121 c -0.317,0.045 -0.84,0.372 -1.504,1.015"
           style="fill:#18b5d7;fill-opacity:1;fill-rule:nonzero;stroke:none"
           id="path77637"
           inkscape:connector-curvature="0" /><path
           d="m 425.037,320.861 c 0.52,-0.302 0.942,-0.034 1.221,0.647 l -2.69,2.243 c 0.252,-1.297 0.86,-2.475 1.469,-2.89"
           style="fill:#18b5d7;fill-opacity:1;fill-rule:nonzero;stroke:none"
           id="path77639"
           inkscape:connector-curvature="0" /><path
           d="m 475.832,447.466 -0.332,3.184 c -0.148,0.289 -0.174,0.509 -0.072,0.669 l -3.606,34.444 c -0.849,0.227 -1.717,0.443 -2.513,0.624 -2.389,0.525 -4.457,1.798 -4.457,2.882 0,1.067 -2.87,3.728 -6.372,5.876 -3.503,2.133 -6.369,4.508 -6.369,5.224 0,1.769 8.44,-0.414 9.871,-2.547 2.073,-3.059 3.664,0.651 1.594,3.789 -1.433,2.486 -1.433,2.882 0.319,2.182 3.662,-1.386 4.619,2.262 1.115,4.141 -2.231,1.161 -3.344,1.209 -3.344,0.094 0,-3.026 -2.391,-1.687 -4.301,2.437 -1.433,3.153 -1.433,3.743 0,2.533 1.752,-1.433 6.69,-2.469 9.555,-2.038 3.025,0.444 -2.865,7.086 -10.033,11.544 -1.532,0.941 -2.842,1.777 -3.928,2.505 L 404.932,434.74 Z"
           style="fill:#258191;fill-opacity:1;fill-rule:nonzero;stroke:none"
           id="path77641"
           inkscape:connector-curvature="0" /><path
           d="m 456.887,528.683 c 2.23,1.386 2.23,1.737 0,3.139 -0.073,0.048 -0.153,0.094 -0.229,0.141 l -2.178,-4.094 c 0.907,0.121 1.788,0.397 2.407,0.814"
           style="fill:#258191;fill-opacity:1;fill-rule:nonzero;stroke:none"
           id="path77643"
           inkscape:connector-curvature="0" /><path
           d="m 404.932,434.74 48.027,90.269 c -4.67,3.133 -5.172,4.263 -1.166,3.023 0.736,-0.247 1.725,-0.291 2.687,-0.163 l 2.178,4.094 c -1.263,0.795 -3.01,1.436 -3.91,1.45 -1.115,0.016 -1.592,1.403 -1.115,3.234 0.955,3.552 -0.955,4.155 -3.983,1.243 -1.91,-2.024 -2.545,-0.431 -1.91,5.524 0.002,0.005 0,0.011 0,0.016 l -85.168,-20.701 z"
           style="fill:#267e8b;fill-opacity:1;fill-rule:nonzero;stroke:none"
           id="path77645"
           inkscape:connector-curvature="0" /><path
           d="m 445.74,543.43 c 0.149,1.604 -1.281,3.412 -3.504,4.269 -1.91,0.812 -3.025,1.529 -2.23,1.591 3.183,0.223 -2.865,4.874 -6.209,4.874 -2.072,0 -4.143,0.716 -4.777,1.593 -0.479,0.875 -2.709,1.13 -4.778,0.588 -2.551,-0.637 -3.982,-0.271 -3.982,1.003 0,1.307 -1.594,1.672 -5.096,1.1 -2.883,-0.478 -6.641,-0.254 -8.393,0.493 -1.751,0.749 -2.292,1.387 -1.195,1.434 1.098,0.063 1.99,0.923 1.99,1.846 0,1.563 -8.232,1.132 -18.455,-0.94 -1.832,-0.381 -4.699,0.335 -6.373,1.642 -2.37,1.831 -2.435,2.166 -0.349,1.433 1.704,-0.589 3.297,0.27 4.429,2.388 1.414,2.663 1.287,3.343 -0.605,3.343 -1.293,0 -2.772,-0.746 -3.33,-1.639 -0.557,-0.906 -1.862,-1.528 -2.884,-1.353 -0.144,0.024 -0.311,0.032 -0.493,0.028 -9.779,-22.93 -18.934,-44.394 -18.934,-44.394 z"
           style="fill:#1c6577;fill-opacity:1;fill-rule:nonzero;stroke:none"
           id="path77647"
           inkscape:connector-curvature="0" /><path
           d="m 400.277,217.797 c 0.155,0.213 0.43,0.346 0.825,0.346 0.923,0 1.687,-0.717 1.687,-1.59 0,-2.004 -1.092,-2.033 -2.324,-0.1 l 1.512,-10.814 c 3.431,-3.85 6.431,-3.237 3.998,1.31 -0.873,1.639 -1.528,3.614 -1.496,4.33 0.029,0.701 1.13,-0.685 2.437,-3.088 1.305,-2.406 3.217,-4.38 4.236,-4.38 1.383,0 1.383,0.447 0.047,1.785 -1.338,1.336 -0.683,3.457 2.485,8.312 1.824,2.817 3.418,5.127 4.808,6.955 l -21.197,18.262 z"
           style="fill:#00acd2;fill-opacity:1;fill-rule:nonzero;stroke:none"
           id="path77649"
           inkscape:connector-curvature="0" /><path
           d="m 370.686,311.847 c -3.388,-4.39 -6.477,-6.249 -8.486,-5.596 l -38.35,-34.765 73.445,-32.361 4.365,102.898 -28.666,-25.986 c 0.356,-0.343 -0.396,-1.712 -2.308,-4.19"
           style="fill:#23c4dd;fill-opacity:1;fill-rule:nonzero;stroke:none"
           id="path77651"
           inkscape:connector-curvature="0" /><path
           d="m 379.506,567.123 c -2.882,-0.081 -10.159,-3.674 -10.159,-5.156 0,-0.651 0.891,-1.56 1.989,-2.038 1.101,-0.478 0.018,-0.493 -2.388,0 -3.487,0.733 -5.318,-0.079 -9.011,-4.028 -5.226,-5.589 -6.516,-6.068 -6.516,-2.389 0,1.99 -0.953,2.341 -4.33,1.495 -4.285,-1.081 -4.269,-1.05 -1.339,2.182 2.898,3.218 2.885,3.28 -0.843,4.682 -2.103,0.798 -4.379,1.131 -5.033,0.75 -0.653,-0.382 -1.194,0.144 -1.194,1.194 0,1.05 -1.26,2.867 -2.787,4.03 -2.628,1.999 -2.612,2.143 0.191,2.192 2.324,0.038 2.58,0.53 1.195,2.189 -2.101,2.535 -0.75,4.23 3.297,4.23 3.246,0 3.967,2.544 0.985,3.534 -1.05,0.349 -4.44,-0.267 -7.563,-1.345 -4.539,-1.57 -6.146,-1.534 -8.057,0.101 -1.927,1.646 -5.255,2.364 -8.619,2.189 h 0.003 c -3.361,-0.175 -6.721,-1.238 -8.71,-3.086 -2.803,-2.61 -3.967,-2.881 -5.814,-1.343 -1.862,1.545 -2.341,1.432 -2.341,-0.647 0,-0.219 -0.031,-0.425 -0.081,-0.622 l 58.191,-52.508 c 0,0 9.155,21.464 18.934,44.394"
           style="fill:#276e79;fill-opacity:1;fill-rule:nonzero;stroke:none"
           id="path77653"
           inkscape:connector-curvature="0" /><path
           d="m 320.577,497.278 84.355,-62.538 -44.36,87.989 z"
           style="fill:#339197;fill-opacity:1;fill-rule:nonzero;stroke:none"
           id="path77655"
           inkscape:connector-curvature="0" /><path
           d="m 355.016,429.947 c 0.875,0 1.591,-0.317 1.591,-0.699 0,-0.382 -0.716,-1.146 -1.591,-1.689 -0.876,-0.541 -1.592,-0.239 -1.592,0.701 0,0.923 0.716,1.687 1.592,1.687 m -40.62,-15.932 90.536,20.725 -84.355,62.538 z"
           style="fill:#3ca6a8;fill-opacity:1;fill-rule:nonzero;stroke:none"
           id="path77657"
           inkscape:connector-curvature="0" /><path
           d="m 401.66,342.023 3.272,92.717 -90.536,-20.725 z"
           style="fill:#33b3be;fill-opacity:1;fill-rule:nonzero;stroke:none"
           id="path77659"
           inkscape:connector-curvature="0" /><path
           d="m 294.945,88.801 h 24.485 l -23.866,3.347 c -0.241,-1.205 -0.453,-2.341 -0.619,-3.347"
           style="fill:#0090c2;fill-opacity:1;fill-rule:nonzero;stroke:none"
           id="path77661"
           inkscape:connector-curvature="0" /><path
           d="m 297.541,100.697 c -0.765,-2.927 -1.449,-5.918 -1.977,-8.549 l 23.866,-3.347 h 15.232 c -0.383,1.847 -0.765,3.726 -1.242,5.924 -1.348,6.158 -1.877,20.906 -1.755,37.416 L 300.548,115.83 c -0.723,-5.139 -1.721,-10.211 -3.007,-15.133"
           style="fill:#009dc9;fill-opacity:1;fill-rule:nonzero;stroke:none"
           id="path77663"
           inkscape:connector-curvature="0" /><path
           d="m 306.699,189.176 c -0.856,0.945 -1.801,2.586 -2.746,4.615 l -16.086,3.488 c 1.413,-4.189 3.596,-9.976 5.693,-14.966 7.797,-18.624 10.253,-43.247 6.988,-66.483 l 31.117,16.311 c 0.146,19.689 1.219,41.882 2.942,55.002 l -23.21,5.033 c -1.841,-6 -2.272,-5.682 -4.698,-3"
           style="fill:#00b5d6;fill-opacity:1;fill-rule:nonzero;stroke:none"
           id="path77665"
           inkscape:connector-curvature="0" /><path
           d="m 368.297,194.654 c 2.293,0.764 3.455,5.973 1.353,5.973 -0.843,0 -1.927,-1.481 -2.388,-3.281 -0.559,-2.086 -0.143,-3.09 1.035,-2.692"
           style="fill:#07b8d8;fill-opacity:1;fill-rule:nonzero;stroke:none"
           id="path77667"
           inkscape:connector-curvature="0" /><path
           d="m 400.4,216.553 c -0.312,0.506 -0.336,0.953 -0.123,1.244 l -2.982,21.328 -50.289,-18.734 c 0.027,-0.106 0.047,-0.219 0.047,-0.352 0,-0.861 -1.098,-2.006 -2.485,-2.549 -1.56,-0.588 -2.279,-0.222 -1.896,0.957 0.045,0.135 0.108,0.264 0.17,0.393 l -25.828,-9.623 c -1.5,-3.932 -3.258,-9.072 -4.455,-13.131 -0.448,-1.527 -0.828,-2.822 -1.162,-3.91 l 23.21,-5.033 c 0.385,2.929 0.802,5.41 1.248,7.304 2.598,11.084 3.044,11.817 9.604,15.289 5.208,2.739 7.373,3.184 9.015,1.832 1.576,-1.306 2.133,-1.322 2.133,0 0,2.293 5.862,2.34 7.264,0.047 0.779,-1.242 1.545,-1.242 2.786,0 0.955,0.955 2.468,1.75 3.344,1.75 0.86,0 0.224,-1.002 -1.401,-2.195 -1.623,-1.195 -4.269,-1.818 -5.877,-1.385 -1.975,0.508 -2.931,-0.144 -2.931,-1.992 0,-1.498 1.514,-3.105 3.328,-3.584 2.278,-0.588 2.726,-1.225 1.401,-2.037 -1.064,-0.668 -1.432,-2.055 -0.794,-3.092 0.811,-1.322 1.83,-0.937 3.423,1.34 2.851,4.06 6.973,2.691 6.973,-2.277 0,-2.057 0.721,-4.141 1.596,-4.682 0.875,-0.541 1.592,-2.07 1.592,-3.393 0,-1.306 -0.702,-1.943 -1.592,-1.384 -0.893,0.539 -1.258,1.623 -0.797,2.386 0.462,0.748 0.141,1.785 -0.749,2.342 -0.892,0.541 -1.609,-0.256 -1.592,-1.848 0.064,-7.388 8.919,-9.41 10.447,-2.388 1.878,8.568 2.165,8.982 4.427,5.879 2.115,-2.899 5.781,-2.168 5.781,1.146 0,0.969 -1.179,3.055 -2.642,4.662 -2.836,3.157 -1.625,6.276 1.302,3.346 2.502,-2.516 6.118,-0.668 6.118,3.139 0,2.929 0.334,2.865 3.328,-0.957 0.213,-0.27 0.424,-0.518 0.635,-0.752 l -1.512,10.814 c -0.022,0.033 -0.043,0.065 -0.065,0.1"
           style="fill:#07b8d8;fill-opacity:1;fill-rule:nonzero;stroke:none"
           id="path77669"
           inkscape:connector-curvature="0" /><path
           d="m 300.446,203.045 -12.899,-4.805 c 0.101,-0.31 0.208,-0.631 0.32,-0.961 l 16.086,-3.488 c -1.228,2.635 -2.459,5.93 -3.507,9.254"
           style="fill:#07b8d8;fill-opacity:1;fill-rule:nonzero;stroke:none"
           id="path77671"
           inkscape:connector-curvature="0" /><path
           d="m 315.393,300.206 c 2.531,-0.031 4.586,-0.589 4.586,-1.243 0,-0.668 -1.002,-1.193 -2.245,-1.193 -1.242,0 -2.484,-0.766 -2.787,-1.639 -0.286,-0.893 -1.353,-0.289 -2.341,1.287 -1.559,2.519 -1.227,2.835 2.787,2.788 m 19.716,7.118 c 1.784,0.112 3.215,0.192 4.378,0.192 3.474,0.032 4.378,-0.509 4.378,-1.944 0,-1.081 -1.765,-1.305 -4.775,-0.637 -2.738,0.606 -4.778,0.383 -4.778,-0.492 0,-0.861 -2.15,-1.863 -4.779,-2.248 -2.625,-0.38 -4.777,-0.142 -4.777,0.544 0,1.958 5.08,4.219 10.353,4.585 m -8.759,2.387 c 0.223,0.128 0.461,0.208 0.654,0.242 0.557,0.095 0.939,-0.242 0.939,-0.939 0,-0.927 -0.716,-1.69 -1.593,-1.69 -2.037,0 -2.037,1.132 0,2.387 m 19.109,3.984 c 0.878,0 1.594,-0.32 1.594,-0.7 0,-0.384 -0.716,-1.148 -1.594,-1.69 -0.873,-0.541 -1.59,-0.237 -1.59,0.702 0,0.923 0.717,1.688 1.59,1.688 m 5.527,-0.796 c 0.094,0 0.19,-0.127 0.303,-0.399 0.431,-1.083 0.445,-3.232 0.047,-4.778 -0.414,-1.559 -0.764,-0.637 -0.797,1.989 -0.03,1.977 0.176,3.155 0.447,3.188 m -27.136,-41.413 38.35,34.765 c -1.503,0.49 -2.401,2.385 -2.36,5.691 0.049,3.566 0.286,3.759 1.689,1.353 1.959,-3.359 6.02,-3.676 7.215,-0.557 0.475,1.259 1.959,2.709 3.342,3.25 0.207,0.079 0.398,0.126 0.543,0.143 0.18,0.023 0.289,-0.02 0.365,-0.094 l 28.666,25.986 -107.989,-5.817 z"
           style="fill:#36cee2;fill-opacity:1;fill-rule:nonzero;stroke:none"
           id="path77673"
           inkscape:connector-curvature="0" /><path
           d="m 293.671,336.206 107.989,5.817 -87.264,71.992 z"
           style="fill:#3cc6d1;fill-opacity:1;fill-rule:nonzero;stroke:none"
           id="path77675"
           inkscape:connector-curvature="0" /><path
           d="m 305.646,211.568 c 0,-0.765 0.75,-1.386 1.69,-1.386 0.939,0 1.48,1.527 1.194,3.423 -0.35,2.403 -1.831,3.631 -4.874,4.045 -0.636,0.08 -1.194,0.112 -1.689,0.096 -3.518,-0.191 -3.757,-2.818 0.495,-3.933 1.753,-0.461 3.184,-1.467 3.184,-2.245"
           style="fill:#20c7e0;fill-opacity:1;fill-rule:nonzero;stroke:none"
           id="path77677"
           inkscape:connector-curvature="0" /><path
           d="m 298.129,218.447 c 2.31,1.465 4.109,1.75 8.061,1.338 2.468,-0.256 2.753,0.526 1.99,5.27 -0.829,5.24 -0.559,5.75 4.633,7.613 3.042,1.098 5.033,2.404 4.38,2.898 -0.653,0.479 -2.15,2.58 -3.328,4.666 -1.212,2.133 -1.641,3.075 -1.194,3.233 0.254,0.096 0.826,-0.096 1.735,-0.444 1.481,-0.558 4.412,-1.453 6.512,-1.994 4.176,-1.035 5.335,-5.365 1.449,-5.365 -1.32,0 -2.388,-1.053 -2.388,-2.34 0,-1.482 -0.906,-2.008 -2.483,-1.402 -2.006,0.779 -2.405,0.014 -1.992,-3.631 0.303,-2.725 -0.479,-5.351 -1.893,-6.467 -1.945,-1.529 -1.992,-2.261 -0.351,-3.933 1.625,-1.639 2.691,-1.705 5.178,-0.143 3.085,1.926 3.056,1.926 0.092,-4.777 -0.442,-1.006 -0.962,-2.299 -1.516,-3.752 l 25.828,9.623 c 0.617,1.271 1.989,2.162 3.016,2.234 0.57,0.041 1.013,-0.166 1.148,-0.683 l 50.289,18.734 -73.445,32.361 -36.772,-71.775 c 0.139,-0.455 0.297,-0.947 0.469,-1.471 l 12.899,4.805 c -2.273,7.207 -3.684,14.525 -2.317,15.402"
           style="fill:#20c7e0;fill-opacity:1;fill-rule:nonzero;stroke:none"
           id="path77679"
           inkscape:connector-curvature="0" /><path
           d="m 360.572,522.729 -58.191,52.508 c -0.305,-1.207 -1.507,-1.966 -3.246,-1.966 -2.342,0 -3.091,-0.73 -2.455,-2.388 0.702,-1.798 -0.269,-2.387 -3.821,-2.387 -0.204,0 -0.404,-0.006 -0.602,-0.015 l 28.32,-71.203 z"
           style="fill:#378488;fill-opacity:1;fill-rule:nonzero;stroke:none"
           id="path77681"
           inkscape:connector-curvature="0" /><path
           d="m 320.577,497.278 -28.32,71.203 c -2.315,-0.1 -4.127,-0.771 -4.127,-1.578 0,-2.514 -2.929,-1.894 -7.772,1.689 -2.274,1.683 -6.729,3.263 -10.271,3.7 l -40.408,-68.834 z"
           style="fill:#44908f;fill-opacity:1;fill-rule:nonzero;stroke:none"
           id="path77683"
           inkscape:connector-curvature="0" /><path
           d="m 311.523,421.986 c -0.494,0 -1.354,0.701 -1.894,1.593 -0.558,0.891 -1.673,1.194 -2.484,0.7 -0.827,-0.51 -1.499,-0.542 -1.499,-0.112 0,1.084 0.764,1.657 1.739,1.705 0.984,0.03 2.213,-0.51 3.086,-1.546 1.086,-1.305 1.546,-2.34 1.052,-2.34 m 9.054,75.292 -81.445,-61.084 75.264,-22.179 z"
           style="fill:#4cb3ae;fill-opacity:1;fill-rule:nonzero;stroke:none"
           id="path77685"
           inkscape:connector-curvature="0" /><path
           d="m 229.679,503.458 9.453,-67.264 81.445,61.084 z"
           style="fill:#50aaa4;fill-opacity:1;fill-rule:nonzero;stroke:none"
           id="path77687"
           inkscape:connector-curvature="0" /><path
           d="m 294.499,298.615 c -2.308,1.274 -2.979,2.213 -1.592,2.245 1.306,0.014 3.44,-0.637 4.729,-1.45 3.886,-2.469 1.13,-3.17 -3.137,-0.795 m 14.634,-0.845 c 1.021,0 1.371,-0.477 0.799,-1.051 -0.59,-0.574 -0.286,-2.006 0.685,-3.184 1.114,-1.338 1.225,-2.135 0.205,-2.135 -0.89,0 -2.054,1.098 -2.593,2.483 -1.323,3.472 -1.229,3.887 0.904,3.887 m -15.971,-3.743 c -1.005,-1.193 -1.338,-2.595 -0.749,-3.183 0.573,-0.576 -0.142,-1.037 -1.591,-1.037 -1.466,0 -2.723,0.175 -2.788,0.4 -1.02,3.279 -0.923,6.098 0.238,6.814 0.208,0.127 0.382,0.19 0.558,0.19 0.508,0.049 0.891,-0.363 0.891,-1.129 0,-1.066 1.132,-1.432 2.643,-0.861 2.055,0.797 2.216,0.527 0.798,-1.194 m -14.586,2.948 c -0.878,-0.541 -1.594,-0.241 -1.594,0.697 0,0.926 0.716,1.691 1.594,1.691 0.873,0 1.59,-0.321 1.59,-0.703 0,-0.383 -0.717,-1.146 -1.59,-1.685 m -55.078,-0.764 100.352,-24.725 -30.179,64.72 z"
           style="fill:#46ddeb;fill-opacity:1;fill-rule:nonzero;stroke:none"
           id="path77689"
           inkscape:connector-curvature="0" /><path
           d="m 223.498,296.211 52.891,-83.334 c -0.045,0.283 -0.095,0.578 -0.155,0.887 l -0.988,5.177 4.826,-5.576 c 2.659,-3.072 5.604,-8.439 6.512,-11.943 0.124,-0.479 0.293,-1.061 0.494,-1.711 l 36.772,71.775 z"
           style="fill:#39d7e8;fill-opacity:1;fill-rule:nonzero;stroke:none"
           id="path77691"
           inkscape:connector-curvature="0" /><path
           d="m 267.523,386.95 c -0.924,0 -1.69,0.716 -1.69,1.593 0,1.019 0.304,1.498 0.75,1.498 0.431,0 1.003,-0.479 1.64,-1.498 0.542,-0.877 0.223,-1.593 -0.7,-1.593 m 12.549,-0.892 c 0.191,0.111 0.414,0.207 0.637,0.238 0.686,0.082 1.432,-0.268 1.845,-0.938 0.544,-0.893 -0.127,-1.592 -1.494,-1.592 -2.788,0 -3.201,0.923 -0.988,2.292 m 13.774,-12.945 c 0.446,1.161 1.864,2.134 3.137,2.134 3.091,0 2.962,-2.073 -0.19,-3.284 -3.551,-1.352 -3.854,-1.256 -2.947,1.15 m -15.925,5.078 c 5.08,-0.317 7.071,0.144 7.215,1.736 0.399,4.365 0.62,5.143 1.799,6.322 0.224,0.239 0.43,0.383 0.589,0.399 1.132,0.158 0.575,-4.428 -1.242,-8.41 -1.257,-2.77 -2.754,-3.821 -4.571,-3.233 -3.314,1.045 -7.042,-0.325 -7.775,-2.619 l 19.735,-36.18 20.725,77.809 -75.264,22.179 31.06,-56.944 c 1.558,-0.434 4.642,-0.868 7.729,-1.059"
           style="fill:#4fcaca;fill-opacity:1;fill-rule:nonzero;stroke:none"
           id="path77693"
           inkscape:connector-curvature="0" /><path
           d="m 256.375,377.395 c -0.923,0 -1.687,0.716 -1.687,1.594 0,1.017 0.303,1.497 0.747,1.497 0.43,0 1.004,-0.48 1.641,-1.497 0.541,-0.878 0.222,-1.594 -0.701,-1.594 m -11.896,-2.787 c -0.843,-0.861 -2.533,4.302 -2.389,7.262 0.017,0.368 0.063,0.623 0.159,0.702 0.255,0.237 0.812,-0.799 1.387,-2.739 0.779,-2.583 1.146,-4.922 0.843,-5.225 m 29.457,-2.222 c -0.084,-0.261 -0.139,-0.534 -0.139,-0.818 0,-1.831 -0.636,-1.928 -3.392,-0.447 -2.772,1.479 -3.695,1.337 -4.874,-0.747 -0.78,-1.418 -2.405,-2.534 -3.583,-2.534 -2.834,0 -4.617,4.839 -2.531,6.911 1.129,1.13 1.639,0.813 1.639,-1.036 0,-4.426 3.235,-3.073 5.032,2.087 0.909,2.629 2.358,4.316 3.234,3.775 0.174,-0.107 0.475,-0.217 0.87,-0.327 l -31.06,56.944 -28.724,-87.263 83.263,-12.725 z"
           style="fill:#58d7d8;fill-opacity:1;fill-rule:nonzero;stroke:none"
           id="path77695"
           inkscape:connector-curvature="0" /><path
           d="m 210.408,348.931 13.09,-52.72 70.173,39.995 z"
           style="fill:#55e1e8;fill-opacity:1;fill-rule:nonzero;stroke:none"
           id="path77697"
           inkscape:connector-curvature="0" /><path
           d="m 270.087,572.292 c -0.276,0.034 -0.548,0.063 -0.812,0.083 -3.648,0.271 -7.645,1.384 -8.919,2.439 -1.273,1.055 -3.104,1.394 -4.077,0.796 -1.161,-0.724 -0.827,-1.842 1.1,-3.334 2.643,-2.067 2.548,-2.191 -1.496,-1.543 -2.424,0.387 -6.007,1.142 -7.965,1.642 l -3.583,0.896 3.583,-1.841 c 5.286,-2.727 4.619,-7.598 -1.195,-8.761 -4.967,-0.988 -6.209,-2.898 -2.785,-4.286 1.099,-0.429 0.382,-0.875 -1.593,-0.939 -4.299,-0.142 -4.554,-1.466 -0.796,-4.235 3.901,-2.884 0.892,-5.431 -6.721,-5.719 -4.045,-0.142 -6.719,0.623 -8.01,2.389 -2.133,2.914 -5.575,3.616 -5.575,1.1 0,-0.877 -0.716,-1.593 -1.591,-1.593 -0.877,0 -1.593,1.098 -1.593,2.485 0,1.265 -0.393,1.844 -1.71,1.855 6.915,-26.076 13.33,-50.268 13.33,-50.268 z"
           style="fill:#468686;fill-opacity:1;fill-rule:nonzero;stroke:none"
           id="path77699"
           inkscape:connector-curvature="0" /><path
           d="m 243.539,194.256 c 0.462,0.717 0.813,1.099 1.05,1.193 0.384,0.145 0.527,-0.57 0.544,-2.388 0.014,-1.973 -0.718,-3.582 -1.594,-3.582 -1.99,0 -1.99,1.689 0,4.777 m 12.836,10.988 c 0.254,0 1.291,-0.795 3.438,-2.326 2.375,-1.717 4.348,-3.629 4.382,-4.281 0.096,-2.262 -2.788,-0.334 -6.323,4.281 -1.178,1.531 -1.735,2.326 -1.497,2.326 m -19.871,-15.396 c 0.325,-0.395 0.654,-1.022 0.967,-1.868 0.844,-2.292 2.183,-3.31 3.68,-2.736 1.37,0.524 3.025,-0.351 3.982,-2.135 1.797,-3.377 6.368,-2.691 6.368,0.94 0,1.226 0.67,2.244 1.498,2.244 0.812,0 1.355,-1.926 1.193,-4.236 -0.174,-2.389 0.671,-4.522 1.945,-4.967 1.591,-0.574 2.007,0.142 1.384,2.482 -0.636,2.455 -0.238,3.028 1.546,2.342 2.371,-0.924 2.212,0.67 -0.893,9.156 -0.764,2.071 -0.525,2.057 1.88,0.098 2.468,-1.992 2.882,-1.865 3.694,1.193 0.494,1.895 1.783,3.487 2.883,3.487 1.099,0 2.833,0.988 3.886,2.23 1.512,1.832 1.227,2.662 -1.449,4.094 -1.831,0.971 -2.852,2.516 -2.295,3.424 0.702,1.129 1.562,1.082 2.74,-0.096 2.437,-2.437 4.284,-2.117 4.284,0.699 0,1.309 0.796,2.389 1.735,2.389 0.982,0 1.281,1.572 0.857,4.289 l -52.891,83.334 z"
           style="fill:#33d5e7;fill-opacity:1;fill-rule:nonzero;stroke:none"
           id="path77701"
           inkscape:connector-curvature="0" /><path
           d="m 209.699,194.398 c -0.594,0.034 -1.077,0.063 -1.458,0.094 l 4.021,-4.078 c 1.696,2.498 0.852,3.813 -2.563,3.984"
           style="fill:#51e4ef;fill-opacity:1;fill-rule:nonzero;stroke:none"
           id="path77703"
           inkscape:connector-curvature="0" /><path
           d="m 192.771,237.256 c -0.878,0 -2.039,0.715 -2.582,1.59 -0.541,0.877 -0.285,1.593 0.589,1.593 0.878,0 2.055,-0.716 2.598,-1.593 0.541,-0.875 0.269,-1.59 -0.605,-1.59 m -8.457,10.301 c -0.493,-0.493 -1.387,0.365 -1.99,1.945 -0.43,1.129 -0.575,1.752 -0.447,1.877 0.127,0.142 0.558,-0.207 1.338,-0.986 1.099,-1.082 1.591,-2.358 1.099,-2.836 m -24.706,43.439 c 0.029,-0.127 0.065,-0.258 0.117,-0.392 0.543,-1.403 0.048,-2.391 -1.194,-2.391 -1.161,0 -3.821,-3.231 -5.908,-7.164 -2.294,-4.319 -4.938,-7.166 -6.625,-7.166 -1.528,0 -2.788,-0.766 -2.788,-1.688 0,-0.939 -0.716,-1.244 -1.591,-0.703 -0.876,0.545 -1.593,0.145 -1.593,-0.842 0,-0.988 1.29,-1.388 2.835,-0.908 1.767,0.572 3.536,-0.287 4.779,-2.277 1.287,-2.086 1.415,-3.139 0.299,-3.139 -0.939,0 -1.321,-0.637 -0.843,-1.4 0.462,-0.746 -1.322,-1.147 -3.933,-0.844 -0.625,0.072 -1.169,0.115 -1.663,0.137 l 4.931,-5.004 c 0.045,0.207 0.136,0.348 0.269,0.392 0.317,0.11 0.875,-0.175 1.591,-0.892 0.919,-0.92 1.383,-2.012 1.152,-2.557 l 14.245,-14.455 c -1.055,2.018 -0.583,2.33 2.008,2.33 2.723,0 3.219,0.699 2.502,3.582 -0.812,3.201 -0.543,3.088 2.785,-1.004 3.999,-4.935 7.263,-4.492 7.263,1.004 0,4.045 2.326,2.071 3.982,-3.392 0.987,-3.264 0.685,-3.567 -2.245,-2.627 -4.236,1.336 -4.301,-0.987 -0.096,-4.778 2.771,-2.502 2.929,-3.152 0.892,-4.285 -1.308,-0.732 -1.99,-2.387 -1.481,-3.679 0.379,-0.985 0.156,-1.584 -1.039,-1.938 l 29.494,-29.928 c 0.351,0.112 0.864,0.246 1.546,0.416 1.752,0.428 3.966,1.401 4.922,2.18 1.05,0.846 3.838,0.719 6.88,-0.348 2.802,-0.974 5.604,-1.259 6.21,-0.591 0.623,0.654 0.207,1.544 -0.892,1.943 -4.395,1.56 -1.782,3.791 3.187,2.74 6.863,-1.482 7.053,-1.801 3.04,-5.289 -1.894,-1.641 -3.439,-3.725 -3.439,-4.617 0,-2.436 4.492,-3.662 5.765,-1.592 0.44,0.699 0.981,0.688 1.532,0.018 l -13.006,106.363 z"
           style="fill:#51e4ef;fill-opacity:1;fill-rule:nonzero;stroke:none"
           id="path77705"
           inkscape:connector-curvature="0" /><path
           d="m 142.367,288.262 c 1.559,-2.532 5.621,-1.989 5.621,0.75 0,0.398 0.058,0.744 0.166,1.049 l -6.333,-0.518 c 0.182,-0.539 0.369,-0.996 0.546,-1.281"
           style="fill:#51e4ef;fill-opacity:1;fill-rule:nonzero;stroke:none"
           id="path77707"
           inkscape:connector-curvature="0" /><path
           d="m 216.349,553.726 c -0.787,0.007 -1.905,-0.189 -3.467,-0.564 -2.85,-0.671 -7.865,-1.084 -11.145,-0.894 -5.576,0.319 -6.833,-0.652 -6.179,-4.872 0.11,-0.653 -0.877,-1.194 -2.182,-1.194 -1.322,0 -2.389,-0.716 -2.389,-1.594 0,-0.874 -1.259,-1.624 -2.787,-1.641 -2.564,-0.046 -2.548,-0.269 0.19,-2.341 2.676,-2.021 1.944,-2.227 -6.768,-1.845 -5.349,0.238 -9.745,-0.127 -9.745,-0.846 0,-0.716 -1.466,-1.288 -3.282,-1.288 -1.959,0 -3.089,-0.829 -2.692,-1.992 0.368,-1.099 1.339,-2.021 2.137,-2.038 0.81,-0.016 2.341,-0.606 3.439,-1.305 1.177,-0.75 3.056,-0.224 4.522,1.257 3.216,3.218 4.857,3.201 2.197,0 -1.736,-2.103 -1.481,-2.66 1.785,-3.584 3.374,-0.953 3.04,-1.177 -2.533,-1.989 -6.195,-0.909 -6.257,-1.019 -2.388,-2.74 2.182,-0.987 3.263,-1.879 2.388,-1.989 -5.287,-0.75 -7.358,-1.546 -9.458,-3.631 -0.961,-0.961 -1.531,-2.044 -1.537,-2.759 l 63.224,-12.419 c 0,0 -6.415,24.192 -13.33,50.268"
           style="fill:#569691;fill-opacity:1;fill-rule:nonzero;stroke:none"
           id="path77709"
           inkscape:connector-curvature="0" /><path
           d="m 179.298,398.893 c -3.107,-3.104 -5.224,-3.104 -2.643,0 1.081,1.308 2.643,2.389 3.487,2.389 0.827,0 0.462,-1.081 -0.844,-2.389 m -7.868,-5.573 c -2.612,-3.248 -5.445,-3.568 -6.529,-0.748 -0.493,1.29 -0.096,2.342 0.86,2.342 1.147,0 1.051,0.813 -0.255,2.389 -1.607,1.924 -1.545,2.389 0.304,2.389 1.242,0 3.487,-0.895 4.919,-1.993 2.088,-1.593 2.23,-2.468 0.701,-4.379 m 67.702,42.874 -106.261,-10.829 c 0.421,-0.553 0.972,-1.01 1.583,-1.245 3.692,-1.418 2.818,-3.552 -1.054,-2.534 -2.436,0.637 -3.087,0.334 -2.229,-1.049 0.254,-0.416 0.498,-1.165 0.702,-2.093 l 28.139,-24.906 c 0.043,0.186 0.097,0.378 0.174,0.579 0.574,1.527 1.084,2.292 1.483,2.292 0.396,0 0.651,-0.765 0.651,-2.292 0,-0.839 -0.283,-1.573 -0.704,-1.999 l 6.448,-5.707 c 0.805,0.437 1.862,-0.124 3.717,-1.801 1.801,-1.639 3.822,-2.438 4.474,-1.801 0.652,0.653 -0.191,2.199 -1.895,3.44 -1.687,1.245 -2.276,2.294 -1.29,2.294 0.987,0 2.295,-0.795 2.884,-1.751 0.588,-0.941 2.468,-1.387 4.188,-0.941 2.867,0.748 2.912,0.558 0.795,-2.643 -1.442,-2.165 -2.706,-2.974 -5.801,-3.057 l 35.272,-31.22 z"
           style="fill:#68d5ce;fill-opacity:1;fill-rule:nonzero;stroke:none"
           id="path77711"
           inkscape:connector-curvature="0" /><path
           d="m 172.769,507.982 c -2.788,0 -3.201,0.923 -0.988,2.292 0.191,0.111 0.414,0.207 0.637,0.239 0.686,0.079 1.432,-0.272 1.849,-0.94 0.54,-0.892 -0.13,-1.591 -1.498,-1.591 m 56.91,-4.524 -63.224,12.419 c -0.003,-0.245 0.06,-0.448 0.198,-0.586 0.541,-0.541 0.079,-0.94 -1.005,-0.94 -1.082,0 -3.039,-1.099 -4.378,-2.437 -1.214,-1.224 -1.692,-2.095 -1.497,-3.027 l 6.753,-6.186 c 0.54,-0.007 1.112,-0.587 2.069,-1.743 0.173,-0.209 0.322,-0.396 0.459,-0.573 l 70.078,-64.191 z"
           style="fill:#5eafa6;fill-opacity:1;fill-rule:nonzero;stroke:none"
           id="path77713"
           inkscape:connector-curvature="0" /><path
           d="m 160.729,507.185 c 1.036,-1.258 1.418,-3.726 0.844,-5.525 -1.226,-3.887 0.43,-4.254 3.042,-0.702 0.849,1.17 1.364,1.75 1.911,1.743 l -6.753,6.186 c 0.109,-0.524 0.429,-1.067 0.956,-1.702"
           style="fill:#69c0b3;fill-opacity:1;fill-rule:nonzero;stroke:none"
           id="path77715"
           inkscape:connector-curvature="0" /><path
           d="m 159.136,500.816 c 0.877,0.54 1.593,1.656 1.593,2.531 0,0.653 -0.382,1.004 -0.939,0.891 -0.193,-0.031 -0.431,-0.111 -0.654,-0.238 -0.875,-0.541 -1.594,-1.721 -1.594,-2.595 0,-0.878 0.719,-1.133 1.594,-0.589"
           style="fill:#69c0b3;fill-opacity:1;fill-rule:nonzero;stroke:none"
           id="path77717"
           inkscape:connector-curvature="0" /><path
           d="m 169.054,500.385 c 1.264,-1.631 0.991,-1.958 -1.062,-1.958 -1.467,0 -2.2,-0.749 -1.642,-1.641 1.815,-2.93 2.134,-13.457 0.447,-14.494 -1.084,-0.667 -0.956,-2.244 0.349,-4.777 l 1.944,-3.773 -3.79,3.934 -3.776,3.982 -0.492,-3.585 c -0.526,-3.646 -5.448,-7.453 -7.28,-5.621 -0.54,0.54 -0.987,-0.238 -0.987,-1.8 0,-1.832 -0.827,-2.516 -2.34,-1.942 -4.155,1.593 -4.651,-2.581 -0.7,-5.814 l 3.838,-3.135 -3.631,1.146 c -3.297,1.019 -3.569,0.699 -2.643,-2.994 0.747,-2.964 0.348,-4.317 -1.497,-5.033 -1.402,-0.526 -2.582,-2.103 -2.582,-3.424 0,-1.99 -0.445,-2.055 -2.437,-0.399 -2.834,2.343 -2.643,2.533 -5.335,-5.335 -2.069,-6.051 -1.194,-10.064 1.308,-6.017 1.067,1.734 1.545,1.734 2.579,0.047 0.749,-1.21 0.509,-2.309 -0.589,-2.676 -2.5,-0.827 -2.421,-6.258 0.096,-7.277 1.432,-0.575 1.465,-0.846 0.096,-0.94 -1.036,-0.065 -2.341,0.62 -2.884,1.497 -1.497,2.42 -3.98,1.894 -3.98,-0.846 0,-0.728 0.315,-1.502 0.807,-2.145 l 106.261,10.829 z"
           style="fill:#69c0b3;fill-opacity:1;fill-rule:nonzero;stroke:none"
           id="path77719"
           inkscape:connector-curvature="0" /><path
           d="m 149.327,253.977 c -1.051,-1.067 -2.93,0.812 -2.93,2.929 0,0.117 0.014,0.217 0.034,0.309 l -4.931,5.004 c -4.252,0.187 -3.673,-1.615 1.807,-7.35 3.727,-3.887 4.508,-5.623 3.183,-7.217 -1.305,-1.574 -1.112,-2.355 0.799,-3.089 3.789,-1.45 5.796,-1.147 4.681,0.654 -0.541,0.875 0.096,1.594 1.386,1.594 1.88,0 2.117,-1.036 1.051,-4.733 -0.957,-3.359 -0.748,-5.189 0.795,-6.463 1.194,-0.988 1.69,-3.01 1.146,-4.492 -0.875,-2.324 -0.651,-2.342 1.69,-0.445 2.323,1.892 2.691,1.83 2.691,-0.399 0,-1.418 0.813,-2.58 1.783,-2.58 0.988,0 1.401,1.369 0.957,3.088 -0.448,1.705 0.045,3.408 1.033,3.777 1.339,0.493 1.274,1.545 -0.189,4.028 -0.249,0.42 -0.455,0.785 -0.625,1.111 l -14.245,14.455 c -0.029,-0.07 -0.065,-0.133 -0.116,-0.181"
           style="fill:#49e0ed;fill-opacity:1;fill-rule:nonzero;stroke:none"
           id="path77721"
           inkscape:connector-curvature="0" /><path
           d="m 137.143,254.422 c -0.19,-0.063 -0.302,-0.318 -0.302,-0.699 0,-0.91 0.511,-2.104 1.098,-2.694 0.573,-0.574 1.386,-0.701 1.832,-0.24 0.462,0.447 0,1.705 -1.035,2.74 -0.716,0.717 -1.274,1.004 -1.593,0.893"
           style="fill:#49e0ed;fill-opacity:1;fill-rule:nonzero;stroke:none"
           id="path77723"
           inkscape:connector-curvature="0" /><path
           d="m 172.466,224.465 c -6.178,-0.045 -7.183,-0.395 -4.873,-1.752 2.674,-1.541 2.564,-1.942 -1.593,-5.524 -2.452,-2.117 -5.302,-3.57 -6.324,-3.185 -3.183,1.209 -3.773,-1.053 -0.891,-3.375 2.533,-2.055 2.437,-2.152 -0.844,-1.242 -4.601,1.256 -4.601,-1.276 0,-4.682 l 3.583,-2.644 -4.281,0.857 c -5.035,1.023 -7.008,-1.129 -3.632,-3.932 2.564,-2.136 3.246,-7.916 0.939,-7.916 -0.764,0 -1.83,1.545 -2.325,3.489 -0.51,1.927 -1.433,2.994 -2.055,2.388 -1.257,-1.273 4.284,-12.246 6.178,-12.246 0.671,0 2.788,1.545 4.733,3.488 l 3.534,3.518 0.94,-3.916 c 1.049,-4.461 5.81,-5.478 5.08,-1.098 -0.272,1.623 0.397,2.627 1.591,2.389 3.503,-0.719 4.333,-3.346 1.69,-5.273 -1.546,-1.129 -2.024,-2.612 -1.243,-3.885 1.002,-1.61 1.8,-1.418 3.582,0.939 2.118,2.787 2.231,2.629 1.244,-2.134 -0.637,-3.026 -0.462,-5.174 0.444,-5.174 2.024,0 3.775,6.974 2.55,10.191 -0.543,1.385 -0.289,2.547 0.589,2.547 0.874,0 2.037,-1.082 2.53,-2.387 1.276,-3.281 4.189,-3.011 4.285,0.399 0.079,2.34 0.493,2.213 2.595,-0.799 2.389,-3.438 6.498,-5.27 4.475,-1.988 -0.541,0.873 0.447,1.591 2.181,1.591 3.712,0 8.634,4.348 7.326,6.465 -0.493,0.813 -0.142,1.496 0.846,1.496 1.067,0 1.401,-1.289 0.795,-3.183 -1.29,-4.045 -0.063,-4.045 3.982,0 0.948,0.949 1.663,1.787 2.165,2.527 l -4.021,4.078 c -1.21,0.102 -1.351,0.225 -0.488,0.496 l -29.494,29.928 c -1.064,-0.314 -2.896,-0.436 -5.793,-0.451"
           style="fill:#49e0ed;fill-opacity:1;fill-rule:nonzero;stroke:none"
           id="path77725"
           inkscape:connector-curvature="0" /><path
           d="m 175.136,380.151 c -1.004,-0.026 -2.198,0.022 -3.657,0.128 -4.013,0.285 -7.676,-0.24 -8.267,-1.196 -0.589,-0.939 -3.199,-1.688 -5.763,-1.688 -2.581,0 -4.684,-0.747 -4.684,-1.639 0,-0.925 1.913,-1.276 4.381,-0.798 l 4.378,0.844 -4.188,-1.687 c -3.09,-1.241 -3.979,-2.442 -3.419,-4.803 l 56.491,-20.381 z"
           style="fill:#70e0d9;fill-opacity:1;fill-rule:nonzero;stroke:none"
           id="path77727"
           inkscape:connector-curvature="0" /><path
           d="m 131.521,404.214 c -0.207,-0.048 -0.365,-0.16 -0.509,-0.302 -0.461,-0.462 -0.366,-1.594 0.206,-2.534 1.291,-2.102 4.031,-2.23 4.031,-0.192 0,1.642 -2.372,3.377 -3.728,3.028"
           style="fill:#70e0d9;fill-opacity:1;fill-rule:nonzero;stroke:none"
           id="path77729"
           inkscape:connector-curvature="0" /><path
           d="m 149.773,378.989 c 1.639,0 1.925,3.71 0.397,5.221 -0.413,0.43 -0.875,0.654 -1.291,0.654 -1.226,0 -2.165,-1.672 -1.432,-3.535 0.492,-1.29 1.545,-2.34 2.326,-2.34"
           style="fill:#70e0d9;fill-opacity:1;fill-rule:nonzero;stroke:none"
           id="path77731"
           inkscape:connector-curvature="0" /><path
           d="m 145.55,395.007 c -0.571,0.941 -0.715,2.024 -0.3,2.438 0.046,0.049 0.142,0.079 0.207,0.096 0.431,0.127 1.033,-0.606 1.481,-1.784 1.083,-2.804 0.175,-3.297 -1.388,-0.75 m 15.227,-3.279 c -0.717,0 -1.004,0.771 -0.765,1.81 l -28.139,24.906 c 0.32,-1.455 0.54,-3.353 0.54,-5.121 0,-3.234 1.355,-6.754 3.535,-9.109 1.944,-2.103 3.266,-4.652 2.932,-5.672 -0.334,-1.018 0.827,-3.328 2.643,-5.125 1.8,-1.8 3.28,-4.444 3.28,-5.878 0,-2.039 0.462,-2.213 2.245,-0.747 1.529,1.273 2.581,1.352 3.281,0.207 0.557,-0.923 1.689,-1.641 2.484,-1.641 1.721,0 0.048,5.096 -2.134,6.562 -2.007,1.335 0.08,4.585 2.932,4.585 1.288,0 1.894,-0.988 1.401,-2.293 -1.704,-4.443 9.858,-12.533 12.278,-8.615 0.243,0.391 0.493,0.662 0.774,0.814 l -6.448,5.707 c -0.243,-0.245 -0.531,-0.39 -0.839,-0.39"
           style="fill:#70e0d9;fill-opacity:1;fill-rule:nonzero;stroke:none"
           id="path77733"
           inkscape:connector-curvature="0" /><path
           d="m 180.493,307.021 c -1.053,-1.67 -1.8,-1.67 -2.853,0 -0.444,0.732 0.161,1.339 1.401,1.339 1.243,0 1.896,-0.607 1.452,-1.339 m -3.982,-9.251 c -3.679,0.031 -6.148,2.291 -4.843,4.425 0.352,0.558 0.719,0.86 1.146,0.893 0.733,0.063 1.673,-0.637 3.043,-2.132 2.214,-2.436 2.341,-3.2 0.654,-3.186 m -14.191,4.777 c -2.037,1.321 -1.989,1.513 0.399,1.545 1.529,0.016 2.787,-0.669 2.787,-1.545 0,-1.942 -0.174,-1.942 -3.186,0 m -3.979,0 c -1.18,-1.91 -1.019,-1.91 -3.982,0 -1.927,1.242 -1.673,1.513 1.29,1.545 2.055,0.016 3.232,-0.655 2.692,-1.545 m 52.067,46.384 -59.256,-38.814 c 0.013,-0.133 0.022,-0.267 0.022,-0.406 0,-1.32 -0.557,-2.387 -1.29,-2.387 -0.491,0 -0.927,0.485 -1.165,1.199 l -17.598,-11.527 c 0.455,-0.754 1.303,-1.508 2.63,-2.508 2.582,-1.957 4.444,-2.388 5.48,-1.353 1.033,1.037 0.795,2.039 -0.75,2.996 -1.273,0.777 -1.832,1.957 -1.194,2.578 1.655,1.656 3.09,-0.238 3.583,-4.777 0.166,-1.496 0.545,-3.18 0.951,-4.389 l 6.333,0.518 c 0.54,1.505 2.455,1.882 6.205,1.339 1.386,-0.205 0.747,0.924 -1.498,2.737 -2.595,2.103 -3.201,3.441 -1.941,4.222 1.018,0.635 1.845,0.477 1.845,-0.398 0,-1.02 1.8,-1.053 5.129,-0.096 5.273,1.514 10.796,0.655 10.796,-1.638 0,-0.719 -2.195,-1.707 -4.92,-2.248 -3.267,-0.643 -4.494,-1.522 -4.162,-2.983 l 63.89,5.215 z"
           style="fill:#65eef4;fill-opacity:1;fill-rule:nonzero;stroke:none"
           id="path77735"
           inkscape:connector-curvature="0" /><path
           d="m 140.026,367.84 c 0,-0.875 0.717,-1.593 1.593,-1.593 0.875,0 1.591,0.718 1.591,1.593 0,0.875 -0.716,1.593 -1.591,1.593 -0.876,0 -1.593,-0.718 -1.593,-1.593"
           style="fill:#6debea;fill-opacity:1;fill-rule:nonzero;stroke:none"
           id="path77737"
           inkscape:connector-curvature="0" /><path
           d="m 148.531,309.711 c 0,1.308 0.62,2.39 1.353,2.39 0.655,0 1.167,-0.866 1.268,-1.984 l 59.256,38.814 -56.491,20.381 c 0.015,-0.061 0.026,-0.119 0.042,-0.182 0.765,-2.946 0.495,-3.09 -2.595,-1.449 -4.554,2.451 -7.676,0.541 -3.869,-2.388 2.579,-1.976 2.358,-2.103 -2.292,-1.243 -3.281,0.62 -5.177,0.366 -5.177,-0.75 0,-0.954 -0.908,-1.367 -2.038,-0.938 -1.147,0.43 -3.79,-1.021 -5.878,-3.234 l -3.773,-4.027 h 4.922 c 2.722,0 6.051,1.066 7.356,2.389 3.153,3.135 7.579,3.135 6.37,0 -0.495,-1.323 -2.292,-2.389 -3.982,-2.389 -2.515,0 -2.77,-0.543 -1.432,-3.042 1.736,-3.232 -0.255,-3.76 -4.428,-1.147 -3.997,2.5 -4.204,-0.86 -0.256,-4.031 3.886,-3.121 3.886,-3.152 0.21,-1.335 -5.972,2.93 -7.679,-0.526 -2.343,-4.78 3.934,-3.153 4.029,-3.455 0.893,-2.482 -2.66,0.812 -3.583,0.444 -3.583,-1.402 0,-1.369 -1.083,-2.484 -2.388,-2.484 -1.611,0 -2.389,-1.61 -2.389,-4.873 0,-3.76 0.637,-4.795 2.785,-4.443 3.233,0.54 6.769,-1.323 6.769,-3.583 0,-0.956 -1.052,-1.038 -2.787,-0.145 -3.121,1.61 -6.767,0.798 -6.767,-1.495 0,-0.813 1.973,-2.278 4.379,-3.234 l 4.378,-1.736 -4.378,-1.545 c -5.146,-1.801 -5.528,-3.711 -1.339,-6.323 2.516,-1.576 2.708,-2.499 1.242,-5.715 -0.914,-2.014 -1.146,-3.16 -0.448,-4.31 l 17.598,11.527 c -0.116,0.352 -0.188,0.754 -0.188,1.188"
           style="fill:#6debea;fill-opacity:1;fill-rule:nonzero;stroke:none"
           id="path77739"
           inkscape:connector-curvature="0" /></g></g></g></svg>