<?xml version="1.0" encoding="utf-8"?>
<!-- Generator: Adobe Illustrator 19.1.0, SVG Export Plug-In . SVG Version: 6.00 Build 0)  -->
<svg version="1.1" id="Layer_1" xmlns="http://www.w3.org/2000/svg" xmlns:xlink="http://www.w3.org/1999/xlink" x="0px" y="0px"
	 viewBox="0 0 960 560" style="enable-background:new 0 0 960 560;" xml:space="preserve">
<style type="text/css">
	.st0{fill:#FFC500;}
	.st1{fill:#E9E400;}
</style>
<g>
	<path class="st0" d="M447.5,322.6l0.2,0.1"/>
	<path class="st0" d="M447.5,322.3l0.2,0.1"/>
	<path class="st0" d="M378.8,349.2L378.8,349.2"/>
	<path class="st0" d="M500.2,331.1l0.2,0.1"/>
	<path class="st0" d="M501.8,330.3L501.8,330.3"/>
	<path class="st0" d="M548.4,277.9c0.2,0.8,0,1.8-0.5,2.5c-1.2,1.7-4.4,1.3-5.2-0.6c-0.8-2,1.2-4.4,3.3-4.1c0.7,0.1,1.3,0.5,1.8,1
		C548.1,277.1,548.3,277.5,548.4,277.9z"/>
	<path class="st0" d="M505.4,329.1l0.2,0.1"/>
	<path class="st0" d="M505.4,328.9l0.2,0.1"/>
	<path class="st0" d="M509.5,327.1l0.2,0.1"/>
	<path class="st0" d="M520.5,316.6l0.2,0.1"/>
	<path class="st0" d="M500.1,331.3c-0.1-0.4-0.9-0.2-0.8,0.2S500.2,331.7,500.1,331.3z"/>
	<path class="st0" d="M448.3,380.3L448.3,380.3"/>
	<path class="st0" d="M444.1,333.2c0.3-0.3,0.8,0.3,0.5,0.5C444.2,334,443.7,333.5,444.1,333.2L444.1,333.2z"/>
	<path class="st0" d="M514.5,214.2L514.5,214.2"/>
	<path class="st0" d="M509.4,327.3c-0.1-0.4-0.9-0.2-0.8,0.2C508.7,327.9,509.5,327.7,509.4,327.3z"/>
	<path class="st1" d="M544,406.3c-49.5,23.9-112.7,15.8-154.6-19.8s-60-96.8-44.3-149.4s64.3-94,118.8-100.9
		c44.3-5.6,90.9,11,121.7,43.5s44.8,79.9,36.7,123.9S584.2,386.8,544,406.3 M456.6,195.4c-7.5,13.3-8.7,29.9-3.1,44.1
		c4.7,12,13.9,22.1,17.4,34.6c2,7.2,2.1,14.9,3.9,22.2c1.9,7.3,6.3,14.6,13.5,16.8c7.4,2.2,15.7-2.2,19.4-9c3.6-6.8,3.1-15.3,0-22.3
		c-3.1-7.1-8.4-12.9-14.1-18.1C473.9,246.1,460.6,221.5,456.6,195.4 M469.1,285.2c0.5,0.2,1.1,0.3,1.6,0.2c1.1-0.4,1-1.9,0.7-3
		c-5.1-18.3-14.9-35.2-28.2-48.7c-8-8-13.5-18.4-15.8-29.5c-8,10.7-12.1,24.3-10.4,37.5s9.6,25.7,21.2,32.1c4,2.2,8.4,3.7,12.7,5.2
		C457,281,463.1,283.1,469.1,285.2 M560.4,179.8c-7.9,11.2-23.9,13.7-33.5,23.4s-11.2,24.9-9.6,38.5c6.6-2,13-4.6,19-7.9
		c10.5-5.7,20.3-13.5,26.2-23.9c6-10.4,7.8-23.6,2.8-34.5C563.1,175.7,561.7,178,560.4,179.8 M365.7,341.6c0.1,0.5,0.4,0.8,0.7,1.2
		c3.5,3.8,6.9,7.5,10.4,11.3c2,2.2,4.1,4.5,6.8,5.8c4.6,2.3,10.2,1.4,15.1-0.1c7.4-2.3,14.4-6.1,20.4-11c5.4-4.5,10-9.8,15.4-14.4
		c5.7-4.9,12.2-8.8,19.2-11.6c-1.7-3.7-6.4-5.1-10.4-4.3c-4,0.7-7.5,3-11.2,4.7c-20.5,9.5-46.9,3.1-65.1,16.4
		C366.3,340,365.5,340.7,365.7,341.6 M463.2,324.6c-9.9-0.3-19.8,3.7-26.7,10.8c14.6,3.9,30,5,45.1,3.2c7.2-0.9,14.3-2.4,20.9-5.2
		c13.9-5.8,25.4-17.2,31.3-31c-9.3-1.3-19.1,0.8-27.1,5.8c-6.9,4.4-14.1,8.4-21.4,12.2c-4.2,2.1-8.6,4.2-13.3,4.6
		C469.1,325.1,466.1,324.7,463.2,324.6 M434.8,275c0.1,11.4,0.4,23.4,6.4,33.1c4.4,7.2,11.8,12.4,20,14.3s17.1,0.2,24.2-4.3
		c1.1-0.7,2.1-2.4,0.9-3c-8.3-4.3-14-13.4-14.3-22.7c-0.1-3.5-4-5.4-7.3-6.6C454.8,282.2,444.8,278.6,434.8,275 M449.5,236
		c-3-17.1,0.2-35.2,8.9-50.3c1.9-3.3,4-6.4,5.8-9.8c2-3.7,3.7-7.7,4.8-11.7c-8.8,0.9-17.6,3.6-24.7,8.9c-7.2,5.2-12.6,13-14,21.8
		c-0.9,5.8-0.1,11.8,1.7,17.3C435.1,221.7,441.3,230.2,449.5,236 M529.2,299.8c6.7,0.7,13.6-0.6,19.7-3.6c3.8-1.9,7.5-4.7,8.9-8.8
		c1.9-5.7-1.7-12.2-7-15.1s-11.7-2.9-17.5-1.7c-6.3,1.3-12.3,3.7-18.1,6.5c-1.3,0.6-2.6,1.3-3.6,2.4c-0.9,1.1-1.3,2.8-0.5,4
		c2,3.2,1.7,7.3,1.3,11.1c-0.3,2.5-0.6,5-0.8,7.5C517.4,302.9,523.2,299.2,529.2,299.8 M425.4,372.4c-0.8,2.5-1.3,5.5,0.4,7.5
		c3.5,4.2,9,6.6,14.5,6.4s10.8-3.1,14-7.6c0.9-1.2,1.6-2.8,1-4.1c-4.7-10.8-1-23.8,6.6-32.9c-3-0.9-6.1-1.7-9.2-2.2
		c-1-0.2-2.1-0.3-3.1,0c-0.8,0.3-1.5,1-2.1,1.6C438.6,350.4,429.4,360.2,425.4,372.4 M512.4,277.5c8-6.6,12.3-16.8,19.2-24.6
		c4.1-4.6,9-8.3,13.3-12.7s8.1-9.7,8.9-15.7c-5.9,4.7-12.3,8.8-19,12.2c-13.3,6.7-28.4,10.9-38.5,21.8c-0.8,0.9-1.7,2.1-1.4,3.3
		c0.1,0.6,0.5,1,0.9,1.4c4,4.7,8.1,9.4,12.1,14.1c0.4,0.5,0.9,1,1.5,1.2C510.4,278.9,511.5,278.2,512.4,277.5 M400.6,376.3
		c3.5,3.3,8.1,5.8,13,5.6c4.8-0.2,9.7-3.6,10.4-8.4c1.8-11.6,10.2-20.9,18.4-29.2c1.5-1.5,3-3.1,3.2-5.2c-5.6-1.2-12.3-1.9-16,2.4
		c-9.5,11-22.7,18.8-36.9,21.7C394.1,368.1,396.9,372.8,400.6,376.3 M513.7,244.4c2.1-0.9,1.9-3.9,1.5-6.2c-1.4-8.4,0-17.3,3.8-24.9
		c0.8-1.5,1.7-3.3,1-4.9c-8.8,5.5-17.1,12.2-22.6,21s-7.9,19.9-4.5,29.7C498.7,252.9,505.8,247.8,513.7,244.4 M558.9,275.5
		c2.1,4.5,2,10-0.2,14.5c-0.3,0.6-0.6,1.5-0.1,2c0.4,0.4,1.1,0.2,1.7,0c7.3-3,14.4-6.8,20.9-11.3
		C573.6,279.5,566.1,277.8,558.9,275.5z"/>
</g>
</svg>
