<?xml version="1.0" encoding="utf-8"?>
<!DOCTYPE svg PUBLIC "-//W3C//DTD SVG 1.1//EN" "http://www.w3.org/Graphics/SVG/1.1/DTD/svg11.dtd">
<svg version="1.1" id="Layer_1" xmlns="http://www.w3.org/2000/svg" xmlns:xlink="http://www.w3.org/1999/xlink" x="0px" y="0px"
	 viewBox="428.6868 -38.6693 1726.2198 1689.6266" enable-background="new 428.6868 -38.6693 1726.2198 1689.6266"
	 xml:space="preserve">
<g id="size">
</g>
<g id="tint">
</g>
<g>
	
		<linearGradient id="SVGID_1_" gradientUnits="userSpaceOnUse" x1="201.8706" y1="1631.6235" x2="201.8706" y2="763.2492" gradientTransform="matrix(1.8815 0 0 -1.8815 480 3010.3706)">
		<stop  offset="0" style="stop-color:#F9C7DD"/>
		<stop  offset="1" style="stop-color:#F68638"/>
	</linearGradient>
	<path fill="url(#SVGID_1_)" d="M843.2659,556.5695c-1.6473-21.464-2.6202-47.9989-2.6202-70.0398
		c0-98.6336,12.5038-197.2672,42.3169-280.1542c15.452-42.926,30.474-85.0441,66.0035-114.2505
		c-120.5593,17.7914-148.7573,71.2927-160.0909,111.4673c-20.1293,71.3066-18.8597,110.6415-17.5926,151.2617
		c2.8668,92.0446,20.2108,194.0383,42.6134,275.0972C818.79,594.0599,831.3391,575.4452,843.2659,556.5695z"/>
	
		<linearGradient id="SVGID_2_" gradientUnits="userSpaceOnUse" x1="77.7514" y1="1631.6213" x2="77.7514" y2="763.2534" gradientTransform="matrix(1.8815 0 0 -1.8815 480 3010.3706)">
		<stop  offset="0" style="stop-color:#F9C7DD"/>
		<stop  offset="1" style="stop-color:#F68638"/>
	</linearGradient>
	<path fill="url(#SVGID_2_)" d="M756.2266,945.6049C654.3323,881.084,563.6722,826.7091,497.2715,731.37
		c-23.3398,37.9162-26.2408,75.9542-20.4095,107.8885c5.8328,32.0891,17.4948,55.4134,58.3119,87.4866
		c40.8171,32.0695,124.9558,75.2917,243.1275,104.3812C761.3989,1019.8579,758.996,967.0032,756.2266,945.6049z"/>
	
		<linearGradient id="SVGID_3_" gradientUnits="userSpaceOnUse" x1="100.4137" y1="1631.6281" x2="100.4137" y2="763.2494" gradientTransform="matrix(1.8815 0 0 -1.8815 480 3010.3706)">
		<stop  offset="0" style="stop-color:#F9C7DD"/>
		<stop  offset="1" style="stop-color:#F68638"/>
	</linearGradient>
	<path fill="url(#SVGID_3_)" d="M777.7403,1054.2673c-111.5154-25.9104-260.2902-90.2006-271.7216-114.2966
		c6.2928,33.8998,7.8744,69.4467,22.6635,94.5654c14.7617,25.1183,34.5923,40.9304,41.3643,45.8082
		c65.9693,47.3405,161.6367,66.976,261.788,66.6141C802.4805,1125.743,786.8657,1084.1323,777.7403,1054.2673z"/>
	
		<linearGradient id="SVGID_4_" gradientUnits="userSpaceOnUse" x1="197.2504" y1="1631.6266" x2="197.2504" y2="763.2513" gradientTransform="matrix(1.8815 0 0 -1.8815 480 3010.3706)">
		<stop  offset="0" style="stop-color:#F9C7DD"/>
		<stop  offset="1" style="stop-color:#F68638"/>
	</linearGradient>
	<path fill="url(#SVGID_4_)" d="M945.2933,1318.7688c-86.9081,27.84-213.0153,29.9487-251.4294,12.0917
		c15.9294,17.9523,31.7912,62.1973,91.9135,70.1388c64.4731,6.7166,151.954-18.4181,222.6047-49.7153
		C981.662,1349.8993,959.9373,1331.8474,945.2933,1318.7688z"/>
	
		<linearGradient id="SVGID_5_" gradientUnits="userSpaceOnUse" x1="245.7033" y1="1631.6305" x2="245.7033" y2="763.2499" gradientTransform="matrix(1.8815 0 0 -1.8815 480 3010.3706)">
		<stop  offset="0" style="stop-color:#F9C7DD"/>
		<stop  offset="1" style="stop-color:#F68638"/>
	</linearGradient>
	<path fill="url(#SVGID_5_)" d="M1023.7982,1377.1464c-77.3668,37.5881-162.0188,52.3778-234.7421,47.6387
		c18.4975,14.8889,40.5701,49.5131,116.407,48.6255c60.1226-4.1547,129.8178-38.0226,190.0535-75.7375
		C1071.6337,1404.7197,1041.3247,1387.8855,1023.7982,1377.1464z"/>
	
		<linearGradient id="SVGID_6_" gradientUnits="userSpaceOnUse" x1="298.499" y1="1631.6327" x2="298.499" y2="763.2493" gradientTransform="matrix(1.8815 0 0 -1.8815 480 3010.3706)">
		<stop  offset="0" style="stop-color:#F9C7DD"/>
		<stop  offset="1" style="stop-color:#F68638"/>
	</linearGradient>
	<path fill="url(#SVGID_6_)" d="M1115.3652,1421.6539c-67.8475,46.3812-141.0165,75.3752-210.6262,81.9285
		c20.491,11.4628,68.9851,39.5338,118.9434,25.9617c55.2145-13.6034,104.351-41.9049,154.819-85.2587
		C1152.8218,1441.8463,1123.4698,1429.6276,1115.3652,1421.6539z"/>
	
		<linearGradient id="SVGID_7_" gradientUnits="userSpaceOnUse" x1="80.0879" y1="1631.6212" x2="80.0879" y2="763.2523" gradientTransform="matrix(1.8815 0 0 -1.8815 480 3010.3706)">
		<stop  offset="0" style="stop-color:#F9C7DD"/>
		<stop  offset="1" style="stop-color:#F68638"/>
	</linearGradient>
	<path fill="url(#SVGID_7_)" d="M748.1891,857.2308c-84.2043-83.2155-155.1328-174.5519-215.4203-291.0425
		c-29.6665,33.9674-41.3285,77.7147-20.9189,133.1102c20.4076,55.3976,148.8065,160.5863,247.9178,227.4308
		C743.9719,907.786,748.1553,859.5226,748.1891,857.2308z"/>
	
		<linearGradient id="SVGID_8_" gradientUnits="userSpaceOnUse" x1="94.7565" y1="1631.6227" x2="94.7565" y2="763.2527" gradientTransform="matrix(1.8815 0 0 -1.8815 480 3010.3706)">
		<stop  offset="0" style="stop-color:#F9C7DD"/>
		<stop  offset="1" style="stop-color:#F68638"/>
	</linearGradient>
	<path fill="url(#SVGID_8_)" d="M761.8785,752.9811c-56.615-94.9113-103.5933-191.2731-130.2117-311.8144
		c-4.3171-19.6017-8.8788-48.2296-3.8038-71.0781c-55.9227,55.9565-83.9256,116.3414-69.3631,174.6554
		c14.5922,58.3437,119.5186,210.0492,199.1609,293.5275C749.2436,817.2237,757.5613,781.774,761.8785,752.9811z"/>
	
		<linearGradient id="SVGID_9_" gradientUnits="userSpaceOnUse" x1="130.0346" y1="1631.6235" x2="130.0346" y2="763.2488" gradientTransform="matrix(1.8815 0 0 -1.8815 480 3010.3706)">
		<stop  offset="0" style="stop-color:#F9C7DD"/>
		<stop  offset="1" style="stop-color:#F68638"/>
	</linearGradient>
	<path fill="url(#SVGID_9_)" d="M797.5885,646.2584c-30.6529-94.3681-58.0312-186.5101-58.0312-296.4773
		c0-42.6293,2.5363-96.4595,24.1135-135.796c-78.7015,41.8711-108.9445,71.241-111.8593,144.1476
		c-2.9144,72.9041,69.8248,270.1734,129.4698,379.4642C774.7599,691.9378,790.8524,664.064,797.5885,646.2584z"/>
	
		<linearGradient id="SVGID_10_" gradientUnits="userSpaceOnUse" x1="359.8671" y1="1631.6274" x2="359.8671" y2="763.2496" gradientTransform="matrix(1.8815 0 0 -1.8815 480 3010.3706)">
		<stop  offset="0" style="stop-color:#F9C7DD"/>
		<stop  offset="1" style="stop-color:#F68638"/>
	</linearGradient>
	<path fill="url(#SVGID_10_)" d="M1218.3494,1447.8785c-58.2303,54.8524-124.0183,93.988-190.0193,111.2167
		c21.6249,7.6113,66.7926,31.8225,138.6925,4.4479c50.5869-22.2373,77.3386-61.1746,118.8141-110.4288
		C1262.9702,1452.8839,1240.4718,1451.0736,1218.3494,1447.8785z"/>
	
		<linearGradient id="SVGID_11_" gradientUnits="userSpaceOnUse" x1="155.5298" y1="1631.6361" x2="155.5298" y2="763.2475" gradientTransform="matrix(1.8815 0 0 -1.8815 480 3010.3706)">
		<stop  offset="0" style="stop-color:#F9C7DD"/>
		<stop  offset="1" style="stop-color:#F68638"/>
	</linearGradient>
	<path fill="url(#SVGID_11_)" d="M880.3428,1249.8193c-95.916,16.5007-189.3772,9.4219-264.7843-21.2587
		c12.8456,20.6302,16.4387,64.1509,75.6539,79.3384c67.4691,19.1743,157.1603,4.2496,238.4819-19.0427
		C898.7111,1285.5972,892.122,1264.5729,880.3428,1249.8193z"/>
	
		<linearGradient id="SVGID_12_" gradientUnits="userSpaceOnUse" x1="124.4986" y1="1631.6199" x2="124.4986" y2="763.2516" gradientTransform="matrix(1.8815 0 0 -1.8815 480 3010.3706)">
		<stop  offset="0" style="stop-color:#F9C7DD"/>
		<stop  offset="1" style="stop-color:#F68638"/>
	</linearGradient>
	<path fill="url(#SVGID_12_)" d="M824.5871,1168.4042c-65.9871,8.8967-246.3739-33.5692-270.3368-65.9851
		c9.2887,22.6794,5.4511,79.8872,66.0332,102.0574c68.1294,32.8647,162.5953,25.632,253.9498,12.6169
		C849.7713,1210.5562,833.5474,1184.248,824.5871,1168.4042z"/>
	
		<linearGradient id="SVGID_13_" gradientUnits="userSpaceOnUse" x1="245.7958" y1="1631.6088" x2="245.7958" y2="763.2561" gradientTransform="matrix(1.8815 0 0 -1.8815 480 3010.3706)">
		<stop  offset="0" style="stop-color:#F9C7DD"/>
		<stop  offset="1" style="stop-color:#F68638"/>
	</linearGradient>
	<path fill="url(#SVGID_13_)" d="M991.1854,1142.4103c-26.8018,8.1727-39.6613,10.0789-66.4447,15.9076
		c-15.8121,3.426-42.9142,4.7828-65.0684,1.8184c8.7138,14.4272,19.8982,36.7289,39.8939,45.8086
		c19.9976,9.0756,50.635-0.2665,76.4614-9.2749c17.4296-6.0956,32.7817-13.671,49.2204-21.0879
		C1016.3535,1167.545,999.3538,1151.2076,991.1854,1142.4103z"/>
	
		<linearGradient id="SVGID_14_" gradientUnits="userSpaceOnUse" x1="264.846" y1="1631.6281" x2="264.846" y2="763.251" gradientTransform="matrix(1.8815 0 0 -1.8815 480 3010.3706)">
		<stop  offset="0" style="stop-color:#F9C7DD"/>
		<stop  offset="1" style="stop-color:#F68638"/>
	</linearGradient>
	<path fill="url(#SVGID_14_)" d="M1051.3732,1194.7762c-21.9072,10.5917-44.6405,20.2123-68.2272,28.4329
		c-21.8417,7.6234-55.9386,16.4525-77.9135,21.5972c11.431,13.4763,53.2369,43.9146,74.3229,41.8097
		c16.1422,0,71.6847-16.8661,71.6847-16.8661c-2.5044-10.0153-8.3019-12.1875-9.718-33.4143
		C1040.2861,1218.0007,1042.807,1206.5059,1051.3732,1194.7762z"/>
	
		<linearGradient id="SVGID_15_" gradientUnits="userSpaceOnUse" x1="191.1124" y1="1631.6193" x2="191.1124" y2="763.2542" gradientTransform="matrix(1.8815 0 0 -1.8815 480 3010.3706)">
		<stop  offset="0" style="stop-color:#F9C7DD"/>
		<stop  offset="1" style="stop-color:#F68638"/>
	</linearGradient>
	<path fill="url(#SVGID_15_)" d="M882.5351,828.6863c-29.3539-44.8372-55.7736-106.062-76.7939-159.5792
		c-7.6752,25.8603-12.5848,44.7696-11.101,83.1996c1.4822,38.4276,58.3755,85.2404,90.1329,120.8873
		C884.578,867.9219,882.5351,828.7186,882.5351,828.6863z"/>
	
		<linearGradient id="SVGID_16_" gradientUnits="userSpaceOnUse" x1="188.8793" y1="1631.6182" x2="188.8793" y2="763.2546" gradientTransform="matrix(1.8815 0 0 -1.8815 480 3010.3706)">
		<stop  offset="0" style="stop-color:#F9C7DD"/>
		<stop  offset="1" style="stop-color:#F68638"/>
	</linearGradient>
	<path fill="url(#SVGID_16_)" d="M884.0149,892.5313c-36.5656-36.6332-71.4199-57.8805-99.1266-113.3257
		c-2.073,16.8823-11.1352,41.209-5.2363,69.2797c5.8967,28.0828,75.8527,68.6232,113.4071,94.7484
		C891.957,937.866,884.9064,897.9823,884.0149,892.5313z"/>
	
		<linearGradient id="SVGID_17_" gradientUnits="userSpaceOnUse" x1="200.5542" y1="1631.6257" x2="200.5542" y2="763.2531" gradientTransform="matrix(1.8815 0 0 -1.8815 480 3010.3706)">
		<stop  offset="0" style="stop-color:#F9C7DD"/>
		<stop  offset="1" style="stop-color:#F68638"/>
	</linearGradient>
	<path fill="url(#SVGID_17_)" d="M909.6153,1017.9841c-45.019-12.1912-82.014-30.705-123.5254-54.3908
		c2.9502,16.6356,7.2971,54.6213,25.0389,69.4108c17.7397,14.7617,80.134,25.2141,117.4595,26.515
		C926.778,1055.8788,911.3439,1021.6726,909.6153,1017.9841z"/>
	
		<linearGradient id="SVGID_18_" gradientUnits="userSpaceOnUse" x1="219.3284" y1="1631.6134" x2="219.3284" y2="763.2557" gradientTransform="matrix(1.8815 0 0 -1.8815 480 3010.3706)">
		<stop  offset="0" style="stop-color:#F9C7DD"/>
		<stop  offset="1" style="stop-color:#F68638"/>
	</linearGradient>
	<path fill="url(#SVGID_18_)" d="M949.1192,1081.3312c-55.875,2.7335-94.7267-16.8344-137.2921-25.6635
		c9.0935,26.5709,24.9313,67.8512,44.8812,76.3979c31.031,13.2933,95.7889-3.8315,116.7893-9.6765
		C965.3448,1111.9127,956.3005,1092.5955,949.1192,1081.3312z"/>
	
		<linearGradient id="SVGID_19_" gradientUnits="userSpaceOnUse" x1="260.5577" y1="1631.6232" x2="260.5577" y2="763.2493" gradientTransform="matrix(1.8815 0 0 -1.8815 480 3010.3706)">
		<stop  offset="0" style="stop-color:#F9C7DD"/>
		<stop  offset="1" style="stop-color:#F68638"/>
	</linearGradient>
	<path fill="url(#SVGID_19_)" d="M941.241,644.4144c9.0936-15.7482,11.8768-19.3551,22.8305-33.687
		c3.3602-103.7722,20.3917-146.3836,42.8918-194.1695c-18.563,14.2484-54.2078,38.742-67.5012,72.7411
		C926.151,523.2626,938.9846,621.733,941.241,644.4144z"/>
	
		<linearGradient id="SVGID_20_" gradientUnits="userSpaceOnUse" x1="223.5202" y1="1631.624" x2="223.5202" y2="763.2506" gradientTransform="matrix(1.8815 0 0 -1.8815 480 3010.3706)">
		<stop  offset="0" style="stop-color:#F9C7DD"/>
		<stop  offset="1" style="stop-color:#F68638"/>
	</linearGradient>
	<path fill="url(#SVGID_20_)" d="M923.2862,670.2909c-6.917-39.6632-9.569-149.6642-8.27-167.5514
		c-10.0464,12.6349-30.2429,36.7966-36.1378,61.901c-5.9305,25.1362,14.1331,103.295,29.0558,152.5468
		C910.1102,710.9446,920.8494,676.3865,923.2862,670.2909z"/>
	
		<linearGradient id="SVGID_21_" gradientUnits="userSpaceOnUse" x1="201.6902" y1="1631.6201" x2="201.6902" y2="763.2543" gradientTransform="matrix(1.8815 0 0 -1.8815 480 3010.3706)">
		<stop  offset="0" style="stop-color:#F9C7DD"/>
		<stop  offset="1" style="stop-color:#F68638"/>
	</linearGradient>
	<path fill="url(#SVGID_21_)" d="M891.8397,744.8442c-20.4234-49.845-29.4318-89.741-39.5639-159.5156
		c-8.7118,16.6372-23.6544,42.862-25.1203,75.3769c-1.4822,32.4993,36.4682,98.7653,61.2759,138.2313
		C889.2892,792.5964,890.7033,751.0712,891.8397,744.8442z"/>
	
		<linearGradient id="SVGID_22_" gradientUnits="userSpaceOnUse" x1="189.817" y1="1631.6246" x2="189.817" y2="763.2501" gradientTransform="matrix(1.8815 0 0 -1.8815 480 3010.3706)">
		<stop  offset="0" style="stop-color:#F9C7DD"/>
		<stop  offset="1" style="stop-color:#F68638"/>
	</linearGradient>
	<path fill="url(#SVGID_22_)" d="M891.8397,962.6225c-42.6775-28.8468-81.9781-54.9717-120.4916-89.5918
		c0.4955,11.5944,1.0227,46.0872,15.7963,65.2928c14.7772,19.2101,73.9606,45.6174,115.782,63.4545
		C902.3995,1000.2625,892.3527,964.1385,891.8397,962.6225z"/>
	
		<linearGradient id="SVGID_23_" gradientUnits="userSpaceOnUse" x1="431.5076" y1="1631.6255" x2="431.5076" y2="763.2543" gradientTransform="matrix(1.8815 0 0 -1.8815 480 3010.3706)">
		<stop  offset="0" style="stop-color:#F9C7DD"/>
		<stop  offset="1" style="stop-color:#F68638"/>
	</linearGradient>
	<path fill="url(#SVGID_23_)" d="M1290.9095,1487.1458c-9.6248,49.9742-69.198,92.2732-69.198,92.2732
		s19.2178,26.9171,69.198,26.9171c49.9742,0,71.1261-25.0031,71.1261-25.0031S1300.5267,1537.1198,1290.9095,1487.1458z"/>
	
		<linearGradient id="SVGID_24_" gradientUnits="userSpaceOnUse" x1="339.2182" y1="1631.6437" x2="339.2182" y2="763.246" gradientTransform="matrix(1.8815 0 0 -1.8815 480 3010.3706)">
		<stop  offset="0" style="stop-color:#F9C7DD"/>
		<stop  offset="1" style="stop-color:#F68638"/>
	</linearGradient>
	<path fill="url(#SVGID_24_)" d="M1138.1481,1339.0929c-13.7053-5.8608-24.4619-12.219-24.4619-12.219
		s-29.2864,17.7894-59.1835,34.7867c16.8344,9.3901,39.6152,27.5735,67.7339,21.9436
		c28.1007-5.6022,59.7266-37.9542,59.7266-37.9542S1152.9054,1345.4191,1138.1481,1339.0929z"/>
	
		<linearGradient id="SVGID_25_" gradientUnits="userSpaceOnUse" x1="293.8554" y1="1631.6268" x2="293.8554" y2="763.2523" gradientTransform="matrix(1.8815 0 0 -1.8815 480 3010.3706)">
		<stop  offset="0" style="stop-color:#F9C7DD"/>
		<stop  offset="1" style="stop-color:#F68638"/>
	</linearGradient>
	<path fill="url(#SVGID_25_)" d="M1074.5481,1304.8669c-8.5663-7.3447-16.9818-18.251-16.9818-18.251
		s-48.4941,25.3018-87.1366,23.9169c14.1648,11.793,40.0593,30.9039,68.1616,30.9039c28.1007,0,56.7461-23.1293,56.7461-23.1293
		S1083.1143,1312.2117,1074.5481,1304.8669z"/>
	
		<linearGradient id="SVGID_26_" gradientUnits="userSpaceOnUse" x1="399.215" y1="1631.6129" x2="399.215" y2="763.2512" gradientTransform="matrix(1.8815 0 0 -1.8815 480 3010.3706)">
		<stop  offset="0" style="stop-color:#F9C7DD"/>
		<stop  offset="1" style="stop-color:#F68638"/>
	</linearGradient>
	<path fill="url(#SVGID_26_)" d="M1254.3579,1362.3533c-20.9045-1.1857-52.5959-9.7842-52.5959-9.7842
		s-34.5903,27.3784-62.3944,51.3591c25.6931,25.6993,121.0983,26.9166,155.3618,25.6993
		c11.0056-24.4778,28.1345-73.4017,28.1345-73.4017S1298.3861,1364.7921,1254.3579,1362.3533z"/>
	
		<linearGradient id="SVGID_27_" gradientUnits="userSpaceOnUse" x1="471.1299" y1="1631.6207" x2="471.1299" y2="763.2524" gradientTransform="matrix(1.8815 0 0 -1.8815 480 3010.3706)">
		<stop  offset="0" style="stop-color:#F9C7DD"/>
		<stop  offset="1" style="stop-color:#F68638"/>
	</linearGradient>
	<path fill="url(#SVGID_27_)" d="M1402.0547,1339.2355c5.6421-25.0901,10.5798-51.2511,12.8318-69.2869
		c-18.1711,11.2321-55.1747,28.2294-55.1747,28.2294s-5.9404,18.0522-15.3982,51.3231
		c-9.3861,33.1117-26.3556,77.687-26.3556,77.687s10.7069,3.2388,27.6412-0.7003c9.963-2.3159,24.7523-5.8134,33.3585-8.9843
		C1383.9471,1397.6451,1395.4539,1368.5918,1402.0547,1339.2355z"/>
	
		<linearGradient id="SVGID_28_" gradientUnits="userSpaceOnUse" x1="510.4807" y1="1631.6238" x2="510.4807" y2="763.25" gradientTransform="matrix(1.8815 0 0 -1.8815 480 3010.3706)">
		<stop  offset="0" style="stop-color:#F9C7DD"/>
		<stop  offset="1" style="stop-color:#F68638"/>
	</linearGradient>
	<path fill="url(#SVGID_28_)" d="M1481.6078,1312.2915c3.6407-22.7593,5.324-61.0955,1.4961-86.9578
		c-18.1715,14.4749-48.7408,34.9905-48.7408,34.9905s-1.4163,31.0669-13.6555,81.2438c-10.4125,42.6294-25.0667,73.37-25.0667,73.37
		s45.8682-7.3529,66.6578-29.356C1467.6621,1358.1473,1476.5983,1343.6007,1481.6078,1312.2915z"/>
	
		<linearGradient id="SVGID_29_" gradientUnits="userSpaceOnUse" x1="420.668" y1="1631.626" x2="420.668" y2="763.2494" gradientTransform="matrix(1.8815 0 0 -1.8815 480 3010.3706)">
		<stop  offset="0" style="stop-color:#F9C7DD"/>
		<stop  offset="1" style="stop-color:#F68638"/>
	</linearGradient>
	<path fill="url(#SVGID_29_)" d="M1271.4729,1308.5234c-25.6973-0.6925-51.359-3.6567-51.359-3.6567l-17.1326,33.0087
		c0,0,23.2405,6.1312,47.7024,7.349c24.4579,1.2175,54.6532,3.521,75.8369-4.9099c4.8937-12.223,13.4563-39.1362,13.4563-39.1362
		S1315.519,1309.745,1271.4729,1308.5234z"/>
	
		<linearGradient id="SVGID_30_" gradientUnits="userSpaceOnUse" x1="284.0895" y1="1631.621" x2="284.0895" y2="763.2501" gradientTransform="matrix(1.8815 0 0 -1.8815 480 3010.3706)">
		<stop  offset="0" style="stop-color:#F9C7DD"/>
		<stop  offset="1" style="stop-color:#F68638"/>
	</linearGradient>
	<path fill="url(#SVGID_30_)" d="M968.6194,691.4106c0-16.3414,0.9191-32.4358,2.5024-48.2654
		c-38.8594,61.7058-61.5388,135.2033-61.5388,214.1373c0,122.8629,66.6937,235.894,134.2287,298.0435
		c16.3906,15.0917,23.1108,20.1605,38.511,29.8453c-14.8253-20.5229-7.8899-49.7595-3.7383-69.5425
		c-41.4434-36.5219-71.2748-70.1071-89.9536-102.8852c-20.8712-36.5973-28.4805-72.0807-36.0085-107.2337
		c-1.1022-5.1564-3.5728-19.699,1.5975-20.7852c5.1724-1.1221,6.0956,6.8355,7.2137,11.9919
		c13.92,64.9983,45.0861,127.6572,123.4756,199.0815c6.9825-14.2002,19.5677-28.1661,34.5262-41.348
		C1015.0008,978.3828,968.6194,844.3037,968.6194,691.4106z"/>
	
		<linearGradient id="SVGID_31_" gradientUnits="userSpaceOnUse" x1="527.6833" y1="1631.6238" x2="527.6833" y2="763.249" gradientTransform="matrix(1.8815 0 0 -1.8815 480 3010.3706)">
		<stop  offset="0" style="stop-color:#F9C7DD"/>
		<stop  offset="1" style="stop-color:#F68638"/>
	</linearGradient>
	<path fill="url(#SVGID_31_)" d="M1585.0817,389.7903c-16.1263-40.1925-31.7114-80.5798-56.9095-113.8211
		c-59.8418-78.9163-146.4534-130.1934-225.6323-133.7368c0,0,38.2804-7.5436,58.2422-5.2042
		c28.4609,3.3621,53.4996,8.2521,103.0958,41.1133c40.0952,26.5549,86.0544,67.3699,116.1786,109.5377
		c32.4354,45.4305,48.0645,93.2978,63.0569,152.1031C1624.0701,423.6244,1606.0503,403.1333,1585.0817,389.7903z"/>
	
		<linearGradient id="SVGID_32_" gradientUnits="userSpaceOnUse" x1="548.6191" y1="1631.624" x2="548.6191" y2="763.2482" gradientTransform="matrix(1.8815 0 0 -1.8815 480 3010.3706)">
		<stop  offset="0" style="stop-color:#F9C7DD"/>
		<stop  offset="1" style="stop-color:#F68638"/>
	</linearGradient>
	<path fill="url(#SVGID_32_)" d="M1670.2051,470.1252c-36.7808-239.5702-186.7073-440.3947-367.6654-446.7368
		c0,0,44.8495-15.2372,63.2675-16.9183c18.4103-1.6632,70.0159-0.348,133.005,19.6159
		c44.0098,13.9518,91.3862,44.9966,120.1808,77.3786c56.5834,63.6497,102.901,234.322,102.901,398.1512
		c0,6.8176-2.4869,28.6592-2.6541,35.4137C1704.5465,502.7855,1683.6337,484.2399,1670.2051,470.1252z"/>
	
		<linearGradient id="SVGID_33_" gradientUnits="userSpaceOnUse" x1="335.5243" y1="1631.6238" x2="335.5243" y2="763.249" gradientTransform="matrix(1.8815 0 0 -1.8815 480 3010.3706)">
		<stop  offset="0" style="stop-color:#F9C7DD"/>
		<stop  offset="1" style="stop-color:#F68638"/>
	</linearGradient>
	<path fill="url(#SVGID_33_)" d="M999.0236,389.7903c16.1263-40.1925,31.7094-80.5798,56.9112-113.8211
		c59.8438-78.9163,146.4537-130.1934,225.6365-133.7368c0,0-38.2985-7.5436-58.2483-5.2042
		c-28.4626,3.3621-53.5013,8.2521-103.0995,41.1133c-40.0911,26.5549-86.0468,67.3699-116.1744,109.5377
		c-32.4358,45.4305-48.0666,93.2978-63.0549,152.1031C960.0368,423.6244,978.0551,403.1333,999.0236,389.7903z"/>
	
		<linearGradient id="SVGID_34_" gradientUnits="userSpaceOnUse" x1="314.5883" y1="1631.6235" x2="314.5883" y2="763.2482" gradientTransform="matrix(1.8815 0 0 -1.8815 480 3010.3706)">
		<stop  offset="0" style="stop-color:#F9C7DD"/>
		<stop  offset="1" style="stop-color:#F68638"/>
	</linearGradient>
	<path fill="url(#SVGID_34_)" d="M913.8981,470.1252c36.7827-239.5702,186.7094-440.3947,367.6732-446.7368
		c0,0-59.032-10.4364-77.4498-12.1175c-18.4124-1.6632-63.7773-5.1487-126.7661,14.8151
		c-44.0143,13.9518-79.8636,36.7644-108.6565,69.1464c-56.579,63.6493-106.4857,247.4939-106.4857,411.3231
		c0,6.8177,2.4886,28.6593,2.6536,35.4137C879.5588,507.7253,900.4716,484.2399,913.8981,470.1252z"/>
	
		<linearGradient id="SVGID_35_" gradientUnits="userSpaceOnUse" x1="661.0641" y1="1631.6235" x2="661.0641" y2="763.2492" gradientTransform="matrix(1.8815 0 0 -1.8815 480 3010.3706)">
		<stop  offset="0" style="stop-color:#F9C7DD"/>
		<stop  offset="1" style="stop-color:#F68638"/>
	</linearGradient>
	<path fill="url(#SVGID_35_)" d="M1740.3322,556.5695c1.6472-21.464,2.6182-47.9989,2.6182-70.0398
		c0-98.6336-12.5018-197.2672-42.3193-280.1542c-15.4493-42.926-30.4734-85.0441-66.0011-114.2505
		c120.5593,17.7914,148.7573,71.2927,160.0931,111.4673c20.1289,71.3066,18.8557,110.6415,17.5905,151.2617
		c-2.8647,92.0446-20.2128,194.0383-42.6134,275.0972C1764.806,594.0599,1752.2531,575.4452,1740.3322,556.5695z"/>
	
		<linearGradient id="SVGID_36_" gradientUnits="userSpaceOnUse" x1="785.3752" y1="1631.6205" x2="785.3752" y2="763.2527" gradientTransform="matrix(1.8815 0 0 -1.8815 480 3010.3706)">
		<stop  offset="0" style="stop-color:#F9C7DD"/>
		<stop  offset="1" style="stop-color:#F68638"/>
	</linearGradient>
	<path fill="url(#SVGID_36_)" d="M1827.3694,945.6049c101.8943-64.5209,192.5525-118.8958,258.9551-214.2349
		c23.3401,37.9162,26.2368,75.9542,20.4077,107.8885c-5.8293,32.0891-17.4949,55.4134-58.314,87.4866
		c-40.8112,32.0695-124.2433,75.0093-242.399,104.1027C1810.9092,1010.2731,1824.6001,967.0032,1827.3694,945.6049z"/>
	
		<linearGradient id="SVGID_37_" gradientUnits="userSpaceOnUse" x1="762.5209" y1="1631.6281" x2="762.5209" y2="763.2494" gradientTransform="matrix(1.8815 0 0 -1.8815 480 3010.3706)">
		<stop  offset="0" style="stop-color:#F9C7DD"/>
		<stop  offset="1" style="stop-color:#F68638"/>
	</linearGradient>
	<path fill="url(#SVGID_37_)" d="M1805.8558,1054.2673c111.515-25.9104,260.2882-90.2006,271.7228-114.2966
		c-6.2947,33.8998-7.8782,69.4467-22.6675,94.5654c-14.7614,25.1183-34.5919,40.9304-41.3639,45.8082
		c-65.965,47.3405-161.6366,66.976-261.7878,66.6141C1781.1156,1125.743,1796.7283,1084.1323,1805.8558,1054.2673z"/>
	
		<linearGradient id="SVGID_38_" gradientUnits="userSpaceOnUse" x1="670.2717" y1="1631.6151" x2="670.2717" y2="763.2518" gradientTransform="matrix(1.8815 0 0 -1.8815 480 3010.3706)">
		<stop  offset="0" style="stop-color:#F9C7DD"/>
		<stop  offset="1" style="stop-color:#F68638"/>
	</linearGradient>
	<path fill="url(#SVGID_38_)" d="M1638.2987,1318.7688c86.9059,27.84,213.0189,29.9487,251.4314,12.0917
		c-15.9274,17.9523-31.7872,62.1973-91.9119,70.1388c-64.4734,6.7166-134.6918-14.1326-205.3405-45.4304
		C1608.3896,1344.1694,1623.6567,1331.8474,1638.2987,1318.7688z"/>
	
		<linearGradient id="SVGID_39_" gradientUnits="userSpaceOnUse" x1="621.8622" y1="1631.6305" x2="621.8622" y2="763.2499" gradientTransform="matrix(1.8815 0 0 -1.8815 480 3010.3706)">
		<stop  offset="0" style="stop-color:#F9C7DD"/>
		<stop  offset="1" style="stop-color:#F68638"/>
	</linearGradient>
	<path fill="url(#SVGID_39_)" d="M1559.7999,1377.1464c77.3647,37.5881,162.0148,52.3778,234.74,47.6387
		c-18.5016,14.8889-40.5723,49.5131-116.4091,48.6255c-60.1241-4.1547-112.3905-29.392-172.6263-67.1077
		C1524.1813,1397.701,1542.2694,1387.8855,1559.7999,1377.1464z"/>
	
		<linearGradient id="SVGID_40_" gradientUnits="userSpaceOnUse" x1="564.815" y1="1631.6327" x2="564.815" y2="763.2493" gradientTransform="matrix(1.8815 0 0 -1.8815 480 3010.3706)">
		<stop  offset="0" style="stop-color:#F9C7DD"/>
		<stop  offset="1" style="stop-color:#F68638"/>
	</linearGradient>
	<path fill="url(#SVGID_40_)" d="M1468.231,1421.6539c67.8474,46.3812,141.0144,75.3752,210.6241,81.9285
		c-20.4916,11.4628-68.9851,39.5338-118.9434,25.9617c-55.2146-13.6034-102.901-46.0193-153.3885-89.3768
		C1427.5951,1435.3251,1448.1497,1429.0981,1468.231,1421.6539z"/>
	
		<linearGradient id="SVGID_41_" gradientUnits="userSpaceOnUse" x1="781.8976" y1="1631.6218" x2="781.8976" y2="763.254" gradientTransform="matrix(1.8815 0 0 -1.8815 480 3010.3706)">
		<stop  offset="0" style="stop-color:#F9C7DD"/>
		<stop  offset="1" style="stop-color:#F68638"/>
	</linearGradient>
	<path fill="url(#SVGID_41_)" d="M1835.3589,856.2599c84.1885-83.2155,155.179-173.5811,215.4707-290.0716
		c29.6624,33.9674,41.3284,77.7147,20.9167,133.1102c-20.4075,55.3976-152.3818,162.2695-251.4908,229.1097
		C1830.0353,907.2091,1835.3711,858.5517,1835.3589,856.2599z"/>
	
		<linearGradient id="SVGID_42_" gradientUnits="userSpaceOnUse" x1="768.7867" y1="1631.6227" x2="768.7867" y2="763.2529" gradientTransform="matrix(1.8815 0 0 -1.8815 480 3010.3706)">
		<stop  offset="0" style="stop-color:#F9C7DD"/>
		<stop  offset="1" style="stop-color:#F68638"/>
	</linearGradient>
	<path fill="url(#SVGID_42_)" d="M1824.0073,748.27c56.6309-94.9112,101.3055-186.5618,127.9198-307.1031
		c4.317-19.6017,8.8809-48.2296,3.8038-71.0781c55.9226,55.9565,83.9297,116.3414,69.3632,174.6554
		c-14.5941,58.3437-113.7867,199.0615-193.4116,282.5419C1829.9042,806.0869,1828.3203,777.0629,1824.0073,748.27z"/>
	
		<linearGradient id="SVGID_43_" gradientUnits="userSpaceOnUse" x1="732.9001" y1="1631.6235" x2="732.9001" y2="763.2488" gradientTransform="matrix(1.8815 0 0 -1.8815 480 3010.3706)">
		<stop  offset="0" style="stop-color:#F9C7DD"/>
		<stop  offset="1" style="stop-color:#F68638"/>
	</linearGradient>
	<path fill="url(#SVGID_43_)" d="M1786.0051,646.2584c30.6572-94.3681,58.0316-186.5101,58.0316-296.4773
		c0-42.6293-2.5344-96.4595-24.1155-135.796c78.7056,41.8711,108.9485,71.241,111.865,144.1476
		c2.9127,72.9041-69.828,270.1734-129.4714,379.4642C1808.8362,691.9378,1792.7452,664.064,1786.0051,646.2584z"/>
	
		<linearGradient id="SVGID_44_" gradientUnits="userSpaceOnUse" x1="503.0667" y1="1631.6274" x2="503.0667" y2="763.2496" gradientTransform="matrix(1.8815 0 0 -1.8815 480 3010.3706)">
		<stop  offset="0" style="stop-color:#F9C7DD"/>
		<stop  offset="1" style="stop-color:#F68638"/>
	</linearGradient>
	<path fill="url(#SVGID_44_)" d="M1365.2463,1447.8785c58.2268,54.8524,124.0167,93.988,190.0177,111.2167
		c-21.6249,7.6113-66.7926,31.8225-138.6904,4.4479c-50.587-22.2373-77.3365-61.1746-118.8163-110.4288
		C1320.6238,1452.8839,1343.1279,1451.0736,1365.2463,1447.8785z"/>
	
		<linearGradient id="SVGID_45_" gradientUnits="userSpaceOnUse" x1="707.4045" y1="1631.6361" x2="707.4045" y2="763.2475" gradientTransform="matrix(1.8815 0 0 -1.8815 480 3010.3706)">
		<stop  offset="0" style="stop-color:#F9C7DD"/>
		<stop  offset="1" style="stop-color:#F68638"/>
	</linearGradient>
	<path fill="url(#SVGID_45_)" d="M1703.2533,1249.8193c95.9141,16.5007,189.3771,9.4219,264.7842-21.2587
		c-12.844,20.6302-16.4366,64.1509-75.658,79.3384c-67.469,19.1743-157.1561,4.2496-238.48-19.0427
		C1684.8831,1285.5972,1691.4719,1264.5729,1703.2533,1249.8193z"/>
	
		<linearGradient id="SVGID_46_" gradientUnits="userSpaceOnUse" x1="738.4354" y1="1631.6199" x2="738.4354" y2="763.2516" gradientTransform="matrix(1.8815 0 0 -1.8815 480 3010.3706)">
		<stop  offset="0" style="stop-color:#F9C7DD"/>
		<stop  offset="1" style="stop-color:#F68638"/>
	</linearGradient>
	<path fill="url(#SVGID_46_)" d="M1750.9875,1167.8433c65.9896,8.8927,254.3914-33.0083,278.3562-65.4241
		c-9.2861,22.6794-5.4509,79.8871-66.0364,102.0573c-68.1262,32.8647-162.5875,25.632-253.946,12.6169
		C1733.8225,1210.5562,1742.0272,1183.6912,1750.9875,1167.8433z"/>
	
		<linearGradient id="SVGID_47_" gradientUnits="userSpaceOnUse" x1="617.7871" y1="1631.6423" x2="617.7871" y2="763.2468" gradientTransform="matrix(1.8815 0 0 -1.8815 480 3010.3706)">
		<stop  offset="0" style="stop-color:#F9C7DD"/>
		<stop  offset="1" style="stop-color:#F68638"/>
	</linearGradient>
	<path fill="url(#SVGID_47_)" d="M1592.4105,1142.4103c26.8014,8.1727,50.2092,10.2817,76.9908,16.1102
		c15.8121,3.426,32.3676,4.58,54.5219,1.6155c-8.7135,14.4272-19.8979,36.7289-39.8954,45.8086
		c-19.994,9.0756-46.7159-5.3199-72.5424-14.3278c-17.4276-6.0797-34.262-13.0347-50.6985-20.4592
		C1569.6835,1163.1206,1584.2419,1151.2076,1592.4105,1142.4103z"/>
	
		<linearGradient id="SVGID_48_" gradientUnits="userSpaceOnUse" x1="671.8213" y1="1631.6193" x2="671.8213" y2="763.2542" gradientTransform="matrix(1.8815 0 0 -1.8815 480 3010.3706)">
		<stop  offset="0" style="stop-color:#F9C7DD"/>
		<stop  offset="1" style="stop-color:#F68638"/>
	</linearGradient>
	<path fill="url(#SVGID_48_)" d="M1701.0568,828.6863c29.356-44.8372,55.7756-106.062,76.7959-159.5792
		c7.6752,25.8603,12.5848,44.7696,11.101,83.1996c-1.4801,38.4276-58.3738,85.2404-90.1327,120.8873
		C1699.0161,867.9219,1701.0568,828.7186,1701.0568,828.6863z"/>
	
		<linearGradient id="SVGID_49_" gradientUnits="userSpaceOnUse" x1="673.9735" y1="1631.6182" x2="673.9735" y2="763.2546" gradientTransform="matrix(1.8815 0 0 -1.8815 480 3010.3706)">
		<stop  offset="0" style="stop-color:#F9C7DD"/>
		<stop  offset="1" style="stop-color:#F68638"/>
	</linearGradient>
	<path fill="url(#SVGID_49_)" d="M1699.5771,892.5313c36.5651-36.6332,71.424-57.8805,99.1287-113.3257
		c2.0773,16.8823,10.771,35.1852,4.8783,63.2675c-5.9004,28.0868-75.4946,74.6353-113.0469,100.7604
		C1691.6349,937.866,1698.6896,897.9823,1699.5771,892.5313z"/>
	
		<linearGradient id="SVGID_50_" gradientUnits="userSpaceOnUse" x1="661.5433" y1="1631.6224" x2="661.5433" y2="763.2537" gradientTransform="matrix(1.8815 0 0 -1.8815 480 3010.3706)">
		<stop  offset="0" style="stop-color:#F9C7DD"/>
		<stop  offset="1" style="stop-color:#F68638"/>
	</linearGradient>
	<path fill="url(#SVGID_50_)" d="M1672.4968,1022.1021c45.5658-20.0335,81.0093-28.7274,122.5206-52.4131
		c-2.9518,16.6356-6.7402,51.2751-24.4614,66.0486c-17.722,14.7777-78.8854,20.7218-116.2104,22.0109
		C1656.1555,1054.1199,1670.7863,1025.7906,1672.4968,1022.1021z"/>
	
		<linearGradient id="SVGID_51_" gradientUnits="userSpaceOnUse" x1="642.6554" y1="1631.6375" x2="642.6554" y2="763.2468" gradientTransform="matrix(1.8815 0 0 -1.8815 480 3010.3706)">
		<stop  offset="0" style="stop-color:#F9C7DD"/>
		<stop  offset="1" style="stop-color:#F68638"/>
	</linearGradient>
	<path fill="url(#SVGID_51_)" d="M1642.1223,1077.3325c55.8752,2.7335,83.4481-5.9485,126.014-14.7776
		c-9.0956,26.5708-21.2985,60.9639-41.2487,69.5106c-31.031,13.2933-95.735-8.2521-116.7355-14.0972
		C1618.3091,1107.4921,1634.9406,1088.6123,1642.1223,1077.3325z"/>
	
		<linearGradient id="SVGID_52_" gradientUnits="userSpaceOnUse" x1="604.9484" y1="1631.624" x2="604.9484" y2="763.2488" gradientTransform="matrix(1.8815 0 0 -1.8815 480 3010.3706)">
		<stop  offset="0" style="stop-color:#F9C7DD"/>
		<stop  offset="1" style="stop-color:#F68638"/>
	</linearGradient>
	<path fill="url(#SVGID_52_)" d="M1648.4092,652.776c-9.0914-15.7485-17.2247-31.0432-28.1785-45.3751
		c-6.7043-90.3973-13.4762-140.3638-35.9763-188.1496c18.5652,14.2484,46.5845,36.0485,59.8812,70.0477
		C1657.4412,523.2626,1650.6649,630.0946,1648.4092,652.776z"/>
	
		<linearGradient id="SVGID_53_" gradientUnits="userSpaceOnUse" x1="639.5278" y1="1631.6238" x2="639.5278" y2="763.2505" gradientTransform="matrix(1.8815 0 0 -1.8815 480 3010.3706)">
		<stop  offset="0" style="stop-color:#F9C7DD"/>
		<stop  offset="1" style="stop-color:#F68638"/>
	</linearGradient>
	<path fill="url(#SVGID_53_)" d="M1660.3099,670.2909c6.9189-39.6632,9.5688-149.6642,8.2686-167.5514
		c10.0505,12.6349,30.2429,36.7966,36.1398,61.901c5.9285,25.1362-6.7441,118.4365-21.6648,167.6883
		C1676.6388,698.9684,1662.7487,676.3865,1660.3099,670.2909z"/>
	
		<linearGradient id="SVGID_54_" gradientUnits="userSpaceOnUse" x1="661.2435" y1="1631.6201" x2="661.2435" y2="763.2543" gradientTransform="matrix(1.8815 0 0 -1.8815 480 3010.3706)">
		<stop  offset="0" style="stop-color:#F9C7DD"/>
		<stop  offset="1" style="stop-color:#F68638"/>
	</linearGradient>
	<path fill="url(#SVGID_54_)" d="M1691.7543,744.8442c20.4233-49.845,29.4318-89.741,39.5658-159.5156
		c8.7097,16.6372,23.6541,42.862,25.1183,75.3769c1.4843,32.4993-36.4701,98.7653-61.274,138.2313
		C1694.3049,792.5964,1692.8922,751.0712,1691.7543,744.8442z"/>
	
		<linearGradient id="SVGID_55_" gradientUnits="userSpaceOnUse" x1="672.2712" y1="1631.6244" x2="672.2712" y2="763.2479" gradientTransform="matrix(1.8815 0 0 -1.8815 480 3010.3706)">
		<stop  offset="0" style="stop-color:#F9C7DD"/>
		<stop  offset="1" style="stop-color:#F68638"/>
	</linearGradient>
	<path fill="url(#SVGID_55_)" d="M1691.7543,962.6225c42.677-28.8468,78.2081-58.6245,116.7153-93.2481
		c-0.4894,11.5944,1.1738,55.8192-13.6156,75.0248c-14.7771,19.2101-71.7738,35.5988-113.592,53.4202
		C1681.7872,996.3034,1691.2449,964.1385,1691.7543,962.6225z"/>
	
		<linearGradient id="SVGID_56_" gradientUnits="userSpaceOnUse" x1="423.0271" y1="1631.6229" x2="423.0271" y2="763.2513" gradientTransform="matrix(1.8815 0 0 -1.8815 480 3010.3706)">
		<stop  offset="0" style="stop-color:#F9C7DD"/>
		<stop  offset="1" style="stop-color:#F68638"/>
	</linearGradient>
	<path fill="url(#SVGID_56_)" d="M1443.8525,814.0403c-47.0142-43.96-110.8109-76.937-148.9916-109.6669
		c-38.165-32.73-77.0547-65.7402-86.9039-86.9218c-14.4989-39.3048,4.2153-57.5219,16.5536-68.277
		c33.5042-29.0517,69.6577-24.0003,69.6577-24.0003s34.4091,11.5405,66.829,23.0334c33.4304,11.851,65.3723,23.6841,97.613,25.1464
		c-85.016-52.6123-139.7413-73.7121-139.7413-73.7121s0.4381-1.9935,2.2006-5.5346c1.7943-3.559,1.8938-4.4125,1.8938-4.4125
		s59.5795,25.6931,137.4731,79.0955c-61.0793-82.8199-128.8586-111.4514-129.8655-111.8634
		c0.0518-2.8349,2.2083-14.0952-2.6023-38.1292c-6.4774-32.3539-26.686-64.9942-76.4235-74.3209
		c-44.0876-8.268-77.9991-9.0202-110.3572,4.6631c-19.415,8.2106-41.9453,25.2022-49.6442,52.147
		c-16.6796,11.5483-28.2278,23.097-39.6848,42.9056c-22.2219,38.4218-15.6707,98.7171-7.3729,123.6089
		c20.656,61.9686,47.5731,99.3279,130.3608,175.8887c58.4333,54.0408,82.8257,121.4862,92.1204,156.4961
		c3.873,14.5901,4.2076,23.3199,2.9261,40.0031c-1.2809,16.6835-14.3514,39.4147-39.1736,64.2347
		c-12.4202,12.4138-62.6173,29.3361-87.8529,48.681c-25.2339,19.349-44.6984,50.814-53.8895,73.1351
		c0,0-11.7435,74.6473,52.9248,97.1315c14.0691-19.6836,25.3013-44.9847,75.9041-61.8508
		c50.6012-16.8666,76.593-8.4352,99.0973-5.6182c12.02-43.2382,61.7518-58.7238,96.475-76.5773
		c10.2935-74.4878-0.9429-134.1145-37.5083-204.6678c-24.446-47.1414-59.3447-81.188-104.6637-116.5382
		c-24.4778-19.1062-40.5046-29.8475-70.2684-57.6336l-22.5005-19.6852c-17.9226-16.5064-37.1266-37.5226-49.1863-52.0016
		c-24.2472-29.1572-22.8684-47.4298-22.3093-63.2736c0.2644-7.514,6.5132-22.2158,9.7579-27.47
		c4.512-7.3627,12.3204-12.8159,20.9209-15.2865c3.9509-1.1359,20.3595-3.3939,22.0728,4.5298
		c1.3824,6.4575-5.9962,7.2156-11.8929,10.1797c-3.8556,1.9597-13.5081,9.6028-16.0945,13.8206
		c-2.6199,4.2814-4.2352,11.6579-6.8018,20.6401c-2.5664,8.9822,1.1201,25.2499,20.688,48.7726
		c11.0194,13.2595,27.3926,28.3314,44.7382,44.2925l14.296,13.2278c28.9917,27.0621,56.3004,48.3588,80.3986,67.1707
		c45.7288,35.6627,85.2147,66.4805,112.0602,118.2535c36.6531,70.7,49.2543,131.2139,41.6226,204.0867
		c37.3295-15.2393,70.1393-22.0231,71.4602-29.9088C1524.8458,949.9696,1507.9956,874.0534,1443.8525,814.0403z M1225.3503,411.0233
		c10.9677,0,19.8644,8.8967,19.8644,19.8644c0,10.9718-8.8967,19.8486-19.8644,19.8486c-10.954,0-19.8306-8.8768-19.8306-19.8486
		C1205.5197,419.92,1214.3964,411.0233,1225.3503,411.0233z"/>
	
		<linearGradient id="SVGID_57_" gradientUnits="userSpaceOnUse" x1="591.2597" y1="1631.6216" x2="591.2597" y2="763.2518" gradientTransform="matrix(1.8815 0 0 -1.8815 480 3010.3706)">
		<stop  offset="0" style="stop-color:#F9C7DD"/>
		<stop  offset="1" style="stop-color:#F68638"/>
	</linearGradient>
	<path fill="url(#SVGID_57_)" d="M1612.4723,643.1451c1.5873,15.8296,2.5024,31.924,2.5024,48.2654
		c0,110.3274-27.8678,215.8821-80.5795,291.866c0,40.3416,2.7372,45.0805-2.3717,73.2504
		c20.3558-21.3503,35.9451-33.5652,48.3828-52.1824c22.3253-33.4222,34.0431-71.6191,41.7542-107.6277
		c1.118-5.1564,2.0411-13.114,7.2136-11.9919c5.1722,1.0862,2.7017,15.6288,1.5995,20.7852
		c-7.5282,35.153-15.1399,70.6364-36.0085,107.2337c-14.6301,25.6639-31.9584,41.8101-60.4865,69.4788
		c0,17.1331-1.9935,34.5442-4.894,48.924c-3.1315,15.5651-11.2163,31.759-18.7085,50.0577
		c10.3092-5.6222,10.3928-10.313,24.593-22.0903c68.9855-61.2385,138.5435-176.3504,138.5435-301.8315
		C1674.0126,778.3484,1651.3331,704.851,1612.4723,643.1451z"/>
	
		<linearGradient id="SVGID_58_" gradientUnits="userSpaceOnUse" x1="300.741" y1="984.9339" x2="300.741" y2="984.9339" gradientTransform="matrix(1.8815 0 0 -1.8815 480 3010.3706)">
		<stop  offset="0" style="stop-color:#F9C7DD"/>
		<stop  offset="1" style="stop-color:#F68638"/>
	</linearGradient>
	<path fill="url(#SVGID_58_)" d="M1045.8386,1157.2356"/>
	
		<linearGradient id="SVGID_59_" gradientUnits="userSpaceOnUse" x1="347.5247" y1="1631.6274" x2="347.5247" y2="763.2529" gradientTransform="matrix(1.8815 0 0 -1.8815 480 3010.3706)">
		<stop  offset="0" style="stop-color:#F9C7DD"/>
		<stop  offset="1" style="stop-color:#F68638"/>
	</linearGradient>
	<path fill="url(#SVGID_59_)" d="M1081.879,1200.8878c0,0,22.4965,38.2684,56.269,44.0219
		c-6.3267,31.6239,64.8969,54.359,64.8969,54.359l-13.5223,27.6052c0,0-42.9912,0.2942-74.619-20.7897
		c-31.6259-21.084-38.3619-30.7006-46.7971-44.77C1055.4578,1221.2634,1081.879,1200.8878,1081.879,1200.8878z"/>
	
		<linearGradient id="SVGID_60_" gradientUnits="userSpaceOnUse" x1="399.7569" y1="1631.6292" x2="399.7569" y2="763.25" gradientTransform="matrix(1.8815 0 0 -1.8815 480 3010.3706)">
		<stop  offset="0" style="stop-color:#F9C7DD"/>
		<stop  offset="1" style="stop-color:#F68638"/>
	</linearGradient>
	<path fill="url(#SVGID_60_)" d="M1308.4684,1181.2042c-24.8082-8.041-64.7518-12.7323-97.5972,4.0583
		c-32.8452,16.7831-50.0398,29.5114-53.8895,47.4758c-3.8495,17.9642,1.7251,21.9908,16.6815,34.6438
		c8.994,7.5757,21.7162,12.6047,52.5586,19.1343c30.8419,6.5291,80.7305,0,80.7305,0s-7.3489-27.7042-7.3489-58.728
		C1299.6035,1204.5441,1308.4684,1181.2042,1308.4684,1181.2042z"/>
	
		<linearGradient id="SVGID_61_" gradientUnits="userSpaceOnUse" x1="497.0689" y1="1631.6272" x2="497.0689" y2="763.2488" gradientTransform="matrix(1.8815 0 0 -1.8815 480 3010.3706)">
		<stop  offset="0" style="stop-color:#F9C7DD"/>
		<stop  offset="1" style="stop-color:#F68638"/>
	</linearGradient>
	<path fill="url(#SVGID_61_)" d="M1510.001,1065.0936c-46.3815,16.8661-104.5482,35.9886-121.4144,46.5286
		c-50.8339,31.7789-65.3605,73.7955-67.4695,103.3186c-1.7467,24.5254-3.8237,68.3486,8.4352,67.457
		c29.5189-2.1085,86.4443-25.2972,134.9385-73.7834c27.4064-27.4104,40.5685-56.4202,44.2925-83.5797
		C1512.1254,1100.6566,1510.001,1065.0936,1510.001,1065.0936z"/>
	
		<linearGradient id="SVGID_62_" gradientUnits="userSpaceOnUse" x1="590.8823" y1="1631.624" x2="590.8823" y2="763.251" gradientTransform="matrix(1.8815 0 0 -1.8815 480 3010.3706)">
		<stop  offset="0" style="stop-color:#F9C7DD"/>
		<stop  offset="1" style="stop-color:#F68638"/>
	</linearGradient>
	<path fill="url(#SVGID_62_)" d="M1541.8077,1188.6329c21.9077,10.5917,41.2485,23.5863,64.8352,31.8225
		c21.8439,7.6118,49.7435,19.2062,71.7185,24.3508c-11.431,13.4763-16.9974,22.8346-45.661,31.0032
		c-29.3519,0-59.9413-23.0298-89.8025-39.6693c-13.0627-7.2853-25.58-15.04-37.7911-23.0294
		C1515.8497,1206.49,1531.7294,1196.2084,1541.8077,1188.6329z"/>
	
		<linearGradient id="SVGID_63_" gradientUnits="userSpaceOnUse" x1="572.3181" y1="1631.6257" x2="572.3181" y2="763.2551" gradientTransform="matrix(1.8815 0 0 -1.8815 480 3010.3706)">
		<stop  offset="0" style="stop-color:#F9C7DD"/>
		<stop  offset="1" style="stop-color:#F68638"/>
	</linearGradient>
	<path fill="url(#SVGID_63_)" d="M1503.8932,1235.1337c-2.7689,16.4287-2.4548,62.3883-3.4457,74.0463
		c17.7257,14.829,40.1946,31.1345,56.0381,31.1345c28.0986,0,42.514-17.9886,56.6788-29.7816
		C1589.7288,1301.3735,1504.3507,1235.396,1503.8932,1235.1337z"/>
	
		<linearGradient id="SVGID_64_" gradientUnits="userSpaceOnUse" x1="545.1702" y1="1631.6224" x2="545.1702" y2="763.252" gradientTransform="matrix(1.8815 0 0 -1.8815 480 3010.3706)">
		<stop  offset="0" style="stop-color:#F9C7DD"/>
		<stop  offset="1" style="stop-color:#F68638"/>
	</linearGradient>
	<path fill="url(#SVGID_64_)" d="M1495.3228,1325.6525c0,0-11.8885,48.3309-18.3463,57.49
		c17.1289-4.9099,50.1571-17.1329,57.5023-28.1344C1523.4255,1348.7178,1495.3228,1325.6525,1495.3228,1325.6525z"/>
</g>
</svg>
