<?xml version="1.0" encoding="UTF-8" standalone="no"?>
<!-- Created with Inkscape (http://www.inkscape.org/) -->

<svg
   xmlns:dc="http://purl.org/dc/elements/1.1/"
   xmlns:cc="http://creativecommons.org/ns#"
   xmlns:rdf="http://www.w3.org/1999/02/22-rdf-syntax-ns#"
   xmlns:svg="http://www.w3.org/2000/svg"
   xmlns="http://www.w3.org/2000/svg"
   xmlns:sodipodi="http://sodipodi.sourceforge.net/DTD/sodipodi-0.dtd"
   xmlns:inkscape="http://www.inkscape.org/namespaces/inkscape"
   id="svg3237"
   sodipodi:docname="carsymbol5.svg"
   viewBox="0 0 1052.3622 744.09448"
   version="1.1"
   inkscape:version="0.91 r13725"
   width="297mm"
   height="210mm">
  <title
     id="title4355">car icon</title>
  <defs
     id="defs3239">
    <inkscape:path-effect
       effect="skeletal"
       id="path-effect4287"
       is_visible="true"
       pattern="m 0,-675.09448 c 0,-2.76 2.24,-5 5,-5 2.76,0 5,2.24 5,5 0,2.76 -2.24,5 -5,5 -2.76,0 -5,-2.24 -5,-5 z"
       copytype="single_stretched"
       prop_scale="1"
       scale_y_rel="false"
       spacing="0"
       normal_offset="0"
       tang_offset="0"
       prop_units="false"
       vertical_pattern="false"
       fuse_tolerance="0" />
    <inkscape:path-effect
       effect="spiro"
       id="path-effect4285"
       is_visible="true" />
    <inkscape:path-effect
       fuse_tolerance="0"
       vertical_pattern="false"
       prop_units="false"
       tang_offset="0"
       normal_offset="0"
       spacing="0"
       scale_y_rel="false"
       prop_scale="1"
       copytype="single_stretched"
       pattern="m 91.53716,-566.19683 c 0,-2.76 2.24,-5 5,-5 2.76,0 5,2.24 5,5 0,2.76 -2.24,5 -5,5 -2.76,0 -5,-2.24 -5,-5 z"
       is_visible="true"
       id="path-effect4281"
       effect="skeletal" />
    <inkscape:path-effect
       is_visible="true"
       id="path-effect4279"
       effect="spiro" />
    <inkscape:path-effect
       effect="skeletal"
       id="path-effect4275"
       is_visible="true"
       pattern="m 0,-675.09448 c 0,-2.76 2.24,-5 5,-5 2.76,0 5,2.24 5,5 0,2.76 -2.24,5 -5,5 -2.76,0 -5,-2.24 -5,-5 z"
       copytype="single_stretched"
       prop_scale="1"
       scale_y_rel="false"
       spacing="0"
       normal_offset="0"
       tang_offset="0"
       prop_units="false"
       vertical_pattern="false"
       fuse_tolerance="0" />
    <inkscape:path-effect
       effect="spiro"
       id="path-effect4273"
       is_visible="true" />
    <inkscape:path-effect
       effect="skeletal"
       id="path-effect4243"
       is_visible="true"
       pattern="m 0,-675.09448 c 0,-2.76 2.24,-5 5,-5 2.76,0 5,2.24 5,5 0,2.76 -2.24,5 -5,5 -2.76,0 -5,-2.24 -5,-5 z"
       copytype="single_stretched"
       prop_scale="1"
       scale_y_rel="false"
       spacing="0"
       normal_offset="0"
       tang_offset="0"
       prop_units="false"
       vertical_pattern="false"
       fuse_tolerance="0" />
    <inkscape:path-effect
       effect="spiro"
       id="path-effect4241"
       is_visible="true" />
    <inkscape:path-effect
       effect="skeletal"
       id="path-effect4237"
       is_visible="true"
       pattern="M 0,5 C 0,2.24 2.24,0 5,0 7.76,0 10,2.24 10,5 10,7.76 7.76,10 5,10 2.24,10 0,7.76 0,5 Z"
       copytype="single_stretched"
       prop_scale="1"
       scale_y_rel="false"
       spacing="0"
       normal_offset="0"
       tang_offset="0"
       prop_units="false"
       vertical_pattern="false"
       fuse_tolerance="0" />
    <inkscape:path-effect
       effect="spiro"
       id="path-effect4235"
       is_visible="true" />
    <inkscape:path-effect
       effect="skeletal"
       id="path-effect4231"
       is_visible="true"
       pattern="M 0,5 C 0,2.24 2.24,0 5,0 7.76,0 10,2.24 10,5 10,7.76 7.76,10 5,10 2.24,10 0,7.76 0,5 Z"
       copytype="single_stretched"
       prop_scale="1"
       scale_y_rel="false"
       spacing="0"
       normal_offset="0"
       tang_offset="0"
       prop_units="false"
       vertical_pattern="false"
       fuse_tolerance="0" />
    <inkscape:path-effect
       effect="spiro"
       id="path-effect4229"
       is_visible="true" />
    <filter
       id="filter4188"
       inkscape:collect="always">
      <feGaussianBlur
         id="feGaussianBlur4190"
         stdDeviation="4.1690975"
         inkscape:collect="always" />
    </filter>
  </defs>
  <sodipodi:namedview
     id="base"
     bordercolor="#666666"
     inkscape:pageshadow="2"
     inkscape:window-y="-8"
     pagecolor="#ffffff"
     inkscape:window-height="1178"
     inkscape:grid-bbox="true"
     inkscape:window-maximized="1"
     inkscape:zoom="1.3139261"
     inkscape:window-x="-8"
     showgrid="true"
     borderopacity="1.0"
     inkscape:current-layer="layer2"
     inkscape:cx="481.4463"
     inkscape:cy="320.17964"
     inkscape:window-width="1920"
     inkscape:pageopacity="0.0"
     inkscape:document-units="px"
     units="mm" />
  <g
     id="layer1"
     inkscape:label="Layer 1"
     inkscape:groupmode="layer"
     transform="translate(0,680.09448)"
     sodipodi:insensitive="true"
     style="display:none">
    <rect
       id="rect4339"
       style="opacity:0;stroke-width:0.3964"
       ry="1.8908"
       height="63.604"
       width="63.604"
       y="0.1982"
       x="0.1982"
       rx="1.8908" />
    <g
       id="g4250"
       style="fill:#0e232e"
       transform="matrix(16,0,0,16,-17.723976,-838.47295)">
      <g
         id="g4435"
         style="fill:#0e232e"
         transform="matrix(0.040537,0,0,0.040537,25.935,17.736)">
        <path
           id="path4377"
           style="fill:#0e232e;fill-rule:evenodd"
           d="m -197.99,528.04 0,-10 c -64.65,1.6667 -129.3,3.3333 -193.95,5 64.65,1.6667 129.3,3.3333 193.95,5 z"
           inkscape:connector-curvature="0"
           inkscape:original-d="m -197.9899,523.04225 c -64.64976,0 -129.29952,0 -193.94929,0" />
        <path
           id="path4379"
           style="fill:#0e232e;fill-rule:evenodd"
           d="m -222.57,503.79 0.66672,-9.9778 c -87.783,-4.1873 -175.4,-0.7184 -262.97,0.94827 87.576,1.6667 175.33,1.5393 262.31,9.0295 z"
           inkscape:connector-curvature="0"
           inkscape:original-d="m -222.23356,498.79859 c -86.41212,-5.77403 -174.88366,-4.04061 -262.63966,-4.04061" />
        <path
           id="path4381"
           style="fill:#0e232e;fill-rule:evenodd"
           d="m -242.44,471.47 0,-10 c -96.975,1.6667 -193.95,3.3333 -290.92,5 96.975,1.6667 193.95,3.3333 290.92,5 z"
           inkscape:connector-curvature="0"
           inkscape:original-d="m -242.43661,466.47371 c -96.97464,0 -193.94929,0 -290.92393,0" />
        <path
           id="path4383"
           style="fill:#0e232e;fill-rule:evenodd"
           d="m -60.112,410.84 -0.99504,-9.9504 c -44.162,4.9816 -88.627,7.5724 -133.13,7.8563 l -1e-5,0 c -45.714,1.3698 -91.526,-0.14406 -136.78,-6.932 l 2e-5,0 c 21.356,-4.4546 41.275,-13.412 60.484,-23.429 17.633,-9.4211 34.61,-19.938 52.349,-29.089 -17.963,8.7004 -35.236,18.804 -53.043,27.748 -19.407,9.9942 -39.385,19.42 -60.398,24.79 45.286,7.8572 91.346,11.591 137.35,13.536 0,0 10e-6,0 2e-5,1e-5 44.729,0.8432 89.538,-0.63237 134.17,-4.5302 z"
           inkscape:connector-curvature="0"
           inkscape:original-d="m -60.609153,405.86455 c -80.865887,8.08659 -185.301447,9.77559 -270.720877,-4.04061 40.68444,-9.43382 82.77925,-37.34901 113.13708,-52.52793" />
        <path
           id="path4385"
           style="fill:#0e232e;fill-rule:evenodd"
           d="m -262.52,360.46 -0.23902,9.9971 c 112.35,1.8489 224.61,-0.055 336.84,0.43715 111.49,0.49 223.09,3.27 334.02,14.76 -110.75,-13.14 -222.42,-17.6 -333.96,-19.75 -112.28,-2.16 -224.57,-1.93 -336.66,-5.45 z"
           inkscape:connector-curvature="0"
           inkscape:original-d="m -262.63966,365.45845 c 223.550652,5.34482 450.85805,-4.22842 670.74129,20.20305" />
        <path
           id="path4387"
           style="fill:#0e232e;fill-rule:evenodd"
           d="m -265.27,357.17 5.2589,8.5055 c 66.648,-41.864 140.95,-71.657 218.23,-87.587 1.2e-5,0 2.4e-5,-1e-5 3.5e-5,-1e-5 71.912,-14.827 145.959995,-18.127 219.569995,-15.9 21.378,-1.0901 43.013,2.6558 62.853,10.846 1e-5,10e-6 3e-5,10e-6 4e-5,2e-5 19.16001,7.9093 36.631,19.692 52.419,33.291 16.157,13.919 30.646,29.731 44.299,46.185 13.3,16.03 25.79,32.731 38.413,49.318 -12.389,-16.762 -24.642,-33.635 -37.734,-49.873 -13.438,-16.667 -27.747,-32.728 -43.809,-46.968 -15.697,-13.918 -33.185,-26.07 -52.557,-34.401 l -1e-5,0 c -20.051,-8.6221 -42.027,-12.768 -63.896,-11.962 -73.748,-3.2777 -148.139995,-1.0028 -220.859995,12.924 -1.2e-5,10e-6 -2.3e-5,10e-6 -3.5e-5,10e-6 -78.286,14.998 -153.93,44.069 -222.19,85.619 z"
           sodipodi:nodetypes="ccc"
           inkscape:connector-curvature="0"
           inkscape:original-d="m -262.63966,361.41784 c 146.80884,-90.77 293.617673,-106.50001 440.42651,-101.01525 92.84676,-4.0723 150.12217,77.59771 197.9899,141.42135" />
        <path
           id="path4389"
           style="fill:#0e232e;fill-rule:evenodd"
           d="m 437.54,361.9 5.3945,-8.4202 c -63.8,-38.95 -131.82,-72.92 -204.53,-89.04 71.916,19.357 137.57,56.069 199.15,97.454 z"
           sodipodi:nodetypes="cc"
           inkscape:connector-curvature="0"
           inkscape:original-d="M 440.23997,357.68679 C 382.14246,320.46551 314.60587,283.1375 238.396,264.4432" />
        <path
           id="path4391"
           style="fill:#0e232e;fill-rule:evenodd"
           d="m 441.77,381.79 5.3946,-8.4201 c -2.0938,-0.87143 -3.1523,-1.1254 -3.1462,-0.82554 -0.61869,0.0384 -1.0489,0.0986 -1.2919,0.16063 -0.90712,0.1886 -1.6593,0.40764 -2.2688,0.60553 -2.2291,0.69949 -4.3348,1.4888 -6.3546,2.2612 l -10e-6,0 c -6.7779,2.5832 -13.428,5.36 -20.027,8.149 0,0 -1e-5,0 -1e-5,1e-5 -16.405,7.8168 -32.899,15.838 -49.466,24.068 l -10e-6,0 c -4.5626,-16.215 -11.767,-31.568 -20.798,-45.821 -9.4927,-14.329 -20.502,-27.526 -32.287,-39.879 -22.709,-23.801 -48.279,-44.399 -73.129,-65.727 24.095,22.178 48.958,43.677 70.62,68.038 11.245,12.645 21.643,26.026 30.427,40.354 l 0,10e-6 c 9.482,14.775 17.496,30.637 23.256,47.267 0,-10e-6 10e-6,-10e-6 10e-6,-10e-6 17.891,-7.0846 36.134,-13.752 54.712,-20.008 0,0 10e-6,0 10e-6,-10e-6 6.6694,-2.5483 13.312,-5.0561 19.984,-7.3351 l 1e-5,-10e-6 c 2.0241,-0.68955 3.9708,-1.3481 5.866,-1.8654 0.56857,-0.14966 0.99956,-0.26946 1.2997,-0.30682 0.11222,-0.004 0.04,-0.004 -0.21752,0.0231 0.20158,0.29348 -0.64425,0.0271 -2.5734,-0.73889 z"
           inkscape:connector-curvature="0"
           inkscape:original-d="m 444.46712,377.58028 c -1.67891,-1.07565 -47.97981,17.73271 -80.8122,32.32488 C 342.59742,342.90235 284.10756,296.99447 238.396,256.36198" />
        <path
           id="path4393"
           style="fill:#0e232e;fill-rule:evenodd"
           d="m 492.95,544.2 0,-10 -521.24,5 521.24,5 z"
           inkscape:connector-curvature="0"
           inkscape:original-d="m 492.95444,539.20469 c -173.74624,0 -347.49247,0 -521.238711,0" />
        <path
           id="path4395"
           style="fill:#0e232e;fill-rule:evenodd"
           d="m -341.54,408.06 9.657,2.5968 c 3.1353,-13.065 4.0332,-26.335 4.0151,-39.379 -0.31965,-13.698 -1.4021,-27.072 -1.8971,-40.224 -11.382,-7.0238 -21.717,-15.653 -30.891,-25.232 -7.3955,-7.5054 -14.268,-15.881 -22.194,-23.418 -0.24202,-12.602 -0.53391,-25.324 -0.87561,-38.166 -0.3417,12.843 -0.63355,25.806 -0.87561,38.89 7.4132,7.8551 13.857,16.752 21.157,25.254 8.5625,9.7399 18.295,18.351 29.189,25.169 l 0,1e-5 c -0.49495,12.765 -0.56418,25.311 -1.5568,37.521 -0.68608,12.671 -2.1834,25.212 -5.728,36.989 z"
           inkscape:connector-curvature="0"
           inkscape:original-d="m -336.71049,409.36138 c 6.72225,-24.99909 4.70139,-51.13993 4.70139,-77.05657 -26.27062,-16.32382 -36.59737,-34.36582 -51.71532,-49.53637 2e-5,-12.84277 0,-25.68553 0,-38.52829" />
        <path
           id="path4397"
           style="fill:#0e232e;fill-rule:evenodd"
           d="m -402.03,259.87 -4.0614,9.1381 c 39.418,16.699 79.131,32.196 118.91,46.966 6.0079,-1.0936 11.529,-3.5539 16.371,-6.7259 4.593,-3.2001 8.6089,-7.0045 12.28,-10.983 l 0,-10e-6 c 3.4663,-3.7489 6.6392,-7.6586 9.8118,-11.481 2.4418,-3.7726 4.7326,-7.4431 7.4407,-10.409 -25.792,-10.412 -53.305,-13.64 -80.324,-14.213 l -2e-5,0 c -27.553,-0.25123 -54.979,1.8835 -82.461,2.2778 27.483,0.39432 55.008,-0.95214 82.406,0.0875 l 2e-5,0 c 26.758,0.68993 53.642,3.3231 78.058,12.221 -3.4229,2.0501 -6.23,4.5239 -8.9357,6.7725 -3.3087,3.7582 -6.5328,7.5109 -9.9432,10.986 0,0 0,1e-5 -10e-6,1e-5 -3.6311,3.6928 -7.4441,7.1234 -11.633,9.843 -3.8848,2.7109 -8.1265,4.7661 -12.478,5.5297 -39.029,-15.85 -77.598,-32.369 -115.44,-50.009 z"
           inkscape:connector-curvature="0"
           inkscape:original-d="m -404.06102,264.4432 c 37.22705,16.54535 76.3591,32.62815 117.1777,48.48732 21.05163,-3.77404 34.48221,-28.21272 44.44671,-36.36549 -49.6185,-19.08289 -107.68267,-12.12183 -161.62441,-12.12183 z" />
        <path
           id="path4399"
           style="fill:#0e232e;fill-rule:evenodd"
           d="m -299.1,384.44 8.2634,-5.6316 c -4.5273,-5.902 -8.4096,-12.321 -11.283,-19.198 -2.6305,-6.2646 -4.4325,-12.97 -5.6132,-19.837 -2.6341,-15.291 -2.5406,-31.252 -3.3975,-47.043 -0.85694,15.791 -2.6787,31.544 -1.7105,47.629 l 0,1e-5 c 0.44256,7.2712 1.5773,14.583 3.6891,21.736 2.3284,7.8413 5.7879,15.346 10.052,22.344 z"
           inkscape:connector-curvature="0"
           inkscape:original-d="m -294.96454,381.62089 c -19.30059,-28.3202 -16.16244,-52.86847 -16.16244,-88.89342" />
        <path
           id="path4401"
           style="fill:#0e232e;fill-rule:evenodd"
           d="m -364.61,442.05 9.9936,0.35704 c 0.18691,-5.7959 1.0304,-11.515 2.8436,-16.832 1.4656,-4.3571 3.6193,-8.5254 6.2667,-12.387 1e-5,0 1e-5,-10e-6 1e-5,-10e-6 4.1529,-6.7132 10.361,-12.574 16.01,-19.634 88.881,-2.7024 178.12,-4.7806 267.73,-5.1675 l 4.7e-5,0 c 24.803,25.556 51.08,49.746 78.655,72.446 26.604,21.693 54.288,42.097 83.470003,60.09 2e-5,10e-6 3e-5,2e-5 4e-5,3e-5 64.643,5.9808 129.48,7.6831 194.17,7.8255 64.81,0.11763 129.59,-1.3187 194.38,-1.667 -64.793,-0.34821 -129.6,0.39174 -194.37,-0.42228 -64.498,-0.78637 -128.94,-3.0782 -192.88,-9.5816 -28.570003,-18.102 -55.558003,-38.573 -81.416003,-60.304 -27.812,-23.144 -54.439,-47.8 -79.708,-73.84 l -4.6e-5,0 c -90.897001,-0.38697 -182.140001,0.93975 -273.710001,2.9137 -6.3123,6.8951 -13.913,13.463 -20.255,21.839 -1e-5,10e-6 -2e-5,3e-5 -3e-5,4e-5 -3.1643,4.4944 -5.7708,9.4302 -7.6213,14.696 -2.2263,6.4052 -3.3161,13.073 -3.5719,19.668 z"
           inkscape:connector-curvature="0"
           inkscape:original-d="m -359.61431,442.23005 c 1.01237,-28.33619 16.63099,-38.93244 28.28428,-52.52794 90.77987,-2.35261 178.49505,-4.04061 270.720877,-4.04061 49.277151,50.77763 107.998523,99.82396 161.624403,133.34014 128.0726,12.43452 258.68831,8.08122 387.89858,8.08122" />
        <path
           id="path4403"
           style="fill:#0e232e;fill-rule:evenodd"
           d="m 403.11,526.89 9.9923,0.39302 c 0.18736,-28.057 -8.1922,-55.191 -20.882,-79.387 -11.958,-22.827 -27.521,-43.405 -44.723,-62.231 15.973,19.879 30.099,41.29 40.353,64.347 10.842,24.416 17.195,50.969 15.26,76.878 z"
           inkscape:connector-curvature="0"
           inkscape:original-d="M 408.10163,527.08286 C 410.27723,471.76992 377.93956,421.1831 347.49248,385.6615" />
        <path
           id="path4405"
           style="fill:#0e232e;fill-rule:evenodd"
           d="m 812.85,474.22 6.7041,-7.4199 c -26.036,-22.964 -55.754,-41.421 -87.266,-55.468 -31.768,-14.159 -65.236,-23.981 -99.148,-30.801 -34.902,-7.0205 -70.308,-10.926 -105.74,-13.047 l -2e-5,0 c -35.703,-2.1383 -71.459,-2.4561 -107.18,-2.0301 35.721,0.42597 71.441,1.5966 107,4.5794 l 10e-6,0 c 35.284,2.9607 70.428,7.6888 104.86,15.478 0,0 10e-6,1e-5 2e-5,1e-5 33.448,7.5688 66.249,18.05 97.052,32.685 30.539,14.507 59.075,33.194 83.721,56.023 z"
           inkscape:connector-curvature="0"
           inkscape:original-d="M 816.20326,470.51432 C 713.01965,377.28596 561.79723,365.45845 420.22346,365.45845" />
        <path
           id="path4409"
           style="fill:#0e232e;stroke:#493939;stroke-width:0.41975999;stroke-linecap:round;stroke-linejoin:round"
           inkscape:connector-curvature="0"
           d="m -135.01,575.65 c -54.038,0 -97.847,-41.188 -97.847,-91.993 0,-20.293 6.9946,-39.038 18.833,-54.25 -4.538,10.604 -7.0555,22.184 -7.0555,34.315 0,50.805 43.809,91.993 97.847,91.993 32.454,0 61.214,-14.871 79.015,-37.743 -14.468,33.807 -49.657,57.678 -90.792,57.678 z" />
        <path
           id="path4413"
           style="fill:#0e232e;stroke:#493939;stroke-width:0.41975999;stroke-linecap:round;stroke-linejoin:round"
           inkscape:connector-curvature="0"
           d="m 572.84,584.37 c 52.197,13.986 105.17,-14.46 118.32,-63.534 5.2522,-19.601 3.3475,-39.518 -4.1504,-57.275 1.6388,11.418 1.0734,23.254 -2.0664,34.972 -13.149,49.074 -66.126,77.52 -118.32,63.534 -31.348,-8.3997 -55.28,-30.208 -66.553,-56.908 5.2247,36.4 33.037,68.564 72.77,79.211 z" />
        <path
           id="path4415"
           style="fill:#0e232e;fill-rule:evenodd"
           d="m 170.57,361.6 6.3502,7.725 c 4.3338,-3.7726 8.472,-8.3724 11.215,-14.034 2.0321,-4.2372 2.8577,-9.0832 2.1002,-13.845 -0.84635,-4.6682 -2.9615,-8.7283 -5.5538,-12.123 -3.0373,-4.0264 -6.6169,-7.4035 -10.299,-10.441 -8.7233,-7.2142 -18.228,-13.028 -27.483,-19.036 -9.0077,-5.8631 -18.057,-11.667 -25.682,-19.237 6.9631,8.1825 15.626,14.862 24.114,21.442 8.7536,6.7992 17.678,13.34 25.377,20.911 l 1e-5,0 c 3.2377,3.1932 6.2352,6.5121 8.4896,10.148 l 1e-5,10e-6 c 1.86,3.0516 3.2619,6.2519 3.4531,9.3493 0.2794,2.9993 -0.62993,6.1477 -2.191,8.8672 -2.2142,3.9364 -5.8788,7.186 -9.8902,10.273 z"
           sodipodi:nodetypes="cc"
           inkscape:connector-curvature="0"
           inkscape:original-d="m 173.74624,365.45845 c 40.9126,-33.63127 -26.60233,-56.85829 -52.52793,-84.85281" />
        <path
           id="path4417"
           style="fill:#0e232e;fill-rule:evenodd"
           d="m 3.9289,283.69 0.22347,9.9975 c 71.614,-3.2691 142.6,-11.413 214.04,-13.08 -71.441,-1.6667 -143.03,3.1586 -214.26,3.0825 z"
           inkscape:connector-curvature="0"
           inkscape:original-d="M 4.0406102,288.68686 C 76.210967,287.07364 147.26554,280.60564 218.19295,280.60564" />
        <path
           id="path4419"
           style="fill:#0e232e;fill-rule:evenodd"
           d="m 51.617,364.77 9.904,1.3821 c 0.78457,-8.1068 0.86302,-16.469 -0.55292,-24.703 -1.3633,-7.829 -4.224,-15.325 -8.4017,-21.952 l -1e-6,0 c -4.9244,-7.7649 -11.363,-14.23 -18.307,-19.789 l -4e-6,0 c -9.387,-7.5238 -19.695,-13.602 -30.218,-19.1 9.9692,6.4483 19.62,13.428 28.037,21.578 l 2e-6,0 c 6.2097,6.0204 11.737,12.705 15.504,20.158 3.2006,6.2927 5.0897,13.184 5.6402,20.109 0.60672,7.3596 -0.21587,14.85 -1.6046,22.316 z"
           sodipodi:nodetypes="cc"
           inkscape:connector-curvature="0"
           inkscape:original-d="M 56.568545,365.45845 C 61.261839,331.82718 52.064286,308.60016 4.0406149,280.60564" />
        <path
           id="path4421"
           style="fill:#0e232e;fill-rule:evenodd"
           d="m 819.19,468.4 -9.283,3.7183 c 5.1684,12.231 9.7063,24.658 12.633,37.43 3.7926,13.733 5.6184,28.072 3.3512,41.944 l 0,10e-6 c -27.166,5.7882 -55.65,7.1493 -84.304,7.9212 l -1e-5,0 c -28.983,0.9867 -58.127,1.0679 -87.01,4.0332 28.976,-1.8495 57.99,-0.80332 87.06,-0.67466 l 10e-6,0 c 29.167,-0.0827 58.81,-1.2144 88.231,-7.3397 l 0,-1e-5 c 3.6502,-15.607 3.2996,-31.915 0.93666,-47.612 -2.58,-13.555 -6.7822,-26.683 -11.615,-39.42 z"
           inkscape:connector-curvature="0"
           inkscape:original-d="m 814.55028,470.26098 c 8.56344,21.37895 19.32277,53.35346 13.33095,83.20301 -55.92822,11.77473 -116.35077,5.24497 -173.30238,9.98436" />
        <path
           id="path4423"
           style="fill:#0e232e;fill-rule:evenodd"
           d="m 496.57,564.39 0.84946,-9.9639 c -95.908,-7.34 -192.06,-8.4077 -288.06,-7.5894 -96.761,0.82343 -193.44,3.6535 -290.17,4.4901 96.726,0.83662 193.48,-0.32046 290.17,0.52962 95.934,0.84474 191.88,3.5694 287.21,12.534 z"
           inkscape:connector-curvature="0"
           inkscape:original-d="M 496.99505,559.40774 C 308.67106,543.35217 110.88988,551.32652 -80.812204,551.32652" />
        <path
           id="path4425"
           style="fill:#0e232e;fill-rule:evenodd"
           d="m -234.94,540.13 1.1616,-9.9323 c -83.681,-8.089 -167.5,-4.7817 -251.1,-3.1151 83.601,1.6667 167.55,1.715 249.94,13.047 z"
           inkscape:connector-curvature="0"
           inkscape:original-d="m -234.35539,535.16408 c -82.03356,-9.59356 -166.53838,-8.08122 -250.51783,-8.08122" />
        <path
           id="path4427"
           style="fill:#0e232e;fill-rule:evenodd"
           d="m 694.63,620.96 0.70448,-9.9752 c -195.48,-12.96 -391.38,-17.15 -587.18,-17.93 -196.35,-0.77827 -392.66,1.8842 -588.98,2.7187 196.32,0.8345 392.66,-0.15884 588.94,2.2882 195.73,2.4407 391.45,8.2899 586.53,22.902 z"
           inkscape:connector-curvature="0"
           inkscape:original-d="M 694.98495,615.97628 C 305.43158,588.46492 -88.476885,595.77323 -480.83261,595.77323" />
        <path
           id="path4429"
           style="fill:#0e232e;fill-rule:evenodd"
           d="m -227.2,556.24 1.8442,-9.8285 c -27.114,-4.2031 -53.149,-16.025 -75.597,-32.756 -22.204,-16.544 -41.206,-37.406 -58.665,-59.305 16.134,22.893 33.922,44.938 55.576,63.197 21.959,18.507 48.238,32.44 76.842,38.692 z"
           inkscape:connector-curvature="0"
           inkscape:original-d="m -226.27417,551.32652 c -59.34314,-11.13503 -99.46169,-51.80338 -133.34014,-96.97464" />
        <path
           id="path4431"
           style="fill:#0e232e;fill-rule:evenodd"
           d="m -43.8,388.78 -1.2942,9.9159 c 8.9446,0.75224 17.828,3.3059 25.558,7.9549 7.194,4.2823 13.458,10.366 18.733,17.275 5.5238,7.2434 10.001,15.395 13.958,23.815 l 2e-6,0 c 4.0959,8.7218 7.6201,17.759 11.089,26.809 -2.6552,-9.3222 -5.3671,-18.64 -8.713,-27.799 -10e-7,0 -10e-7,-1e-5 -2e-6,-1e-5 -3.2277,-8.8421 -7.0602,-17.57 -12.174,-25.704 -4.8937,-7.7911 -11.087,-14.973 -18.777,-20.587 -8.3454,-6.04 -18.182,-9.9338 -28.38,-11.68 z"
           inkscape:connector-curvature="0"
           inkscape:original-d="m -44.446712,393.74272 c 42.5563223,5.55443 56.476496,44.17058 68.690373,80.81221" />
        <path
           id="path4433"
           style="fill:#0e232e;fill-rule:evenodd"
           d="m 17.1,392.87 -1.8759,9.8225 c 10.95,1.6153 21.708,5.574 31.95,10.72 l 3e-6,0 c 10.428,5.2504 20.32,11.772 29.872,18.827 l 6e-6,0 c 9.0157,6.6616 17.713,13.843 26.402001,21.053 7.116,5.9062 14.201,11.948 21.811,17.22 -7.1914,-5.8294 -13.748,-12.342 -20.415,-18.778 -8.123801,-7.8463 -16.285001,-15.69 -24.898001,-23.121 -2e-6,-10e-6 -4e-6,-10e-6 -5e-6,-10e-6 -9.1141,-7.8678 -18.734,-15.302 -29.213,-21.626 l -6e-6,0 c -10.295,-6.2231 -21.525,-11.328 -33.632,-14.116 z"
           inkscape:connector-curvature="0"
           inkscape:original-d="M 16.162441,397.78333 C 61.763233,406.492 100.41916,451.8845 125.25892,470.51432" />
        <path
           id="path4918"
           style="fill:#0e232e;stroke:#493939;stroke-width:0.41975999;stroke-linecap:round;stroke-linejoin:round"
           inkscape:connector-curvature="0"
           d="m 572.84,584.37 c 52.197,13.986 105.17,-14.46 118.32,-63.534 5.2522,-19.601 3.3475,-39.518 -4.1504,-57.275 1.6388,11.418 1.0734,23.254 -2.0664,34.972 -13.149,49.074 -66.126,77.52 -118.32,63.534 -31.348,-8.3997 -55.28,-30.208 -66.553,-56.908 5.2247,36.4 33.037,68.564 72.77,79.211 z" />
      </g>
      <g
         id="g3358"
         style="fill:#0e232e;filter:url(#filter4188)"
         transform="matrix(0.040537,0,0,0.040537,26.117,17.554)">
        <path
           id="path3360"
           style="fill:#0e232e;fill-rule:evenodd"
           d="m -197.99,528.04 0,-10 c -64.65,1.6667 -129.3,3.3333 -193.95,5 64.65,1.6667 129.3,3.3333 193.95,5 z"
           inkscape:connector-curvature="0"
           inkscape:original-d="m -197.9899,523.04225 c -64.64976,0 -129.29952,0 -193.94929,0" />
        <path
           id="path3362"
           style="fill:#0e232e;fill-rule:evenodd"
           d="m -222.57,503.79 0.66672,-9.9778 c -87.783,-4.1873 -175.4,-0.7184 -262.97,0.94827 87.576,1.6667 175.33,1.5393 262.31,9.0295 z"
           inkscape:connector-curvature="0"
           inkscape:original-d="m -222.23356,498.79859 c -86.41212,-5.77403 -174.88366,-4.04061 -262.63966,-4.04061" />
        <path
           id="path3364"
           style="fill:#0e232e;fill-rule:evenodd"
           d="m -242.44,471.47 0,-10 c -96.975,1.6667 -193.95,3.3333 -290.92,5 96.975,1.6667 193.95,3.3333 290.92,5 z"
           inkscape:connector-curvature="0"
           inkscape:original-d="m -242.43661,466.47371 c -96.97464,0 -193.94929,0 -290.92393,0" />
        <path
           id="path3366"
           style="fill:#0e232e;fill-rule:evenodd"
           d="m -60.112,410.84 -0.99504,-9.9504 c -44.162,4.9816 -88.627,7.5724 -133.13,7.8563 l -1e-5,0 c -45.714,1.3698 -91.526,-0.14406 -136.78,-6.932 l 2e-5,0 c 21.356,-4.4546 41.275,-13.412 60.484,-23.429 17.633,-9.4211 34.61,-19.938 52.349,-29.089 -17.963,8.7004 -35.236,18.804 -53.043,27.748 -19.407,9.9942 -39.385,19.42 -60.398,24.79 45.286,7.8572 91.346,11.591 137.35,13.536 0,0 10e-6,0 2e-5,1e-5 44.729,0.8432 89.538,-0.63237 134.17,-4.5302 z"
           inkscape:connector-curvature="0"
           inkscape:original-d="m -60.609153,405.86455 c -80.865887,8.08659 -185.301447,9.77559 -270.720877,-4.04061 40.68444,-9.43382 82.77925,-37.34901 113.13708,-52.52793" />
        <path
           id="path3368"
           style="fill:#0e232e;fill-rule:evenodd"
           d="m -262.52,360.46 -0.23902,9.9971 c 112.35,1.8489 224.61,-0.055 336.84,0.43715 111.49,0.49 223.09,3.27 334.02,14.76 -110.75,-13.14 -222.42,-17.6 -333.96,-19.75 -112.28,-2.16 -224.57,-1.93 -336.66,-5.45 z"
           inkscape:connector-curvature="0"
           inkscape:original-d="m -262.63966,365.45845 c 223.550652,5.34482 450.85805,-4.22842 670.74129,20.20305" />
        <path
           id="path3370"
           style="fill:#0e232e;fill-rule:evenodd"
           d="m -265.27,357.17 5.2589,8.5055 c 66.648,-41.864 140.95,-71.657 218.23,-87.587 1.2e-5,0 2.4e-5,-1e-5 3.5e-5,-1e-5 71.912,-14.827 145.959995,-18.127 219.569995,-15.9 21.378,-1.0901 43.013,2.6558 62.853,10.846 1e-5,10e-6 3e-5,10e-6 4e-5,2e-5 19.16001,7.9093 36.631,19.692 52.419,33.291 16.157,13.919 30.646,29.731 44.299,46.185 13.3,16.03 25.79,32.731 38.413,49.318 -12.389,-16.762 -24.642,-33.635 -37.734,-49.873 -13.438,-16.667 -27.747,-32.728 -43.809,-46.968 -15.697,-13.918 -33.185,-26.07 -52.557,-34.401 l -1e-5,0 c -20.051,-8.6221 -42.027,-12.768 -63.896,-11.962 -73.748,-3.2777 -148.139995,-1.0028 -220.859995,12.924 -1.2e-5,10e-6 -2.3e-5,10e-6 -3.5e-5,10e-6 -78.286,14.998 -153.93,44.069 -222.19,85.619 z"
           sodipodi:nodetypes="ccc"
           inkscape:connector-curvature="0"
           inkscape:original-d="m -262.63966,361.41784 c 146.80884,-90.77 293.617673,-106.50001 440.42651,-101.01525 92.84676,-4.0723 150.12217,77.59771 197.9899,141.42135" />
        <path
           id="path3372"
           style="fill:#0e232e;fill-rule:evenodd"
           d="m 437.54,361.9 5.3945,-8.4202 c -63.8,-38.95 -131.82,-72.92 -204.53,-89.04 71.916,19.357 137.57,56.069 199.15,97.454 z"
           sodipodi:nodetypes="cc"
           inkscape:connector-curvature="0"
           inkscape:original-d="M 440.23997,357.68679 C 382.14246,320.46551 314.60587,283.1375 238.396,264.4432" />
        <path
           id="path3374"
           style="fill:#0e232e;fill-rule:evenodd"
           d="m 441.77,381.79 5.3946,-8.4201 c -2.0938,-0.87143 -3.1523,-1.1254 -3.1462,-0.82554 -0.61869,0.0384 -1.0489,0.0986 -1.2919,0.16063 -0.90712,0.1886 -1.6593,0.40764 -2.2688,0.60553 -2.2291,0.69949 -4.3348,1.4888 -6.3546,2.2612 l -10e-6,0 c -6.7779,2.5832 -13.428,5.36 -20.027,8.149 0,0 -1e-5,0 -1e-5,1e-5 -16.405,7.8168 -32.899,15.838 -49.466,24.068 l -10e-6,0 c -4.5626,-16.215 -11.767,-31.568 -20.798,-45.821 -9.4927,-14.329 -20.502,-27.526 -32.287,-39.879 -22.709,-23.801 -48.279,-44.399 -73.129,-65.727 24.095,22.178 48.958,43.677 70.62,68.038 11.245,12.645 21.643,26.026 30.427,40.354 l 0,10e-6 c 9.482,14.775 17.496,30.637 23.256,47.267 0,-10e-6 10e-6,-10e-6 10e-6,-10e-6 17.891,-7.0846 36.134,-13.752 54.712,-20.008 0,0 10e-6,0 10e-6,-10e-6 6.6694,-2.5483 13.312,-5.0561 19.984,-7.3351 l 1e-5,-10e-6 c 2.0241,-0.68955 3.9708,-1.3481 5.866,-1.8654 0.56857,-0.14966 0.99956,-0.26946 1.2997,-0.30682 0.11222,-0.004 0.04,-0.004 -0.21752,0.0231 0.20158,0.29348 -0.64425,0.0271 -2.5734,-0.73889 z"
           inkscape:connector-curvature="0"
           inkscape:original-d="m 444.46712,377.58028 c -1.67891,-1.07565 -47.97981,17.73271 -80.8122,32.32488 C 342.59742,342.90235 284.10756,296.99447 238.396,256.36198" />
        <path
           id="path3376"
           style="fill:#0e232e;fill-rule:evenodd"
           d="m 492.95,544.2 0,-10 -521.24,5 521.24,5 z"
           inkscape:connector-curvature="0"
           inkscape:original-d="m 492.95444,539.20469 c -173.74624,0 -347.49247,0 -521.238711,0" />
        <path
           id="path3378"
           style="fill:#0e232e;fill-rule:evenodd"
           d="m -341.54,408.06 9.657,2.5968 c 3.1353,-13.065 4.0332,-26.335 4.0151,-39.379 -0.31965,-13.698 -1.4021,-27.072 -1.8971,-40.224 -11.382,-7.0238 -21.717,-15.653 -30.891,-25.232 -7.3955,-7.5054 -14.268,-15.881 -22.194,-23.418 -0.24202,-12.602 -0.53391,-25.324 -0.87561,-38.166 -0.3417,12.843 -0.63355,25.806 -0.87561,38.89 7.4132,7.8551 13.857,16.752 21.157,25.254 8.5625,9.7399 18.295,18.351 29.189,25.169 l 0,1e-5 c -0.49495,12.765 -0.56418,25.311 -1.5568,37.521 -0.68608,12.671 -2.1834,25.212 -5.728,36.989 z"
           inkscape:connector-curvature="0"
           inkscape:original-d="m -336.71049,409.36138 c 6.72225,-24.99909 4.70139,-51.13993 4.70139,-77.05657 -26.27062,-16.32382 -36.59737,-34.36582 -51.71532,-49.53637 2e-5,-12.84277 0,-25.68553 0,-38.52829" />
        <path
           id="path3380"
           style="fill:#0e232e;fill-rule:evenodd"
           d="m -402.03,259.87 -4.0614,9.1381 c 39.418,16.699 79.131,32.196 118.91,46.966 6.0079,-1.0936 11.529,-3.5539 16.371,-6.7259 4.593,-3.2001 8.6089,-7.0045 12.28,-10.983 l 0,-10e-6 c 3.4663,-3.7489 6.6392,-7.6586 9.8118,-11.481 2.4418,-3.7726 4.7326,-7.4431 7.4407,-10.409 -25.792,-10.412 -53.305,-13.64 -80.324,-14.213 l -2e-5,0 c -27.553,-0.25123 -54.979,1.8835 -82.461,2.2778 27.483,0.39432 55.008,-0.95214 82.406,0.0875 l 2e-5,0 c 26.758,0.68993 53.642,3.3231 78.058,12.221 -3.4229,2.0501 -6.23,4.5239 -8.9357,6.7725 -3.3087,3.7582 -6.5328,7.5109 -9.9432,10.986 0,0 0,1e-5 -10e-6,1e-5 -3.6311,3.6928 -7.4441,7.1234 -11.633,9.843 -3.8848,2.7109 -8.1265,4.7661 -12.478,5.5297 -39.029,-15.85 -77.598,-32.369 -115.44,-50.009 z"
           inkscape:connector-curvature="0"
           inkscape:original-d="m -404.06102,264.4432 c 37.22705,16.54535 76.3591,32.62815 117.1777,48.48732 21.05163,-3.77404 34.48221,-28.21272 44.44671,-36.36549 -49.6185,-19.08289 -107.68267,-12.12183 -161.62441,-12.12183 z" />
        <path
           id="path3382"
           style="fill:#0e232e;fill-rule:evenodd"
           d="m -299.1,384.44 8.2634,-5.6316 c -4.5273,-5.902 -8.4096,-12.321 -11.283,-19.198 -2.6305,-6.2646 -4.4325,-12.97 -5.6132,-19.837 -2.6341,-15.291 -2.5406,-31.252 -3.3975,-47.043 -0.85694,15.791 -2.6787,31.544 -1.7105,47.629 l 0,1e-5 c 0.44256,7.2712 1.5773,14.583 3.6891,21.736 2.3284,7.8413 5.7879,15.346 10.052,22.344 z"
           inkscape:connector-curvature="0"
           inkscape:original-d="m -294.96454,381.62089 c -19.30059,-28.3202 -16.16244,-52.86847 -16.16244,-88.89342" />
        <path
           id="path3384"
           style="fill:#0e232e;fill-rule:evenodd"
           d="m -364.61,442.05 9.9936,0.35704 c 0.18691,-5.7959 1.0304,-11.515 2.8436,-16.832 1.4656,-4.3571 3.6193,-8.5254 6.2667,-12.387 1e-5,0 1e-5,-10e-6 1e-5,-10e-6 4.1529,-6.7132 10.361,-12.574 16.01,-19.634 88.881,-2.7024 178.12,-4.7806 267.73,-5.1675 l 4.7e-5,0 c 24.803,25.556 51.08,49.746 78.655,72.446 26.604,21.693 54.288,42.097 83.470003,60.09 2e-5,10e-6 3e-5,2e-5 4e-5,3e-5 64.643,5.9808 129.48,7.6831 194.17,7.8255 64.81,0.11763 129.59,-1.3187 194.38,-1.667 -64.793,-0.34821 -129.6,0.39174 -194.37,-0.42228 -64.498,-0.78637 -128.94,-3.0782 -192.88,-9.5816 -28.570003,-18.102 -55.558003,-38.573 -81.416003,-60.304 -27.812,-23.144 -54.439,-47.8 -79.708,-73.84 l -4.6e-5,0 c -90.897001,-0.38697 -182.140001,0.93975 -273.710001,2.9137 -6.3123,6.8951 -13.913,13.463 -20.255,21.839 -1e-5,10e-6 -2e-5,3e-5 -3e-5,4e-5 -3.1643,4.4944 -5.7708,9.4302 -7.6213,14.696 -2.2263,6.4052 -3.3161,13.073 -3.5719,19.668 z"
           inkscape:connector-curvature="0"
           inkscape:original-d="m -359.61431,442.23005 c 1.01237,-28.33619 16.63099,-38.93244 28.28428,-52.52794 90.77987,-2.35261 178.49505,-4.04061 270.720877,-4.04061 49.277151,50.77763 107.998523,99.82396 161.624403,133.34014 128.0726,12.43452 258.68831,8.08122 387.89858,8.08122" />
        <path
           id="path3386"
           style="fill:#0e232e;fill-rule:evenodd"
           d="m 403.11,526.89 9.9923,0.39302 c 0.18736,-28.057 -8.1922,-55.191 -20.882,-79.387 -11.958,-22.827 -27.521,-43.405 -44.723,-62.231 15.973,19.879 30.099,41.29 40.353,64.347 10.842,24.416 17.195,50.969 15.26,76.878 z"
           inkscape:connector-curvature="0"
           inkscape:original-d="M 408.10163,527.08286 C 410.27723,471.76992 377.93956,421.1831 347.49248,385.6615" />
        <path
           id="path3388"
           style="fill:#0e232e;fill-rule:evenodd"
           d="m 812.85,474.22 6.7041,-7.4199 c -26.036,-22.964 -55.754,-41.421 -87.266,-55.468 -31.768,-14.159 -65.236,-23.981 -99.148,-30.801 -34.902,-7.0205 -70.308,-10.926 -105.74,-13.047 l -2e-5,0 c -35.703,-2.1383 -71.459,-2.4561 -107.18,-2.0301 35.721,0.42597 71.441,1.5966 107,4.5794 l 10e-6,0 c 35.284,2.9607 70.428,7.6888 104.86,15.478 0,0 10e-6,1e-5 2e-5,1e-5 33.448,7.5688 66.249,18.05 97.052,32.685 30.539,14.507 59.075,33.194 83.721,56.023 z"
           inkscape:connector-curvature="0"
           inkscape:original-d="M 816.20326,470.51432 C 713.01965,377.28596 561.79723,365.45845 420.22346,365.45845" />
        <path
           id="path3390"
           style="fill:#0e232e;stroke:#493939;stroke-width:0.41975999;stroke-linecap:round;stroke-linejoin:round"
           inkscape:connector-curvature="0"
           d="m -135.01,575.65 c -54.038,0 -97.847,-41.188 -97.847,-91.993 0,-20.293 6.9946,-39.038 18.833,-54.25 -4.538,10.604 -7.0555,22.184 -7.0555,34.315 0,50.805 43.809,91.993 97.847,91.993 32.454,0 61.214,-14.871 79.015,-37.743 -14.468,33.807 -49.657,57.678 -90.792,57.678 z" />
        <path
           id="path3392"
           style="fill:#0e232e;stroke:#493939;stroke-width:0.41975999;stroke-linecap:round;stroke-linejoin:round"
           inkscape:connector-curvature="0"
           d="m 572.84,584.37 c 52.197,13.986 105.17,-14.46 118.32,-63.534 5.2522,-19.601 3.3475,-39.518 -4.1504,-57.275 1.6388,11.418 1.0734,23.254 -2.0664,34.972 -13.149,49.074 -66.126,77.52 -118.32,63.534 -31.348,-8.3997 -55.28,-30.208 -66.553,-56.908 5.2247,36.4 33.037,68.564 72.77,79.211 z" />
        <path
           id="path3394"
           style="fill:#0e232e;fill-rule:evenodd"
           d="m 170.57,361.6 6.3502,7.725 c 4.3338,-3.7726 8.472,-8.3724 11.215,-14.034 2.0321,-4.2372 2.8577,-9.0832 2.1002,-13.845 -0.84635,-4.6682 -2.9615,-8.7283 -5.5538,-12.123 -3.0373,-4.0264 -6.6169,-7.4035 -10.299,-10.441 -8.7233,-7.2142 -18.228,-13.028 -27.483,-19.036 -9.0077,-5.8631 -18.057,-11.667 -25.682,-19.237 6.9631,8.1825 15.626,14.862 24.114,21.442 8.7536,6.7992 17.678,13.34 25.377,20.911 l 1e-5,0 c 3.2377,3.1932 6.2352,6.5121 8.4896,10.148 l 1e-5,10e-6 c 1.86,3.0516 3.2619,6.2519 3.4531,9.3493 0.2794,2.9993 -0.62993,6.1477 -2.191,8.8672 -2.2142,3.9364 -5.8788,7.186 -9.8902,10.273 z"
           sodipodi:nodetypes="cc"
           inkscape:connector-curvature="0"
           inkscape:original-d="m 173.74624,365.45845 c 40.9126,-33.63127 -26.60233,-56.85829 -52.52793,-84.85281" />
        <path
           id="path3396"
           style="fill:#0e232e;fill-rule:evenodd"
           d="m 3.9289,283.69 0.22347,9.9975 c 71.614,-3.2691 142.6,-11.413 214.04,-13.08 -71.441,-1.6667 -143.03,3.1586 -214.26,3.0825 z"
           inkscape:connector-curvature="0"
           inkscape:original-d="M 4.0406102,288.68686 C 76.210967,287.07364 147.26554,280.60564 218.19295,280.60564" />
        <path
           id="path3398"
           style="fill:#0e232e;fill-rule:evenodd"
           d="m 51.617,364.77 9.904,1.3821 c 0.78457,-8.1068 0.86302,-16.469 -0.55292,-24.703 -1.3633,-7.829 -4.224,-15.325 -8.4017,-21.952 l -1e-6,0 c -4.9244,-7.7649 -11.363,-14.23 -18.307,-19.789 l -4e-6,0 c -9.387,-7.5238 -19.695,-13.602 -30.218,-19.1 9.9692,6.4483 19.62,13.428 28.037,21.578 l 2e-6,0 c 6.2097,6.0204 11.737,12.705 15.504,20.158 3.2006,6.2927 5.0897,13.184 5.6402,20.109 0.60672,7.3596 -0.21587,14.85 -1.6046,22.316 z"
           sodipodi:nodetypes="cc"
           inkscape:connector-curvature="0"
           inkscape:original-d="M 56.568545,365.45845 C 61.261839,331.82718 52.064286,308.60016 4.0406149,280.60564" />
        <path
           id="path3400"
           style="fill:#0e232e;fill-rule:evenodd"
           d="m 819.19,468.4 -9.283,3.7183 c 5.1684,12.231 9.7063,24.658 12.633,37.43 3.7926,13.733 5.6184,28.072 3.3512,41.944 l 0,10e-6 c -27.166,5.7882 -55.65,7.1493 -84.304,7.9212 l -1e-5,0 c -28.983,0.9867 -58.127,1.0679 -87.01,4.0332 28.976,-1.8495 57.99,-0.80332 87.06,-0.67466 l 10e-6,0 c 29.167,-0.0827 58.81,-1.2144 88.231,-7.3397 l 0,-1e-5 c 3.6502,-15.607 3.2996,-31.915 0.93666,-47.612 -2.58,-13.555 -6.7822,-26.683 -11.615,-39.42 z"
           inkscape:connector-curvature="0"
           inkscape:original-d="m 814.55028,470.26098 c 8.56344,21.37895 19.32277,53.35346 13.33095,83.20301 -55.92822,11.77473 -116.35077,5.24497 -173.30238,9.98436" />
        <path
           id="path3402"
           style="fill:#0e232e;fill-rule:evenodd"
           d="m 496.57,564.39 0.84946,-9.9639 c -95.908,-7.34 -192.06,-8.4077 -288.06,-7.5894 -96.761,0.82343 -193.44,3.6535 -290.17,4.4901 96.726,0.83662 193.48,-0.32046 290.17,0.52962 95.934,0.84474 191.88,3.5694 287.21,12.534 z"
           inkscape:connector-curvature="0"
           inkscape:original-d="M 496.99505,559.40774 C 308.67106,543.35217 110.88988,551.32652 -80.812204,551.32652" />
        <path
           id="path3404"
           style="fill:#0e232e;fill-rule:evenodd"
           d="m -234.94,540.13 1.1616,-9.9323 c -83.681,-8.089 -167.5,-4.7817 -251.1,-3.1151 83.601,1.6667 167.55,1.715 249.94,13.047 z"
           inkscape:connector-curvature="0"
           inkscape:original-d="m -234.35539,535.16408 c -82.03356,-9.59356 -166.53838,-8.08122 -250.51783,-8.08122" />
        <path
           id="path3406"
           style="fill:#0e232e;fill-rule:evenodd"
           d="m 694.63,620.96 0.70448,-9.9752 c -195.48,-12.96 -391.38,-17.15 -587.18,-17.93 -196.35,-0.77827 -392.66,1.8842 -588.98,2.7187 196.32,0.8345 392.66,-0.15884 588.94,2.2882 195.73,2.4407 391.45,8.2899 586.53,22.902 z"
           inkscape:connector-curvature="0"
           inkscape:original-d="M 694.98495,615.97628 C 305.43158,588.46492 -88.476885,595.77323 -480.83261,595.77323" />
        <path
           id="path3408"
           style="fill:#0e232e;fill-rule:evenodd"
           d="m -227.2,556.24 1.8442,-9.8285 c -27.114,-4.2031 -53.149,-16.025 -75.597,-32.756 -22.204,-16.544 -41.206,-37.406 -58.665,-59.305 16.134,22.893 33.922,44.938 55.576,63.197 21.959,18.507 48.238,32.44 76.842,38.692 z"
           inkscape:connector-curvature="0"
           inkscape:original-d="m -226.27417,551.32652 c -59.34314,-11.13503 -99.46169,-51.80338 -133.34014,-96.97464" />
        <path
           id="path3410"
           style="fill:#0e232e;fill-rule:evenodd"
           d="m -43.8,388.78 -1.2942,9.9159 c 8.9446,0.75224 17.828,3.3059 25.558,7.9549 7.194,4.2823 13.458,10.366 18.733,17.275 5.5238,7.2434 10.001,15.395 13.958,23.815 l 2e-6,0 c 4.0959,8.7218 7.6201,17.759 11.089,26.809 -2.6552,-9.3222 -5.3671,-18.64 -8.713,-27.799 -10e-7,0 -10e-7,-1e-5 -2e-6,-1e-5 -3.2277,-8.8421 -7.0602,-17.57 -12.174,-25.704 -4.8937,-7.7911 -11.087,-14.973 -18.777,-20.587 -8.3454,-6.04 -18.182,-9.9338 -28.38,-11.68 z"
           inkscape:connector-curvature="0"
           inkscape:original-d="m -44.446712,393.74272 c 42.5563223,5.55443 56.476496,44.17058 68.690373,80.81221" />
        <path
           id="path3412"
           style="fill:#0e232e;fill-rule:evenodd"
           d="m 17.1,392.87 -1.8759,9.8225 c 10.95,1.6153 21.708,5.574 31.95,10.72 l 3e-6,0 c 10.428,5.2504 20.32,11.772 29.872,18.827 l 6e-6,0 c 9.0157,6.6616 17.713,13.843 26.402001,21.053 7.116,5.9062 14.201,11.948 21.811,17.22 -7.1914,-5.8294 -13.748,-12.342 -20.415,-18.778 -8.123801,-7.8463 -16.285001,-15.69 -24.898001,-23.121 -2e-6,-10e-6 -4e-6,-10e-6 -5e-6,-10e-6 -9.1141,-7.8678 -18.734,-15.302 -29.213,-21.626 l -6e-6,0 c -10.295,-6.2231 -21.525,-11.328 -33.632,-14.116 z"
           inkscape:connector-curvature="0"
           inkscape:original-d="M 16.162441,397.78333 C 61.763233,406.492 100.41916,451.8845 125.25892,470.51432" />
        <path
           id="path3414"
           style="fill:#0e232e;stroke:#493939;stroke-width:0.41975999;stroke-linecap:round;stroke-linejoin:round"
           inkscape:connector-curvature="0"
           d="m 572.84,584.37 c 52.197,13.986 105.17,-14.46 118.32,-63.534 5.2522,-19.601 3.3475,-39.518 -4.1504,-57.275 1.6388,11.418 1.0734,23.254 -2.0664,34.972 -13.149,49.074 -66.126,77.52 -118.32,63.534 -31.348,-8.3997 -55.28,-30.208 -66.553,-56.908 5.2247,36.4 33.037,68.564 72.77,79.211 z" />
      </g>
      <g
         id="g4192"
         style="fill:#0e232e;filter:url(#filter4188)"
         transform="matrix(0.040537,0,0,0.040537,26.298,17.736)">
        <path
           id="path4194"
           style="fill:#0e232e;fill-rule:evenodd"
           d="m -197.99,528.04 0,-10 c -64.65,1.6667 -129.3,3.3333 -193.95,5 64.65,1.6667 129.3,3.3333 193.95,5 z"
           inkscape:connector-curvature="0"
           inkscape:original-d="m -197.9899,523.04225 c -64.64976,0 -129.29952,0 -193.94929,0" />
        <path
           id="path4196"
           style="fill:#0e232e;fill-rule:evenodd"
           d="m -222.57,503.79 0.66672,-9.9778 c -87.783,-4.1873 -175.4,-0.7184 -262.97,0.94827 87.576,1.6667 175.33,1.5393 262.31,9.0295 z"
           inkscape:connector-curvature="0"
           inkscape:original-d="m -222.23356,498.79859 c -86.41212,-5.77403 -174.88366,-4.04061 -262.63966,-4.04061" />
        <path
           id="path4198"
           style="fill:#0e232e;fill-rule:evenodd"
           d="m -242.44,471.47 0,-10 c -96.975,1.6667 -193.95,3.3333 -290.92,5 96.975,1.6667 193.95,3.3333 290.92,5 z"
           inkscape:connector-curvature="0"
           inkscape:original-d="m -242.43661,466.47371 c -96.97464,0 -193.94929,0 -290.92393,0" />
        <path
           id="path4200"
           style="fill:#0e232e;fill-rule:evenodd"
           d="m -60.112,410.84 -0.99504,-9.9504 c -44.162,4.9816 -88.627,7.5724 -133.13,7.8563 l -1e-5,0 c -45.714,1.3698 -91.526,-0.14406 -136.78,-6.932 l 2e-5,0 c 21.356,-4.4546 41.275,-13.412 60.484,-23.429 17.633,-9.4211 34.61,-19.938 52.349,-29.089 -17.963,8.7004 -35.236,18.804 -53.043,27.748 -19.407,9.9942 -39.385,19.42 -60.398,24.79 45.286,7.8572 91.346,11.591 137.35,13.536 0,0 10e-6,0 2e-5,1e-5 44.729,0.8432 89.538,-0.63237 134.17,-4.5302 z"
           inkscape:connector-curvature="0"
           inkscape:original-d="m -60.609153,405.86455 c -80.865887,8.08659 -185.301447,9.77559 -270.720877,-4.04061 40.68444,-9.43382 82.77925,-37.34901 113.13708,-52.52793" />
        <path
           id="path4202"
           style="fill:#0e232e;fill-rule:evenodd"
           d="m -262.52,360.46 -0.23902,9.9971 c 112.35,1.8489 224.61,-0.055 336.84,0.43715 111.49,0.49 223.09,3.27 334.02,14.76 -110.75,-13.14 -222.42,-17.6 -333.96,-19.75 -112.28,-2.16 -224.57,-1.93 -336.66,-5.45 z"
           inkscape:connector-curvature="0"
           inkscape:original-d="m -262.63966,365.45845 c 223.550652,5.34482 450.85805,-4.22842 670.74129,20.20305" />
        <path
           id="path4204"
           style="fill:#0e232e;fill-rule:evenodd"
           d="m -265.27,357.17 5.2589,8.5055 c 66.648,-41.864 140.95,-71.657 218.23,-87.587 1.2e-5,0 2.4e-5,-1e-5 3.5e-5,-1e-5 71.912,-14.827 145.959995,-18.127 219.569995,-15.9 21.378,-1.0901 43.013,2.6558 62.853,10.846 1e-5,10e-6 3e-5,10e-6 4e-5,2e-5 19.16001,7.9093 36.631,19.692 52.419,33.291 16.157,13.919 30.646,29.731 44.299,46.185 13.3,16.03 25.79,32.731 38.413,49.318 -12.389,-16.762 -24.642,-33.635 -37.734,-49.873 -13.438,-16.667 -27.747,-32.728 -43.809,-46.968 -15.697,-13.918 -33.185,-26.07 -52.557,-34.401 l -1e-5,0 c -20.051,-8.6221 -42.027,-12.768 -63.896,-11.962 -73.748,-3.2777 -148.139995,-1.0028 -220.859995,12.924 -1.2e-5,10e-6 -2.3e-5,10e-6 -3.5e-5,10e-6 -78.286,14.998 -153.93,44.069 -222.19,85.619 z"
           sodipodi:nodetypes="ccc"
           inkscape:connector-curvature="0"
           inkscape:original-d="m -262.63966,361.41784 c 146.80884,-90.77 293.617673,-106.50001 440.42651,-101.01525 92.84676,-4.0723 150.12217,77.59771 197.9899,141.42135" />
        <path
           id="path4206"
           style="fill:#0e232e;fill-rule:evenodd"
           d="m 437.54,361.9 5.3945,-8.4202 c -63.8,-38.95 -131.82,-72.92 -204.53,-89.04 71.916,19.357 137.57,56.069 199.15,97.454 z"
           sodipodi:nodetypes="cc"
           inkscape:connector-curvature="0"
           inkscape:original-d="M 440.23997,357.68679 C 382.14246,320.46551 314.60587,283.1375 238.396,264.4432" />
        <path
           id="path4208"
           style="fill:#0e232e;fill-rule:evenodd"
           d="m 441.77,381.79 5.3946,-8.4201 c -2.0938,-0.87143 -3.1523,-1.1254 -3.1462,-0.82554 -0.61869,0.0384 -1.0489,0.0986 -1.2919,0.16063 -0.90712,0.1886 -1.6593,0.40764 -2.2688,0.60553 -2.2291,0.69949 -4.3348,1.4888 -6.3546,2.2612 l -10e-6,0 c -6.7779,2.5832 -13.428,5.36 -20.027,8.149 0,0 -1e-5,0 -1e-5,1e-5 -16.405,7.8168 -32.899,15.838 -49.466,24.068 l -10e-6,0 c -4.5626,-16.215 -11.767,-31.568 -20.798,-45.821 -9.4927,-14.329 -20.502,-27.526 -32.287,-39.879 -22.709,-23.801 -48.279,-44.399 -73.129,-65.727 24.095,22.178 48.958,43.677 70.62,68.038 11.245,12.645 21.643,26.026 30.427,40.354 l 0,10e-6 c 9.482,14.775 17.496,30.637 23.256,47.267 0,-10e-6 10e-6,-10e-6 10e-6,-10e-6 17.891,-7.0846 36.134,-13.752 54.712,-20.008 0,0 10e-6,0 10e-6,-10e-6 6.6694,-2.5483 13.312,-5.0561 19.984,-7.3351 l 1e-5,-10e-6 c 2.0241,-0.68955 3.9708,-1.3481 5.866,-1.8654 0.56857,-0.14966 0.99956,-0.26946 1.2997,-0.30682 0.11222,-0.004 0.04,-0.004 -0.21752,0.0231 0.20158,0.29348 -0.64425,0.0271 -2.5734,-0.73889 z"
           inkscape:connector-curvature="0"
           inkscape:original-d="m 444.46712,377.58028 c -1.67891,-1.07565 -47.97981,17.73271 -80.8122,32.32488 C 342.59742,342.90235 284.10756,296.99447 238.396,256.36198" />
        <path
           id="path4210"
           style="fill:#0e232e;fill-rule:evenodd"
           d="m 492.95,544.2 0,-10 -521.24,5 521.24,5 z"
           inkscape:connector-curvature="0"
           inkscape:original-d="m 492.95444,539.20469 c -173.74624,0 -347.49247,0 -521.238711,0" />
        <path
           id="path4212"
           style="fill:#0e232e;fill-rule:evenodd"
           d="m -341.54,408.06 9.657,2.5968 c 3.1353,-13.065 4.0332,-26.335 4.0151,-39.379 -0.31965,-13.698 -1.4021,-27.072 -1.8971,-40.224 -11.382,-7.0238 -21.717,-15.653 -30.891,-25.232 -7.3955,-7.5054 -14.268,-15.881 -22.194,-23.418 -0.24202,-12.602 -0.53391,-25.324 -0.87561,-38.166 -0.3417,12.843 -0.63355,25.806 -0.87561,38.89 7.4132,7.8551 13.857,16.752 21.157,25.254 8.5625,9.7399 18.295,18.351 29.189,25.169 l 0,1e-5 c -0.49495,12.765 -0.56418,25.311 -1.5568,37.521 -0.68608,12.671 -2.1834,25.212 -5.728,36.989 z"
           inkscape:connector-curvature="0"
           inkscape:original-d="m -336.71049,409.36138 c 6.72225,-24.99909 4.70139,-51.13993 4.70139,-77.05657 -26.27062,-16.32382 -36.59737,-34.36582 -51.71532,-49.53637 2e-5,-12.84277 0,-25.68553 0,-38.52829" />
        <path
           id="path4214"
           style="fill:#0e232e;fill-rule:evenodd"
           d="m -402.03,259.87 -4.0614,9.1381 c 39.418,16.699 79.131,32.196 118.91,46.966 6.0079,-1.0936 11.529,-3.5539 16.371,-6.7259 4.593,-3.2001 8.6089,-7.0045 12.28,-10.983 l 0,-10e-6 c 3.4663,-3.7489 6.6392,-7.6586 9.8118,-11.481 2.4418,-3.7726 4.7326,-7.4431 7.4407,-10.409 -25.792,-10.412 -53.305,-13.64 -80.324,-14.213 l -2e-5,0 c -27.553,-0.25123 -54.979,1.8835 -82.461,2.2778 27.483,0.39432 55.008,-0.95214 82.406,0.0875 l 2e-5,0 c 26.758,0.68993 53.642,3.3231 78.058,12.221 -3.4229,2.0501 -6.23,4.5239 -8.9357,6.7725 -3.3087,3.7582 -6.5328,7.5109 -9.9432,10.986 0,0 0,1e-5 -10e-6,1e-5 -3.6311,3.6928 -7.4441,7.1234 -11.633,9.843 -3.8848,2.7109 -8.1265,4.7661 -12.478,5.5297 -39.029,-15.85 -77.598,-32.369 -115.44,-50.009 z"
           inkscape:connector-curvature="0"
           inkscape:original-d="m -404.06102,264.4432 c 37.22705,16.54535 76.3591,32.62815 117.1777,48.48732 21.05163,-3.77404 34.48221,-28.21272 44.44671,-36.36549 -49.6185,-19.08289 -107.68267,-12.12183 -161.62441,-12.12183 z" />
        <path
           id="path4216"
           style="fill:#0e232e;fill-rule:evenodd"
           d="m -299.1,384.44 8.2634,-5.6316 c -4.5273,-5.902 -8.4096,-12.321 -11.283,-19.198 -2.6305,-6.2646 -4.4325,-12.97 -5.6132,-19.837 -2.6341,-15.291 -2.5406,-31.252 -3.3975,-47.043 -0.85694,15.791 -2.6787,31.544 -1.7105,47.629 l 0,1e-5 c 0.44256,7.2712 1.5773,14.583 3.6891,21.736 2.3284,7.8413 5.7879,15.346 10.052,22.344 z"
           inkscape:connector-curvature="0"
           inkscape:original-d="m -294.96454,381.62089 c -19.30059,-28.3202 -16.16244,-52.86847 -16.16244,-88.89342" />
        <path
           id="path4218"
           style="fill:#0e232e;fill-rule:evenodd"
           d="m -364.61,442.05 9.9936,0.35704 c 0.18691,-5.7959 1.0304,-11.515 2.8436,-16.832 1.4656,-4.3571 3.6193,-8.5254 6.2667,-12.387 1e-5,0 1e-5,-10e-6 1e-5,-10e-6 4.1529,-6.7132 10.361,-12.574 16.01,-19.634 88.881,-2.7024 178.12,-4.7806 267.73,-5.1675 l 4.7e-5,0 c 24.803,25.556 51.08,49.746 78.655,72.446 26.604,21.693 54.288,42.097 83.470003,60.09 2e-5,10e-6 3e-5,2e-5 4e-5,3e-5 64.643,5.9808 129.48,7.6831 194.17,7.8255 64.81,0.11763 129.59,-1.3187 194.38,-1.667 -64.793,-0.34821 -129.6,0.39174 -194.37,-0.42228 -64.498,-0.78637 -128.94,-3.0782 -192.88,-9.5816 -28.570003,-18.102 -55.558003,-38.573 -81.416003,-60.304 -27.812,-23.144 -54.439,-47.8 -79.708,-73.84 l -4.6e-5,0 c -90.897001,-0.38697 -182.140001,0.93975 -273.710001,2.9137 -6.3123,6.8951 -13.913,13.463 -20.255,21.839 -1e-5,10e-6 -2e-5,3e-5 -3e-5,4e-5 -3.1643,4.4944 -5.7708,9.4302 -7.6213,14.696 -2.2263,6.4052 -3.3161,13.073 -3.5719,19.668 z"
           inkscape:connector-curvature="0"
           inkscape:original-d="m -359.61431,442.23005 c 1.01237,-28.33619 16.63099,-38.93244 28.28428,-52.52794 90.77987,-2.35261 178.49505,-4.04061 270.720877,-4.04061 49.277151,50.77763 107.998523,99.82396 161.624403,133.34014 128.0726,12.43452 258.68831,8.08122 387.89858,8.08122" />
        <path
           id="path4220"
           style="fill:#0e232e;fill-rule:evenodd"
           d="m 403.11,526.89 9.9923,0.39302 c 0.18736,-28.057 -8.1922,-55.191 -20.882,-79.387 -11.958,-22.827 -27.521,-43.405 -44.723,-62.231 15.973,19.879 30.099,41.29 40.353,64.347 10.842,24.416 17.195,50.969 15.26,76.878 z"
           inkscape:connector-curvature="0"
           inkscape:original-d="M 408.10163,527.08286 C 410.27723,471.76992 377.93956,421.1831 347.49248,385.6615" />
        <path
           id="path4222"
           style="fill:#0e232e;fill-rule:evenodd"
           d="m 812.85,474.22 6.7041,-7.4199 c -26.036,-22.964 -55.754,-41.421 -87.266,-55.468 -31.768,-14.159 -65.236,-23.981 -99.148,-30.801 -34.902,-7.0205 -70.308,-10.926 -105.74,-13.047 l -2e-5,0 c -35.703,-2.1383 -71.459,-2.4561 -107.18,-2.0301 35.721,0.42597 71.441,1.5966 107,4.5794 l 10e-6,0 c 35.284,2.9607 70.428,7.6888 104.86,15.478 0,0 10e-6,1e-5 2e-5,1e-5 33.448,7.5688 66.249,18.05 97.052,32.685 30.539,14.507 59.075,33.194 83.721,56.023 z"
           inkscape:connector-curvature="0"
           inkscape:original-d="M 816.20326,470.51432 C 713.01965,377.28596 561.79723,365.45845 420.22346,365.45845" />
        <path
           id="path4224"
           style="fill:#0e232e;stroke:#493939;stroke-width:0.41975999;stroke-linecap:round;stroke-linejoin:round"
           inkscape:connector-curvature="0"
           d="m -135.01,575.65 c -54.038,0 -97.847,-41.188 -97.847,-91.993 0,-20.293 6.9946,-39.038 18.833,-54.25 -4.538,10.604 -7.0555,22.184 -7.0555,34.315 0,50.805 43.809,91.993 97.847,91.993 32.454,0 61.214,-14.871 79.015,-37.743 -14.468,33.807 -49.657,57.678 -90.792,57.678 z" />
        <path
           id="path4226"
           style="fill:#0e232e;stroke:#493939;stroke-width:0.41975999;stroke-linecap:round;stroke-linejoin:round"
           inkscape:connector-curvature="0"
           d="m 572.84,584.37 c 52.197,13.986 105.17,-14.46 118.32,-63.534 5.2522,-19.601 3.3475,-39.518 -4.1504,-57.275 1.6388,11.418 1.0734,23.254 -2.0664,34.972 -13.149,49.074 -66.126,77.52 -118.32,63.534 -31.348,-8.3997 -55.28,-30.208 -66.553,-56.908 5.2247,36.4 33.037,68.564 72.77,79.211 z" />
        <path
           id="path4228"
           style="fill:#0e232e;fill-rule:evenodd"
           d="m 170.57,361.6 6.3502,7.725 c 4.3338,-3.7726 8.472,-8.3724 11.215,-14.034 2.0321,-4.2372 2.8577,-9.0832 2.1002,-13.845 -0.84635,-4.6682 -2.9615,-8.7283 -5.5538,-12.123 -3.0373,-4.0264 -6.6169,-7.4035 -10.299,-10.441 -8.7233,-7.2142 -18.228,-13.028 -27.483,-19.036 -9.0077,-5.8631 -18.057,-11.667 -25.682,-19.237 6.9631,8.1825 15.626,14.862 24.114,21.442 8.7536,6.7992 17.678,13.34 25.377,20.911 l 1e-5,0 c 3.2377,3.1932 6.2352,6.5121 8.4896,10.148 l 1e-5,10e-6 c 1.86,3.0516 3.2619,6.2519 3.4531,9.3493 0.2794,2.9993 -0.62993,6.1477 -2.191,8.8672 -2.2142,3.9364 -5.8788,7.186 -9.8902,10.273 z"
           sodipodi:nodetypes="cc"
           inkscape:connector-curvature="0"
           inkscape:original-d="m 173.74624,365.45845 c 40.9126,-33.63127 -26.60233,-56.85829 -52.52793,-84.85281" />
        <path
           id="path4230"
           style="fill:#0e232e;fill-rule:evenodd"
           d="m 3.9289,283.69 0.22347,9.9975 c 71.614,-3.2691 142.6,-11.413 214.04,-13.08 -71.441,-1.6667 -143.03,3.1586 -214.26,3.0825 z"
           inkscape:connector-curvature="0"
           inkscape:original-d="M 4.0406102,288.68686 C 76.210967,287.07364 147.26554,280.60564 218.19295,280.60564" />
        <path
           id="path4232"
           style="fill:#0e232e;fill-rule:evenodd"
           d="m 51.617,364.77 9.904,1.3821 c 0.78457,-8.1068 0.86302,-16.469 -0.55292,-24.703 -1.3633,-7.829 -4.224,-15.325 -8.4017,-21.952 l -1e-6,0 c -4.9244,-7.7649 -11.363,-14.23 -18.307,-19.789 l -4e-6,0 c -9.387,-7.5238 -19.695,-13.602 -30.218,-19.1 9.9692,6.4483 19.62,13.428 28.037,21.578 l 2e-6,0 c 6.2097,6.0204 11.737,12.705 15.504,20.158 3.2006,6.2927 5.0897,13.184 5.6402,20.109 0.60672,7.3596 -0.21587,14.85 -1.6046,22.316 z"
           sodipodi:nodetypes="cc"
           inkscape:connector-curvature="0"
           inkscape:original-d="M 56.568545,365.45845 C 61.261839,331.82718 52.064286,308.60016 4.0406149,280.60564" />
        <path
           id="path4234"
           style="fill:#0e232e;fill-rule:evenodd"
           d="m 819.19,468.4 -9.283,3.7183 c 5.1684,12.231 9.7063,24.658 12.633,37.43 3.7926,13.733 5.6184,28.072 3.3512,41.944 l 0,10e-6 c -27.166,5.7882 -55.65,7.1493 -84.304,7.9212 l -1e-5,0 c -28.983,0.9867 -58.127,1.0679 -87.01,4.0332 28.976,-1.8495 57.99,-0.80332 87.06,-0.67466 l 10e-6,0 c 29.167,-0.0827 58.81,-1.2144 88.231,-7.3397 l 0,-1e-5 c 3.6502,-15.607 3.2996,-31.915 0.93666,-47.612 -2.58,-13.555 -6.7822,-26.683 -11.615,-39.42 z"
           inkscape:connector-curvature="0"
           inkscape:original-d="m 814.55028,470.26098 c 8.56344,21.37895 19.32277,53.35346 13.33095,83.20301 -55.92822,11.77473 -116.35077,5.24497 -173.30238,9.98436" />
        <path
           id="path4236"
           style="fill:#0e232e;fill-rule:evenodd"
           d="m 496.57,564.39 0.84946,-9.9639 c -95.908,-7.34 -192.06,-8.4077 -288.06,-7.5894 -96.761,0.82343 -193.44,3.6535 -290.17,4.4901 96.726,0.83662 193.48,-0.32046 290.17,0.52962 95.934,0.84474 191.88,3.5694 287.21,12.534 z"
           inkscape:connector-curvature="0"
           inkscape:original-d="M 496.99505,559.40774 C 308.67106,543.35217 110.88988,551.32652 -80.812204,551.32652" />
        <path
           id="path4238"
           style="fill:#0e232e;fill-rule:evenodd"
           d="m -234.94,540.13 1.1616,-9.9323 c -83.681,-8.089 -167.5,-4.7817 -251.1,-3.1151 83.601,1.6667 167.55,1.715 249.94,13.047 z"
           inkscape:connector-curvature="0"
           inkscape:original-d="m -234.35539,535.16408 c -82.03356,-9.59356 -166.53838,-8.08122 -250.51783,-8.08122" />
        <path
           id="path4240"
           style="fill:#0e232e;fill-rule:evenodd"
           d="m 694.63,620.96 0.70448,-9.9752 c -195.48,-12.96 -391.38,-17.15 -587.18,-17.93 -196.35,-0.77827 -392.66,1.8842 -588.98,2.7187 196.32,0.8345 392.66,-0.15884 588.94,2.2882 195.73,2.4407 391.45,8.2899 586.53,22.902 z"
           inkscape:connector-curvature="0"
           inkscape:original-d="M 694.98495,615.97628 C 305.43158,588.46492 -88.476885,595.77323 -480.83261,595.77323" />
        <path
           id="path4242"
           style="fill:#0e232e;fill-rule:evenodd"
           d="m -227.2,556.24 1.8442,-9.8285 c -27.114,-4.2031 -53.149,-16.025 -75.597,-32.756 -22.204,-16.544 -41.206,-37.406 -58.665,-59.305 16.134,22.893 33.922,44.938 55.576,63.197 21.959,18.507 48.238,32.44 76.842,38.692 z"
           inkscape:connector-curvature="0"
           inkscape:original-d="m -226.27417,551.32652 c -59.34314,-11.13503 -99.46169,-51.80338 -133.34014,-96.97464" />
        <path
           id="path4244"
           style="fill:#0e232e;fill-rule:evenodd"
           d="m -43.8,388.78 -1.2942,9.9159 c 8.9446,0.75224 17.828,3.3059 25.558,7.9549 7.194,4.2823 13.458,10.366 18.733,17.275 5.5238,7.2434 10.001,15.395 13.958,23.815 l 2e-6,0 c 4.0959,8.7218 7.6201,17.759 11.089,26.809 -2.6552,-9.3222 -5.3671,-18.64 -8.713,-27.799 -10e-7,0 -10e-7,-1e-5 -2e-6,-1e-5 -3.2277,-8.8421 -7.0602,-17.57 -12.174,-25.704 -4.8937,-7.7911 -11.087,-14.973 -18.777,-20.587 -8.3454,-6.04 -18.182,-9.9338 -28.38,-11.68 z"
           inkscape:connector-curvature="0"
           inkscape:original-d="m -44.446712,393.74272 c 42.5563223,5.55443 56.476496,44.17058 68.690373,80.81221" />
        <path
           id="path4246"
           style="fill:#0e232e;fill-rule:evenodd"
           d="m 17.1,392.87 -1.8759,9.8225 c 10.95,1.6153 21.708,5.574 31.95,10.72 l 3e-6,0 c 10.428,5.2504 20.32,11.772 29.872,18.827 l 6e-6,0 c 9.0157,6.6616 17.713,13.843 26.402001,21.053 7.116,5.9062 14.201,11.948 21.811,17.22 -7.1914,-5.8294 -13.748,-12.342 -20.415,-18.778 -8.123801,-7.8463 -16.285001,-15.69 -24.898001,-23.121 -2e-6,-10e-6 -4e-6,-10e-6 -5e-6,-10e-6 -9.1141,-7.8678 -18.734,-15.302 -29.213,-21.626 l -6e-6,0 c -10.295,-6.2231 -21.525,-11.328 -33.632,-14.116 z"
           inkscape:connector-curvature="0"
           inkscape:original-d="M 16.162441,397.78333 C 61.763233,406.492 100.41916,451.8845 125.25892,470.51432" />
        <path
           id="path4248"
           style="fill:#0e232e;stroke:#493939;stroke-width:0.41975999;stroke-linecap:round;stroke-linejoin:round"
           inkscape:connector-curvature="0"
           d="m 572.84,584.37 c 52.197,13.986 105.17,-14.46 118.32,-63.534 5.2522,-19.601 3.3475,-39.518 -4.1504,-57.275 1.6388,11.418 1.0734,23.254 -2.0664,34.972 -13.149,49.074 -66.126,77.52 -118.32,63.534 -31.348,-8.3997 -55.28,-30.208 -66.553,-56.908 5.2247,36.4 33.037,68.564 72.77,79.211 z" />
      </g>
    </g>
  </g>
  <g
     inkscape:groupmode="layer"
     id="layer2"
     inkscape:label="Layer 2"
     transform="translate(0,680.09448)">
    <ellipse
       ry="47.363377"
       rx="51.198471"
       cy="-68.834106"
       cx="128.6255"
       id="ellipse4249"
       style="opacity:1;fill:#ffffff;fill-opacity:1;stroke:#fefefe;stroke-width:3.64500022;stroke-linecap:round;stroke-linejoin:miter;stroke-miterlimit:4;stroke-dasharray:none;stroke-dashoffset:0;stroke-opacity:1" />
    <g
       id="g4249"
       transform="matrix(-1,0,0,1,1120.2679,0)">
      <path
         sodipodi:nodetypes="csssscccc"
         inkscape:connector-curvature="0"
         inkscape:original-d="m 240.41656,-198.51173 c -5.26076,-4.20861 -40.24478,-20.77999 -40.90238,-29.92056 -0.65759,-9.14056 -10.65303,-15.58499 -19.59631,-23.73916 -8.5877,-7.82995 -7.27251,-15.19501 -0.12787,-22.44385 7.14464,-7.24883 15.72934,-24.01803 28.53595,-34.37232 24.72555,-19.99087 118.36702,-56.81617 137.30574,-63.12908 44.56988,-7.88028 85.24565,-13.92121 132.04498,-14.20403 23.14733,0 91.12965,0.78137 122.69419,11.30288 59.68482,10.11336 60.15989,33.7781 107.72693,72.86921"
         inkscape:path-effect="#path-effect4241;#path-effect4243"
         id="path4239"
         d="m 240.41656,-198.51173 c -0.32343,0.50111 -17.06287,-7.84825 -42.56454,-27.90655 -3.77835,-2.96426 -8.10847,-6.48064 -11.96616,-10.62806 -3.53327,-3.78504 -6.89388,-8.46009 -9.01418,-14.0359 -2.77434,-7.49336 -3.03822,-16.19609 -0.5083,-24.60049 2.29515,-7.60393 6.54959,-14.64182 12.08627,-20.88345 5.16087,-5.8386 11.06357,-10.82156 17.37635,-15.70641 0,0 2e-5,-2e-5 2e-5,-2e-5 35.70828,-27.73087 82.66965,-52.5554 138.76671,-64.69726 13.57441,-2.92396 27.47026,-5.44736 41.65967,-7.52138 31.49789,-4.60394 62.11161,-6.65367 91.40543,-6.6528 46.50076,0.13972 88.38239,5.33248 124.17402,12.58385 65.79134,45.44712 107.16093,75.08844 106.26594,76.41156 -0.89429,1.32209 -43.70782,-25.97717 -109.18792,-69.32686 -35.26027,-6.23873 -76.06212,-10.51973 -121.21436,-10.02191 -28.85583,0.22802 -58.98118,2.36748 -89.99357,6.90033 -13.9706,2.04199 -27.65548,4.50175 -41.03129,7.33355 -54.51035,11.59337 -100.47067,35.19677 -135.84477,61.5609 0,0 -2e-5,10e-6 -2e-5,10e-6 -6.24128,4.66895 -11.85693,9.16177 -16.60635,14.33097 -5.0546,5.52262 -8.9532,11.48015 -11.00289,17.82376 -2.25493,6.95557 -2.34178,14.17863 -0.25256,20.28723 1.514,4.58778 4.30669,8.73449 7.32174,12.28855 3.30824,3.88352 7.31299,7.41946 10.89054,10.52581 24.21441,20.97157 39.9486,30.83703 39.24022,31.93457 z"
         style="fill:#000000;fill-rule:evenodd;stroke:none;stroke-width:1px;stroke-linecap:butt;stroke-linejoin:miter;stroke-opacity:1" />
      <path
         sodipodi:nodetypes="cc"
         style="fill:#000000;fill-rule:evenodd;stroke:none;stroke-width:1px;stroke-linecap:butt;stroke-linejoin:miter;stroke-opacity:1"
         d="m 241.41622,-199.02397 c -0.0112,-2.75998 117.27008,-5.47753 261.78866,-6.06596 144.51857,-0.58843 261.81813,1.17398 261.82937,3.93396 0.0112,2.75998 -117.27008,5.47753 -261.78866,6.06596 -144.51857,0.58843 -261.81813,-1.17398 -261.82937,-3.93396 z"
         id="path4277"
         inkscape:path-effect="#path-effect4279;#path-effect4281"
         inkscape:original-d="m 241.41622,-199.02397 c 110.98129,-2.66087 523.61803,-2.132 523.61803,-2.132"
         inkscape:connector-curvature="0" />
      <g
         transform="matrix(0.99947018,-0.03254789,0.03254789,0.99947018,16.633443,15.339278)"
         id="g4261">
        <path
           inkscape:connector-curvature="0"
           style="color:#000000;font-style:normal;font-variant:normal;font-weight:normal;font-stretch:normal;font-size:medium;line-height:normal;font-family:sans-serif;text-indent:0;text-align:start;text-decoration:none;text-decoration-line:none;text-decoration-style:solid;text-decoration-color:#000000;letter-spacing:normal;word-spacing:normal;text-transform:none;direction:ltr;block-progression:tb;writing-mode:lr-tb;baseline-shift:baseline;text-anchor:start;white-space:normal;clip-rule:nonzero;display:inline;overflow:visible;visibility:visible;opacity:1;isolation:auto;mix-blend-mode:normal;color-interpolation:sRGB;color-interpolation-filters:linearRGB;solid-color:#000000;solid-opacity:1;fill:#000000;fill-opacity:1;fill-rule:nonzero;stroke:#ffffff;stroke-width:6;stroke-linecap:round;stroke-linejoin:miter;stroke-miterlimit:4;stroke-dasharray:none;stroke-dashoffset:0;stroke-opacity:1;color-rendering:auto;image-rendering:auto;shape-rendering:auto;text-rendering:auto;enable-background:accumulate"
           d="m 242.65039,-240.33398 c 0,37.34262 32.69497,67.46875 72.73242,67.46875 40.03746,0 72.73047,-30.12613 72.73047,-67.46875"
           id="path4259" />
        <path
           style="color:#000000;font-style:normal;font-variant:normal;font-weight:normal;font-stretch:normal;font-size:medium;line-height:normal;font-family:sans-serif;text-indent:0;text-align:start;text-decoration:none;text-decoration-line:none;text-decoration-style:solid;text-decoration-color:#000000;letter-spacing:normal;word-spacing:normal;text-transform:none;direction:ltr;block-progression:tb;writing-mode:lr-tb;baseline-shift:baseline;text-anchor:start;white-space:normal;clip-rule:nonzero;display:inline;overflow:visible;visibility:visible;opacity:1;isolation:auto;mix-blend-mode:normal;color-interpolation:sRGB;color-interpolation-filters:linearRGB;solid-color:#000000;solid-opacity:1;fill:#fefefe;fill-opacity:1;fill-rule:nonzero;stroke:none;stroke-width:5;stroke-linecap:round;stroke-linejoin:miter;stroke-miterlimit:4;stroke-dasharray:none;stroke-dashoffset:0;stroke-opacity:1;color-rendering:auto;image-rendering:auto;shape-rendering:auto;text-rendering:auto;enable-background:accumulate"
           d="m 365.81021,-240.81276 c 0,25.09336 -22.01055,45.53972 -49.37552,45.53972 -27.36496,0 -49.37693,-20.44636 -49.37693,-45.53972"
           id="path4247"
           inkscape:connector-curvature="0" />
      </g>
      <path
         sodipodi:nodetypes="cc"
         inkscape:connector-curvature="0"
         inkscape:original-d="m 231.99935,-316.35268 c 111.00196,1.57823 470.31161,15.2562 470.31161,15.2562"
         inkscape:path-effect="#path-effect4273;#path-effect4275"
         id="path4271"
         d="m 231.99935,-316.35268 c 0.0895,-2.75855 105.51191,-1.57998 235.31791,2.63073 129.80601,4.21071 235.08318,9.86692 234.9937,12.62547 -0.0895,2.75855 -105.51191,1.57998 -235.31791,-2.63073 -129.80601,-4.21071 -235.08318,-9.86692 -234.9937,-12.62547 z"
         style="fill:#000000;fill-rule:evenodd;stroke:none;stroke-width:1px;stroke-linecap:butt;stroke-linejoin:miter;stroke-opacity:1" />
      <path
         sodipodi:nodetypes="csscscsc"
         inkscape:connector-curvature="0"
         inkscape:original-d="m 691.26338,-318.45698 c 21.5691,0.52608 65.75945,4.73468 92.06323,8.41721 26.30378,3.68253 69.96806,14.73012 91.53716,24.72556 21.5691,9.99543 53.13364,32.61668 53.13364,32.61668 0,0 14.20404,21.56454 13.15189,34.19036 -1.05215,12.62581 -2.63038,13.67796 -2.63038,13.67796 0,0 -47.87288,5.78684 -70.49413,5.78684 l -23.14733,0"
         inkscape:path-effect="#path-effect4285;#path-effect4287"
         id="path4283"
         d="m 691.26338,-318.45698 c 0.0385,-1.35906 37.16947,-3.48884 92.7125,4.23514 27.09973,3.74915 60.87887,10.16829 92.9189,24.34597 3.18727,1.4197 6.36328,2.91899 9.52378,4.49869 16.63631,8.31529 31.6288,18.24961 44.82497,29.12257 10.24149,10.63543 14.94699,24.80777 14.35726,37.92172 -0.82972,5.72591 -2.43334,11.222 -4.64363,16.29843 -29.12788,6.1003 -57.81378,5.89193 -72.93237,5.33969 -14.77274,-0.70011 -23.14733,-1.4993 -23.14733,-2.3476 0,-0.8483 8.37459,-1.64749 23.14733,-2.3476 13.7414,-0.51723 42.85091,-1.04662 68.05589,-6.23399 0.82613,-3.48372 1.07283,-7.23471 0.61713,-11.05749 0.33858,-10.59399 -3.72333,-22.18763 -11.94652,-30.459 -12.71039,-10.1717 -27.03668,-19.4896 -42.86239,-27.35006 -3.00707,-1.49358 -6.02701,-2.91397 -9.05614,-4.26204 -30.53031,-13.68054 -63.59014,-20.52411 -90.15542,-25.10515 -54.53308,-9.36381 -91.47575,-10.41877 -91.41396,-12.59928 z"
         style="fill:#000000;fill-rule:evenodd;stroke:none;stroke-width:1px;stroke-linecap:butt;stroke-linejoin:miter;stroke-opacity:1" />
      <g
         transform="matrix(0.99987746,0.01565502,-0.01565502,0.99987746,477.5696,0.10357943)"
         id="g4265">
        <path
           inkscape:connector-curvature="0"
           id="path4267"
           d="m 242.65039,-240.33398 c 0,37.34262 32.69497,67.46875 72.73242,67.46875 40.03746,0 72.73047,-30.12613 72.73047,-67.46875"
           style="color:#000000;font-style:normal;font-variant:normal;font-weight:normal;font-stretch:normal;font-size:medium;line-height:normal;font-family:sans-serif;text-indent:0;text-align:start;text-decoration:none;text-decoration-line:none;text-decoration-style:solid;text-decoration-color:#000000;letter-spacing:normal;word-spacing:normal;text-transform:none;direction:ltr;block-progression:tb;writing-mode:lr-tb;baseline-shift:baseline;text-anchor:start;white-space:normal;clip-rule:nonzero;display:inline;overflow:visible;visibility:visible;opacity:1;isolation:auto;mix-blend-mode:normal;color-interpolation:sRGB;color-interpolation-filters:linearRGB;solid-color:#000000;solid-opacity:1;fill:#000000;fill-opacity:1;fill-rule:nonzero;stroke:#ffffff;stroke-width:6;stroke-linecap:round;stroke-linejoin:miter;stroke-miterlimit:4;stroke-dasharray:none;stroke-dashoffset:0;stroke-opacity:1;color-rendering:auto;image-rendering:auto;shape-rendering:auto;text-rendering:auto;enable-background:accumulate" />
        <path
           inkscape:connector-curvature="0"
           id="path4269"
           d="m 365.81021,-240.81276 c 0,25.09336 -22.01055,45.53972 -49.37552,45.53972 -27.36496,0 -49.37693,-20.44636 -49.37693,-45.53972"
           style="color:#000000;font-style:normal;font-variant:normal;font-weight:normal;font-stretch:normal;font-size:medium;line-height:normal;font-family:sans-serif;text-indent:0;text-align:start;text-decoration:none;text-decoration-line:none;text-decoration-style:solid;text-decoration-color:#000000;letter-spacing:normal;word-spacing:normal;text-transform:none;direction:ltr;block-progression:tb;writing-mode:lr-tb;baseline-shift:baseline;text-anchor:start;white-space:normal;clip-rule:nonzero;display:inline;overflow:visible;visibility:visible;opacity:1;isolation:auto;mix-blend-mode:normal;color-interpolation:sRGB;color-interpolation-filters:linearRGB;solid-color:#000000;solid-opacity:1;fill:#fefefe;fill-opacity:1;fill-rule:nonzero;stroke:none;stroke-width:5;stroke-linecap:round;stroke-linejoin:miter;stroke-miterlimit:4;stroke-dasharray:none;stroke-dashoffset:0;stroke-opacity:1;color-rendering:auto;image-rendering:auto;shape-rendering:auto;text-rendering:auto;enable-background:accumulate" />
      </g>
    </g>
  </g>
  <metadata
     id="metadata98">
    <rdf:RDF>
      <cc:Work>
        <dc:format>image/svg+xml</dc:format>
        <dc:type
           rdf:resource="http://purl.org/dc/dcmitype/StillImage" />
        <cc:license
           rdf:resource="http://creativecommons.org/publicdomain/zero/1.0/" />
        <dc:publisher>
          <cc:Agent
             rdf:about="http://openclipart.org/">
            <dc:title>Openclipart</dc:title>
          </cc:Agent>
        </dc:publisher>
        <dc:title>car icon</dc:title>
        <dc:date>2011-01-22T03:28:53</dc:date>
        <dc:description>motor sports clip art by NetAlloy</dc:description>
        <dc:source>https://openclipart.org/detail/109651/car-icon-by-netalloy</dc:source>
        <dc:creator>
          <cc:Agent>
            <dc:title>netalloy</dc:title>
          </cc:Agent>
        </dc:creator>
        <dc:subject>
          <rdf:Bag>
            <rdf:li>automobile</rdf:li>
            <rdf:li>automotive</rdf:li>
            <rdf:li>car</rdf:li>
            <rdf:li>car rally</rdf:li>
            <rdf:li>motor sports</rdf:li>
            <rdf:li>motorcross</rdf:li>
            <rdf:li>motorsports</rdf:li>
            <rdf:li>race</rdf:li>
            <rdf:li>racing</rdf:li>
            <rdf:li>speed</rdf:li>
            <rdf:li>transport</rdf:li>
          </rdf:Bag>
        </dc:subject>
      </cc:Work>
      <cc:License
         rdf:about="http://creativecommons.org/publicdomain/zero/1.0/">
        <cc:permits
           rdf:resource="http://creativecommons.org/ns#Reproduction" />
        <cc:permits
           rdf:resource="http://creativecommons.org/ns#Distribution" />
        <cc:permits
           rdf:resource="http://creativecommons.org/ns#DerivativeWorks" />
      </cc:License>
    </rdf:RDF>
  </metadata>
</svg>
