<?xml version="1.0" encoding="utf-8"?>
<!-- Generator: Adobe Illustrator 26.0.0, SVG Export Plug-In . SVG Version: 6.00 Build 0)  -->
<svg version="1.1"
	 id="Layer_1" sodipodi:docname="Occhio di fuoco.svg" xmlns:cc="http://creativecommons.org/ns#" xmlns:dc="http://purl.org/dc/elements/1.1/" xmlns:inkscape="http://www.inkscape.org/namespaces/inkscape" xmlns:ns1="http://sozi.baierouge.fr" xmlns:rdf="http://www.w3.org/1999/02/22-rdf-syntax-ns#" xmlns:sodipodi="http://sodipodi.sourceforge.net/DTD/sodipodi-0.dtd" xmlns:svg="http://www.w3.org/2000/svg"
	 xmlns="http://www.w3.org/2000/svg" xmlns:xlink="http://www.w3.org/1999/xlink" x="0px" y="0px" viewBox="0 0 554.8 488.5"
	 style="enable-background:new 0 0 554.8 488.5;" xml:space="preserve">
<style type="text/css">
	.st0{fill-rule:evenodd;clip-rule:evenodd;fill:#1D1D1B;}
</style>
<sodipodi:namedview  bordercolor="#666666" borderopacity="1" gridtolerance="10" guidetolerance="10" id="namedview11" inkscape:current-layer="Layer_1" inkscape:cx="297.64001" inkscape:cy="420.94501" inkscape:pageopacity="0" inkscape:pageshadow="2" inkscape:window-height="488" inkscape:window-maximized="0" inkscape:window-width="683" inkscape:window-x="0" inkscape:window-y="0" inkscape:zoom="0.28032165" objecttolerance="10" pagecolor="#ffffff" showgrid="false">
	</sodipodi:namedview>
<path id="path3" class="st0" d="M143.6,0c-37,42.5-9.8,129.5,58,121.4C150.3,95.2,178.4,16.4,225,5.5c-23,16.4-24.5,77.4,16.6,74.5
	c-8.9-27.2,8.2-54.7,33.1-63.5c-12.3,11-15.6,40.1,2.8,46.9c0.9-27.2,13.7-42.4,42.8-41.4c-10.6,5.9-22.1,27.2-5.5,34.5
	c4.6,2,12.1,0.2,16.6,1.4c54.1,13.8,91.2,67.8,125.6,99.4c3.5-16.6,0.5-35.5-4.1-48.3c21.6,33.2,29.4,80.1,34.5,129.7
	c-37.3-55.2-73.6-111.3-150.4-127c-18.3,27.9-21.1,87.5-4.8,125.5c-22.1-27.3-48.7-71.3-39.3-121.4c-31.3,11-63.1,33.5-80,63.5
	c20.3,41.6,62.6,95.4,126.9,91.1c31.4-2.1,61.8-20.4,70.4-51.1c0.8-6.4-17.3-24.2-17-30.1c64,14.2,109.1,77.8,149.4,115.7
	c3.6,8.9,10.9,14,12.4,24.8c-20.9-18.2-37.2-39.3-64.9-55.2c-17.9-10.3-39.3-22.5-64.8-19.3c-15.7,1.9-29.9,14-45.5,20.7
	c-21.4,9.3-42.2,16-74.5,13.8c-66.9-4.5-109.1-42.8-128.3-103.5c-40.3-19.5-103.4-51.1-96.6-122.8C83.2,31.2,108.5,3.5,143.6,0
	L143.6,0z"/>
<path id="path5" class="st0" d="M164.3,202.9c11,20.2,19.2,43.4,34.5,59.3c-29.5,7.4-48.1,22.7-55.2,45.5
	c-4.9,15.6-2.5,27.1-6.9,37.3c-9.5,22.3-33.1,36-59.3,42.8c-14.1,3.6-29.5,3.5-44.2,13.8c-17.4,12.3-28.3,34-33.1,56.6
	c-1.4-30.7,10.3-70.5,33.1-86.9c8.7-6.3,19.8-6,31.7-9.7c18.8-5.7,33.9-20.5,37.3-34.5c5.1-21-7-41.2-2.8-62.1
	C105.1,237.1,135,210.5,164.3,202.9L164.3,202.9z"/>
<path id="path7" class="st0" d="M259.5,302.2c-9.1,12.9-23.7,20.6-26.2,37.3c-2.1,14.2,4.7,22.3,4.1,34.5
	c-2.8,64.7-102.9,39.4-100.7,114.5c-10.1-22.1-4.7-50.9,12.4-69c15.4-16.3,48.7-19.4,51.1-40c2.1-18.7-21.7-38.3-19.3-64.9
	c1.7-19.6,14.5-28.4,27.6-42.8C223.2,284.3,237.8,296.8,259.5,302.2L259.5,302.2z"/>
<path id="path9" class="st0" d="M344,300.3c-8.2,8.9-38.7,18.3-34.8,37.8c1.3,6.3,8.2,9.6,8.3,16.6c0.1,12.3-22.5,29.9-34.5,38.6
	c-8.2,6-19.2,11.3-30.4,13.8c12.6-15,32-23.2,35.9-46.9c-13.4-11.3-27.8-34.9-12.4-55.2C294.7,303.8,317.2,310.3,344,300.3
	L344,300.3z"/>
</svg>
