<?xml version="1.0" encoding="utf-8"?>
<!-- Generator: Adobe Illustrator 26.0.0, SVG Export Plug-In . SVG Version: 6.00 Build 0)  -->
<svg version="1.1"
	 id="svg62465" sodipodi:docname="logo-concept-11-publicdomainvectors.org.svg" xmlns:cc="http://creativecommons.org/ns#" xmlns:dc="http://purl.org/dc/elements/1.1/" xmlns:inkscape="http://www.inkscape.org/namespaces/inkscape" xmlns:rdf="http://www.w3.org/1999/02/22-rdf-syntax-ns#" xmlns:sodipodi="http://sodipodi.sourceforge.net/DTD/sodipodi-0.dtd" xmlns:svg="http://www.w3.org/2000/svg"
	 xmlns="http://www.w3.org/2000/svg" xmlns:xlink="http://www.w3.org/1999/xlink" x="0px" y="0px" viewBox="0 0 457.6 457.6"
	 style="enable-background:new 0 0 457.6 457.6;" xml:space="preserve">
<style type="text/css">
	.st0{clip-path:url(#SVGID_00000060010370835085887780000015063473701284873108_);}
	.st1{fill:#1D1D1B;}
</style>
<sodipodi:namedview  bordercolor="#666666" borderopacity="1" gridtolerance="10" guidetolerance="10" id="namedview62467" inkscape:current-layer="g62473" inkscape:cx="400" inkscape:cy="400" inkscape:pageopacity="0" inkscape:pageshadow="2" inkscape:window-height="480" inkscape:window-maximized="0" inkscape:window-width="797" inkscape:window-x="0" inkscape:window-y="0" inkscape:zoom="0.295" objecttolerance="10" pagecolor="#ffffff" showgrid="false">
	</sodipodi:namedview>
<g id="g62473" transform="matrix(1.3333333,0,0,-1.3333333,0,800)" inkscape:groupmode="layer" inkscape:label="logo-concept-11-publicdomainvectors.org">
	<g id="g62475">
		<g>
			<defs>
				<rect id="SVGID_1_" x="-246.8" y="-1.8" width="800" height="800"/>
			</defs>
			<clipPath id="SVGID_00000008113727654931545530000012110397946427329953_">
				<use xlink:href="#SVGID_1_"  style="overflow:visible;"/>
			</clipPath>
			<g id="g62477" style="clip-path:url(#SVGID_00000008113727654931545530000012110397946427329953_);">
				<g id="g62483">
					<g id="g62485">
						<g id="g62491">
							<g id="g62493">
								<path id="path62503" inkscape:connector-curvature="0" class="st1" d="M164.2,439.9c0.9-3.9,3.2-7.2,6-10.2
									c-3.4-2.3-6.4-5.3-10.2-7.2c-2.1,3.6-4.5,7.5-6.2,11.9C157.3,435.5,160.5,437.7,164.2,439.9 M181.4,559.5
									c-0.4-0.2-0.7-0.4-1.1-0.6c3.1,3.7,6,7.3,10.9,10.9c-31.7-4.2-82.1-21.4-101.2-72.7c-11.1-30-3.8-60.7,12.8-82.8
									c9.9-3.4,16.6-0.4,19.8,4.5c-39.5,24.5-0.6,111.7,38.7,127.3c-38.4-30.8-48.2-80.7-29.4-102.9c0.1-1.1,0.2-2.1,0.2-3
									c0.5-7,1.6-13.9,0.7-20c-0.2,0.1-0.4,0.1-0.6,0.1c0.1-0.3,0.3-0.7,0.4-1c-3.3-18.2-55.5-13.1-75.9,30.3
									c-3.5,7.5-6.8,19.9-6.4,29.7c2,44.2,24.7,22.3,34,12.8c3.1,12.8,13.5,27.7,19.4,37.2c-30.7,22.2-50.8,37.1-82.6,49.3
									c-7.4-43.1-4.7-100.5,22.7-143.6c0.2-0.4,0.5-0.7,0.7-1.1c-3.8,2.8-7.5,5.4-11.4,10.1c6.1-31.8,27.5-81.2,79.9-94.3
									c30.1-7.5,59.1,3.8,77.9,22.7c2.2,11-1.6,18.1-6.9,21.2C169,350.4,77.1,377.9,58.7,416.1c32.9-35.5,84-38.3,100-16.1
									c1,0.2,1.9,0.5,2.8,0.7c6.6,1.5,13,3.9,19.1,3.7c0-0.2,0-0.4,0-0.6c0.3,0.2,0.6,0.4,0.9,0.5c19.6-1.7,19.4-59.1-22.2-83.6
									c-7.2-4.2-19.3-8.6-28.9-8.9c-43.5-1.5-21.2,22.8-11.8,33.2c-12.8,1.6-28.3,10.3-38.3,15.3c-21.2-32.8-38.4-52-51.8-82.8
									c43.7-6,101.9-0.6,143.7,30.1c0.3,0.3,0.7,0.5,1,0.8c-2.8-4.2-5.5-8.3-10.2-12.5c30,7.3,75.7,28.3,88.4,79.5
									c7.2,28.9-3,57.6-20.2,77.7c-11.6,3.8-19.8,1.4-24.6-3c44.7-18.7,18.7-106.6-16.2-126.4c33.4,35.9,32.1,89.4,6.2,105.2
									c-0.3,0.9-0.6,1.7-0.9,2.5c-1.9,5.7-3.5,11.5-1.8,16.6c0.2,0,0.4,0,0.6,0c-0.1,0.3-0.3,0.5-0.4,0.8
									c7.8,19,66.1,9.8,88.5-33.9c3.9-7.5,7.6-19.8,7.5-29.2c-0.4-42.8-23.6-17.4-33.9-6.1c-1.7-12.5-10-27.1-14.6-37
									c31.4-27.9,49.9-46.2,80.7-60.6c6.4,43,2.6,100.2-25.3,143.8c-0.2,0.4-0.5,0.7-0.7,1.1c4-3.1,7.9-6.1,12-11.1
									c-5.4,30.2-22.6,77.1-72.8,95.5c-29,10.5-59.4,4-82.4-11.2c-4.9-10.4-3.4-18,0.5-22.6c27.3,40.7,111.6,4,128.5-32.4
									c-33.6,36.7-86.2,43.1-108.8,20.7c-1-0.2-1.9-0.4-2.7-0.5c-6.2-1-12.3-1.8-17.3,0.1c0.1,0.2,0.1,0.4,0.2,0.6
									c-0.3-0.1-0.6-0.2-0.9-0.3c-17,7.6-3.6,61.2,41.5,79.8c7.7,3.2,20.3,6,29.9,5.2c43.4-3.5,18.7-25.2,7.3-34.2
									c12.5-3.1,26.6-13,36.2-18.6c28.2,29,44.3,48.4,57.5,80.2C282.4,585.7,226,584.3,181.4,559.5"/>
							</g>
						</g>
					</g>
				</g>
			</g>
		</g>
	</g>
</g>
</svg>
