<?xml version="1.0" encoding="utf-8"?>
<!-- Generator: Adobe Illustrator 26.0.0, SVG Export Plug-In . SVG Version: 6.00 Build 0)  -->
<svg version="1.1"
	 id="Layer_1" sodipodi:docname="Gira_gira.svg" xmlns:cc="http://creativecommons.org/ns#" xmlns:dc="http://purl.org/dc/elements/1.1/" xmlns:inkscape="http://www.inkscape.org/namespaces/inkscape" xmlns:ns1="http://sozi.baierouge.fr" xmlns:rdf="http://www.w3.org/1999/02/22-rdf-syntax-ns#" xmlns:sodipodi="http://sodipodi.sourceforge.net/DTD/sodipodi-0.dtd" xmlns:svg="http://www.w3.org/2000/svg"
	 xmlns="http://www.w3.org/2000/svg" xmlns:xlink="http://www.w3.org/1999/xlink" x="0px" y="0px" viewBox="0 0 595.3 841.9"
	 style="enable-background:new 0 0 595.3 841.9;" xml:space="preserve">
<style type="text/css">
	.st0{fill:#1D1D1B;}
</style>
<sodipodi:namedview  bordercolor="#666666" borderopacity="1" gridtolerance="10" guidetolerance="10" id="namedview23" inkscape:current-layer="Layer_1" inkscape:cx="297.64001" inkscape:cy="420.94501" inkscape:pageopacity="0" inkscape:pageshadow="2" inkscape:window-height="488" inkscape:window-maximized="0" inkscape:window-width="683" inkscape:window-x="0" inkscape:window-y="0" inkscape:zoom="0.28032165" objecttolerance="10" pagecolor="#ffffff" showgrid="false">
	</sodipodi:namedview>
<path id="path3" class="st0" d="M257.9,121.2c66.1-10.5,114.4,94.7,80.2,166.5c-27.7-1-48.5,5-61.7,18.5c-9.4-27.6,36-35.6,43.1-74
	C329.1,180.9,304.8,136.5,257.9,121.2L257.9,121.2z"/>
<path id="path5" class="st0" d="M214.7,189c62,71.1-57.3,128.4-43.2,222c8.3,55.3,60.3,92.6,148,80.1
	c-57.1,45.4-158.2,6.2-172.6-49.3C118,309.5,238.7,296.1,214.7,189L214.7,189z"/>
<path id="path7" class="st0" d="M529.2,485c-10.8,18.2-32.9-3.6-49.3,0c-41.5-36.3-54.8-128.5-117.1-148
	c-60.6-19-123.9,18-141.8,86.3C213.6,300.5,338.2,270.7,412,337C458.9,379,447.4,474.9,529.2,485L529.2,485z"/>
<path id="path9" class="st0" d="M325.7,367.8c121.5,80,60.2,218.9-74,222c-48.6,1.1-104.1-34.9-129.5,18.5
	c13.9-91.6,236.7,14.3,240.5-148C363.7,417.9,342,404.2,325.7,367.8L325.7,367.8z"/>
<path id="path11" class="st0" d="M128.4,380.1c14.1,8.6,2.3,42.9,6.2,61.7C35,415.4,7.9,182.3,159.2,213.7
	c7.1,15.5,24.5,20.6,24.7,43.2C98.3,118-7.4,393.2,128.4,380.1L128.4,380.1z"/>
<path id="path13" class="st0" d="M405.9,318.5c-23-3.7-30.2-23.2-55.5-24.7c100.4-84.9,294.3,41.8,178.8,135.6
	c-30.9,4.2-57.9-14.3-43.2-12.3C641,437.5,486.3,182.3,405.9,318.5L405.9,318.5z"/>
<path id="path15" class="st0" d="M29.8,608.3c-27.6-73.4,41.3-160.1,104.8-148c12.9,2.5,55.4,46.6,43.2,49.3
	C101.1,474,25.3,524.1,29.8,608.3L29.8,608.3z"/>
<path id="path17" class="st0" d="M387.4,546.6c-0.1-26.8,19.1-34.4,12.3-67.8c17.2,71.6,97.6,138.2,172.6,80.2
	C578.2,597.2,402.5,620.7,387.4,546.6L387.4,546.6z"/>
<path id="path19" class="st0" d="M325.7,589.8c10.9-12,42.3-35.4,49.3-30.8c-5.7,55.4-44.1,146-111,154.1
	c-75.5,9.2-134.7-70.7-67.8-111c-92,83.5,128.6,147.3,141.8,24.7C338,610.5,341.5,590.5,325.7,589.8L325.7,589.8z"/>
<ellipse id="circle21" transform="matrix(7.088904e-02 -0.9975 0.9975 7.088904e-02 -161.3433 687.8635)" class="st0" cx="288.6" cy="430.5" rx="43.6" ry="43.6"/>
</svg>
