<?xml version="1.0" encoding="utf-8"?>
<!-- Generator: Adobe Illustrator 26.0.0, SVG Export Plug-In . SVG Version: 6.00 Build 0)  -->
<svg version="1.1"
	 id="Layer_1" sodipodi:docname="giunchi.svg" xmlns:cc="http://creativecommons.org/ns#" xmlns:dc="http://purl.org/dc/elements/1.1/" xmlns:inkscape="http://www.inkscape.org/namespaces/inkscape" xmlns:ns1="http://sozi.baierouge.fr" xmlns:rdf="http://www.w3.org/1999/02/22-rdf-syntax-ns#" xmlns:sodipodi="http://sodipodi.sourceforge.net/DTD/sodipodi-0.dtd" xmlns:svg="http://www.w3.org/2000/svg"
	 xmlns="http://www.w3.org/2000/svg" xmlns:xlink="http://www.w3.org/1999/xlink" x="0px" y="0px" viewBox="0 0 648 272.5"
	 style="enable-background:new 0 0 648 272.5;" xml:space="preserve">
<style type="text/css">
	.st0{fill-rule:evenodd;clip-rule:evenodd;fill:#1D1D1B;}
</style>
<sodipodi:namedview  bordercolor="#666666" borderopacity="1" gridtolerance="10" guidetolerance="10" id="namedview10" inkscape:current-layer="Layer_1" inkscape:cx="297.64001" inkscape:cy="420.94501" inkscape:pageopacity="0" inkscape:pageshadow="2" inkscape:window-height="488" inkscape:window-maximized="0" inkscape:window-width="683" inkscape:window-x="0" inkscape:window-y="0" inkscape:zoom="0.28032165" objecttolerance="10" pagecolor="#ffffff" showgrid="false">
	</sodipodi:namedview>
<path id="path8" class="st0" d="M484.3,107.8c19.9-10.2,45.5-14.4,68.4-4.3c-22.1,3.7-46.5,5.2-58.7,19
	c24.5,22.7,73.5,28.7,119.4,22.9c-41.5,19.4-108.7,11.4-139-13.3c-0.6,3.5-1.2,15.1-7.5,19.5c11.1,10,25.6,16.8,24.1,39.3
	c-22.2-40.1-49.7-1.3-75.7,9.1c50.6-32-16.5-118.5-45.9-56.5c-0.2,8.3,5.6,10.7,9.6,14.7c8.5-2,9.4-11.8,14.8-17
	c14.8,1.9,23.1,11.8,24.2,22.2c5.7,50.7-85.7,49-87.9-3.2c-22.3,12.6-3.9,52.9,9.3,61.1c-14.1-0.7-32.3-18.2-36.3-36.9
	c-46.8,33.3-112.3,6.4-138.9-28c-7.2,2.1,5.6,3.7,2.4,9.8c-13.6,11.4-56.9,20-70.8,1.9c24.7,8.5,44.7-6.3,61.1-14.2
	C132,131.1,81.7,124.8,35,131c28.4-10.5,55.8-17.1,92.8-9c53.1,11.6,81.2,64.5,128.9,59.7c14.6-1.5,43.7-19.1,46.7-41.1
	c3-21.9-16-57.9-43.6-46.7c-6.4,2.6-22,23.5-5.2,34.1c3.7-0.2-3.8-16,2.6-19.5c21.2-14.2,38,5.6,38.9,22.3
	c2.4,47.8-84.2,57.5-95.3,6.5c-9.5,5-15.8,13.9-26.9,4.6c-1-9.2,4.9-11.4,7.5-17c-9.6-11.5-25.4-17-24.1-39.2
	c19.9,36,50.6,7.3,70.9-9.2c2.5,11.3-17.7,19.6-12.6,48.7c5.3,30.7,50.2,41.5,63.4,7.8c-0.8-7.2-4.1-12.1-9.6-14.7
	c-11.5-1.1-5.4,15.8-14.8,17c-57-19.2,7.3-92.5,51.6-45.9c7.6,8,9.2,17.4,14.4,29.4c17.7-21.7-4-47.5-14.1-63.6
	c20,6.1,30.5,21.6,38.7,39.4c41.9-38.3,112.4-9.2,139,23.1C494.8,122.3,481.7,116,484.3,107.8L484.3,107.8z M469.5,129.7
	c-23.9-36.9-103.7-51.4-122-3.5c-8,20.9,5.6,64.8,43.5,56.5c8.6-5.3,15.9-27.9,2.7-34.2c6.6,38.8-54.4,24-38.9-19.8
	c16.3-36.3,86.3-31.6,92.7,10.5C456,136.2,462.7,127.5,469.5,129.7L469.5,129.7z"/>
</svg>
