<?xml version="1.0" encoding="utf-8"?>
<!-- Generator: Adobe Illustrator 26.0.0, SVG Export Plug-In . SVG Version: 6.00 Build 0)  -->
<svg version="1.1" id="Layer_1" xmlns="http://www.w3.org/2000/svg" xmlns:xlink="http://www.w3.org/1999/xlink" x="0px" y="0px"
	 viewBox="0 0 250 160" style="enable-background:new 0 0 250 160;" xml:space="preserve">
<style type="text/css">
	.st0{fill:#1D1D1B;}
</style>
<path class="st0" d="M242.6,36.8l4-20.7L146.2,60.6c-0.9-0.4-1.8-0.8-2.7-1.1L124.7,7.1l-18.8,52.3c-1.1,0.4-2.1,0.8-3.1,1.3
	L3.4,16.1l4,20.7c0,0,54.6,25.7,78.1,36.6c-4.9,5.4-8.7,11.8-11.1,18.9L13,65.3L17,86c0,0,40.2,18.9,54.7,25.5
	c0.3,7.2,1.9,13.9,4.6,19.9l-56.5-24.9l4,20.7c0,0,49.9,23.9,52.9,24.7c23.5,6.9,44.1-20.9,47.9-26.4c9.2,13.2,34.1,31.4,47.9,26.4
	c2.9-1.1,52.9-24.7,52.9-24.7l4-20.7l-56.5,24.9c2.7-6,4.3-12.6,4.6-19.8c14.6-6.6,55.3-25.5,55.3-25.5l4-20.7l-62,27
	c-2.4-7.2-6.3-13.7-11.3-19.2C187.8,62.1,242.6,36.8,242.6,36.8z M94,123.3c-2-4.3-3.2-9.2-3.2-14.3c0-14.1,8.6-26.2,20.8-31.3
	c0.9,3.5,1.4,7.1,1.4,10.8C113.1,102.8,105.5,115.9,94,123.3z M155.7,123.4c-11.7-7.4-19.3-20.5-19.3-35c0-3.7,0.5-7.3,1.4-10.8
	c12.2,5.1,20.8,17.2,20.8,31.3C158.6,114.2,157.6,119.1,155.7,123.4z"/>
</svg>
