<?xml version="1.0" encoding="utf-8"?>
<!-- Generator: Adobe Illustrator 26.0.0, SVG Export Plug-In . SVG Version: 6.00 Build 0)  -->
<svg version="1.1"
	 id="Layer_1" text-rendering="geometricPrecision" image-rendering="optimizeQuality" shape-rendering="geometricPrecision" xmlns:cc="http://web.resource.org/cc/" xmlns:dc="http://purl.org/dc/elements/1.1/" xmlns:rdf="http://www.w3.org/1999/02/22-rdf-syntax-ns#" xmlns:svg="http://www.w3.org/2000/svg"
	 xmlns="http://www.w3.org/2000/svg" xmlns:xlink="http://www.w3.org/1999/xlink" x="0px" y="0px" viewBox="0 0 6.2 5.8"
	 style="enable-background:new 0 0 6.2 5.8;" xml:space="preserve">
<style type="text/css">
	.st0{fill-rule:evenodd;clip-rule:evenodd;fill:#1D1D1B;}
	.st1{fill-rule:evenodd;clip-rule:evenodd;fill:#FEFEFE;}
</style>
<g id="Capa_x0020_1">
	<path class="st0" d="M0.9,0h4.3c0.5,0,0.9,0.4,0.9,0.9v3.9c0,0.5-0.4,0.9-0.9,0.9H0.9C0.4,5.8,0,5.3,0,4.8V0.9C0,0.4,0.4,0,0.9,0z"
		/>
	<path class="st1" d="M5.7,2.3h-2V0.9h1.4v0.4l0.5-0.1V1c0-0.4-0.2-0.5-0.6-0.5H3.8C3.4,0.5,3.2,0.6,3.2,1v1.2
		c0,0.4,0.2,0.5,0.6,0.5h1.5V3H3.8C3.4,3,3.2,3.2,3.2,3.6v1.2c0,0.4,0.2,0.5,0.6,0.5h1.4c0.4,0,0.6-0.1,0.6-0.5V4.5L5.2,4.4v0.5H3.7
		V3.5h2V2.3L5.7,2.3z"/>
	<path class="st1" d="M0.4,2.3h2V0.9H0.9v0.4L0.4,1.2V1c0-0.4,0.2-0.5,0.6-0.5h1.4c0.4,0,0.6,0.1,0.6,0.5v1.2c0,0.4-0.2,0.5-0.6,0.5
		H0.8V3h1.5c0.4,0,0.6,0.1,0.6,0.5v1.2c0,0.4-0.2,0.5-0.6,0.5H1c-0.4,0-0.6-0.1-0.6-0.5V4.5l0.5-0.1v0.5h1.4V3.5h-2L0.4,2.3L0.4,2.3
		z"/>
</g>
</svg>
