<?xml version="1.0" encoding="utf-8"?>
<!DOCTYPE svg PUBLIC "-//W3C//DTD SVG 1.1//EN" "http://www.w3.org/Graphics/SVG/1.1/DTD/svg11.dtd">
<svg version="1.1" xmlns="http://www.w3.org/2000/svg" x="0" y="0" width="91" height="67" viewBox="0 0 91 67">
<style type="text/css">
	.st0{fill:#000080;}
</style>
<path class="st0" d="M88.8,20.3h-16C68.1,9.5,57.7,2,45.7,2C34.4,2,24.5,8.6,19.4,18.4h12.2c3.6-3.9,8.6-6.3,14.1-6.3
	c6.3,0,12,3.2,15.6,8.2H1.2l44.5,16.2l-8.4,12.4c-0.5,0.7,0.3,1.5,1,1.1l27.2-14.9c-0.8,11-9.3,19.8-19.8,19.8
	c-10.9,0-19.8-9.6-19.8-21.4c0-0.7,0-1.5,0.1-2.2l-9.7-3.5c-0.3,1.8-0.5,3.8-0.5,5.7C15.8,50.9,29.2,65,45.7,65
	c16.5,0,29.9-14.1,29.9-31.5c0-1.3-0.1-2.5-0.2-3.8l13.9-7.6C90.2,21.6,89.8,20.3,88.8,20.3z"/>
</svg>
