<?xml version="1.0" encoding="UTF-8"?>
<!DOCTYPE svg PUBLIC "-//W3C//DTD SVG 1.1//EN" "http://www.w3.org/Graphics/SVG/1.1/DTD/svg11.dtd">
<svg version="1.1" xmlns="http://www.w3.org/2000/svg" xmlns:xlink="http://www.w3.org/1999/xlink" x="0" y="0" width="221.177" height="211.716" viewBox="0, 0, 221.177, 211.716">
  <g id="Layer_1">
    <g id="path28144">
      <path d="M183.2,46.089 C175.568,53.289 163.616,52.929 156.417,45.298 C149.217,37.666 149.577,25.714 157.208,18.514 C164.84,11.314 176.792,11.674 183.992,19.306 C191.192,26.938 190.832,38.89 183.2,46.089 z" fill="#BD9E83"/>
      <path d="M183.2,46.089 C175.568,53.289 163.616,52.929 156.417,45.298 C149.217,37.666 149.577,25.714 157.208,18.514 C164.84,11.314 176.792,11.674 183.992,19.306 C191.192,26.938 190.832,38.89 183.2,46.089 z" fill-opacity="0" stroke="#373435" stroke-width="1.313" stroke-linejoin="round"/>
    </g>
    <g id="path28146">
      <path d="M39.852,185.982 C39.852,185.982 33.444,188.358 29.196,180.654 C29.196,180.654 26.46,176.046 24.948,179.934 C24.948,179.934 25.884,171.582 35.676,172.158 C44.027,172.662 44.819,181.158 45.107,182.67 C45.323,184.182 39.852,185.982 39.852,185.982 z" fill="#BD9E83"/>
      <path d="M39.852,185.982 C39.852,185.982 33.444,188.358 29.196,180.654 C29.196,180.654 26.46,176.046 24.948,179.934 C24.948,179.934 25.884,171.582 35.676,172.158 C44.027,172.662 44.819,181.158 45.107,182.67 C45.323,184.182 39.852,185.982 39.852,185.982 z" fill-opacity="0" stroke="#373435" stroke-width="1.313" stroke-linejoin="round"/>
    </g>
    <g id="g28200">
      <g id="path28148">
        <path d="M153.681,24.058 C152.745,23.338 150.873,22.978 149.793,25.426 C148.425,28.522 150.873,31.618 151.305,32.122 C151.521,30.25 153.033,28.45 155.121,25.57 z" fill="#FCD2B5"/>
        <path d="M153.681,24.058 C152.745,23.338 150.873,22.978 149.793,25.426 C148.425,28.522 150.873,31.618 151.305,32.122 C151.521,30.25 153.033,28.45 155.121,25.57 z" fill-opacity="0" stroke="#373435" stroke-width="1.313" stroke-linejoin="round"/>
      </g>
      <g id="path28152">
        <path d="M181.76,47.673 C182.624,48.537 183.272,50.265 180.968,51.777 C178.088,53.577 174.704,51.633 174.128,51.273 C175.928,50.769 177.512,49.041 180.104,46.521 L181.832,47.673 z" fill="#FCD2B5"/>
        <path d="M181.76,47.673 C182.624,48.537 183.272,50.265 180.968,51.777 C178.088,53.577 174.704,51.633 174.128,51.273 C175.928,50.769 177.512,49.041 180.104,46.521 L181.832,47.673 z" fill-opacity="0" stroke="#373435" stroke-width="1.313" stroke-linejoin="round"/>
      </g>
      <g id="path28156">
        <path d="M143.961,59.625 C143.961,59.625 144.033,59.841 144.249,59.985 C144.393,60.129 144.537,60.201 144.753,60.129 C145.473,59.913 146.193,59.553 146.985,58.689 L145.401,56.673 C145.401,56.673 144.177,57.609 143.961,59.625 z" fill="#73D0F6"/>
        <path d="M143.961,59.625 C143.961,59.625 144.033,59.841 144.249,59.985 C144.393,60.129 144.537,60.201 144.753,60.129 C145.473,59.913 146.193,59.553 146.985,58.689 L145.401,56.673 C145.401,56.673 144.177,57.609 143.961,59.625 z" fill-opacity="0" stroke="#373435" stroke-width="1.313" stroke-linejoin="round"/>
      </g>
      <g id="path28158">
        <path d="M151.305,64.953 C151.305,64.953 151.449,65.097 151.665,65.241 C151.809,65.313 152.025,65.313 152.241,65.169 C152.817,64.737 153.825,63.945 154.329,62.865 L151.593,62.217 C151.593,62.217 150.945,62.937 151.305,64.953 z" fill="#73D0F6"/>
        <path d="M151.305,64.953 C151.305,64.953 151.449,65.097 151.665,65.241 C151.809,65.313 152.025,65.313 152.241,65.169 C152.817,64.737 153.825,63.945 154.329,62.865 L151.593,62.217 C151.593,62.217 150.945,62.937 151.305,64.953 z" fill-opacity="0" stroke="#373435" stroke-width="1.313" stroke-linejoin="round"/>
      </g>
      <g id="path28160">
        <path d="M161.6,60.921 L155.049,63.369 C155.049,63.369 151.953,63.873 150.801,61.353 L150.297,57.105 L161.6,60.849 z" fill="#90C74A"/>
        <path d="M161.6,60.921 L155.049,63.369 C155.049,63.369 151.953,63.873 150.801,61.353 L150.297,57.105 L161.6,60.849 z" fill-opacity="0" stroke="#373435" stroke-width="1.313" stroke-linejoin="round"/>
      </g>
      <g id="path28162">
        <path d="M144.177,49.545 L144.537,56.673 C144.537,56.673 145.329,59.769 148.281,59.553 L152.673,57.897 z" fill="#90C74A"/>
        <path d="M144.177,49.545 L144.537,56.673 C144.537,56.673 145.329,59.769 148.281,59.553 L152.673,57.897 z" fill-opacity="0" stroke="#373435" stroke-width="1.313" stroke-linejoin="round"/>
      </g>
      <g id="path28164">
        <path d="M144.321,43.282 C138.777,41.122 132.657,38.53 127.617,37.162 L127.761,33.778 C127.761,33.778 138.345,30.61 152.745,38.314 L155.841,40.978 L158.216,42.49 L163.688,46.881 L171.608,49.689 C178.304,59.985 177.944,75.465 177.944,75.465 L174.416,76.257 C172.4,67.833 169.232,62.649 166.856,59.481 C165.704,60.489 162.896,61.713 160.448,61.785 C145.113,62.289 143.817,48.753 143.817,48.753 C143.817,48.753 143.601,45.082 144.321,43.354 z" fill="#88D6F7"/>
        <path d="M144.321,43.282 C138.777,41.122 132.657,38.53 127.617,37.162 L127.761,33.778 C127.761,33.778 138.345,30.61 152.745,38.314 L155.841,40.978 L158.216,42.49 L163.688,46.881 L171.608,49.689 C178.304,59.985 177.944,75.465 177.944,75.465 L174.416,76.257 C172.4,67.833 169.232,62.649 166.856,59.481 C165.704,60.489 162.896,61.713 160.448,61.785 C145.113,62.289 143.817,48.753 143.817,48.753 C143.817,48.753 143.601,45.082 144.321,43.354 z" fill-opacity="0" stroke="#373435" stroke-width="1.313" stroke-linejoin="round"/>
      </g>
      <g id="path28166">
        <path d="M180.464,45.801 C173.696,53.289 168.368,54.801 161.816,53.793 C159.8,53.217 157.568,51.993 157.568,51.993 C148.569,46.017 146.193,35.506 156.345,23.122 C156.345,23.122 160.232,21.682 167.288,19.594 C167.288,19.594 167.936,28.738 177.008,37.666 L177.8,31.618 C177.8,31.618 183.344,40.69 180.464,45.801 z" fill="#FCD2B5"/>
        <path d="M180.464,45.801 C173.696,53.289 168.368,54.801 161.816,53.793 C159.8,53.217 157.568,51.993 157.568,51.993 C148.569,46.017 146.193,35.506 156.345,23.122 C156.345,23.122 160.232,21.682 167.288,19.594 C167.288,19.594 167.936,28.738 177.008,37.666 L177.8,31.618 C177.8,31.618 183.344,40.69 180.464,45.801 z" fill-opacity="0" stroke="#373435" stroke-width="1.313" stroke-linejoin="round"/>
      </g>
      <g id="g28176">
        <path d="M168.008,58.545 C167.576,58.833 167.576,58.833 167.216,59.193 C166.784,59.481 166.784,59.481 166.424,59.841 z" fill="#BB9085" id="path28172"/>
        <path d="M168.008,58.545 C167.576,58.833 167.576,58.833 167.216,59.193 C166.784,59.481 166.784,59.481 166.424,59.841" fill-opacity="0" stroke="#373435" stroke-width="1.313" stroke-linecap="round" stroke-linejoin="round" id="path28174"/>
      </g>
      <g id="g28182">
        <path d="M144.609,42.274 C144.465,42.706 144.465,42.706 144.393,43.066 C144.249,43.498 144.249,43.498 144.177,43.858 L144.681,42.202 z" fill="#BB9085" id="path28178"/>
        <path d="M144.609,42.274 C144.465,42.706 144.465,42.706 144.393,43.066 C144.249,43.498 144.249,43.498 144.177,43.858" fill-opacity="0" stroke="#373435" stroke-width="1.313" stroke-linecap="round" stroke-linejoin="round" id="path28180"/>
      </g>
      <g id="g28198">
        <path d="M161.816,35.074 C161.528,35.506 160.016,35.074 158.504,34.066 C156.993,33.058 155.985,31.834 156.345,31.402 C156.633,30.97 158.144,31.402 159.656,32.482 C161.168,33.49 162.176,34.714 161.816,35.146 z" fill="#F8B7B3" fill-opacity="0.702" id="path28184"/>
        <path d="M160.16,32.554 L161.6,30.682 C161.6,30.682 161.168,31.186 160.16,32.554 z" fill="#FEFEFE" id="path28186"/>
        <path d="M161.6,30.61 C161.6,30.61 161.168,31.114 160.16,32.482" fill-opacity="0" stroke="#373435" stroke-width="1.535" stroke-linecap="round" stroke-linejoin="round" id="path28188"/>
        <path d="M174.92,44.506 C174.632,45.01 173.12,44.578 171.608,43.642 C170.024,42.706 169.016,41.554 169.304,41.05 C169.592,40.618 171.104,40.978 172.616,41.914 C174.2,42.85 175.208,44.002 174.92,44.506 z" fill="#F8B7B3" fill-opacity="0.702" id="path28190"/>
        <path d="M172.04,41.338 L173.408,39.682 C173.408,39.682 173.048,39.898 172.04,41.338 z" fill="#FEFEFE" id="path28192"/>
        <path d="M173.408,39.682 C173.408,39.682 173.048,39.898 172.04,41.338" fill-opacity="0" stroke="#373435" stroke-width="1.535" stroke-linecap="round" stroke-linejoin="round" id="path28194"/>
        <path d="M166.208,36.946 C165.704,38.602 163.328,35.722 162.824,37.378 C162.464,38.386 164.624,39.682 165.272,40.114" fill-opacity="0" stroke="#373435" stroke-width="1.06" stroke-linecap="round" stroke-linejoin="round" id="path28196"/>
      </g>
    </g>
    <g id="g28248">
      <g id="path28202">
        <path d="M88.738,53.073 C88.738,53.073 88.954,53.073 89.17,53.001 C89.314,52.929 89.53,52.857 89.53,52.641 C89.746,51.921 89.818,51.057 89.53,49.977 L87.01,50.265 C87.01,50.265 87.154,51.777 88.738,53.073 z" fill="#E9EA7D"/>
        <path d="M88.738,53.073 C88.738,53.073 88.954,53.073 89.17,53.001 C89.314,52.929 89.53,52.857 89.53,52.641 C89.746,51.921 89.818,51.057 89.53,49.977 L87.01,50.265 C87.01,50.265 87.154,51.777 88.738,53.073 z" fill-opacity="0" stroke="#373435" stroke-width="1.313" stroke-linejoin="round"/>
      </g>
      <g id="path28204">
        <path d="M97.162,49.689 C97.162,49.689 97.378,49.689 97.594,49.545 C97.738,49.473 97.882,49.329 97.882,49.041 C97.882,48.321 97.666,47.025 97.09,46.089 L95.074,48.033 C95.074,48.033 95.362,48.969 97.234,49.689 z" fill="#E9EA7D"/>
        <path d="M97.162,49.689 C97.162,49.689 97.378,49.689 97.594,49.545 C97.738,49.473 97.882,49.329 97.882,49.041 C97.882,48.321 97.666,47.025 97.09,46.089 L95.074,48.033 C95.074,48.033 95.362,48.969 97.234,49.689 z" fill-opacity="0" stroke="#373435" stroke-width="1.313" stroke-linejoin="round"/>
      </g>
      <g id="path28206">
        <path d="M98.098,32.698 L99.898,32.914 C99.898,32.914 103.858,38.242 98.53,45.369 C94.21,51.129 88.954,51.489 84.418,51.057 C81.466,50.769 75.131,46.377 74.843,43.21 L74.123,41.77 L98.098,32.77 z" fill="#F79733"/>
        <path d="M98.098,32.698 L99.898,32.914 C99.898,32.914 103.858,38.242 98.53,45.369 C94.21,51.129 88.954,51.489 84.418,51.057 C81.466,50.769 75.131,46.377 74.843,43.21 L74.123,41.77 L98.098,32.77 z" fill-opacity="0" stroke="#373435" stroke-width="1.313" stroke-linejoin="round"/>
      </g>
      <g id="path28208">
        <path d="M98.314,40.906 C99.538,38.818 100.114,34.714 99.826,33.202 C105.514,33.058 109.906,33.346 118.834,36.154 L120.129,32.482 C120.129,32.482 107.386,24.13 95.146,24.274 L87.874,26.29 L81.97,31.762 L79.235,30.106 L75.419,32.698 C61.235,40.762 59.939,54.729 59.939,54.729 L63.035,56.457 C68.651,49.977 70.163,46.665 75.491,43.642 L79.307,46.305 C79.307,46.305 90.754,54.081 98.53,40.906 z" fill="#F1F2F2"/>
        <path d="M98.314,40.906 C99.538,38.818 100.114,34.714 99.826,33.202 C105.514,33.058 109.906,33.346 118.834,36.154 L120.129,32.482 C120.129,32.482 107.386,24.13 95.146,24.274 L87.874,26.29 L81.97,31.762 L79.235,30.106 L75.419,32.698 C61.235,40.762 59.939,54.729 59.939,54.729 L63.035,56.457 C68.651,49.977 70.163,46.665 75.491,43.642 L79.307,46.305 C79.307,46.305 90.754,54.081 98.53,40.906 z" fill-opacity="0" stroke="#373435" stroke-width="1.313" stroke-linejoin="round"/>
      </g>
      <g id="path28210">
        <path d="M92.482,3.899 C85.642,-2.005 80.315,1.955 80.315,1.955 C68.939,0.083 64.403,7.354 62.747,10.594 C62.747,10.594 60.299,14.122 59.291,24.13 C59.291,24.13 59.363,35.146 57.203,36.082 C57.203,36.082 64.259,41.122 73.331,35.218 C73.331,35.218 99.322,31.186 108.034,15.202 C108.034,15.202 104.362,14.554 101.194,11.818 C97.162,8.362 94.282,5.339 92.554,3.827 z" fill="#BD9E83"/>
        <path d="M92.482,3.899 C85.642,-2.005 80.315,1.955 80.315,1.955 C68.939,0.083 64.403,7.354 62.747,10.594 C62.747,10.594 60.299,14.122 59.291,24.13 C59.291,24.13 59.363,35.146 57.203,36.082 C57.203,36.082 64.259,41.122 73.331,35.218 C73.331,35.218 99.322,31.186 108.034,15.202 C108.034,15.202 104.362,14.554 101.194,11.818 C97.162,8.362 94.282,5.339 92.554,3.827 z" fill-opacity="0" stroke="#373435" stroke-width="1.313" stroke-linejoin="round"/>
      </g>
      <g id="path28212">
        <path d="M63.971,28.522 C62.819,28.882 61.451,30.178 62.891,32.554 C64.619,35.434 68.579,35.218 69.227,35.146 C67.859,33.922 67.211,31.618 65.987,28.234 L63.899,28.522 z" fill="#FCD2B5"/>
        <path d="M63.971,28.522 C62.819,28.882 61.451,30.178 62.891,32.554 C64.619,35.434 68.579,35.218 69.227,35.146 C67.859,33.922 67.211,31.618 65.987,28.234 L63.899,28.522 z" fill-opacity="0" stroke="#373435" stroke-width="1.313" stroke-linejoin="round"/>
      </g>
      <g id="path28216">
        <path d="M99.322,18.802 C100.474,18.586 102.346,19.018 102.202,21.754 C102.058,25.138 98.53,26.866 97.882,27.082 C98.53,25.354 97.954,23.05 97.378,19.45 L99.322,18.73 z" fill="#FCD2B5"/>
        <path d="M99.322,18.802 C100.474,18.586 102.346,19.018 102.202,21.754 C102.058,25.138 98.53,26.866 97.882,27.082 C98.53,25.354 97.954,23.05 97.378,19.45 L99.322,18.73 z" fill-opacity="0" stroke="#373435" stroke-width="1.313" stroke-linejoin="round"/>
      </g>
      <g id="path28220">
        <path d="M94.786,16.858 C96.658,17.434 97.018,18.802 97.018,18.802 C99.322,28.594 97.522,33.922 92.986,38.674 C91.402,40.042 89.098,41.122 89.098,41.122 C79.091,45.154 69.011,40.762 65.051,26.506 C65.051,26.506 76.067,19.522 82.186,18.154 C81.107,15.202 80.171,11.89 80.891,8.002 C80.891,8.002 86.29,15.13 94.786,16.858 z" fill="#FCD2B5"/>
        <path d="M94.786,16.858 C96.658,17.434 97.018,18.802 97.018,18.802 C99.322,28.594 97.522,33.922 92.986,38.674 C91.402,40.042 89.098,41.122 89.098,41.122 C79.091,45.154 69.011,40.762 65.051,26.506 C65.051,26.506 76.067,19.522 82.186,18.154 C81.107,15.202 80.171,11.89 80.891,8.002 C80.891,8.002 86.29,15.13 94.786,16.858 z" fill-opacity="0" stroke="#373435" stroke-width="1.313" stroke-linejoin="round"/>
      </g>
      <path d="M89.17,33.562 C89.17,33.562 86.434,37.594 81.754,35.866" fill-opacity="0" stroke="#373435" stroke-width="1" stroke-linecap="round" stroke-linejoin="round" id="path28226"/>
      <g id="polygon28228">
        <path d="M99.754,33.49 L99.97,31.69 z" fill="#FACCC6"/>
        <path d="M99.754,33.49 L99.97,31.69 z" fill-opacity="0" stroke="#373435" stroke-width="1.313" stroke-linejoin="round"/>
      </g>
      <g id="polygon28230">
        <path d="M75.563,43.93 L73.835,42.418 z" fill="#FACCC6"/>
        <path d="M75.563,43.93 L73.835,42.418 z" fill-opacity="0" stroke="#373435" stroke-width="1.313" stroke-linejoin="round"/>
      </g>
      <g id="g28246">
        <path d="M77.219,28.378 C77.363,28.954 75.995,29.818 74.123,30.322 C72.251,30.826 70.595,30.826 70.451,30.25 C70.307,29.674 71.675,28.81 73.547,28.306 C75.419,27.802 77.003,27.802 77.219,28.378 z" fill="#F8B7B3" fill-opacity="0.702" id="path28232"/>
        <path d="M74.051,28.018 L73.547,25.57 C73.547,25.57 73.619,26.218 74.051,28.018 z" fill="#FEFEFE" id="path28234"/>
        <path d="M73.547,25.57 C73.547,25.57 73.619,26.218 74.051,28.018" fill-opacity="0" stroke="#373435" stroke-width="1.616" stroke-linecap="round" stroke-linejoin="round" id="path28236"/>
        <path d="M93.706,24.202 C93.922,24.778 92.554,25.714 90.754,26.29 C88.954,26.866 87.298,26.938 87.154,26.434 C86.938,25.858 88.306,24.922 90.106,24.346 C91.906,23.77 93.562,23.698 93.706,24.202 z" fill="#F8B7B3" fill-opacity="0.702" id="path28238"/>
        <path d="M89.17,24.418 L88.81,22.186 C88.81,22.186 88.738,22.618 89.17,24.418 z" fill="#FEFEFE" id="path28240"/>
        <path d="M88.81,22.186 C88.81,22.186 88.738,22.618 89.17,24.418" fill-opacity="0" stroke="#373435" stroke-width="1.616" stroke-linecap="round" stroke-linejoin="round" id="path28242"/>
        <path d="M81.754,26.146 C82.762,27.658 78.803,27.658 79.811,29.17 C80.387,30.178 82.834,29.242 83.698,29.026" fill-opacity="0" stroke="#373435" stroke-width="1.116" stroke-linecap="round" stroke-linejoin="round" id="path28244"/>
      </g>
    </g>
    <g id="path28252">
      <path d="M57.635,98.792 C57.635,98.792 57.779,98.576 57.851,98.36 C57.851,98.216 57.851,98 57.707,97.856 C57.131,97.352 56.483,96.848 55.331,96.632 L54.395,99.008 C54.395,99.008 55.835,99.584 57.707,98.792 z" fill="#73D0F6"/>
      <path d="M57.635,98.792 C57.635,98.792 57.779,98.576 57.851,98.36 C57.851,98.216 57.851,98 57.707,97.856 C57.131,97.352 56.483,96.848 55.331,96.632 L54.395,99.008 C54.395,99.008 55.835,99.584 57.707,98.792 z" fill-opacity="0" stroke="#373435" stroke-width="1.313" stroke-linejoin="round"/>
    </g>
    <g id="path28254">
      <path d="M58.571,89.792 C58.571,89.792 58.643,89.576 58.643,89.36 C58.643,89.216 58.571,89 58.355,88.928 C57.707,88.64 56.483,88.136 55.331,88.28 L56.123,91.016 C56.123,91.016 57.059,91.232 58.643,89.864 z" fill="#73D0F6"/>
      <path d="M58.571,89.792 C58.571,89.792 58.643,89.576 58.643,89.36 C58.643,89.216 58.571,89 58.355,88.928 C57.707,88.64 56.483,88.136 55.331,88.28 L56.123,91.016 C56.123,91.016 57.059,91.232 58.643,89.864 z" fill-opacity="0" stroke="#373435" stroke-width="1.313" stroke-linejoin="round"/>
    </g>
    <g id="path28256">
      <path d="M49.859,82.953 L55.259,87.344 C55.259,87.344 57.275,89.792 55.691,92.024 L52.235,94.616 L49.787,82.953 z" fill="#BEBFC1"/>
      <path d="M49.859,82.953 L55.259,87.344 C55.259,87.344 57.275,89.792 55.691,92.024 L52.235,94.616 L49.787,82.953 z" fill-opacity="0" stroke="#373435" stroke-width="1.313" stroke-linejoin="round"/>
    </g>
    <g id="path28258">
      <path d="M48.779,103.688 L54.755,99.8 C54.755,99.8 56.987,97.568 55.331,95.12 L51.731,92.168 z" fill="#BEBFC1"/>
      <path d="M48.779,103.688 L54.755,99.8 C54.755,99.8 56.987,97.568 55.331,95.12 L51.731,92.168 z" fill-opacity="0" stroke="#373435" stroke-width="1.313" stroke-linejoin="round"/>
    </g>
    <g id="path28260">
      <path d="M43.308,106.712 C44.243,112.616 45.035,119.168 46.403,124.279 L43.452,125.863 C43.452,125.863 35.388,118.304 34.812,102.032 L35.532,98 L35.604,95.192 L36.612,88.28 L35.1,80.001 C40.572,69.057 54.179,61.569 54.179,61.569 L56.627,64.233 C50.363,70.209 47.483,75.537 45.899,79.209 C47.339,79.641 49.787,81.513 51.083,83.6 C59.219,96.632 48.203,104.552 48.203,104.552 C48.203,104.552 45.179,106.568 43.308,106.856 z" fill="#E4E874"/>
      <path d="M43.308,106.712 C44.243,112.616 45.035,119.168 46.403,124.279 L43.452,125.863 C43.452,125.863 35.388,118.304 34.812,102.032 L35.532,98 L35.604,95.192 L36.612,88.28 L35.1,80.001 C40.572,69.057 54.179,61.569 54.179,61.569 L56.627,64.233 C50.363,70.209 47.483,75.537 45.899,79.209 C47.339,79.641 49.787,81.513 51.083,83.6 C59.219,96.632 48.203,104.552 48.203,104.552 C48.203,104.552 45.179,106.568 43.308,106.856 z" fill-opacity="0" stroke="#373435" stroke-width="1.313" stroke-linejoin="round"/>
    </g>
    <g id="g28266">
      <path d="M44.603,78.561 C45.107,78.777 45.107,78.777 45.539,78.921 C46.043,79.137 46.043,79.137 46.475,79.281 z" fill="#BB9085" id="path28262"/>
      <path d="M44.603,78.561 C45.107,78.777 45.107,78.777 45.539,78.921 C46.043,79.137 46.043,79.137 46.475,79.281" fill-opacity="0" stroke="#373435" stroke-width="1.313" stroke-linecap="round" stroke-linejoin="round" id="path28264"/>
    </g>
    <g id="g28272">
      <path d="M42.228,107 C42.66,106.928 42.66,106.928 43.092,106.784 C43.524,106.712 43.524,106.712 43.955,106.568 L42.3,107 z" fill="#BB9085" id="path28268"/>
      <path d="M42.228,107 C42.66,106.928 42.66,106.928 43.092,106.784 C43.524,106.712 43.524,106.712 43.955,106.568" fill-opacity="0" stroke="#373435" stroke-width="1.313" stroke-linecap="round" stroke-linejoin="round" id="path28270"/>
    </g>
    <g id="g28326">
      <g id="path28274">
        <path d="M80.243,149.911 C80.243,149.911 80.171,149.695 79.955,149.551 C79.811,149.407 79.667,149.335 79.451,149.407 C78.731,149.623 77.939,149.911 77.147,150.775 L78.659,152.863 C78.659,152.863 79.955,151.999 80.243,149.911 z" fill="#E9EA7D"/>
        <path d="M80.243,149.911 C80.243,149.911 80.171,149.695 79.955,149.551 C79.811,149.407 79.667,149.335 79.451,149.407 C78.731,149.623 77.939,149.911 77.147,150.775 L78.659,152.863 C78.659,152.863 79.955,151.999 80.243,149.911 z" fill-opacity="0" stroke="#373435" stroke-width="1.313" stroke-linejoin="round"/>
      </g>
      <g id="path28276">
        <path d="M73.043,144.295 C73.043,144.295 72.899,144.079 72.683,144.007 C72.539,143.935 72.323,143.935 72.107,144.007 C71.459,144.439 70.451,145.231 69.947,146.239 L72.683,147.031 C72.683,147.031 73.331,146.311 73.043,144.295 z" fill="#E9EA7D"/>
        <path d="M73.043,144.295 C73.043,144.295 72.899,144.079 72.683,144.007 C72.539,143.935 72.323,143.935 72.107,144.007 C71.459,144.439 70.451,145.231 69.947,146.239 L72.683,147.031 C72.683,147.031 73.331,146.311 73.043,144.295 z" fill-opacity="0" stroke="#373435" stroke-width="1.313" stroke-linejoin="round"/>
      </g>
      <g id="path28278">
        <path d="M57.923,151.999 L57.131,150.343 C57.131,150.343 59.723,144.223 68.651,145.231 C75.779,146.095 78.731,150.415 80.675,154.591 C81.898,157.327 81.251,164.958 78.659,166.83 L77.795,168.198 z" fill="#F7A092"/>
        <path d="M57.923,151.999 L57.131,150.343 C57.131,150.343 59.723,144.223 68.651,145.231 C75.779,146.095 78.731,150.415 80.675,154.591 C81.898,157.327 81.251,164.958 78.659,166.83 L77.795,168.198 z" fill-opacity="0" stroke="#373435" stroke-width="1.313" stroke-linejoin="round"/>
      </g>
      <g id="path28280">
        <path d="M64.907,147.751 C62.459,147.751 58.715,149.335 57.563,150.343 C54.611,145.447 52.595,141.487 50.579,132.415 L46.763,133.135 C46.763,133.135 45.899,148.399 52.235,158.839 L57.635,164.166 L65.339,166.542 L65.267,169.782 L69.443,171.798 C83.554,180.006 96.298,174.102 96.298,174.102 L96.298,170.574 C87.946,168.99 84.202,169.35 78.947,166.254 L79.307,161.646 C79.307,161.646 80.315,147.823 64.979,147.751 z" fill="#FEC569"/>
        <path d="M64.907,147.751 C62.459,147.751 58.715,149.335 57.563,150.343 C54.611,145.447 52.595,141.487 50.579,132.415 L46.763,133.135 C46.763,133.135 45.899,148.399 52.235,158.839 L57.635,164.166 L65.339,166.542 L65.267,169.782 L69.443,171.798 C83.554,180.006 96.298,174.102 96.298,174.102 L96.298,170.574 C87.946,168.99 84.202,169.35 78.947,166.254 L79.307,161.646 C79.307,161.646 80.315,147.823 64.979,147.751 z" fill-opacity="0" stroke="#373435" stroke-width="1.313" stroke-linejoin="round"/>
      </g>
      <g id="path28282">
        <path d="M72.611,182.454 C72.611,182.454 65.195,193.11 56.627,193.686 C52.955,193.902 44.459,193.686 40.284,182.886 C40.284,182.886 34.236,180.366 36.324,171.51 C37.332,167.262 39.924,162.078 47.555,156.607 z" fill="#BD9E83"/>
        <path d="M72.611,182.454 C72.611,182.454 65.195,193.11 56.627,193.686 C52.955,193.902 44.459,193.686 40.284,182.886 C40.284,182.886 34.236,180.366 36.324,171.51 C37.332,167.262 39.924,162.078 47.555,156.607 z" fill-opacity="0" stroke="#373435" stroke-width="1.313" stroke-linejoin="round"/>
      </g>
      <g id="path28284">
        <path d="M71.459,183.678 C72.395,184.47 74.195,184.974 75.491,182.598 C77.075,179.646 74.915,176.334 74.555,175.83 C74.195,177.63 72.539,179.358 70.235,182.094 L71.531,183.75 z" fill="#FCD2B5"/>
        <path d="M71.459,183.678 C72.395,184.47 74.195,184.974 75.491,182.598 C77.075,179.646 74.915,176.334 74.555,175.83 C74.195,177.63 72.539,179.358 70.235,182.094 L71.531,183.75 z" fill-opacity="0" stroke="#373435" stroke-width="1.313" stroke-linejoin="round"/>
      </g>
      <g id="path28288">
        <path d="M45.323,157.975 C44.531,157.039 44.027,155.239 46.475,154.015 C49.499,152.431 52.739,154.663 53.243,155.023 C51.443,155.383 49.715,156.967 46.907,159.27 z" fill="#FCD2B5"/>
        <path d="M45.323,157.975 C44.531,157.039 44.027,155.239 46.475,154.015 C49.499,152.431 52.739,154.663 53.243,155.023 C51.443,155.383 49.715,156.967 46.907,159.27 z" fill-opacity="0" stroke="#373435" stroke-width="1.313" stroke-linejoin="round"/>
      </g>
      <g id="path28292">
        <path d="M45.899,162.798 C44.243,161.646 46.403,159.918 46.403,159.918 C53.747,152.935 59.147,151.855 65.627,153.439 C67.571,154.159 69.731,155.599 69.731,155.599 C78.227,162.222 79.523,173.094 69.155,183.75 C69.155,183.75 54.827,175.83 45.251,179.358 C45.251,179.358 48.635,171.15 45.899,162.87 z" fill="#FCD2B5"/>
        <path d="M45.899,162.798 C44.243,161.646 46.403,159.918 46.403,159.918 C53.747,152.935 59.147,151.855 65.627,153.439 C67.571,154.159 69.731,155.599 69.731,155.599 C78.227,162.222 79.523,173.094 69.155,183.75 C69.155,183.75 54.827,175.83 45.251,179.358 C45.251,179.358 48.635,171.15 45.899,162.87 z" fill-opacity="0" stroke="#373435" stroke-width="1.313" stroke-linejoin="round"/>
      </g>
      <g id="polygon28298">
        <path d="M57.779,150.199 L56.123,150.919 z" fill="#FACCC6"/>
        <path d="M57.779,150.199 L56.123,150.919 z" fill-opacity="0" stroke="#373435" stroke-width="1.313" stroke-linejoin="round"/>
      </g>
      <g id="polygon28300">
        <path d="M78.947,165.822 L78.515,168.126 z" fill="#FACCC6"/>
        <path d="M78.947,165.822 L78.515,168.126 z" fill-opacity="0" stroke="#373435" stroke-width="1.313" stroke-linejoin="round"/>
      </g>
      <path d="M61.307,184.182 C61.307,184.182 56.843,181.662 49.859,182.31" fill-opacity="0" stroke="#373435" stroke-width="1.313" stroke-linecap="round" stroke-linejoin="round" id="path28302"/>
      <path d="M56.915,185.55 C56.915,185.55 53.891,184.686 51.731,185.118" fill-opacity="0" stroke="#373435" stroke-width="1.313" stroke-linecap="round" stroke-linejoin="round" id="path28304"/>
      <path d="M43.02,164.238 L43.236,164.886 L43.38,165.606 L43.524,166.326 L43.667,166.974 L43.739,167.694 L43.811,168.414 L43.883,169.134 L43.955,169.854 L43.955,170.574 L43.955,171.294 L43.955,172.014 L43.811,172.662 L43.667,173.382 L43.452,174.102" fill-opacity="0" stroke="#373435" stroke-width="1.313" stroke-linecap="round" stroke-linejoin="round" id="polyline28306"/>
      <g id="g28324">
        <path d="M64.691,172.23 C65.123,171.798 66.563,172.59 67.931,173.886 C69.299,175.254 70.163,176.622 69.731,177.054 C69.371,177.486 67.859,176.694 66.491,175.398 C65.123,174.03 64.331,172.662 64.691,172.23 z" fill="#F8B7B3" fill-opacity="0.702" id="path28310"/>
        <path d="M65.987,175.182 L64.115,176.91 C64.115,176.91 64.619,176.478 65.987,175.182 z" fill="#FEFEFE" id="path28312"/>
        <path d="M64.115,176.838 C64.115,176.838 64.619,176.406 65.987,175.11" fill-opacity="0" stroke="#373435" stroke-width="1.616" stroke-linecap="round" stroke-linejoin="round" id="path28314"/>
        <path d="M52.811,160.134 C53.171,159.702 54.683,160.35 56.123,161.646 C57.563,162.942 58.427,164.31 58.067,164.742 C57.707,165.174 56.195,164.454 54.755,163.23 C53.315,161.934 52.451,160.566 52.811,160.134 z" fill="#F8B7B3" fill-opacity="0.702" id="path28316"/>
        <path d="M55.259,163.95 L53.531,165.39 C53.531,165.39 53.891,165.246 55.259,163.95 z" fill="#FEFEFE" id="path28318"/>
        <path d="M53.531,165.39 C53.531,165.39 53.891,165.246 55.259,163.95" fill-opacity="0" stroke="#373435" stroke-width="1.616" stroke-linecap="round" stroke-linejoin="round" id="path28320"/>
        <path d="M60.443,169.494 C61.235,167.838 63.179,171.294 64.043,169.71 C64.547,168.702 62.603,167.046 61.955,166.47" fill-opacity="0" stroke="#373435" stroke-width="1.116" stroke-linecap="round" stroke-linejoin="round" id="path28322"/>
      </g>
    </g>
    <g id="path28330">
      <path d="M134.817,154.159 C134.817,154.159 134.601,154.159 134.385,154.231 C134.241,154.303 134.097,154.375 134.025,154.663 C133.881,155.383 133.809,156.247 134.169,157.327 L136.689,156.967 C136.689,156.967 136.473,155.455 134.817,154.231 z" fill="#73D0F6"/>
      <path d="M134.817,154.159 C134.817,154.159 134.601,154.159 134.385,154.231 C134.241,154.303 134.097,154.375 134.025,154.663 C133.881,155.383 133.809,156.247 134.169,157.327 L136.689,156.967 C136.689,156.967 136.473,155.455 134.817,154.231 z" fill-opacity="0" stroke="#373435" stroke-width="1.313" stroke-linejoin="round"/>
    </g>
    <g id="path28332">
      <path d="M126.537,157.903 C126.537,157.903 126.321,157.975 126.105,158.119 C125.961,158.191 125.817,158.407 125.889,158.623 C125.961,159.342 126.177,160.638 126.825,161.574 L128.769,159.486 C128.769,159.486 128.481,158.551 126.537,157.903 z" fill="#73D0F6"/>
      <path d="M126.537,157.903 C126.537,157.903 126.321,157.975 126.105,158.119 C125.961,158.191 125.817,158.407 125.889,158.623 C125.961,159.342 126.177,160.638 126.825,161.574 L128.769,159.486 C128.769,159.486 128.481,158.551 126.537,157.903 z" fill-opacity="0" stroke="#373435" stroke-width="1.313" stroke-linejoin="round"/>
    </g>
    <g id="path28334">
      <path d="M124.953,168.846 L126.033,161.934 C126.033,161.934 127.113,158.982 129.849,159.199 L133.809,160.854 L124.953,168.774 z" fill="#BEB1D7"/>
      <path d="M124.953,168.846 L126.033,161.934 C126.033,161.934 127.113,158.982 129.849,159.199 L133.809,160.854 L124.953,168.774 z" fill-opacity="0" stroke="#373435" stroke-width="1.313" stroke-linejoin="round"/>
    </g>
    <g id="path28336">
      <path d="M143.457,159.414 L137.049,156.175 C137.049,156.175 133.953,155.383 132.729,158.047 L132.009,162.654 z" fill="#BEB1D7"/>
      <path d="M143.457,159.414 L137.049,156.175 C137.049,156.175 133.953,155.383 132.729,158.047 L132.009,162.654 z" fill-opacity="0" stroke="#373435" stroke-width="1.313" stroke-linejoin="round"/>
    </g>
    <g id="path28338">
      <path d="M148.785,162.582 C153.393,158.839 158.648,154.807 162.392,151.063 L165.272,152.863 C165.272,152.863 162.824,163.59 149.001,172.302 L145.185,173.67 L142.737,175.038 L136.257,177.63 L129.921,183.102 C117.682,183.822 104.362,175.902 104.362,175.902 L105.442,172.446 C113.794,174.894 119.841,174.678 123.729,174.174 C123.369,172.662 123.801,169.638 124.881,167.478 C132.009,153.943 144.465,159.486 144.465,159.486 C144.465,159.486 147.777,161.142 148.929,162.582 z" fill="#B3D891"/>
      <path d="M148.785,162.582 C153.393,158.839 158.648,154.807 162.392,151.063 L165.272,152.863 C165.272,152.863 162.824,163.59 149.001,172.302 L145.185,173.67 L142.737,175.038 L136.257,177.63 L129.921,183.102 C117.682,183.822 104.362,175.902 104.362,175.902 L105.442,172.446 C113.794,174.894 119.841,174.678 123.729,174.174 C123.369,172.662 123.801,169.638 124.881,167.478 C132.009,153.943 144.465,159.486 144.465,159.486 C144.465,159.486 147.777,161.142 148.929,162.582 z" fill-opacity="0" stroke="#373435" stroke-width="1.313" stroke-linejoin="round"/>
    </g>
    <g id="g28344">
      <path d="M123.873,175.686 C123.801,175.182 123.801,175.182 123.729,174.678 C123.657,174.174 123.657,174.174 123.585,173.67 z" fill="#BB9085" id="path28340"/>
      <path d="M123.873,175.686 C123.801,175.182 123.801,175.182 123.729,174.678 C123.657,174.174 123.657,174.174 123.585,173.67" fill-opacity="0" stroke="#373435" stroke-width="1.313" stroke-linecap="round" stroke-linejoin="round" id="path28342"/>
    </g>
    <g id="g28350">
      <path d="M149.577,163.374 C149.289,163.086 149.289,163.086 149.001,162.726 C148.713,162.438 148.713,162.438 148.425,162.078 L149.649,163.302 z" fill="#BB9085" id="path28346"/>
      <path d="M149.577,163.374 C149.289,163.086 149.289,163.086 149.001,162.726 C148.713,162.438 148.713,162.438 148.425,162.078" fill-opacity="0" stroke="#373435" stroke-width="1.313" stroke-linecap="round" stroke-linejoin="round" id="path28348"/>
    </g>
    <g id="path28352">
      <path d="M167.648,109.376 C167.648,109.376 167.504,109.592 167.432,109.808 C167.432,109.952 167.432,110.168 167.576,110.312 C168.152,110.816 168.8,111.32 169.952,111.536 L170.96,109.16 C170.96,109.16 169.52,108.512 167.648,109.376 z" fill="#E9EA7D"/>
      <path d="M167.648,109.376 C167.648,109.376 167.504,109.592 167.432,109.808 C167.432,109.952 167.432,110.168 167.576,110.312 C168.152,110.816 168.8,111.32 169.952,111.536 L170.96,109.16 C170.96,109.16 169.52,108.512 167.648,109.376 z" fill-opacity="0" stroke="#373435" stroke-width="1.313" stroke-linejoin="round"/>
    </g>
    <g id="path28354">
      <path d="M166.64,118.376 C166.64,118.376 166.568,118.592 166.568,118.808 C166.568,118.952 166.64,119.168 166.856,119.24 C167.504,119.528 168.728,120.032 169.88,119.96 L169.088,117.224 C169.088,117.224 168.152,117.008 166.568,118.376 z" fill="#E9EA7D"/>
      <path d="M166.64,118.376 C166.64,118.376 166.568,118.592 166.568,118.808 C166.568,118.952 166.64,119.168 166.856,119.24 C167.504,119.528 168.728,120.032 169.88,119.96 L169.088,117.224 C169.088,117.224 168.152,117.008 166.568,118.376 z" fill-opacity="0" stroke="#373435" stroke-width="1.313" stroke-linejoin="round"/>
    </g>
    <g id="path28356">
      <path d="M181.184,127.159 L180.176,128.671 C180.176,128.671 173.624,129.679 169.808,121.543 C166.784,115.064 168.872,110.24 171.464,106.424 C173.12,103.904 179.96,100.448 182.912,101.672 L184.496,101.744 z" fill="#FFDF7E"/>
      <path d="M181.184,127.159 L180.176,128.671 C180.176,128.671 173.624,129.679 169.808,121.543 C166.784,115.064 168.872,110.24 171.464,106.424 C173.12,103.904 179.96,100.448 182.912,101.672 L184.496,101.744 z" fill-opacity="0" stroke="#373435" stroke-width="1.313" stroke-linejoin="round"/>
    </g>
    <g id="path28358">
      <path d="M173.84,123.487 C175.136,125.575 178.448,127.951 179.888,128.383 C177.296,133.495 174.992,137.239 168.368,143.719 L171.032,146.599 C171.032,146.599 184.424,139.327 190.04,128.383 L191.696,120.967 L189.68,113.192 L192.416,111.536 L191.912,106.928 C191.48,90.584 179.816,82.881 179.816,82.881 L176.792,84.752 C179.888,92.744 182.12,95.696 182.264,101.744 L178.16,103.904 C178.16,103.904 165.848,110.384 173.912,123.415 z" fill="#F7ADB3"/>
      <path d="M173.84,123.487 C175.136,125.575 178.448,127.951 179.888,128.383 C177.296,133.495 174.992,137.239 168.368,143.719 L171.032,146.599 C171.032,146.599 184.424,139.327 190.04,128.383 L191.696,120.967 L189.68,113.192 L192.416,111.536 L191.912,106.928 C191.48,90.584 179.816,82.881 179.816,82.881 L176.792,84.752 C179.888,92.744 182.12,95.696 182.264,101.744 L178.16,103.904 C178.16,103.904 165.848,110.384 173.912,123.415 z" fill-opacity="0" stroke="#373435" stroke-width="1.313" stroke-linejoin="round"/>
    </g>
    <g id="polygon28360">
      <path d="M179.672,128.311 L181.184,129.319 z" fill="#FACCC6"/>
      <path d="M179.672,128.311 L181.184,129.319 z" fill-opacity="0" stroke="#373435" stroke-width="1.313" stroke-linejoin="round"/>
    </g>
    <g id="polygon28362">
      <path d="M181.904,102.104 L184.064,101.168 z" fill="#FACCC6"/>
      <path d="M181.904,102.104 L184.064,101.168 z" fill-opacity="0" stroke="#373435" stroke-width="1.313" stroke-linejoin="round"/>
    </g>
    <g id="path28364">
      <path d="M157.64,40.186 C157.64,40.186 165.344,44.002 168.944,47.241 C168.944,47.241 164.12,49.689 160.664,46.737 C157.209,43.786 157.64,40.114 157.64,40.114 z" fill="#9D7371"/>
      <path d="M157.64,40.186 C157.64,40.186 165.344,44.002 168.944,47.241 C168.944,47.241 164.12,49.689 160.664,46.737 C157.209,43.786 157.64,40.114 157.64,40.114 z" fill-opacity="0" stroke="#373435" stroke-width="1" stroke-linejoin="round"/>
    </g>
    <g id="path28366">
      <path d="M68.507,167.838 C68.507,167.838 63.611,164.958 61.163,160.35 C61.163,160.35 64.979,158.263 67.787,161.862 C70.595,165.462 68.507,167.838 68.507,167.838 z" fill="#9D7371"/>
      <path d="M68.507,167.838 C68.507,167.838 63.611,164.958 61.163,160.35 C61.163,160.35 64.979,158.263 67.787,161.862 C70.595,165.462 68.507,167.838 68.507,167.838 z" fill-opacity="0" stroke="#373435" stroke-width="1" stroke-linejoin="round"/>
    </g>
    <g id="g28374">
      <g id="path28368">
        <path d="M96.73,171.078 C97.666,170.07 99.394,169.566 101.194,169.782 C103.786,170.142 105.73,171.942 105.442,173.814 C105.226,175.686 102.85,176.91 100.258,176.55 C98.386,176.334 96.874,175.326 96.298,174.102 z" fill="#FCD2B5"/>
        <path d="M96.73,171.078 C97.666,170.07 99.394,169.566 101.194,169.782 C103.786,170.142 105.73,171.942 105.442,173.814 C105.226,175.686 102.85,176.91 100.258,176.55 C98.386,176.334 96.874,175.326 96.298,174.102 z" fill-opacity="0" stroke="#373435" stroke-width="1.345" stroke-linejoin="round"/>
      </g>
      <g id="path28370">
        <path d="M105.802,172.878 C105.802,172.878 104.506,170.574 103.498,170.358 C102.922,169.782 101.41,174.102 99.61,173.166 C99.61,173.166 95.29,171.726 97.018,174.75 C98.674,177.846 104.938,176.334 104.938,176.334 z" fill="#FCD2B5"/>
        <path d="M105.802,172.878 C105.802,172.878 104.506,170.574 103.498,170.358 C102.922,169.782 101.41,174.102 99.61,173.166 C99.61,173.166 95.29,171.726 97.018,174.75 C98.674,177.846 104.938,176.334 104.938,176.334 z" fill-opacity="0" stroke="#373435" stroke-width="1.3" stroke-linejoin="round"/>
      </g>
    </g>
    <g id="g28382">
      <g id="path28376">
        <path d="M162.824,151.063 C162.464,149.767 162.896,148.039 164.048,146.599 C165.704,144.583 168.224,143.863 169.736,145.015 C171.176,146.239 171.032,148.831 169.376,150.847 C168.224,152.287 166.568,153.079 165.2,152.935 L162.824,150.991 z" fill="#FCD2B5"/>
        <path d="M162.824,151.063 C162.464,149.767 162.896,148.039 164.048,146.599 C165.704,144.583 168.224,143.863 169.736,145.015 C171.176,146.239 171.032,148.831 169.376,150.847 C168.224,152.287 166.568,153.079 165.2,152.935 L162.824,150.991 z" fill-opacity="0" stroke="#373435" stroke-width="1.345" stroke-linejoin="round"/>
      </g>
      <g id="path28378">
        <path d="M169.088,144.295 C169.088,144.295 166.496,144.223 165.704,144.943 C164.912,145.159 167.864,148.687 166.064,149.695 C166.064,149.695 162.608,152.575 166.064,152.791 C169.52,152.935 171.608,146.815 171.608,146.815 z" fill="#FCD2B5"/>
        <path d="M169.088,144.295 C169.088,144.295 166.496,144.223 165.704,144.943 C164.912,145.159 167.864,148.687 166.064,149.695 C166.064,149.695 162.608,152.575 166.064,152.791 C169.52,152.935 171.608,146.815 171.608,146.815 z" fill-opacity="0" stroke="#373435" stroke-width="1.3" stroke-linejoin="round"/>
      </g>
    </g>
    <g id="g28390">
      <g id="path28384">
        <path d="M177.152,84.608 C175.856,84.248 174.56,83.024 173.84,81.297 C172.904,78.849 173.552,76.257 175.352,75.609 C177.08,74.961 179.312,76.401 180.248,78.849 C180.896,80.577 180.752,82.377 180.032,83.528 z" fill="#FCD2B5"/>
        <path d="M177.152,84.608 C175.856,84.248 174.56,83.024 173.84,81.297 C172.904,78.849 173.552,76.257 175.352,75.609 C177.08,74.961 179.312,76.401 180.248,78.849 C180.896,80.577 180.752,82.377 180.032,83.528 z" fill-opacity="0" stroke="#373435" stroke-width="1.345" stroke-linejoin="round"/>
      </g>
      <g id="path28386">
        <path d="M174.344,75.753 C174.344,75.753 172.976,77.985 173.264,78.993 C173.048,79.785 177.584,78.993 177.584,81.081 C177.584,81.081 178.376,85.544 180.248,82.593 C182.12,79.641 177.872,74.817 177.872,74.817 L174.416,75.753 z" fill="#FCD2B5"/>
        <path d="M174.344,75.753 C174.344,75.753 172.976,77.985 173.264,78.993 C173.048,79.785 177.584,78.993 177.584,81.081 C177.584,81.081 178.376,85.544 180.248,82.593 C182.12,79.641 177.872,74.817 177.872,74.817 L174.416,75.753 z" fill-opacity="0" stroke="#373435" stroke-width="1.3" stroke-linejoin="round"/>
      </g>
    </g>
    <g id="g28398">
      <g id="path28392">
        <path d="M127.905,37.09 C127.041,38.17 125.385,38.746 123.513,38.602 C120.849,38.386 118.906,36.73 119.05,34.858 C119.194,32.986 121.425,31.618 124.089,31.834 C125.961,31.978 127.473,32.842 128.193,34.066 L127.977,37.09 z" fill="#FCD2B5"/>
        <path d="M127.905,37.09 C127.041,38.17 125.385,38.746 123.513,38.602 C120.849,38.386 118.906,36.73 119.05,34.858 C119.194,32.986 121.425,31.618 124.089,31.834 C125.961,31.978 127.473,32.842 128.193,34.066 L127.977,37.09 z" fill-opacity="0" stroke="#373435" stroke-width="1.345" stroke-linejoin="round"/>
      </g>
      <g id="path28394">
        <path d="M118.762,35.794 C118.762,35.794 120.201,38.026 121.209,38.17 C121.857,38.674 123.081,34.282 124.881,35.146 C124.881,35.146 129.273,36.37 127.401,33.418 C125.529,30.466 119.338,32.266 119.338,32.266 L118.69,35.794 z" fill="#FCD2B5"/>
        <path d="M118.762,35.794 C118.762,35.794 120.201,38.026 121.209,38.17 C121.857,38.674 123.081,34.282 124.881,35.146 C124.881,35.146 129.273,36.37 127.401,33.418 C125.529,30.466 119.338,32.266 119.338,32.266 L118.69,35.794 z" fill-opacity="0" stroke="#373435" stroke-width="1.3" stroke-linejoin="round"/>
      </g>
    </g>
    <g id="g28406">
      <g id="path28400">
        <path d="M62.387,56.457 C62.963,57.681 62.747,59.481 61.811,61.065 C60.443,63.297 58.067,64.377 56.411,63.369 C54.827,62.433 54.611,59.769 55.907,57.537 C56.843,55.953 58.355,54.945 59.723,54.873 L62.315,56.457 z" fill="#FCD2B5"/>
        <path d="M62.387,56.457 C62.963,57.681 62.747,59.481 61.811,61.065 C60.443,63.297 58.067,64.377 56.411,63.369 C54.827,62.433 54.611,59.769 55.907,57.537 C56.843,55.953 58.355,54.945 59.723,54.873 L62.315,56.457 z" fill-opacity="0" stroke="#373435" stroke-width="1.345" stroke-linejoin="round"/>
      </g>
      <g id="path28402">
        <path d="M57.203,64.089 C57.203,64.089 59.795,63.801 60.443,62.937 C61.163,62.577 57.779,59.553 59.435,58.257 C59.435,58.257 62.459,54.873 59.003,55.233 C55.547,55.593 54.395,61.929 54.395,61.929 L57.275,64.089 z" fill="#FCD2B5"/>
        <path d="M57.203,64.089 C57.203,64.089 59.795,63.801 60.443,62.937 C61.163,62.577 57.779,59.553 59.435,58.257 C59.435,58.257 62.459,54.873 59.003,55.233 C55.547,55.593 54.395,61.929 54.395,61.929 L57.275,64.089 z" fill-opacity="0" stroke="#373435" stroke-width="1.3" stroke-linejoin="round"/>
      </g>
    </g>
    <g id="g28414">
      <g id="path28408">
        <path d="M46.259,123.703 C47.627,123.847 49.067,124.855 50.003,126.511 C51.299,128.815 51.011,131.407 49.355,132.343 C47.699,133.279 45.323,132.127 44.027,129.823 C43.092,128.167 43.02,126.439 43.596,125.143 L46.259,123.631 z" fill="#FCD2B5"/>
        <path d="M46.259,123.703 C47.627,123.847 49.067,124.855 50.003,126.511 C51.299,128.815 51.011,131.407 49.355,132.343 C47.699,133.279 45.323,132.127 44.027,129.823 C43.092,128.167 43.02,126.439 43.596,125.143 L46.259,123.631 z" fill-opacity="0" stroke="#373435" stroke-width="1.345" stroke-linejoin="round"/>
      </g>
      <g id="path28410">
        <path d="M50.219,132.055 C50.219,132.055 51.299,129.679 50.867,128.671 C50.939,127.879 46.619,129.247 46.331,127.231 C46.331,127.231 44.891,122.911 43.452,126.079 C42.012,129.247 46.907,133.423 46.907,133.423 z" fill="#FCD2B5"/>
        <path d="M50.219,132.055 C50.219,132.055 51.299,129.679 50.867,128.671 C50.939,127.879 46.619,129.247 46.331,127.231 C46.331,127.231 44.891,122.911 43.452,126.079 C42.012,129.247 46.907,133.423 46.907,133.423 z" fill-opacity="0" stroke="#373435" stroke-width="1.3" stroke-linejoin="round"/>
      </g>
    </g>
    <path d="M96.442,13.402 L84.058,5.771 C84.058,5.771 89.314,12.106 96.442,13.402 z" fill="#BD9E83" id="path28416"/>
    <path d="M84.058,5.771 C84.058,5.771 89.314,12.106 96.442,13.402" fill-opacity="0" stroke="#373435" stroke-width="1.313" stroke-linecap="round" stroke-linejoin="round" id="path28418"/>
    <path d="M95.794,9.658 L90.466,7.426 C90.466,7.426 94.282,9.586 95.794,9.658 z" fill="#BD9E83" id="path28420"/>
    <path d="M90.466,7.426 C90.466,7.426 94.282,9.586 95.794,9.658" fill-opacity="0" stroke="#373435" stroke-width="1.313" stroke-linecap="round" stroke-linejoin="round" id="path28422"/>
    <path d="M75.131,20.53 L76.571,6.131 C76.571,6.131 73.187,14.626 75.131,20.53 z" fill="#BD9E83" id="path28424"/>
    <path d="M76.571,6.131 C76.571,6.131 73.187,14.626 75.131,20.53" fill-opacity="0" stroke="#373435" stroke-width="1.313" stroke-linecap="round" stroke-linejoin="round" id="path28426"/>
    <path d="M69.731,23.482 L68.651,15.778 C68.651,16.21 68.147,20.314 69.731,23.482 z" fill="#BD9E83" id="path28428"/>
    <path d="M68.651,15.778 C68.651,16.21 68.147,20.314 69.731,23.482" fill-opacity="0" stroke="#373435" stroke-width="1.313" stroke-linecap="round" stroke-linejoin="round" id="path28430"/>
    <path d="M66.491,25.21 L65.555,21.25 C65.555,21.25 66.131,24.706 66.491,25.21 z" fill="#BD9E83" id="path28432"/>
    <path d="M65.555,21.25 C65.555,21.25 66.131,24.706 66.491,25.21" fill-opacity="0" stroke="#373435" stroke-width="1.313" stroke-linecap="round" stroke-linejoin="round" id="path28434"/>
    <path d="M174.992,30.394 L170.96,18.802 C170.888,19.018 172.256,25.714 174.992,30.394 z" fill="#FCD2B5" id="path28436"/>
    <path d="M170.96,18.802 C170.888,19.018 172.256,25.714 174.992,30.394" fill-opacity="0" stroke="#373435" stroke-width="1.313" stroke-linecap="round" stroke-linejoin="round" id="path28438"/>
    <path d="M177.44,26.866 L174.344,18.082 C174.344,18.082 176.072,24.49 177.44,26.866 z" fill="#FCD2B5" id="path28440"/>
    <path d="M174.272,18.01 C174.272,18.01 176,24.418 177.368,26.794" fill-opacity="0" stroke="#373435" stroke-width="1.313" stroke-linecap="round" stroke-linejoin="round" id="path28442"/>
    <path d="M151.161,45.369 L150.657,49.617 L155.481,50.265 L156.705,55.089 L160.736,53.937" fill-opacity="0" stroke="#373435" stroke-width="1.313" stroke-linecap="round" stroke-linejoin="round" id="polyline28444"/>
    <path d="M79.307,42.562 C79.307,42.562 83.554,45.945 86.794,44.218 C86.794,44.218 88.378,43.21 88.594,41.338 C88.594,41.338 90.97,42.49 92.698,41.77 C94.138,41.194 95.074,38.458 95.074,36.298" fill-opacity="0" stroke="#373435" stroke-width="1.313" stroke-linecap="round" stroke-linejoin="round" id="path28446"/>
    <path d="M45.971,91.448 C45.971,95.768 43.524,99.224 40.428,99.224 C37.404,99.224 34.884,95.768 34.884,91.448 C34.884,87.128 37.332,83.672 40.428,83.672 C43.452,83.672 45.971,87.128 45.971,91.448" fill-opacity="0" stroke="#373435" stroke-width="1.313" stroke-linecap="round" stroke-linejoin="round" id="path28448"/>
    <g id="path28450">
      <path d="M22.716,106.856 C22.716,106.856 22.14,107.576 21.492,109.736 C21.492,109.736 5.005,108.368 1.765,95.696 C1.765,95.696 -1.475,86.984 3.205,80.865 C3.205,80.865 4.501,69.345 19.044,69.345 C19.044,69.345 25.812,67.905 30.204,72.153 L28.116,80.793 z" fill="#BD9E83"/>
      <path d="M22.716,106.856 C22.716,106.856 22.14,107.576 21.492,109.736 C21.492,109.736 5.005,108.368 1.765,95.696 C1.765,95.696 -1.475,86.984 3.205,80.865 C3.205,80.865 4.501,69.345 19.044,69.345 C19.044,69.345 25.812,67.905 30.204,72.153 L28.116,80.793 z" fill-opacity="0" stroke="#373435" stroke-width="1.313" stroke-linejoin="round"/>
    </g>
    <g id="path28452">
      <path d="M21.996,108.296 C21.852,109.52 22.428,111.248 25.164,110.96 C28.548,110.6 29.988,106.928 30.204,106.28 C28.476,107 26.172,106.64 22.572,106.28 z" fill="#FCD2B5"/>
      <path d="M21.996,108.296 C21.852,109.52 22.428,111.248 25.164,110.96 C28.548,110.6 29.988,106.928 30.204,106.28 C28.476,107 26.172,106.64 22.572,106.28 z" fill-opacity="0" stroke="#373435" stroke-width="1.313" stroke-linejoin="round"/>
    </g>
    <g id="path28456">
      <path d="M28.26,72.153 C28.548,71.001 29.772,69.561 32.148,70.785 C35.172,72.369 35.172,76.257 35.172,76.977 C33.876,75.681 31.572,75.177 28.044,74.241 L28.188,72.153 z" fill="#FCD2B5"/>
      <path d="M28.26,72.153 C28.548,71.001 29.772,69.561 32.148,70.785 C35.172,72.369 35.172,76.257 35.172,76.977 C33.876,75.681 31.572,75.177 28.044,74.241 L28.188,72.153 z" fill-opacity="0" stroke="#373435" stroke-width="1.313" stroke-linejoin="round"/>
    </g>
    <g id="path28460">
      <path d="M43.524,86.336 C41.148,80.145 37.116,76.329 27.252,74.241 C27.252,74.241 24.588,73.449 24.588,75.465 C23.436,77.193 21.924,80.217 21.924,80.217 C20.7,81.585 16.092,81.873 16.092,81.873 L20.7,83.384 C19.116,87.272 18.54,96.272 18.54,96.272 C17.82,97.064 11.772,98.216 11.772,98.216 C13.14,98.72 18.54,99.8 18.54,99.8 C18.324,102.32 19.62,106.496 19.62,106.496 C35.46,109.088 43.38,101.744 43.955,90.944 C43.955,90.944 43.955,88.352 43.38,86.408 z" fill="#FCD2B5"/>
      <path d="M43.524,86.336 C41.148,80.145 37.116,76.329 27.252,74.241 C27.252,74.241 24.588,73.449 24.588,75.465 C23.436,77.193 21.924,80.217 21.924,80.217 C20.7,81.585 16.092,81.873 16.092,81.873 L20.7,83.384 C19.116,87.272 18.54,96.272 18.54,96.272 C17.82,97.064 11.772,98.216 11.772,98.216 C13.14,98.72 18.54,99.8 18.54,99.8 C18.324,102.32 19.62,106.496 19.62,106.496 C35.46,109.088 43.38,101.744 43.955,90.944 C43.955,90.944 43.955,88.352 43.38,86.408 z" fill-opacity="0" stroke="#373435" stroke-width="1.313" stroke-linejoin="round"/>
    </g>
    <path d="M34.884,84.104 C34.884,84.104 38.988,91.16 34.236,97.856" fill-opacity="0" stroke="#373435" stroke-width="1" stroke-linecap="round" stroke-linejoin="round" id="path28466"/>
    <path d="M8.532,91.52 L9.252,91.808 L9.9,92.096 L10.62,92.384 L11.34,92.6 L11.988,92.888 L12.708,93.104 L13.428,93.32 L14.148,93.464 L14.94,93.68 L15.66,93.824 L16.38,93.968 L17.1,94.04 L17.892,94.04 L18.612,94.04" fill-opacity="0" stroke="#373435" stroke-width="1.313" stroke-linecap="round" stroke-linejoin="round" id="polyline28468"/>
    <path d="M14.292,89.504 L15.012,89.72 L15.732,89.936 L16.452,90.152 L17.244,90.368 L17.964,90.512 L18.756,90.584" fill-opacity="0" stroke="#373435" stroke-width="1.313" stroke-linecap="round" stroke-linejoin="round" id="polyline28472"/>
    <path d="M16.38,77.409 L17.1,77.553 L17.82,77.769 L18.54,77.913 L19.26,78.129 L20.052,78.345 L20.7,78.633 L21.42,78.849 L22.068,79.281" fill-opacity="0" stroke="#373435" stroke-width="1.313" stroke-linecap="round" stroke-linejoin="round" id="polyline28476"/>
    <path d="M20.916,74.745 L21.564,74.961 L22.212,75.177 L22.86,75.465 L23.508,75.681 L24.084,76.041" fill-opacity="0" stroke="#373435" stroke-width="1.313" stroke-linecap="round" stroke-linejoin="round" id="polyline28480"/>
    <path d="M15.156,104.048 L15.876,104.192 L16.668,104.336 L17.46,104.48 L18.18,104.552 L18.972,104.624" fill-opacity="0" stroke="#373435" stroke-width="1.313" stroke-linecap="round" stroke-linejoin="round" id="polyline28484"/>
    <g id="g28502">
      <path d="M27.396,95.696 C27.972,95.696 28.26,97.28 28.188,99.08 C28.044,100.88 27.54,102.392 26.964,102.32 C26.388,102.248 26.1,100.808 26.244,98.936 C26.388,97.136 26.892,95.624 27.468,95.696 z" fill="#F8B7B3" fill-opacity="0.702" id="path28488"/>
      <path d="M26.028,98.432 L23.652,98.144 C23.652,98.144 24.3,98.288 26.028,98.432 z" fill="#FEFEFE" id="path28490"/>
      <path d="M23.652,98.072 C23.652,98.072 24.3,98.216 26.028,98.36" fill-opacity="0" stroke="#373435" stroke-width="1.535" stroke-linecap="round" stroke-linejoin="round" id="path28492"/>
      <path d="M28.908,79.641 C29.484,79.641 29.844,81.153 29.844,82.952 C29.772,84.752 29.34,86.264 28.764,86.264 C28.188,86.264 27.828,84.752 27.828,82.952 C27.9,81.153 28.332,79.641 28.908,79.641 z" fill="#F8B7B3" fill-opacity="0.702" id="path28494"/>
      <path d="M27.684,83.744 L25.596,83.384 C25.596,83.384 25.956,83.528 27.684,83.744 z" fill="#FEFEFE" id="path28496"/>
      <path d="M25.524,83.384 C25.524,83.384 25.884,83.528 27.612,83.744" fill-opacity="0" stroke="#373435" stroke-width="1.535" stroke-linecap="round" stroke-linejoin="round" id="path28498"/>
      <path d="M26.82,90.944 C28.548,90.512 27.252,94.04 28.836,93.68 C29.916,93.464 29.916,91.016 29.916,90.152" fill-opacity="0" stroke="#373435" stroke-width="1.06" stroke-linecap="round" stroke-linejoin="round" id="path28500"/>
    </g>
    <path d="M71.819,154.231 C71.819,154.663 71.459,154.951 71.099,154.951 C70.667,154.951 70.379,154.591 70.379,154.231 C70.379,153.799 70.739,153.511 71.099,153.511 C71.531,153.511 71.819,153.871 71.819,154.231 z" fill="#373435" id="path28504"/>
    <path d="M73.187,151.783 C73.187,152.071 72.971,152.287 72.683,152.287 C72.395,152.287 72.179,152.071 72.179,151.783 C72.179,151.495 72.395,151.279 72.683,151.279 C72.971,151.279 73.187,151.495 73.187,151.783 z" fill="#373435" id="path28506"/>
    <path d="M134.097,173.238 L135.033,166.11 L142.089,170.358 L134.313,173.454" fill-opacity="0" stroke="#373435" stroke-width="1.313" stroke-linecap="round" stroke-linejoin="round" id="polyline28508"/>
    <g id="g28556">
      <g id="path28510">
        <path d="M150.297,210.389 C150.297,210.389 156.633,208.301 160.808,203.621 C165.344,198.581 167.504,190.518 160.304,179.142 L127.257,190.734 C127.257,190.734 127.617,207.653 140.361,210.605 C143.097,211.253 146.409,211.253 150.297,210.317 z" fill="#BD9E83"/>
        <path d="M150.297,210.389 C150.297,210.389 156.633,208.301 160.808,203.621 C165.344,198.581 167.504,190.518 160.304,179.142 L127.257,190.734 C127.257,190.734 127.617,207.653 140.361,210.605 C143.097,211.253 146.409,211.253 150.297,210.317 z" fill-opacity="0" stroke="#373435" stroke-width="1.313" stroke-linejoin="round"/>
      </g>
      <g id="path28512">
        <path d="M160.88,180.222 C161.96,179.718 163.256,178.35 161.6,176.118 C159.584,173.382 155.697,173.958 155.049,174.102 C156.561,175.182 157.352,177.414 158.864,180.654 L160.88,180.15 z" fill="#FCD2B5"/>
        <path d="M160.88,180.222 C161.96,179.718 163.256,178.35 161.6,176.118 C159.584,173.382 155.697,173.958 155.049,174.102 C156.561,175.182 157.352,177.414 158.864,180.654 L160.88,180.15 z" fill-opacity="0" stroke="#373435" stroke-width="1.313" stroke-linejoin="round"/>
      </g>
      <g id="path28516">
        <path d="M126.537,192.966 C125.385,193.326 123.513,192.966 123.369,190.23 C123.225,186.846 126.609,184.83 127.185,184.542 C126.681,186.342 127.473,188.574 128.409,192.102 L126.537,193.038 z" fill="#FCD2B5"/>
        <path d="M126.537,192.966 C125.385,193.326 123.513,192.966 123.369,190.23 C123.225,186.846 126.609,184.83 127.185,184.542 C126.681,186.342 127.473,188.574 128.409,192.102 L126.537,193.038 z" fill-opacity="0" stroke="#373435" stroke-width="1.313" stroke-linejoin="round"/>
      </g>
      <g id="path28520">
        <path d="M128.769,192.75 C125.601,183.174 126.897,177.774 131.073,172.59 C132.513,171.15 134.745,169.782 134.745,169.782 C144.393,164.886 154.689,168.054 160.448,183.03 C160.448,183.03 163.688,193.83 155.049,199.301 L154.761,194.118 L149.001,201.461 L147.993,196.134 C147.993,196.134 145.113,201.821 144.465,203.261 C144.465,203.261 135.969,207.005 128.769,192.75 z" fill="#FCD2B5"/>
        <path d="M128.769,192.75 C125.601,183.174 126.897,177.774 131.073,172.59 C132.513,171.15 134.745,169.782 134.745,169.782 C144.393,164.886 154.689,168.054 160.448,183.03 C160.448,183.03 163.688,193.83 155.049,199.301 L154.761,194.118 L149.001,201.461 L147.993,196.134 C147.993,196.134 145.113,201.821 144.465,203.261 C144.465,203.261 135.969,207.005 128.769,192.75 z" fill-opacity="0" stroke="#373435" stroke-width="1.313" stroke-linejoin="round"/>
      </g>
      <path d="M134.817,178.782 C134.817,178.782 136.473,174.174 141.513,174.75" fill-opacity="0" stroke="#373435" stroke-width="1" stroke-linecap="round" stroke-linejoin="round" id="path28526"/>
      <g id="g28542">
        <path d="M147.345,181.878 C147.129,181.374 148.209,180.366 149.865,179.502 C151.521,178.71 153.033,178.422 153.249,178.926 C153.465,179.43 152.385,180.438 150.729,181.302 C149.073,182.094 147.561,182.382 147.345,181.878 z" fill="#F8B7B3" fill-opacity="0.702" id="path28528"/>
        <path d="M150.369,181.662 L151.305,183.894 C151.305,183.894 151.089,183.246 150.369,181.662 z" fill="#FEFEFE" id="path28530"/>
        <path d="M151.233,183.894 C151.233,183.894 151.017,183.246 150.297,181.662" fill-opacity="0" stroke="#373435" stroke-width="1.535" stroke-linecap="round" stroke-linejoin="round" id="path28532"/>
        <path d="M132.657,188.646 C132.369,188.142 133.449,187.062 135.105,186.198 C136.689,185.334 138.201,184.974 138.489,185.478 C138.777,185.982 137.697,187.062 136.041,187.926 C134.457,188.79 132.945,189.15 132.657,188.646 z" fill="#F8B7B3" fill-opacity="0.702" id="path28534"/>
        <path d="M136.833,187.638 L137.553,189.654 C137.553,189.654 137.481,189.222 136.833,187.638 z" fill="#FEFEFE" id="path28536"/>
        <path d="M137.553,189.654 C137.553,189.654 137.481,189.222 136.833,187.638" fill-opacity="0" stroke="#373435" stroke-width="1.535" stroke-linecap="round" stroke-linejoin="round" id="path28538"/>
        <path d="M143.529,184.758 C142.305,183.462 145.977,182.886 144.897,181.59 C144.177,180.798 142.017,182.022 141.297,182.382" fill-opacity="0" stroke="#373435" stroke-width="1.06" stroke-linecap="round" stroke-linejoin="round" id="path28540"/>
      </g>
      <path d="M146.985,201.677 L145.833,208.517 C145.833,208.517 145.401,205.205 146.985,201.677 z" fill="#BD9E83" id="path28544"/>
      <path d="M145.833,208.517 C145.833,208.517 145.401,205.205 146.985,201.677" fill-opacity="0" stroke="#373435" stroke-width="1.313" stroke-linecap="round" stroke-linejoin="round" id="path28546"/>
      <path d="M153.249,199.013 L149.577,207.437 C149.577,207.437 151.377,201.965 153.249,199.013 z" fill="#BD9E83" id="path28548"/>
      <path d="M149.577,207.509 C149.577,207.509 151.377,202.037 153.249,199.085" fill-opacity="0" stroke="#373435" stroke-width="1.313" stroke-linecap="round" stroke-linejoin="round" id="path28550"/>
      <path d="M156.849,200.597 L152.889,205.853 C152.889,205.853 154.257,201.821 156.849,200.597 z" fill="#BD9E83" id="path28552"/>
      <path d="M152.889,205.853 C152.889,205.853 154.257,201.821 156.849,200.597" fill-opacity="0" stroke="#373435" stroke-width="1.313" stroke-linecap="round" stroke-linejoin="round" id="path28554"/>
    </g>
    <g id="g28564">
      <path d="M182.624,108.8 C182.696,110.168 181.616,111.32 180.248,111.392 C178.88,111.464 177.728,110.384 177.656,109.016 C177.584,107.648 178.664,106.496 180.032,106.424 C181.4,106.352 182.552,107.432 182.624,108.8" fill-opacity="0" stroke="#373435" stroke-width="1.313" stroke-linecap="round" stroke-linejoin="round" id="path28558"/>
      <path d="M180.968,113.408 C181.04,114.776 179.96,115.928 178.592,116 C177.224,116.072 176.072,114.992 176,113.624 C175.928,112.256 177.008,111.104 178.376,111.032 C179.744,110.96 180.896,112.04 180.968,113.408" fill-opacity="0" stroke="#373435" stroke-width="1.313" stroke-linecap="round" stroke-linejoin="round" id="path28560"/>
      <path d="M181.4,118.232 C181.472,119.6 180.392,120.752 179.024,120.824 C177.656,120.896 176.504,119.816 176.432,118.448 C176.36,117.08 177.44,115.928 178.808,115.856 C180.176,115.784 181.328,116.864 181.4,118.232" fill-opacity="0" stroke="#373435" stroke-width="1.313" stroke-linecap="round" stroke-linejoin="round" id="path28562"/>
    </g>
    <g id="path28566">
      <path d="M196.015,135.367 C196.015,135.367 196.879,141.055 189.464,146.167 C189.464,146.167 188.168,143.431 187.736,142.495 L182.624,142.351 C182.624,142.351 183.2,135.655 194.216,133.135 L196.015,135.439 z" fill="#BD9E83"/>
      <path d="M196.015,135.367 C196.015,135.367 196.879,141.055 189.464,146.167 C189.464,146.167 188.168,143.431 187.736,142.495 L182.624,142.351 C182.624,142.351 183.2,135.655 194.216,133.135 L196.015,135.439 z" fill-opacity="0" stroke="#373435" stroke-width="1.313" stroke-linejoin="round"/>
    </g>
    <path d="M190.904,135.079 L187.016,139.615 C187.016,139.615 188.744,136.087 190.904,135.079 z" fill="#FEFEFE" id="path28568"/>
    <path d="M186.944,139.615 C186.944,139.615 188.672,136.087 190.832,135.079" fill-opacity="0" stroke="#373435" stroke-width="1.313" stroke-linecap="round" stroke-linejoin="round" id="path28570"/>
    <path d="M190.184,139.975 L192.92,134.791 C192.92,134.791 191.84,138.823 190.184,139.975 z" fill="#FEFEFE" id="path28572"/>
    <path d="M192.848,134.791 C192.848,134.791 191.768,138.823 190.112,139.975" fill-opacity="0" stroke="#373435" stroke-width="1.313" stroke-linecap="round" stroke-linejoin="round" id="path28574"/>
    <g id="path28576">
      <path d="M203.935,99.584 C203.935,99.584 207.391,95.048 203.359,86.984 C203.359,86.984 200.911,88.712 200.119,89.432 L195.511,87.128 C195.511,87.128 192.848,93.32 201.271,100.808 L203.935,99.656 z" fill="#BD9E83"/>
      <path d="M203.935,99.584 C203.935,99.584 207.391,95.048 203.359,86.984 C203.359,86.984 200.911,88.712 200.119,89.432 L195.511,87.128 C195.511,87.128 192.848,93.32 201.271,100.808 L203.935,99.656 z" fill-opacity="0" stroke="#373435" stroke-width="1.313" stroke-linejoin="round"/>
    </g>
    <path d="M202.279,98.648 L200.911,92.888 C200.911,92.888 202.351,95.552 202.279,98.648 z" fill="#FEFEFE" id="path28578"/>
    <path d="M200.911,92.96 C200.911,92.96 202.351,95.624 202.279,98.72" fill-opacity="0" stroke="#373435" stroke-width="1.313" stroke-linecap="round" stroke-linejoin="round" id="path28580"/>
    <path d="M199.759,96.2 L198.391,93.68 C198.391,93.68 198.679,95.048 199.759,96.2 z" fill="#FEFEFE" id="path28582"/>
    <path d="M198.391,93.608 C198.391,93.608 198.679,94.976 199.759,96.128" fill-opacity="0" stroke="#373435" stroke-width="1.313" stroke-linecap="round" stroke-linejoin="round" id="path28584"/>
    <g id="path28586">
      <path d="M199.327,98.72 C199.327,98.72 212.287,99.44 217.255,106.424 C219.415,109.448 223.663,116.792 216.679,126.007 C216.679,126.007 217.687,132.487 209.119,135.367 C204.943,136.735 199.183,137.239 190.544,133.639 L199.399,98.72 z" fill="#BD9E83"/>
      <path d="M199.327,98.72 C199.327,98.72 212.287,99.44 217.255,106.424 C219.415,109.448 223.663,116.792 216.679,126.007 C216.679,126.007 217.687,132.487 209.119,135.367 C204.943,136.735 199.183,137.239 190.544,133.639 L199.399,98.72 z" fill-opacity="0" stroke="#373435" stroke-width="1.313" stroke-linejoin="round"/>
    </g>
    <g id="path28588">
      <path d="M200.983,99.008 C201.199,97.784 200.695,95.984 197.959,96.2 C194.576,96.416 192.92,100.016 192.704,100.592 C194.432,99.944 196.735,100.448 200.335,101.024 L201.055,99.08 z" fill="#FCD2B5"/>
      <path d="M200.983,99.008 C201.199,97.784 200.695,95.984 197.959,96.2 C194.576,96.416 192.92,100.016 192.704,100.592 C194.432,99.944 196.735,100.448 200.335,101.024 L201.055,99.08 z" fill-opacity="0" stroke="#373435" stroke-width="1.313" stroke-linejoin="round"/>
    </g>
    <g id="path28592">
      <path d="M192.848,134.791 C192.488,135.943 191.192,137.311 188.888,135.943 C185.936,134.215 186.152,130.255 186.152,129.607 C187.376,130.975 189.68,131.551 193.136,132.703 z" fill="#FCD2B5"/>
      <path d="M192.848,134.791 C192.488,135.943 191.192,137.311 188.888,135.943 C185.936,134.215 186.152,130.255 186.152,129.607 C187.376,130.975 189.68,131.551 193.136,132.703 z" fill-opacity="0" stroke="#373435" stroke-width="1.313" stroke-linejoin="round"/>
    </g>
    <g id="path28596">
      <path d="M196.663,131.695 C196.519,133.711 193.928,132.775 193.928,132.775 C184.136,130.183 180.392,126.151 178.304,119.888 C177.872,117.872 177.944,115.28 177.944,115.28 C179.096,104.552 187.736,97.712 202.207,100.952 C202.207,100.952 202.999,117.296 211.063,123.559 C211.063,123.559 202.279,124.999 196.735,131.695 z" fill="#FCD2B5"/>
      <path d="M196.663,131.695 C196.519,133.711 193.928,132.775 193.928,132.775 C184.136,130.183 180.392,126.151 178.304,119.888 C177.872,117.872 177.944,115.28 177.944,115.28 C179.096,104.552 187.736,97.712 202.207,100.952 C202.207,100.952 202.999,117.296 211.063,123.559 C211.063,123.559 202.279,124.999 196.735,131.695 z" fill-opacity="0" stroke="#373435" stroke-width="1.313" stroke-linejoin="round"/>
    </g>
    <path d="M184.64,118.952 C184.64,118.952 182.336,114.632 186.152,111.32" fill-opacity="0" stroke="#373435" stroke-width="1" stroke-linecap="round" stroke-linejoin="round" id="path28602"/>
    <path d="M206.743,107.36 C206.743,107.36 206.959,112.472 211.135,118.088" fill-opacity="0" stroke="#373435" stroke-width="1.313" stroke-linecap="round" stroke-linejoin="round" id="path28604"/>
    <path d="M210.199,110.456 C210.199,110.456 211.063,113.48 212.575,115.064" fill-opacity="0" stroke="#373435" stroke-width="1.313" stroke-linecap="round" stroke-linejoin="round" id="path28606"/>
    <path d="M199.399,133.423 L199.903,132.919 L200.407,132.415 L200.911,131.911 L201.415,131.479 L201.991,131.047 L202.567,130.543 L203.071,130.111 L203.647,129.679 L204.295,129.319 L204.871,128.959 L205.519,128.599 L206.167,128.311 L206.815,128.095 L207.535,127.879" fill-opacity="0" stroke="#373435" stroke-width="1.313" stroke-linecap="round" stroke-linejoin="round" id="polyline28608"/>
    <g id="g28626">
      <path d="M194.792,110.816 C194.216,110.672 194.072,109.088 194.504,107.216 C194.936,105.344 195.727,103.904 196.231,104.048 C196.807,104.192 196.951,105.776 196.519,107.648 C196.087,109.52 195.295,110.96 194.792,110.816 z" fill="#F8B7B3" fill-opacity="0.702" id="path28612"/>
      <path d="M196.663,108.224 L199.111,108.944 C199.111,108.944 198.463,108.728 196.663,108.224 z" fill="#FEFEFE" id="path28614"/>
      <path d="M199.039,108.872 C199.039,108.872 198.391,108.656 196.591,108.152" fill-opacity="0" stroke="#373435" stroke-width="1.616" stroke-linecap="round" stroke-linejoin="round" id="path28616"/>
      <path d="M190.76,127.303 C190.184,127.231 189.968,125.575 190.328,123.703 C190.616,121.831 191.336,120.32 191.912,120.464 C192.488,120.536 192.704,122.191 192.344,124.063 C192.056,125.935 191.336,127.447 190.76,127.303 z" fill="#F8B7B3" fill-opacity="0.702" id="path28618"/>
      <path d="M192.704,123.199 L194.863,123.919 C194.863,123.919 194.504,123.703 192.704,123.199 z" fill="#FEFEFE" id="path28620"/>
      <path d="M194.864,123.919 C194.864,123.919 194.504,123.703 192.704,123.199" fill-opacity="0" stroke="#373435" stroke-width="1.616" stroke-linecap="round" stroke-linejoin="round" id="path28622"/>
      <path d="M194.72,115.856 C192.92,116 194.792,112.544 192.992,112.688 C191.84,112.76 191.48,115.352 191.336,116.144" fill-opacity="0" stroke="#373435" stroke-width="1.116" stroke-linecap="round" stroke-linejoin="round" id="path28624"/>
    </g>
    <path d="M215.815,125.935 L215.095,125.719 L214.447,125.503 L213.727,125.215 L213.079,124.855 L212.431,124.567 L211.783,124.207 L211.135,123.847 L210.487,123.487 L209.839,123.055 L209.263,122.623 L208.687,122.191 L208.111,121.759 L207.535,121.255 L207.031,120.752 L206.455,120.248 L205.879,119.744 L205.447,119.168 L204.943,118.592 L204.439,118.088 L204.007,117.44 L203.503,116.936 L203.071,116.288 L202.639,115.712 L202.279,115.064 L201.847,114.416 L201.487,113.768 L201.127,113.12" fill-opacity="0" stroke="#373435" stroke-width="1.313" stroke-linecap="round" stroke-linejoin="round" id="polyline28628"/>
    <path d="M209.479,123.343 L208.831,123.055 L208.111,122.839 L207.463,122.551 L206.815,122.263 L206.167,121.975 L205.519,121.615 L204.871,121.255 L204.223,120.896 L203.647,120.536 L203.071,120.032 L202.495,119.6 L201.991,119.096 L201.487,118.592 L201.055,118.016" fill-opacity="0" stroke="#373435" stroke-width="1.313" stroke-linecap="round" stroke-linejoin="round" id="polyline28632"/>
    <path d="M35.892,175.686 L28.62,176.838 C28.62,176.838 32.58,173.238 35.892,175.686 z" fill="#BD9E83" id="path28636"/>
    <path d="M28.62,176.91 C28.62,176.91 32.58,173.31 35.892,175.758" fill-opacity="0" stroke="#373435" stroke-width="1.313" stroke-linecap="round" stroke-linejoin="round" id="path28638"/>
    <path d="M36.684,179.358 L32.148,178.278 C32.148,178.278 34.74,176.91 36.684,179.358 z" fill="#BD9E83" id="path28640"/>
    <path d="M32.148,178.278 C32.148,178.278 34.74,176.91 36.684,179.358" fill-opacity="0" stroke="#373435" stroke-width="1.313" stroke-linecap="round" stroke-linejoin="round" id="path28642"/>
  </g>
</svg>
