<?xml version="1.0" encoding="UTF-8" standalone="no"?>
<!-- Created with Inkscape (http://www.inkscape.org/) -->

<svg
   xmlns:dc="http://purl.org/dc/elements/1.1/"
   xmlns:cc="http://creativecommons.org/ns#"
   xmlns:rdf="http://www.w3.org/1999/02/22-rdf-syntax-ns#"
   xmlns:svg="http://www.w3.org/2000/svg"
   xmlns="http://www.w3.org/2000/svg"
   xmlns:sodipodi="http://sodipodi.sourceforge.net/DTD/sodipodi-0.dtd"
   xmlns:inkscape="http://www.inkscape.org/namespaces/inkscape"
   version="1.1"
   id="svg57946"
   xml:space="preserve"
   width="800"
   height="800"
   viewBox="0 0 800 800"
   sodipodi:docname="logo-concept-10-publicdomainvectors.org.svg"
   inkscape:version="0.92.4 (5da689c313, 2019-01-14)"><metadata
     id="metadata57952"><rdf:RDF><cc:Work
         rdf:about=""><dc:format>image/svg+xml</dc:format><dc:type
           rdf:resource="http://purl.org/dc/dcmitype/StillImage" /><dc:title></dc:title></cc:Work></rdf:RDF></metadata><defs
     id="defs57950"><clipPath
       clipPathUnits="userSpaceOnUse"
       id="clipPath57962"><path
         d="M 0,600 H 600 V 0 H 0 Z"
         id="path57960"
         inkscape:connector-curvature="0" /></clipPath><linearGradient
       x1="0"
       y1="0"
       x2="1"
       y2="0"
       gradientUnits="userSpaceOnUse"
       gradientTransform="matrix(293.27979,0,0,-293.27979,167.67236,346.21582)"
       spreadMethod="pad"
       id="linearGradient57986"><stop
         style="stop-opacity:1;stop-color:#1aaeec"
         offset="0"
         id="stop57976" /><stop
         style="stop-opacity:1;stop-color:#4253a7"
         offset="0.297753"
         id="stop57978" /><stop
         style="stop-opacity:1;stop-color:#e70c8d"
         offset="0.646067"
         id="stop57980" /><stop
         style="stop-opacity:1;stop-color:#e33c47"
         offset="0.955056"
         id="stop57982" /><stop
         style="stop-opacity:1;stop-color:#e33c47"
         offset="1"
         id="stop57984" /></linearGradient></defs><sodipodi:namedview
     pagecolor="#ffffff"
     bordercolor="#666666"
     borderopacity="1"
     objecttolerance="10"
     gridtolerance="10"
     guidetolerance="10"
     inkscape:pageopacity="0"
     inkscape:pageshadow="2"
     inkscape:window-width="797"
     inkscape:window-height="480"
     id="namedview57948"
     showgrid="false"
     inkscape:zoom="0.295"
     inkscape:cx="400"
     inkscape:cy="400"
     inkscape:window-x="0"
     inkscape:window-y="0"
     inkscape:window-maximized="0"
     inkscape:current-layer="g57954" /><g
     id="g57954"
     inkscape:groupmode="layer"
     inkscape:label="logo-concept-10-publicdomainvectors.org"
     transform="matrix(1.3333333,0,0,-1.3333333,0,800)"><g
       id="g57956"><g
         id="g57958"
         clip-path="url(#clipPath57962)"><g
           id="g57964"><g
             id="g57966"><g
               id="g57972"><g
                 id="g57974"><path
                   d="m 406.219,270.085 c -9.075,5.211 -16.255,12.913 -24.791,25.093 32.615,-3.534 43.37,-10.945 58.18,-35.052 -13.799,2.443 -24.295,4.74 -33.389,9.959 m -61.392,-15.338 c 37.211,-2.854 49.245,-9.437 64.819,-34.113 -35.732,3.283 -48.003,9.03 -64.819,34.113 m 31.739,40.612 c 6.372,-24.533 0.276,-31.367 -33.306,-36.757 -3.224,25.646 3.054,32.65 33.306,36.757 m -72.375,-78.32 c -2.645,25.494 3.98,32.517 35.392,37.698 5.063,-25.471 -1.512,-32.626 -35.392,-37.698 m -25.043,75.703 c 33.76,-3.067 44.692,-9.406 59.054,-34.345 -34.262,3.168 -45.465,9.357 -59.054,34.345 m -32.954,-40.877 c 29.863,-4.057 39.78,-9.936 53.162,-34.95 -31.198,3.297 -41.248,10.116 -53.162,34.95 m 28.466,40.823 c 3.47,-25.51 -2.09,-32.285 -29.527,-37.055 -1.906,24.721 3.594,31.839 29.527,37.055 m -54.3,-75.555 c -2.911,23.634 1.212,30.303 22.039,34.771 3.484,-25.377 -0.671,-31.863 -22.039,-34.771 m -17.352,72.414 c 21.01,-4.01 28.17,-9.469 38.389,-33.992 -22.873,3.224 -30.163,10.061 -38.389,33.992 m 20.67,40.108 c 2.022,-25.165 -2.061,-31.482 -21.422,-36.45 -1.5,23.83 2.498,31.028 21.422,36.45 M 187.84,255.727 c -2.919,22.559 -0.557,29.344 12.627,33.804 2.637,-24.847 0.248,-30.612 -12.627,-33.804 m -12.703,69.652 c 12.784,-3.611 17.412,-8.482 24.589,-32.254 -14.624,2.818 -19.33,9.482 -24.589,32.254 m 47.814,7.886 c -20.255,2.226 -26.51,8.421 -32.652,31.856 18.686,-2.27 24.643,-7.747 32.652,-31.856 m 29.912,41.175 c -24.416,2.398 -31.945,8.229 -39.275,31.885 22.93,-1.955 30.106,-7.883 39.275,-31.885 m 31.737,39.716 c -26.057,3.557 -34.419,9.121 -43.23,32.643 24.843,-2.659 32.715,-9.116 43.23,-32.643 m 27.874,35.881 c -24.636,5.692 -33.271,11.102 -43.693,34.141 24.053,-4.223 31.929,-11.321 43.693,-34.141 m -23.966,-35.782 c -2.072,23.834 2.658,30.404 25.204,32.448 5.598,-22.765 0.931,-28.292 -25.204,-32.448 m 44.473,63.084 c 7.991,-21.097 5.011,-25.624 -16.964,-27.506 -4.257,22.68 -0.898,28.598 16.964,27.506 m 33.228,-67.738 c -24.642,7.964 -34.522,13.183 -48.769,36.677 25.911,-5.531 34.707,-13.485 48.769,-36.677 m 12.794,24.748 c 10.189,-20.495 8.906,-24.592 -9.416,-25.233 -7.048,22.998 -4.414,29.113 9.416,25.233 m 18.495,-42.537 c 6.231,-5.753 11.748,-13.418 18.851,-25.064 -8.62,4.564 -16.376,7.777 -23.513,13.511 -7.148,5.757 -13.483,13.419 -21.471,25.172 12.318,-3.624 19.865,-7.84 26.133,-13.619 m -49.499,-19.774 c 29.929,-4.628 39.984,-12.491 54.809,-36.316 -27.815,7.036 -38.662,12.11 -54.809,36.316 m 27.044,-73.109 c -33.271,4.375 -44.738,10.024 -59.829,34.785 33.846,-3.289 44.883,-10.266 59.829,-34.785 m -7.231,107.334 c 8.192,-22.207 4.4,-27.465 -21.458,-30.496 -4.651,24.121 -0.464,30.514 21.458,30.496 M 343.586,372.36 c 6.102,-23.837 0.633,-30.016 -29.743,-34.862 -2.687,24.938 2.892,31.848 29.743,34.862 m -53.925,38.236 c 29.304,-3.728 38.903,-10.877 52.516,-34.757 -29.449,5.153 -39.646,10.685 -52.516,34.757 m 20.83,-76.854 c 4.382,-25.002 -1.7,-31.701 -32.539,-37.193 -1.755,25.208 4.338,32.39 32.539,37.193 m -52.875,37.241 c 29.546,-2.723 39.054,-9.204 51.668,-33.636 -30.512,3.376 -40.405,9.25 -51.668,33.636 m 27.989,39.701 c 3.565,-24.167 -1.893,-30.401 -28.913,-35.988 -0.799,24.523 4.57,31.66 28.913,35.988 M 226.269,333.52 c -0.677,24.54 4.428,31.888 27.414,37.35 2.3,-24.99 -2.93,-31.477 -27.414,-37.35 m 47.313,-37.176 c -28.007,2.799 -36.856,9.113 -46.51,33.45 26.548,-2.82 35.126,-8.783 46.51,-33.45 m 130.891,35.931 c 4.189,-11.802 5.299,-19.274 2.013,-24.053 -3.374,-4.886 -11.622,-7.237 -26.773,-9.315 -4.892,25.243 -0.136,31.919 24.76,33.368 m 56.479,-41.335 c -10.877,6.357 -21.126,8.633 -30.501,15.674 -7.51,5.652 -14.126,13.503 -22.636,25.823 2.384,0.091 4.916,0.149 7.638,0.176 -3.109,0.754 -6.019,1.461 -8.791,2.145 -3.579,11.846 -4.684,19.059 -2.483,23.46 2.155,4.282 7.175,5.999 14.189,5.182 1.711,-2.862 3.513,-5.932 5.444,-9.264 -1.469,3.295 -2.798,6.304 -3.997,9.063 1.394,-0.223 2.85,-0.526 4.38,-0.935 -1.81,1.129 -3.58,2.152 -5.319,3.113 -4.752,11.074 -7.105,17.64 -7.154,21.132 -0.042,3.179 2.289,3.742 3.729,2.071 -3.282,7.269 -9.45,11.91 -15.522,18.982 -5.418,6.322 -11.132,14.237 -19.071,26.23 1.285,-0.41 2.648,-0.888 4.104,-1.44 -2.005,1.39 -3.899,2.67 -5.716,3.883 -1.824,2.779 -3.757,5.75 -5.835,8.974 1.477,-2.811 2.816,-5.382 4.037,-7.776 -16.88,11.18 -26.338,16.369 -41.828,39.707 1.773,-0.16 3.656,-0.369 5.687,-0.632 -2.551,1.03 -4.927,1.986 -7.18,2.905 -1.794,2.768 -3.665,5.763 -5.644,9.049 1.233,-2.926 2.336,-5.606 3.325,-8.097 -23.658,9.776 -31.307,15.345 -46.883,47.923 8.753,-31.184 7.48,-36.987 -17.629,-40.738 -1.151,2.681 -2.332,5.558 -3.569,8.697 0.54,-3.258 0.998,-6.244 1.372,-9.014 -2.86,-0.394 -6,-0.772 -9.443,-1.164 3.517,-0.427 6.751,-0.867 9.761,-1.337 2.824,-23.44 -1.928,-29.12 -25.295,-34.488 -0.974,2.763 -1.961,5.728 -2.989,8.96 0.309,-3.42 0.559,-6.557 0.741,-9.466 -2.871,-0.628 -5.992,-1.259 -9.399,-1.922 3.43,-0.201 6.59,-0.428 9.545,-0.691 1.22,-24.648 -3.633,-30.797 -25.473,-37.319 -0.812,2.805 -1.631,5.815 -2.481,9.091 0.204,-3.498 0.36,-6.707 0.465,-9.682 -2.525,-0.725 -5.245,-1.46 -8.208,-2.234 2.969,-0.115 5.711,-0.255 8.287,-0.43 0.625,-25.254 -3.473,-31.407 -21.186,-37.971 -0.69,2.809 -1.385,5.822 -2.109,9.097 0.223,-3.497 0.406,-6.7 0.545,-9.666 -1.899,-0.677 -3.926,-1.364 -6.127,-2.083 2.225,-0.166 4.289,-0.345 6.24,-0.546 0.994,-25.178 -1.815,-30.804 -13.61,-36.549 -0.605,2.762 -1.222,5.719 -1.871,8.927 0.34,-3.412 0.628,-6.529 0.871,-9.4 -1.12,-0.527 -2.308,-1.057 -3.584,-1.609 1.34,-0.318 2.597,-0.629 3.793,-0.944 2.13,-26.978 -0.345,-29.534 -5.9,-34.915 6.015,-6.997 10.694,-9.195 18.624,-35.525 -1.121,-0.248 -2.313,-0.482 -3.582,-0.713 1.532,-0.641 2.969,-1.245 4.339,-1.834 0.824,-2.823 1.681,-5.891 2.58,-9.257 -0.5,3.128 -0.94,6.014 -1.322,8.713 14.016,-6.132 19.894,-10.943 29.409,-35.475 -2.19,-0.256 -4.522,-0.487 -7.047,-0.7 2.875,-0.683 5.544,-1.328 8.065,-1.959 1.111,-2.945 2.271,-6.143 3.504,-9.648 -0.547,3.278 -1.018,6.298 -1.414,9.117 27.322,-7.04 34.338,-13.057 50.648,-49.466 -6.498,35.741 -3.781,43.641 29.756,49.181 1.547,-3.014 3.146,-6.261 4.841,-9.804 -0.573,3.51 -1.059,6.756 -1.446,9.773 43.756,-4.074 53.124,-11.358 73.372,-48.04 -7.438,37.563 -4.183,45.628 33.804,51.887 1.81,-2.993 3.683,-6.22 5.661,-9.715 -0.885,3.708 -1.651,7.109 -2.289,10.252 3.543,0.548 7.362,1.086 11.478,1.636 -4.25,0.289 -8.227,0.58 -11.967,0.883 -2.419,12.876 -2.275,20.978 2.177,26.522 4.4,5.454 12.546,8.237 24.812,9.983 1.736,-2.927 3.541,-6.07 5.453,-9.466 -1.108,3.55 -2.094,6.801 -2.954,9.801 2.565,0.323 5.277,0.612 8.18,0.875 -3.101,0.542 -6.037,1.045 -8.857,1.532 -3.387,12.261 -4.348,19.834 -1.965,24.725 2.927,5.988 9.942,7.996 19.42,6.77 m -45.501,97.64 c 0.4,-0.884 0.764,-1.799 1.071,-2.769 -0.119,1.225 -0.535,2.147 -1.071,2.769"
                   style="fill:url(#linearGradient57986);stroke:none"
                   id="path57988"
                   inkscape:connector-curvature="0" /></g></g></g></g></g></g></g></svg>